<svg width="400" height="201" viewBox="0 0 400 201" fill="none" xmlns="http://www.w3.org/2000/svg">
<rect width="400" height="201" rx="10" fill="#0d0b01"/>
<path d="M140.603 53.72C141.355 53.72 141.987 53.656 142.499 53.528C143.027 53.4 143.451 53.224 143.771 53C144.091 52.776 144.315 52.512 144.443 52.208C144.587 51.92 144.659 51.616 144.659 51.296C144.659 50.944 144.563 50.64 144.371 50.384C144.195 50.128 143.875 50 143.411 50H139.667L139.787 47.888H148.235C148.587 47.888 148.763 48.232 148.763 48.92C148.763 49.64 148.587 50 148.235 50H146.003C146.211 50.176 146.347 50.392 146.411 50.648C146.491 50.904 146.531 51.2 146.531 51.536C146.531 51.968 146.435 52.432 146.243 52.928C146.051 53.424 145.731 53.88 145.283 54.296C144.851 54.728 144.275 55.088 143.555 55.376C142.835 55.664 141.939 55.808 140.867 55.808H138.395C136.603 55.808 135.211 55.256 134.219 54.152C133.227 53.048 132.731 51.536 132.731 49.616V45.368H134.675V49.544C134.675 50.792 134.987 51.8 135.611 52.568C136.235 53.336 137.259 53.72 138.683 53.72H140.603ZM150.426 47.888C151.002 47.888 151.45 47.736 151.77 47.432C152.106 47.128 152.274 46.696 152.274 46.136V43.064H154.242V46.232C154.242 47.448 153.914 48.384 153.258 49.04C152.618 49.68 151.722 50 150.57 50H148.242C148.034 50 147.898 49.92 147.834 49.76C147.754 49.584 147.714 49.328 147.714 48.992C147.714 48.608 147.754 48.328 147.834 48.152C147.898 47.976 148.034 47.888 148.242 47.888H150.426ZM153.738 54.752H151.626V52.736H153.738V54.752ZM150.474 54.752H148.338V52.736H150.474V54.752ZM159.035 53.72C159.691 53.72 160.267 53.616 160.763 53.408C161.259 53.216 161.667 52.952 161.987 52.616C162.323 52.28 162.579 51.888 162.755 51.44C162.931 50.992 163.035 50.512 163.067 50H161.027C160.211 50 159.539 49.912 159.011 49.736C158.483 49.56 158.067 49.304 157.763 48.968C157.459 48.632 157.243 48.224 157.115 47.744C157.003 47.248 156.947 46.696 156.947 46.088C156.947 45.48 157.035 44.904 157.211 44.36C157.387 43.8 157.643 43.312 157.979 42.896C158.315 42.48 158.731 42.152 159.227 41.912C159.739 41.656 160.331 41.528 161.003 41.528C161.531 41.528 162.035 41.616 162.515 41.792C163.011 41.968 163.443 42.248 163.811 42.632C164.179 43 164.467 43.488 164.675 44.096C164.899 44.704 165.011 45.44 165.011 46.304V47.888H167.147C167.339 47.888 167.467 47.976 167.531 48.152C167.611 48.312 167.651 48.568 167.651 48.92C167.651 49.288 167.611 49.56 167.531 49.736C167.467 49.912 167.339 50 167.147 50H164.963C164.931 50.784 164.771 51.528 164.483 52.232C164.211 52.936 163.827 53.552 163.331 54.08C162.835 54.608 162.235 55.024 161.531 55.328C160.827 55.648 160.043 55.808 159.179 55.808H156.683L156.539 53.72H159.035ZM158.819 45.968C158.819 46.656 158.979 47.152 159.299 47.456C159.635 47.744 160.275 47.888 161.219 47.888H163.115V46.4C163.115 45.392 162.915 44.672 162.515 44.24C162.131 43.792 161.587 43.568 160.883 43.568C160.227 43.568 159.715 43.784 159.347 44.216C158.995 44.632 158.819 45.216 158.819 45.968ZM168.908 47.888C170.156 47.888 170.78 47.304 170.78 46.136V43.064H172.748V46.136C172.748 46.456 172.796 46.728 172.892 46.952C173.004 47.176 173.148 47.36 173.324 47.504C173.5 47.632 173.7 47.728 173.924 47.792C174.164 47.856 174.404 47.888 174.644 47.888H175.316C175.684 47.888 175.868 48.232 175.868 48.92C175.868 49.64 175.684 50 175.316 50H174.572C173.996 50 173.452 49.896 172.94 49.688C172.444 49.48 172.028 49.072 171.692 48.464C171.324 49.072 170.9 49.48 170.42 49.688C169.956 49.896 169.452 50 168.908 50H167.156C166.948 50 166.812 49.92 166.748 49.76C166.668 49.584 166.628 49.328 166.628 48.992C166.628 48.608 166.668 48.328 166.748 48.152C166.812 47.976 166.948 47.888 167.156 47.888H168.908ZM174.164 40.112H171.98V38.096H174.164V40.112ZM170.948 40.112H168.764V38.096H170.948V40.112ZM177.065 47.888C178.313 47.888 178.937 47.304 178.937 46.136V43.064H180.905V46.136C180.905 46.456 180.953 46.728 181.049 46.952C181.161 47.176 181.305 47.36 181.48 47.504C181.657 47.632 181.857 47.728 182.081 47.792C182.321 47.856 182.561 47.888 182.801 47.888H183.473C183.841 47.888 184.025 48.232 184.025 48.92C184.025 49.64 183.841 50 183.473 50H182.729C182.153 50 181.609 49.896 181.097 49.688C180.601 49.48 180.185 49.072 179.849 48.464C179.481 49.072 179.057 49.48 178.577 49.688C178.113 49.896 177.609 50 177.065 50H175.312C175.104 50 174.968 49.92 174.904 49.76C174.824 49.584 174.784 49.328 174.784 48.992C174.784 48.608 174.824 48.328 174.904 48.152C174.968 47.976 175.104 47.888 175.312 47.888H177.065ZM180.161 57.848H177.953V55.832H180.161V57.848ZM181.745 54.752H179.561V52.736H181.745V54.752ZM178.529 54.752H176.345V52.736H178.529V54.752ZM183.469 50C183.261 50 183.125 49.92 183.061 49.76C182.981 49.584 182.941 49.328 182.941 48.992C182.941 48.608 182.981 48.328 183.061 48.152C183.125 47.976 183.261 47.888 183.469 47.888H188.965C189.541 47.888 189.989 47.736 190.309 47.432C190.645 47.128 190.813 46.696 190.813 46.136V43.064H192.781V46.232C192.781 47.448 192.453 48.384 191.797 49.04C191.141 49.68 190.245 50 189.109 50H183.469ZM189.757 54.752H187.645V52.736H189.757V54.752ZM186.493 54.752H184.357V52.736H186.493V54.752ZM198.381 46.208C198.381 46.736 198.549 47.152 198.885 47.456C199.237 47.744 199.685 47.888 200.229 47.888H200.493C200.845 47.888 201.021 48.232 201.021 48.92C201.021 49.64 200.845 50 200.493 50H200.229C199.877 50 199.525 49.936 199.173 49.808C198.821 49.68 198.525 49.448 198.285 49.112V49.616C198.285 50.512 198.141 51.336 197.853 52.088C197.565 52.856 197.165 53.512 196.653 54.056C196.157 54.616 195.565 55.048 194.877 55.352C194.189 55.656 193.437 55.808 192.621 55.808H191.997L191.829 53.72H192.261C192.997 53.72 193.621 53.6 194.133 53.36C194.661 53.136 195.093 52.832 195.429 52.448C195.765 52.064 196.013 51.624 196.173 51.128C196.333 50.648 196.413 50.144 196.413 49.616V43.064H198.381V46.208ZM206.628 47.888C207.22 47.888 207.628 47.768 207.852 47.528C208.076 47.288 208.188 46.992 208.188 46.64C208.188 46.384 208.14 46.12 208.044 45.848C207.964 45.56 207.74 45.232 207.372 44.864L202.476 39.992V37.808L210.444 34.736L210.9 36.704L204.42 39.176L208.38 43.16C209.148 43.928 209.804 44.584 210.348 45.128C210.908 45.656 211.388 46.096 211.788 46.448C212.188 46.8 212.532 47.072 212.82 47.264C213.124 47.456 213.396 47.6 213.636 47.696C213.876 47.792 214.116 47.848 214.356 47.864C214.596 47.88 214.86 47.888 215.148 47.888C215.356 47.888 215.492 47.976 215.556 48.152C215.636 48.312 215.676 48.568 215.676 48.92C215.676 49.288 215.636 49.56 215.556 49.736C215.492 49.912 215.356 50 215.148 50C214.684 50 214.26 49.968 213.876 49.904C213.508 49.84 213.14 49.712 212.772 49.52C212.404 49.328 212.004 49.056 211.572 48.704C211.14 48.352 210.636 47.888 210.06 47.312C210.06 47.792 209.972 48.2 209.796 48.536C209.62 48.872 209.388 49.152 209.1 49.376C208.812 49.584 208.476 49.744 208.092 49.856C207.708 49.952 207.292 50 206.844 50H200.484C200.276 50 200.14 49.92 200.076 49.76C199.996 49.584 199.956 49.328 199.956 48.992C199.956 48.608 199.996 48.328 200.076 48.152C200.14 47.976 200.276 47.888 200.484 47.888H206.628ZM216.116 47.888C217.38 47.888 218.012 47.304 218.012 46.136V43.064H219.98V46.136C219.98 46.456 220.036 46.728 220.148 46.952C220.26 47.176 220.404 47.36 220.58 47.504C220.756 47.632 220.956 47.728 221.18 47.792C221.42 47.856 221.66 47.888 221.9 47.888C223.276 47.888 223.964 47.304 223.964 46.136V43.064H225.932V46.136C225.932 46.792 226.1 47.248 226.436 47.504C226.788 47.76 227.196 47.888 227.66 47.888C228.22 47.888 228.652 47.736 228.956 47.432C229.276 47.128 229.436 46.696 229.436 46.136V43.064H231.404V46.136C231.404 46.456 231.452 46.728 231.548 46.952C231.66 47.176 231.804 47.36 231.98 47.504C232.156 47.632 232.356 47.728 232.58 47.792C232.804 47.856 233.028 47.888 233.252 47.888H233.756C234.108 47.888 234.284 48.232 234.284 48.92C234.284 49.64 234.108 50 233.756 50H233.252C232.66 50 232.108 49.896 231.596 49.688C231.1 49.48 230.684 49.072 230.348 48.464C229.98 49.072 229.548 49.48 229.052 49.688C228.572 49.896 228.108 50 227.66 50C227.1 50 226.58 49.896 226.1 49.688C225.62 49.48 225.212 49.072 224.876 48.464C224.508 49.072 224.06 49.48 223.532 49.688C223.004 49.896 222.46 50 221.9 50C221.292 50 220.724 49.896 220.196 49.688C219.684 49.48 219.26 49.072 218.924 48.464C218.556 49.072 218.124 49.48 217.628 49.688C217.132 49.896 216.604 50 216.044 50H215.156C214.948 50 214.812 49.92 214.748 49.76C214.668 49.584 214.628 49.328 214.628 48.992C214.628 48.608 214.668 48.328 214.748 48.152C214.812 47.976 214.948 47.888 215.156 47.888H216.116ZM239.91 47.888C240.502 47.888 240.91 47.768 241.134 47.528C241.358 47.288 241.47 46.992 241.47 46.64C241.47 46.384 241.422 46.12 241.326 45.848C241.246 45.56 241.022 45.232 240.654 44.864L235.758 39.992V37.808L243.726 34.736L244.182 36.704L237.702 39.176L241.662 43.16C242.046 43.56 242.358 43.92 242.598 44.24C242.854 44.56 243.054 44.872 243.198 45.176C243.342 45.464 243.438 45.752 243.486 46.04C243.55 46.328 243.582 46.624 243.582 46.928C243.582 47.472 243.494 47.936 243.318 48.32C243.142 48.704 242.902 49.024 242.598 49.28C242.294 49.52 241.926 49.704 241.494 49.832C241.078 49.944 240.622 50 240.126 50H233.766C233.558 50 233.422 49.92 233.358 49.76C233.278 49.584 233.238 49.328 233.238 48.992C233.238 48.608 233.278 48.328 233.358 48.152C233.422 47.976 233.558 47.888 233.766 47.888H239.91ZM246.553 35.12H248.521V50H246.553V35.12ZM263.24 34.328L270.464 31.496L270.776 32.936L263.312 35.888L263.24 34.328ZM267.536 47.888C268.128 47.888 268.536 47.768 268.76 47.528C268.984 47.288 269.096 46.992 269.096 46.64C269.096 46.384 269.048 46.12 268.952 45.848C268.856 45.56 268.624 45.232 268.256 44.864L263.384 39.992V37.808L271.328 34.736L271.808 36.704L265.328 39.176L269.288 43.16C269.688 43.56 270.008 43.928 270.248 44.264C270.504 44.584 270.704 44.888 270.848 45.176C270.992 45.464 271.088 45.752 271.136 46.04C271.184 46.328 271.208 46.624 271.208 46.928C271.208 47.472 271.12 47.936 270.944 48.32C270.768 48.704 270.52 49.024 270.2 49.28C269.896 49.52 269.536 49.704 269.12 49.832C268.704 49.944 268.248 50 267.752 50H258.656C258 50 257.432 49.904 256.952 49.712C256.488 49.504 256.104 49.232 255.8 48.896C255.512 48.56 255.296 48.168 255.152 47.72C255.024 47.272 254.96 46.8 254.96 46.304V42.992H256.928V45.824C256.928 46.448 257.08 46.952 257.384 47.336C257.688 47.704 258.264 47.888 259.112 47.888H267.536ZM274.186 50V35.12H276.154V47.888H278.842C280.074 47.888 280.69 47.304 280.69 46.136V35.12H282.682V46.136C282.682 46.792 282.874 47.248 283.258 47.504C283.658 47.76 284.114 47.888 284.626 47.888H284.938C285.29 47.888 285.466 48.232 285.466 48.92C285.466 49.64 285.29 50 284.938 50H284.53C283.938 50 283.386 49.896 282.874 49.688C282.378 49.48 281.962 49.072 281.626 48.464C281.258 49.072 280.834 49.48 280.354 49.688C279.874 49.896 279.37 50 278.842 50H274.186ZM287.114 47.888C287.69 47.888 288.138 47.736 288.458 47.432C288.794 47.128 288.962 46.696 288.962 46.136V43.064H290.93V46.232C290.93 47.448 290.602 48.384 289.946 49.04C289.306 49.68 288.41 50 287.258 50H284.93C284.722 50 284.586 49.92 284.522 49.76C284.442 49.584 284.402 49.328 284.402 48.992C284.402 48.608 284.442 48.328 284.522 48.152C284.586 47.976 284.722 47.888 284.93 47.888H287.114ZM288.218 54.8H285.866V52.736H288.218V54.8ZM295.722 53.72C296.378 53.72 296.954 53.616 297.45 53.408C297.946 53.216 298.354 52.952 298.674 52.616C299.01 52.28 299.266 51.888 299.442 51.44C299.618 50.992 299.722 50.512 299.754 50H297.714C296.898 50 296.226 49.912 295.698 49.736C295.17 49.56 294.754 49.304 294.45 48.968C294.146 48.632 293.93 48.224 293.802 47.744C293.69 47.248 293.634 46.696 293.634 46.088C293.634 45.48 293.722 44.904 293.898 44.36C294.074 43.8 294.33 43.312 294.666 42.896C295.002 42.48 295.418 42.152 295.914 41.912C296.426 41.656 297.018 41.528 297.69 41.528C298.218 41.528 298.722 41.616 299.202 41.792C299.698 41.968 300.13 42.248 300.498 42.632C300.866 43 301.154 43.488 301.362 44.096C301.586 44.704 301.698 45.44 301.698 46.304V49.616C301.698 50.432 301.562 51.216 301.29 51.968C301.034 52.72 300.65 53.376 300.138 53.936C299.642 54.512 299.034 54.968 298.314 55.304C297.594 55.64 296.778 55.808 295.866 55.808H293.37L293.226 53.72H295.722ZM295.506 45.968C295.506 46.656 295.666 47.152 295.986 47.456C296.322 47.744 296.962 47.888 297.906 47.888H299.802V46.4C299.802 45.392 299.602 44.672 299.202 44.24C298.818 43.792 298.274 43.568 297.57 43.568C296.914 43.568 296.402 43.784 296.034 44.216C295.682 44.632 295.506 45.216 295.506 45.968Z" fill="#F5E427"/>
<path d="M341.84 42.1089H363.992C364.523 42.1089 364.953 41.6786 364.953 41.1479V34.6129C364.953 34.0821 364.523 33.6519 363.992 33.6519H341.84C341.309 33.6519 340.879 34.0821 340.879 34.6129V41.1479C340.879 41.6786 341.309 42.1089 341.84 42.1089ZM342.801 35.5739H363.031V40.1868H342.801V35.5739Z" fill="#F5E427"/>
<path d="M368.171 30H337.61C337.08 30 336.649 30.4303 336.649 30.961V48.2117H328.961C328.43 48.2117 328 48.6421 328 49.1727V61.7143C328 64.6336 330.367 67 333.286 67H364.327C366.981 67 369.133 64.8486 369.133 62.1948V30.961C369.133 30.4303 368.702 30 368.171 30ZM336.649 61.7144C336.649 63.5721 335.143 65.078 333.286 65.078C331.428 65.078 329.922 63.572 329.922 61.7144V50.1339H336.649V61.7144H336.649ZM367.21 62.1949C367.21 63.7871 365.92 65.078 364.327 65.078H337.37C338.16 64.1364 338.586 62.9431 338.571 61.7144V31.9221H367.211V62.1949H367.21Z" fill="#F5E427"/>
<path d="M341.84 44.9922H363.992C364.523 44.9922 364.953 44.562 364.953 44.0313C364.953 43.5005 364.523 43.0703 363.992 43.0703H341.84C341.309 43.0703 340.879 43.5005 340.879 44.0313C340.879 44.562 341.309 44.9922 341.84 44.9922Z" fill="#F5E427"/>
<path d="M341.84 47.875H363.992C364.523 47.875 364.953 47.4448 364.953 46.9141C364.953 46.3833 364.523 45.9531 363.992 45.9531H341.84C341.309 45.9531 340.879 46.3833 340.879 46.9141C340.879 47.4448 341.309 47.875 341.84 47.875Z" fill="#F5E427"/>
<path d="M341.84 50.7583H363.992C364.523 50.7583 364.953 50.3281 364.953 49.7974C364.953 49.2666 364.523 48.8364 363.992 48.8364H341.84C341.309 48.8364 340.879 49.2666 340.879 49.7974C340.879 50.3281 341.309 50.7583 341.84 50.7583Z" fill="#F5E427"/>
<path d="M363.99 51.7192H356.254C355.723 51.7192 355.293 52.1496 355.293 52.6804C355.293 53.2113 355.723 53.6416 356.254 53.6416H363.99C364.521 53.6416 364.951 53.2113 364.951 52.6804C364.951 52.1496 364.521 51.7192 363.99 51.7192Z" fill="#F5E427"/>
<path d="M363.99 54.6025H356.254C355.723 54.6025 355.293 55.0329 355.293 55.5637C355.293 56.0946 355.723 56.5249 356.254 56.5249H363.99C364.521 56.5249 364.951 56.0946 364.951 55.5637C364.951 55.0329 364.521 54.6025 363.99 54.6025Z" fill="#F5E427"/>
<path d="M363.99 57.4854H356.254C355.723 57.4854 355.293 57.9157 355.293 58.4465C355.293 58.9774 355.723 59.4077 356.254 59.4077H363.99C364.521 59.4077 364.951 58.9774 364.951 58.4465C364.951 57.9157 364.521 57.4854 363.99 57.4854Z" fill="#F5E427"/>
<path d="M341.84 62.291H352.459C352.99 62.291 353.42 61.8607 353.42 61.3299V52.6803C353.42 52.1495 352.99 51.7192 352.459 51.7192H341.84C341.309 51.7192 340.879 52.1495 340.879 52.6803V61.3299C340.879 61.8607 341.309 62.291 341.84 62.291ZM342.801 53.6414H351.498V60.3689H342.801V53.6414Z" fill="#F5E427"/>
<path d="M363.99 60.3687H356.254C355.723 60.3687 355.293 60.799 355.293 61.3298C355.293 61.8607 355.723 62.291 356.254 62.291H363.99C364.521 62.291 364.951 61.8607 364.951 61.3298C364.951 60.799 364.521 60.3687 363.99 60.3687Z" fill="#F5E427"/>
<path d="M40.2704 111.6C40.2704 112.208 40.1744 112.768 39.9824 113.28C39.801 113.803 39.5344 114.256 39.1824 114.64C38.841 115.024 38.4197 115.323 37.9184 115.536C37.4277 115.76 36.8784 115.872 36.2704 115.872H35.2624C34.0677 115.872 33.1397 115.504 32.4784 114.768C31.817 114.032 31.4864 113.024 31.4864 111.744V108.88H33.1024V111.68C33.1024 112.053 33.145 112.389 33.2304 112.688C33.3157 112.987 33.449 113.243 33.6304 113.456C33.8224 113.669 34.0677 113.835 34.3664 113.952C34.6757 114.069 35.049 114.128 35.4864 114.128H36.1904C36.6384 114.128 37.017 114.059 37.3264 113.92C37.6464 113.792 37.9024 113.611 38.0944 113.376C38.297 113.152 38.441 112.885 38.5264 112.576C38.6117 112.277 38.6544 111.957 38.6544 111.616V107.312H40.2704V111.6ZM36.5104 107.072H34.7024V105.44H36.5104V107.072ZM44.373 112C44.0743 112 43.7863 111.963 43.509 111.888C43.2423 111.803 43.0077 111.664 42.805 111.472C42.6023 111.28 42.4423 111.029 42.325 110.72C42.2077 110.4 42.149 110.005 42.149 109.536V102.08H43.781V109.136C43.781 109.477 43.8557 109.749 44.005 109.952C44.165 110.144 44.3997 110.24 44.709 110.24H45.077C45.3117 110.24 45.429 110.523 45.429 111.088C45.429 111.696 45.3117 112 45.077 112H44.373ZM46.2461 101.344L51.0621 99.52L51.3181 100.672L46.3261 102.592L46.2461 101.344ZM49.0461 110.24C49.3341 110.24 49.5315 110.181 49.6381 110.064C49.7555 109.947 49.8141 109.803 49.8141 109.632C49.8141 109.472 49.7821 109.317 49.7181 109.168C49.6648 109.008 49.5421 108.837 49.3501 108.656L46.3261 105.632V103.808L51.6221 101.808L51.9901 103.44L47.9101 104.944L50.2621 107.328C50.7421 107.808 51.1528 108.213 51.4941 108.544C51.8461 108.875 52.1501 109.147 52.4061 109.36C52.6728 109.573 52.9021 109.744 53.0941 109.872C53.2968 109.989 53.4835 110.075 53.6541 110.128C53.8248 110.181 53.9901 110.213 54.1501 110.224C54.3208 110.235 54.5128 110.24 54.7261 110.24C54.8648 110.24 54.9555 110.315 54.9981 110.464C55.0515 110.603 55.0781 110.811 55.0781 111.088C55.0781 111.397 55.0515 111.627 54.9981 111.776C54.9555 111.925 54.8648 112 54.7261 112C54.4061 112 54.1128 111.984 53.8461 111.952C53.5901 111.92 53.3395 111.856 53.0941 111.76C52.8488 111.653 52.5875 111.499 52.3101 111.296C52.0328 111.083 51.7181 110.8 51.3661 110.448C51.2915 111.003 51.0515 111.403 50.6461 111.648C50.2515 111.883 49.7821 112 49.2381 112H45.0781C44.9395 112 44.8488 111.931 44.8061 111.792C44.7528 111.643 44.7261 111.429 44.7261 111.152C44.7261 110.843 44.7528 110.613 44.8061 110.464C44.8488 110.315 44.9395 110.24 45.0781 110.24H49.0461ZM56.1908 110.24C56.9054 110.24 57.2628 109.893 57.2628 109.2V107.312H58.8948V109.312C58.8948 110.197 58.6708 110.869 58.2228 111.328C57.7748 111.776 57.1454 112 56.3348 112H54.7188C54.5801 112 54.4894 111.931 54.4467 111.792C54.3934 111.643 54.3667 111.429 54.3667 111.152C54.3667 110.843 54.3934 110.613 54.4467 110.464C54.4894 110.315 54.5801 110.24 54.7188 110.24H56.1908ZM58.6708 115.36H57.0228V113.792H58.6708V115.36ZM56.3668 115.36H54.7188V113.792H56.3668V115.36ZM60.774 102.08H62.406V112H60.774V102.08ZM66.4775 111.744C66.4775 112.32 66.3762 112.859 66.1735 113.36C65.9815 113.861 65.7095 114.299 65.3575 114.672C65.0162 115.045 64.6055 115.339 64.1255 115.552C63.6562 115.765 63.1495 115.872 62.6055 115.872H61.5975L61.5175 114.128H62.1895C62.6695 114.128 63.0802 114.059 63.4215 113.92C63.7522 113.792 64.0242 113.616 64.2375 113.392C64.4508 113.168 64.6055 112.912 64.7015 112.624C64.7975 112.336 64.8455 112.043 64.8455 111.744V107.312H66.4775V111.744ZM72.7949 112C72.4962 112 72.2082 111.963 71.9309 111.888C71.6642 111.803 71.4295 111.664 71.2269 111.472C71.0242 111.28 70.8642 111.029 70.7469 110.72C70.6295 110.4 70.5709 110.005 70.5709 109.536V102.08H72.2029V109.136C72.2029 109.477 72.2775 109.749 72.4269 109.952C72.5869 110.144 72.8215 110.24 73.1309 110.24H73.4989C73.7335 110.24 73.8509 110.523 73.8509 111.088C73.8509 111.696 73.7335 112 73.4989 112H72.7949ZM77.452 107.2C77.0893 107.2 76.796 107.317 76.572 107.552C76.3587 107.787 76.252 108.08 76.252 108.432C76.252 108.784 76.3747 109.104 76.62 109.392C76.876 109.669 77.1747 109.899 77.516 110.08C77.836 109.899 78.1027 109.669 78.316 109.392C78.5293 109.115 78.636 108.805 78.636 108.464C78.636 108.091 78.524 107.787 78.3 107.552C78.0867 107.317 77.804 107.2 77.452 107.2ZM73.5 112C73.3613 112 73.2707 111.931 73.228 111.792C73.1747 111.643 73.148 111.429 73.148 111.152C73.148 110.843 73.1747 110.613 73.228 110.464C73.2707 110.315 73.3613 110.24 73.5 110.24H75.788C75.0947 109.632 74.748 108.944 74.748 108.176C74.748 107.824 74.812 107.488 74.94 107.168C75.068 106.848 75.2547 106.565 75.5 106.32C75.7453 106.064 76.0387 105.867 76.38 105.728C76.732 105.579 77.132 105.504 77.58 105.504C78.0173 105.504 78.396 105.579 78.716 105.728C79.0467 105.877 79.3133 106.075 79.516 106.32C79.7293 106.565 79.884 106.843 79.98 107.152C80.0867 107.461 80.14 107.776 80.14 108.096C80.14 108.533 80.0547 108.928 79.884 109.28C79.724 109.621 79.4893 109.941 79.18 110.24H81.42C81.932 110.24 82.188 110.043 82.188 109.648C82.188 109.563 82.1667 109.467 82.124 109.36C82.0813 109.253 82.0013 109.125 81.884 108.976L79.228 105.744L80.428 104.608L83.132 107.936C83.4413 108.309 83.6547 108.661 83.772 108.992C83.9 109.312 83.964 109.627 83.964 109.936C83.964 110.224 83.9107 110.496 83.804 110.752C83.708 110.997 83.5587 111.216 83.356 111.408C83.1533 111.589 82.8973 111.733 82.588 111.84C82.2893 111.947 81.9427 112 81.548 112H79.788C79.2973 112 78.86 111.979 78.476 111.936C78.1027 111.893 77.8093 111.813 77.596 111.696C77.436 111.771 77.244 111.829 77.02 111.872C76.8067 111.915 76.5827 111.947 76.348 111.968C76.124 111.979 75.9 111.989 75.676 112C75.4627 112 75.2813 112 75.132 112H73.5ZM89.9931 111.744C89.9931 112.32 89.8918 112.859 89.6891 113.36C89.4971 113.861 89.2251 114.299 88.8731 114.672C88.5318 115.045 88.1211 115.339 87.6411 115.552C87.1718 115.765 86.6651 115.872 86.1211 115.872H85.1131L85.0331 114.128H85.7051C86.1851 114.128 86.5958 114.059 86.9371 113.92C87.2678 113.792 87.5398 113.616 87.7531 113.392C87.9665 113.168 88.1211 112.912 88.2171 112.624C88.3131 112.336 88.3611 112.043 88.3611 111.744V107.312H89.9931V111.744ZM90.0091 105.44H88.2011V103.808H90.0091V105.44ZM90.249 114.128H90.505C90.953 114.128 91.337 114.059 91.657 113.92C91.977 113.792 92.233 113.616 92.425 113.392C92.6277 113.168 92.777 112.912 92.873 112.624C92.969 112.336 93.017 112.043 93.017 111.744V107.312H94.649V111.744C94.649 112.32 94.5477 112.859 94.345 113.36C94.153 113.861 93.881 114.299 93.529 114.672C93.1877 115.045 92.777 115.339 92.297 115.552C91.8277 115.765 91.321 115.872 90.777 115.872H90.377L90.249 114.128ZM96.5084 102.08H98.1404V112H96.5084V102.08ZM105.648 111.744C105.648 112.32 105.552 112.859 105.36 113.36C105.168 113.861 104.901 114.299 104.56 114.672C104.229 115.045 103.829 115.339 103.36 115.552C102.901 115.765 102.399 115.872 101.855 115.872H100.847L100.767 114.128H101.439C101.919 114.128 102.33 114.059 102.671 113.92C103.002 113.792 103.274 113.616 103.488 113.392C103.701 113.168 103.856 112.912 103.952 112.624C104.048 112.336 104.096 112.043 104.096 111.744V107.312H105.728V109.216C105.728 109.557 105.829 109.813 106.032 109.984C106.245 110.155 106.512 110.24 106.832 110.24H107.008C107.242 110.24 107.36 110.523 107.36 111.088C107.36 111.696 107.242 112 107.008 112H106.832C106.618 112 106.405 111.968 106.192 111.904C105.978 111.829 105.797 111.685 105.648 111.472V111.744ZM105.744 105.44H103.936V103.808H105.744V105.44ZM107.144 110.24C107.507 110.24 107.789 110.171 107.992 110.032C108.195 109.883 108.296 109.643 108.296 109.312V108.96C108.296 108.533 108.355 108.139 108.472 107.776C108.6 107.413 108.781 107.104 109.016 106.848C109.251 106.592 109.533 106.395 109.864 106.256C110.205 106.107 110.584 106.032 111 106.032C111.437 106.032 111.821 106.107 112.152 106.256C112.493 106.395 112.776 106.597 113 106.864C113.224 107.12 113.395 107.429 113.512 107.792C113.629 108.155 113.688 108.549 113.688 108.976C113.688 109.936 113.443 110.683 112.952 111.216C112.472 111.739 111.816 112 110.984 112C110.557 112 110.147 111.92 109.752 111.76C109.368 111.589 109.075 111.323 108.872 110.96C108.669 111.376 108.408 111.653 108.088 111.792C107.768 111.931 107.453 112 107.144 112H107C106.861 112 106.771 111.931 106.728 111.792C106.675 111.643 106.648 111.429 106.648 111.152C106.648 110.843 106.675 110.613 106.728 110.464C106.771 110.315 106.861 110.24 107 110.24H107.144ZM112.12 109.088C112.12 108.725 112.035 108.421 111.864 108.176C111.704 107.931 111.411 107.808 110.984 107.808C110.579 107.808 110.285 107.931 110.104 108.176C109.933 108.411 109.848 108.72 109.848 109.104C109.848 109.477 109.949 109.76 110.152 109.952C110.355 110.144 110.632 110.24 110.984 110.24C111.741 110.24 112.12 109.856 112.12 109.088ZM117.571 111.744C117.571 112.32 117.47 112.859 117.267 113.36C117.075 113.861 116.803 114.299 116.451 114.672C116.11 115.045 115.699 115.339 115.219 115.552C114.75 115.765 114.243 115.872 113.699 115.872H112.691L112.611 114.128H113.283C113.763 114.128 114.174 114.059 114.515 113.92C114.846 113.792 115.118 113.616 115.331 113.392C115.545 113.168 115.699 112.912 115.795 112.624C115.891 112.336 115.939 112.043 115.939 111.744V107.312H117.571V111.744ZM121.393 109.536C121.393 109.227 121.43 108.933 121.505 108.656C121.59 108.379 121.707 108.101 121.857 107.824C122.017 107.547 122.214 107.269 122.449 106.992C122.683 106.704 122.955 106.395 123.265 106.064L122.529 105.328L123.633 104.144C124.294 104.795 124.843 105.36 125.281 105.84C125.729 106.32 126.086 106.757 126.353 107.152C126.619 107.536 126.806 107.899 126.913 108.24C127.03 108.581 127.089 108.933 127.089 109.296C127.089 109.691 127.014 110.053 126.865 110.384C126.715 110.715 126.513 111.003 126.257 111.248C126.001 111.483 125.691 111.669 125.329 111.808C124.977 111.936 124.593 112 124.177 112C123.761 112 123.382 111.941 123.041 111.824C122.699 111.707 122.406 111.541 122.161 111.328C121.915 111.104 121.723 110.843 121.585 110.544C121.457 110.245 121.393 109.909 121.393 109.536ZM125.457 109.168C125.457 109.04 125.441 108.917 125.409 108.8C125.377 108.672 125.318 108.533 125.233 108.384C125.147 108.235 125.019 108.069 124.849 107.888C124.689 107.696 124.481 107.472 124.225 107.216C123.958 107.472 123.745 107.701 123.585 107.904C123.425 108.096 123.302 108.272 123.217 108.432C123.131 108.581 123.073 108.72 123.041 108.848C123.019 108.965 123.009 109.083 123.009 109.2C123.009 109.477 123.11 109.723 123.313 109.936C123.515 110.139 123.819 110.24 124.225 110.24C124.619 110.24 124.923 110.133 125.137 109.92C125.35 109.707 125.457 109.456 125.457 109.168ZM130.884 111.744C130.884 112.32 130.782 112.859 130.58 113.36C130.388 113.861 130.116 114.299 129.764 114.672C129.422 115.045 129.012 115.339 128.532 115.552C128.062 115.765 127.556 115.872 127.012 115.872H126.004L125.924 114.128H126.596C127.076 114.128 127.486 114.059 127.828 113.92C128.158 113.792 128.43 113.616 128.644 113.392C128.857 113.168 129.012 112.912 129.108 112.624C129.204 112.336 129.252 112.043 129.252 111.744V107.312H130.884V111.744ZM130.9 105.44H129.092V103.808H130.9V105.44ZM134.023 114.128C134.428 114.128 134.775 114.069 135.063 113.952C135.361 113.845 135.607 113.696 135.799 113.504C135.991 113.312 136.14 113.083 136.247 112.816C136.353 112.56 136.417 112.288 136.439 112H135.351C134.796 112 134.343 111.941 133.991 111.824C133.639 111.707 133.361 111.536 133.159 111.312C132.956 111.077 132.812 110.795 132.727 110.464C132.652 110.133 132.615 109.76 132.615 109.344C132.615 108.928 132.673 108.539 132.791 108.176C132.908 107.803 133.079 107.477 133.303 107.2C133.537 106.923 133.825 106.704 134.167 106.544C134.508 106.373 134.903 106.288 135.351 106.288C135.713 106.288 136.055 106.347 136.375 106.464C136.705 106.581 136.993 106.768 137.239 107.024C137.484 107.28 137.676 107.611 137.815 108.016C137.964 108.421 138.039 108.917 138.039 109.504V110.24H139.335C139.569 110.24 139.687 110.523 139.687 111.088C139.687 111.696 139.569 112 139.335 112H138.007C137.985 112.523 137.879 113.019 137.687 113.488C137.495 113.957 137.228 114.368 136.887 114.72C136.556 115.072 136.156 115.349 135.687 115.552C135.217 115.765 134.689 115.872 134.103 115.872H132.487L132.391 114.128H134.023ZM134.183 109.232C134.183 109.605 134.263 109.867 134.423 110.016C134.593 110.165 134.924 110.24 135.415 110.24H136.471V109.488C136.471 108.933 136.364 108.544 136.151 108.32C135.948 108.096 135.66 107.984 135.287 107.984C134.935 107.984 134.663 108.091 134.471 108.304C134.279 108.517 134.183 108.827 134.183 109.232ZM143.92 111.104C143.632 111.275 143.349 111.419 143.072 111.536C142.795 111.643 142.501 111.733 142.192 111.808C141.883 111.872 141.541 111.92 141.168 111.952C140.805 111.984 140.384 112 139.904 112H139.328C139.189 112 139.099 111.931 139.056 111.792C139.003 111.643 138.976 111.429 138.976 111.152C138.976 110.843 139.003 110.613 139.056 110.464C139.099 110.315 139.189 110.24 139.328 110.24H139.968C140.363 110.24 140.72 110.235 141.04 110.224C141.36 110.203 141.648 110.171 141.904 110.128C142.171 110.085 142.421 110.027 142.656 109.952C142.891 109.867 143.125 109.755 143.36 109.616L145.392 108.448C145.317 108.309 145.243 108.187 145.168 108.08C145.104 107.973 145.019 107.888 144.912 107.824C144.816 107.749 144.693 107.696 144.544 107.664C144.395 107.621 144.203 107.6 143.968 107.6H140.576L140.672 105.84H144.224C144.523 105.84 144.816 105.883 145.104 105.968C145.403 106.053 145.68 106.219 145.936 106.464C146.203 106.699 146.443 107.035 146.656 107.472C146.88 107.899 147.067 108.464 147.216 109.168L143.92 111.104ZM156.141 114.128C156.61 114.128 156.999 114.096 157.309 114.032C157.629 113.968 157.879 113.877 158.061 113.76C158.253 113.643 158.386 113.499 158.461 113.328C158.546 113.168 158.589 112.992 158.589 112.8C158.589 112.587 158.53 112.4 158.413 112.24C158.295 112.08 158.098 112 157.821 112H155.517L155.613 110.24H161.165C161.399 110.24 161.517 110.523 161.517 111.088C161.517 111.696 161.399 112 161.165 112H159.789C159.927 112.107 160.018 112.245 160.061 112.416C160.114 112.587 160.141 112.795 160.141 113.04C160.141 113.328 160.077 113.637 159.949 113.968C159.821 114.299 159.607 114.603 159.309 114.88C159.021 115.168 158.631 115.403 158.141 115.584C157.661 115.776 157.069 115.872 156.365 115.872H154.669C153.474 115.872 152.546 115.504 151.885 114.768C151.223 114.032 150.893 113.024 150.893 111.744V108.88H152.509V111.68C152.509 112.053 152.551 112.389 152.637 112.688C152.722 112.987 152.855 113.243 153.037 113.456C153.229 113.669 153.474 113.835 153.773 113.952C154.082 114.069 154.455 114.128 154.893 114.128H156.141ZM161.876 110.24C162.612 110.24 162.98 109.893 162.98 109.2V107.312H164.596V109.2C164.596 109.573 164.708 109.84 164.932 110C165.167 110.16 165.433 110.24 165.732 110.24C166.532 110.24 166.932 109.893 166.932 109.2V107.312H168.564V109.2C168.564 109.573 168.66 109.84 168.852 110C169.055 110.16 169.289 110.24 169.556 110.24C169.876 110.24 170.121 110.155 170.292 109.984C170.473 109.803 170.564 109.541 170.564 109.2V107.312H172.196V109.312C172.196 110.197 171.967 110.869 171.508 111.328C171.06 111.776 170.431 112 169.62 112C169.257 112 168.911 111.936 168.58 111.808C168.249 111.669 167.961 111.397 167.716 110.992C167.46 111.397 167.156 111.669 166.804 111.808C166.463 111.936 166.105 112 165.732 112C165.327 112 164.953 111.936 164.612 111.808C164.281 111.669 163.993 111.397 163.748 110.992C163.492 111.397 163.204 111.669 162.884 111.808C162.564 111.936 162.223 112 161.86 112H161.172C161.033 112 160.943 111.931 160.9 111.792C160.847 111.643 160.82 111.429 160.82 111.152C160.82 110.843 160.847 110.613 160.9 110.464C160.943 110.315 161.033 110.24 161.172 110.24H161.876ZM168.58 103.2H166.884V101.648H168.58V103.2ZM169.7 105.44H168.036V103.872H169.7V105.44ZM167.412 105.44H165.748V103.872H167.412V105.44ZM176.071 111.744C176.071 112.32 175.97 112.859 175.767 113.36C175.575 113.861 175.303 114.299 174.951 114.672C174.61 115.045 174.199 115.339 173.719 115.552C173.25 115.765 172.743 115.872 172.199 115.872H171.191L171.111 114.128H171.783C172.263 114.128 172.674 114.059 173.015 113.92C173.346 113.792 173.618 113.616 173.831 113.392C174.045 113.168 174.199 112.912 174.295 112.624C174.391 112.336 174.439 112.043 174.439 111.744V107.312H176.071V111.744ZM176.087 105.44H174.279V103.808H176.087V105.44ZM179.21 114.128C179.616 114.128 179.962 114.069 180.25 113.952C180.549 113.845 180.794 113.696 180.986 113.504C181.178 113.312 181.328 113.083 181.434 112.816C181.541 112.56 181.605 112.288 181.626 112H180.538C179.984 112 179.53 111.941 179.178 111.824C178.826 111.707 178.549 111.536 178.346 111.312C178.144 111.077 178 110.795 177.914 110.464C177.84 110.133 177.802 109.76 177.802 109.344C177.802 108.928 177.861 108.539 177.978 108.176C178.096 107.803 178.266 107.477 178.49 107.2C178.725 106.923 179.013 106.704 179.354 106.544C179.696 106.373 180.09 106.288 180.538 106.288C180.901 106.288 181.242 106.347 181.562 106.464C181.893 106.581 182.181 106.768 182.426 107.024C182.672 107.28 182.864 107.611 183.002 108.016C183.152 108.421 183.226 108.917 183.226 109.504V110.24H184.522C184.757 110.24 184.874 110.523 184.874 111.088C184.874 111.696 184.757 112 184.522 112H183.194C183.173 112.523 183.066 113.019 182.874 113.488C182.682 113.957 182.416 114.368 182.074 114.72C181.744 115.072 181.344 115.349 180.874 115.552C180.405 115.765 179.877 115.872 179.29 115.872H177.674L177.578 114.128H179.21ZM179.37 109.232C179.37 109.605 179.45 109.867 179.61 110.016C179.781 110.165 180.112 110.24 180.602 110.24H181.658V109.488C181.658 108.933 181.552 108.544 181.338 108.32C181.136 108.096 180.848 107.984 180.474 107.984C180.122 107.984 179.85 108.091 179.658 108.304C179.466 108.517 179.37 108.827 179.37 109.232ZM184.66 110.24C185.022 110.24 185.305 110.171 185.508 110.032C185.71 109.883 185.812 109.643 185.812 109.312V108.96C185.812 108.533 185.87 108.139 185.988 107.776C186.116 107.413 186.297 107.104 186.532 106.848C186.766 106.592 187.049 106.395 187.38 106.256C187.721 106.107 188.1 106.032 188.516 106.032C188.953 106.032 189.337 106.107 189.668 106.256C190.009 106.395 190.292 106.597 190.516 106.864C190.74 107.12 190.91 107.429 191.028 107.792C191.145 108.155 191.204 108.549 191.204 108.976C191.204 109.936 190.958 110.683 190.468 111.216C189.988 111.739 189.332 112 188.5 112C188.073 112 187.662 111.92 187.268 111.76C186.884 111.589 186.59 111.323 186.388 110.96C186.185 111.376 185.924 111.653 185.604 111.792C185.284 111.931 184.969 112 184.66 112H184.516C184.377 112 184.286 111.931 184.244 111.792C184.19 111.643 184.164 111.429 184.164 111.152C184.164 110.843 184.19 110.613 184.244 110.464C184.286 110.315 184.377 110.24 184.516 110.24H184.66ZM189.636 109.088C189.636 108.725 189.55 108.421 189.38 108.176C189.22 107.931 188.926 107.808 188.5 107.808C188.094 107.808 187.801 107.931 187.62 108.176C187.449 108.411 187.364 108.72 187.364 109.104C187.364 109.477 187.465 109.76 187.668 109.952C187.87 110.144 188.148 110.24 188.5 110.24C189.257 110.24 189.636 109.856 189.636 109.088ZM193.071 104.48H194.703V112H193.071V104.48ZM192.991 102.832C192.778 102.832 192.612 102.853 192.495 102.896C192.378 102.939 192.276 103.067 192.191 103.28L191.855 104.016L190.831 103.52L191.327 102.432C191.423 102.219 191.519 102.043 191.615 101.904C191.7 101.765 191.802 101.653 191.919 101.568C192.036 101.483 192.175 101.424 192.335 101.392C192.495 101.349 192.692 101.328 192.927 101.328H196.159L196.095 102.832H192.991ZM201.249 112C200.811 112 200.433 111.936 200.113 111.808C199.803 111.669 199.547 111.488 199.345 111.264C199.153 111.04 199.009 110.779 198.913 110.48C198.827 110.181 198.785 109.867 198.785 109.536V107.264H200.401V109.12C200.401 109.472 200.481 109.749 200.641 109.952C200.801 110.144 201.126 110.24 201.617 110.24H206.641C207.025 110.24 207.297 110.155 207.457 109.984C207.627 109.803 207.713 109.541 207.713 109.2V107.312H209.345V109.584C209.345 109.989 209.275 110.347 209.137 110.656C208.998 110.955 208.811 111.205 208.577 111.408C208.353 111.6 208.091 111.749 207.793 111.856C207.505 111.952 207.206 112 206.897 112H201.249ZM206.033 106.016H204.369V104.448H206.033V106.016ZM203.745 106.016H202.081V104.448H203.745V106.016ZM211.18 102.08H212.812V110.24H214.364C214.994 110.24 215.308 109.963 215.308 109.408V102.08H216.94V109.648C216.94 110.032 216.876 110.373 216.748 110.672C216.62 110.96 216.45 111.205 216.236 111.408C216.023 111.6 215.767 111.749 215.468 111.856C215.18 111.952 214.876 112 214.556 112H211.18V102.08ZM221.217 112C220.918 112 220.63 111.963 220.353 111.888C220.086 111.803 219.851 111.664 219.649 111.472C219.446 111.28 219.286 111.029 219.169 110.72C219.051 110.4 218.993 110.005 218.993 109.536V102.08H220.625V109.136C220.625 109.477 220.699 109.749 220.849 109.952C221.009 110.144 221.243 110.24 221.553 110.24H221.921C222.155 110.24 222.273 110.523 222.273 111.088C222.273 111.696 222.155 112 221.921 112H221.217ZM224.21 110.24C223.837 109.899 223.57 109.563 223.41 109.232C223.25 108.891 223.17 108.523 223.17 108.128C223.17 107.776 223.234 107.435 223.362 107.104C223.501 106.773 223.693 106.485 223.938 106.24C224.194 105.984 224.498 105.781 224.85 105.632C225.213 105.472 225.613 105.392 226.05 105.392C226.487 105.392 226.871 105.472 227.202 105.632C227.533 105.792 227.805 106 228.018 106.256C228.242 106.512 228.407 106.8 228.514 107.12C228.631 107.429 228.69 107.739 228.69 108.048C228.69 108.517 228.605 108.928 228.434 109.28C228.274 109.621 228.039 109.941 227.73 110.24H229.954C230.189 110.24 230.306 110.523 230.306 111.088C230.306 111.696 230.189 112 229.954 112H228.338C227.858 112 227.421 111.979 227.026 111.936C226.642 111.893 226.343 111.813 226.13 111.696C225.981 111.771 225.794 111.829 225.57 111.872C225.357 111.915 225.133 111.947 224.898 111.968C224.674 111.979 224.45 111.989 224.226 112C224.013 112 223.831 112 223.682 112H221.922C221.783 112 221.693 111.931 221.65 111.792C221.597 111.643 221.57 111.429 221.57 111.152C221.57 110.843 221.597 110.613 221.65 110.464C221.693 110.315 221.783 110.24 221.922 110.24H224.21ZM225.938 107.168C225.586 107.168 225.298 107.285 225.074 107.52C224.85 107.755 224.738 108.048 224.738 108.4C224.738 108.741 224.861 109.051 225.106 109.328C225.362 109.595 225.666 109.819 226.018 110C226.327 109.819 226.589 109.595 226.802 109.328C227.026 109.061 227.138 108.757 227.138 108.416C227.138 108.043 227.026 107.744 226.802 107.52C226.589 107.285 226.301 107.168 225.938 107.168ZM227.938 104.096H226.274V102.528H227.938V104.096ZM225.65 104.096H223.986V102.528H225.65V104.096ZM230.097 110.24C230.46 110.24 230.742 110.171 230.945 110.032C231.148 109.883 231.249 109.643 231.249 109.312V108.96C231.249 108.533 231.308 108.139 231.425 107.776C231.553 107.413 231.734 107.104 231.969 106.848C232.204 106.592 232.486 106.395 232.817 106.256C233.158 106.107 233.537 106.032 233.953 106.032C234.39 106.032 234.774 106.107 235.105 106.256C235.446 106.395 235.729 106.597 235.953 106.864C236.177 107.12 236.348 107.429 236.465 107.792C236.582 108.155 236.641 108.549 236.641 108.976C236.641 109.936 236.396 110.683 235.905 111.216C235.425 111.739 234.769 112 233.937 112C233.51 112 233.1 111.92 232.705 111.76C232.321 111.589 232.028 111.323 231.825 110.96C231.622 111.376 231.361 111.653 231.041 111.792C230.721 111.931 230.406 112 230.097 112H229.953C229.814 112 229.724 111.931 229.681 111.792C229.628 111.643 229.601 111.429 229.601 111.152C229.601 110.843 229.628 110.613 229.681 110.464C229.724 110.315 229.814 110.24 229.953 110.24H230.097ZM235.073 109.088C235.073 108.725 234.988 108.421 234.817 108.176C234.657 107.931 234.364 107.808 233.937 107.808C233.532 107.808 233.238 107.931 233.057 108.176C232.886 108.411 232.801 108.72 232.801 109.104C232.801 109.477 232.902 109.76 233.105 109.952C233.308 110.144 233.585 110.24 233.937 110.24C234.694 110.24 235.073 109.856 235.073 109.088ZM250.391 112C250.177 112 249.959 111.968 249.735 111.904C249.521 111.829 249.34 111.685 249.191 111.472V111.68C249.191 112.267 249.1 112.811 248.919 113.312C248.737 113.824 248.476 114.267 248.135 114.64C247.804 115.024 247.393 115.323 246.903 115.536C246.412 115.76 245.863 115.872 245.255 115.872H244.247C243.052 115.872 242.124 115.504 241.463 114.768C240.801 114.032 240.471 113.024 240.471 111.744V108.88H242.087V111.68C242.087 112.053 242.129 112.389 242.215 112.688C242.3 112.987 242.433 113.243 242.615 113.456C242.807 113.669 243.052 113.835 243.351 113.952C243.66 114.069 244.033 114.128 244.471 114.128H245.175C245.623 114.128 246.001 114.059 246.311 113.92C246.631 113.792 246.887 113.611 247.079 113.376C247.281 113.152 247.425 112.885 247.511 112.576C247.596 112.277 247.639 111.957 247.639 111.616V107.312H249.255V109.216C249.255 109.557 249.361 109.813 249.575 109.984C249.799 110.155 250.071 110.24 250.391 110.24H250.567C250.801 110.24 250.919 110.523 250.919 111.088C250.919 111.696 250.801 112 250.567 112H250.391ZM245.495 107.072H243.687V105.44H245.495V107.072ZM250.562 112C250.424 112 250.333 111.931 250.29 111.792C250.237 111.643 250.21 111.429 250.21 111.152C250.21 110.843 250.237 110.613 250.29 110.464C250.333 110.315 250.424 110.24 250.562 110.24H254.243C254.957 110.24 255.315 109.893 255.315 109.2V107.312H256.947V109.312C256.947 110.197 256.717 110.869 256.259 111.328C255.811 111.776 255.181 112 254.371 112H250.562ZM254.883 115.36H253.235V113.792H254.883V115.36ZM252.579 115.36H250.931V113.792H252.579V115.36ZM260.821 109.216C260.821 109.557 260.928 109.813 261.141 109.984C261.354 110.155 261.621 110.24 261.941 110.24H262.117C262.352 110.24 262.469 110.523 262.469 111.088C262.469 111.696 262.352 112 262.117 112H261.941C261.728 112 261.509 111.968 261.285 111.904C261.072 111.829 260.89 111.685 260.741 111.472V111.744C260.741 112.32 260.645 112.859 260.453 113.36C260.261 113.861 259.994 114.299 259.653 114.672C259.322 115.045 258.922 115.339 258.453 115.552C257.994 115.765 257.493 115.872 256.949 115.872H256.549L256.421 114.128H256.677C257.125 114.128 257.509 114.059 257.829 113.92C258.149 113.792 258.405 113.616 258.597 113.392C258.8 113.168 258.949 112.912 259.045 112.624C259.141 112.336 259.189 112.043 259.189 111.744V107.312H260.821V109.216ZM263.214 110.24C263.928 110.24 264.286 109.893 264.286 109.2V107.312H265.934V109.2C265.934 109.573 266.046 109.84 266.27 110C266.504 110.16 266.776 110.24 267.086 110.24H267.502C267.747 110.24 267.87 110.523 267.87 111.088C267.87 111.696 267.747 112 267.502 112H267.038C266.632 112 266.264 111.936 265.934 111.808C265.603 111.669 265.315 111.397 265.07 110.992C264.803 111.397 264.515 111.669 264.206 111.808C263.896 111.936 263.566 112 263.214 112H262.094C261.955 112 261.864 111.931 261.822 111.792C261.768 111.643 261.742 111.429 261.742 111.152C261.742 110.843 261.768 110.613 261.822 110.464C261.864 110.315 261.955 110.24 262.094 110.24H263.214ZM266.878 105.44H265.214V103.872H266.878V105.44ZM264.59 105.44H262.926V103.872H264.59V105.44ZM268.796 110.24V109.152C268.796 108.768 268.833 108.379 268.908 107.984C268.993 107.589 269.137 107.237 269.34 106.928C269.543 106.608 269.815 106.347 270.156 106.144C270.508 105.941 270.951 105.84 271.484 105.84C271.879 105.84 272.225 105.909 272.524 106.048C272.833 106.176 273.089 106.352 273.292 106.576C273.495 106.8 273.649 107.067 273.756 107.376C273.863 107.685 273.916 108.016 273.916 108.368C273.916 108.88 273.815 109.344 273.612 109.76C273.42 110.176 273.153 110.539 272.812 110.848C272.481 111.157 272.097 111.408 271.66 111.6C271.223 111.781 270.764 111.893 270.284 111.936V112.992C270.284 113.365 270.353 113.632 270.492 113.792C270.641 113.963 270.844 114.075 271.1 114.128L272.46 112.416C272.887 111.893 273.239 111.488 273.516 111.2C273.804 110.912 274.065 110.699 274.3 110.56C274.545 110.411 274.791 110.32 275.036 110.288C275.281 110.256 275.58 110.24 275.932 110.24C276.071 110.24 276.161 110.315 276.204 110.464C276.257 110.603 276.284 110.811 276.284 111.088C276.284 111.397 276.257 111.627 276.204 111.776C276.161 111.925 276.071 112 275.932 112C275.665 112 275.431 112.011 275.228 112.032C275.025 112.053 274.817 112.123 274.604 112.24C274.401 112.357 274.177 112.539 273.932 112.784C273.687 113.04 273.388 113.397 273.036 113.856L271.5 115.872C271.116 115.872 270.759 115.813 270.428 115.696C270.097 115.589 269.809 115.424 269.564 115.2C269.329 114.976 269.143 114.688 269.004 114.336C268.865 113.995 268.796 113.589 268.796 113.12V112H267.5C267.361 112 267.271 111.931 267.228 111.792C267.175 111.643 267.148 111.429 267.148 111.152C267.148 110.843 267.175 110.613 267.228 110.464C267.271 110.315 267.361 110.24 267.5 110.24H268.796ZM270.284 110.304C270.668 110.272 270.993 110.203 271.26 110.096C271.527 109.989 271.745 109.861 271.916 109.712C272.097 109.563 272.225 109.397 272.3 109.216C272.385 109.035 272.428 108.848 272.428 108.656C272.428 108.336 272.343 108.069 272.172 107.856C272.001 107.643 271.751 107.536 271.42 107.536C271.057 107.536 270.775 107.664 270.572 107.92C270.38 108.176 270.284 108.56 270.284 109.072V110.304ZM277.41 110.24C278.124 110.24 278.482 109.893 278.482 109.2V107.312H280.114V109.312C280.114 110.197 279.89 110.869 279.442 111.328C278.994 111.776 278.364 112 277.554 112H275.938C275.799 112 275.708 111.931 275.665 111.792C275.612 111.643 275.585 111.429 275.585 111.152C275.585 110.843 275.612 110.613 275.665 110.464C275.708 110.315 275.799 110.24 275.938 110.24H277.41ZM278.242 115.424H276.434V113.792H278.242V115.424ZM285.507 114.128C285.912 114.128 286.259 114.069 286.547 113.952C286.846 113.845 287.091 113.696 287.283 113.504C287.475 113.312 287.624 113.083 287.731 112.816C287.838 112.56 287.902 112.288 287.923 112H286.835C286.28 112 285.827 111.941 285.475 111.824C285.123 111.707 284.846 111.536 284.643 111.312C284.44 111.077 284.296 110.795 284.211 110.464C284.136 110.133 284.099 109.76 284.099 109.344C284.099 108.928 284.158 108.539 284.275 108.176C284.392 107.803 284.563 107.477 284.787 107.2C285.022 106.923 285.31 106.704 285.651 106.544C285.992 106.373 286.387 106.288 286.835 106.288C287.198 106.288 287.539 106.347 287.859 106.464C288.19 106.581 288.478 106.768 288.723 107.024C288.968 107.28 289.16 107.611 289.299 108.016C289.448 108.421 289.523 108.917 289.523 109.504V111.744C289.523 112.288 289.432 112.811 289.251 113.312C289.07 113.813 288.808 114.251 288.467 114.624C288.136 115.008 287.726 115.312 287.235 115.536C286.744 115.76 286.195 115.872 285.587 115.872H283.971L283.875 114.128H285.507ZM285.667 109.232C285.667 109.605 285.747 109.867 285.907 110.016C286.078 110.165 286.408 110.24 286.899 110.24H287.955V109.488C287.955 108.933 287.848 108.544 287.635 108.32C287.432 108.096 287.144 107.984 286.771 107.984C286.419 107.984 286.147 108.091 285.955 108.304C285.763 108.517 285.667 108.827 285.667 109.232ZM292.343 114.128H292.599C293.047 114.128 293.431 114.059 293.751 113.92C294.071 113.792 294.327 113.616 294.519 113.392C294.721 113.168 294.871 112.912 294.967 112.624C295.063 112.336 295.111 112.043 295.111 111.744V107.312H296.743V111.744C296.743 112.32 296.641 112.859 296.439 113.36C296.247 113.861 295.975 114.299 295.623 114.672C295.281 115.045 294.871 115.339 294.391 115.552C293.921 115.765 293.415 115.872 292.871 115.872H292.471L292.343 114.128ZM300.826 112C300.527 112 300.239 111.963 299.962 111.888C299.695 111.803 299.461 111.664 299.258 111.472C299.055 111.28 298.895 111.029 298.778 110.72C298.661 110.4 298.602 110.005 298.602 109.536V102.08H300.234V109.136C300.234 109.477 300.309 109.749 300.458 109.952C300.618 110.144 300.853 110.24 301.162 110.24H301.53C301.765 110.24 301.882 110.523 301.882 111.088C301.882 111.696 301.765 112 301.53 112H300.826ZM302.651 110.24C303.366 110.24 303.723 109.893 303.723 109.2V107.312H305.371V109.2C305.371 109.573 305.483 109.84 305.707 110C305.942 110.16 306.214 110.24 306.523 110.24H306.939C307.185 110.24 307.307 110.523 307.307 111.088C307.307 111.696 307.185 112 306.939 112H306.475C306.07 112 305.702 111.936 305.371 111.808C305.041 111.669 304.753 111.397 304.507 110.992C304.241 111.397 303.953 111.669 303.643 111.808C303.334 111.936 303.003 112 302.651 112H301.531C301.393 112 301.302 111.931 301.259 111.792C301.206 111.643 301.179 111.429 301.179 111.152C301.179 110.843 301.206 110.613 301.259 110.464C301.302 110.315 301.393 110.24 301.531 110.24H302.651ZM305.035 115.424H303.227V113.792H305.035V115.424ZM311.53 111.104C311.242 111.275 310.959 111.419 310.682 111.536C310.404 111.643 310.111 111.733 309.802 111.808C309.492 111.872 309.151 111.92 308.778 111.952C308.415 111.984 307.994 112 307.514 112H306.938C306.799 112 306.708 111.931 306.665 111.792C306.612 111.643 306.585 111.429 306.585 111.152C306.585 110.843 306.612 110.613 306.665 110.464C306.708 110.315 306.799 110.24 306.938 110.24H307.578C307.972 110.24 308.33 110.235 308.65 110.224C308.97 110.203 309.258 110.171 309.514 110.128C309.78 110.085 310.031 110.027 310.266 109.952C310.5 109.867 310.735 109.755 310.97 109.616L313.002 108.448C312.927 108.309 312.852 108.187 312.778 108.08C312.714 107.973 312.628 107.888 312.522 107.824C312.426 107.749 312.303 107.696 312.154 107.664C312.004 107.621 311.812 107.6 311.578 107.6H308.186L308.282 105.84H311.834C312.132 105.84 312.426 105.883 312.714 105.968C313.012 106.053 313.29 106.219 313.546 106.464C313.812 106.699 314.052 107.035 314.266 107.472C314.49 107.899 314.676 108.464 314.826 109.168L311.53 111.104ZM311.818 104.16H310.01V102.528H311.818V104.16ZM316.54 102.08H318.172V112H316.54V102.08ZM332.11 112C331.896 112 331.678 111.968 331.454 111.904C331.24 111.829 331.059 111.685 330.91 111.472V111.68C330.91 112.267 330.819 112.811 330.638 113.312C330.456 113.824 330.195 114.267 329.854 114.64C329.523 115.024 329.112 115.323 328.622 115.536C328.131 115.76 327.582 115.872 326.974 115.872H325.966C324.771 115.872 323.843 115.504 323.182 114.768C322.52 114.032 322.19 113.024 322.19 111.744V108.88H323.806V111.68C323.806 112.053 323.848 112.389 323.934 112.688C324.019 112.987 324.152 113.243 324.334 113.456C324.526 113.669 324.771 113.835 325.07 113.952C325.379 114.069 325.752 114.128 326.19 114.128H326.894C327.342 114.128 327.72 114.059 328.03 113.92C328.35 113.792 328.606 113.611 328.798 113.376C329 113.152 329.144 112.885 329.23 112.576C329.315 112.277 329.358 111.957 329.358 111.616V107.312H330.974V109.216C330.974 109.557 331.08 109.813 331.294 109.984C331.518 110.155 331.79 110.24 332.11 110.24H332.286C332.52 110.24 332.638 110.523 332.638 111.088C332.638 111.696 332.52 112 332.286 112H332.11ZM327.214 107.072H325.406V105.44H327.214V107.072ZM332.281 112C332.143 112 332.052 111.931 332.009 111.792C331.956 111.643 331.929 111.429 331.929 111.152C331.929 110.843 331.956 110.613 332.009 110.464C332.052 110.315 332.143 110.24 332.281 110.24H335.961C336.676 110.24 337.033 109.893 337.033 109.2V107.312H338.665V109.312C338.665 110.197 338.436 110.869 337.977 111.328C337.529 111.776 336.9 112 336.089 112H332.281ZM336.601 115.36H334.953V113.792H336.601V115.36ZM334.297 115.36H332.649V113.792H334.297V115.36ZM342.54 109.216C342.54 109.557 342.646 109.813 342.86 109.984C343.073 110.155 343.34 110.24 343.66 110.24H343.836C344.07 110.24 344.188 110.523 344.188 111.088C344.188 111.696 344.07 112 343.836 112H343.66C343.446 112 343.228 111.968 343.004 111.904C342.79 111.829 342.609 111.685 342.46 111.472V111.744C342.46 112.32 342.364 112.859 342.172 113.36C341.98 113.861 341.713 114.299 341.372 114.672C341.041 115.045 340.641 115.339 340.172 115.552C339.713 115.765 339.212 115.872 338.668 115.872H338.268L338.14 114.128H338.396C338.844 114.128 339.228 114.059 339.548 113.92C339.868 113.792 340.124 113.616 340.316 113.392C340.518 113.168 340.668 112.912 340.764 112.624C340.86 112.336 340.908 112.043 340.908 111.744V107.312H342.54V109.216ZM345.285 110.24C345.999 110.24 346.357 109.893 346.357 109.2V107.312H347.989V109.312C347.989 110.197 347.765 110.869 347.317 111.328C346.869 111.776 346.239 112 345.429 112H343.812C343.674 112 343.583 111.931 343.54 111.792C343.487 111.643 343.46 111.429 343.46 111.152C343.46 110.843 343.487 110.613 343.54 110.464C343.583 110.315 343.674 110.24 343.812 110.24H345.285ZM348.036 105.44H346.373V103.872H348.036V105.44ZM345.749 105.44H344.085V103.872H345.749V105.44ZM351.884 111.744C351.884 112.32 351.782 112.859 351.58 113.36C351.388 113.861 351.116 114.299 350.764 114.672C350.422 115.045 350.012 115.339 349.532 115.552C349.062 115.765 348.556 115.872 348.012 115.872H347.004L346.924 114.128H347.596C348.076 114.128 348.486 114.059 348.828 113.92C349.158 113.792 349.43 113.616 349.644 113.392C349.857 113.168 350.012 112.912 350.108 112.624C350.204 112.336 350.252 112.043 350.252 111.744V107.312H351.884V111.744ZM351.9 105.44H350.092V103.808H351.9V105.44ZM355.023 114.128C355.428 114.128 355.775 114.069 356.063 113.952C356.361 113.845 356.607 113.696 356.799 113.504C356.991 113.312 357.14 113.083 357.247 112.816C357.353 112.56 357.417 112.288 357.439 112H356.351C355.796 112 355.343 111.941 354.991 111.824C354.639 111.707 354.361 111.536 354.159 111.312C353.956 111.077 353.812 110.795 353.727 110.464C353.652 110.133 353.615 109.76 353.615 109.344C353.615 108.928 353.673 108.539 353.791 108.176C353.908 107.803 354.079 107.477 354.303 107.2C354.537 106.923 354.825 106.704 355.167 106.544C355.508 106.373 355.903 106.288 356.351 106.288C356.713 106.288 357.055 106.347 357.375 106.464C357.705 106.581 357.993 106.768 358.239 107.024C358.484 107.28 358.676 107.611 358.815 108.016C358.964 108.421 359.039 108.917 359.039 109.504V111.744C359.039 112.288 358.948 112.811 358.767 113.312C358.585 113.813 358.324 114.251 357.983 114.624C357.652 115.008 357.241 115.312 356.751 115.536C356.26 115.76 355.711 115.872 355.103 115.872H353.487L353.391 114.128H355.023ZM355.183 109.232C355.183 109.605 355.263 109.867 355.423 110.016C355.593 110.165 355.924 110.24 356.415 110.24H357.471V109.488C357.471 108.933 357.364 108.544 357.151 108.32C356.948 108.096 356.66 107.984 356.287 107.984C355.935 107.984 355.663 108.091 355.471 108.304C355.279 108.517 355.183 108.827 355.183 109.232ZM363.696 109.216C363.696 109.557 363.803 109.813 364.016 109.984C364.229 110.155 364.496 110.24 364.816 110.24H364.992C365.227 110.24 365.344 110.523 365.344 111.088C365.344 111.696 365.227 112 364.992 112H364.816C364.603 112 364.384 111.968 364.16 111.904C363.947 111.829 363.765 111.685 363.616 111.472V111.744C363.616 112.32 363.52 112.859 363.328 113.36C363.136 113.861 362.869 114.299 362.528 114.672C362.197 115.045 361.797 115.339 361.328 115.552C360.869 115.765 360.368 115.872 359.824 115.872H359.424L359.296 114.128H359.552C360 114.128 360.384 114.059 360.704 113.92C361.024 113.792 361.28 113.616 361.472 113.392C361.675 113.168 361.824 112.912 361.92 112.624C362.016 112.336 362.064 112.043 362.064 111.744V107.312H363.696V109.216ZM366.441 110.24C367.155 110.24 367.513 109.893 367.513 109.2V107.312H369.145V109.312C369.145 110.197 368.921 110.869 368.473 111.328C368.025 111.776 367.395 112 366.585 112H364.969C364.83 112 364.739 111.931 364.697 111.792C364.643 111.643 364.617 111.429 364.617 111.152C364.617 110.843 364.643 110.613 364.697 110.464C364.739 110.315 364.83 110.24 364.969 110.24H366.441ZM367.273 115.424H365.465V113.792H367.273V115.424ZM280.235 135.24C280.949 135.24 281.307 134.893 281.307 134.2V132.312H282.939V134.2C282.939 134.573 283.056 134.84 283.291 135C283.525 135.16 283.803 135.24 284.123 135.24H284.443C284.581 135.24 284.672 135.315 284.715 135.464C284.768 135.603 284.795 135.811 284.795 136.088C284.795 136.397 284.768 136.627 284.715 136.776C284.672 136.925 284.581 137 284.443 137H284.059C283.664 137 283.296 136.936 282.955 136.808C282.613 136.669 282.32 136.397 282.075 135.992C281.829 136.397 281.547 136.669 281.227 136.808C280.917 136.936 280.587 137 280.235 137H274.843C274.405 137 274.027 136.936 273.707 136.808C273.397 136.669 273.141 136.488 272.939 136.264C272.747 136.04 272.603 135.779 272.507 135.48C272.421 135.181 272.379 134.867 272.379 134.536V132.264H273.995V134.12C273.995 134.472 274.075 134.749 274.235 134.952C274.395 135.144 274.72 135.24 275.211 135.24H280.235ZM279.627 131.016H277.963V129.448H279.627V131.016ZM277.339 131.016H275.674V129.448H277.339V131.016ZM285.142 135.24C285.878 135.24 286.246 134.893 286.246 134.2V132.312H287.862V134.2C287.862 134.573 287.974 134.84 288.198 135C288.432 135.16 288.699 135.24 288.998 135.24C289.798 135.24 290.198 134.893 290.198 134.2V132.312H291.83V134.2C291.83 134.573 291.926 134.84 292.118 135C292.32 135.16 292.555 135.24 292.822 135.24C293.142 135.24 293.387 135.155 293.558 134.984C293.739 134.803 293.83 134.541 293.83 134.2V132.312H295.462V134.312C295.462 135.197 295.232 135.869 294.774 136.328C294.326 136.776 293.696 137 292.885 137C292.523 137 292.176 136.936 291.846 136.808C291.515 136.669 291.227 136.397 290.982 135.992C290.726 136.397 290.422 136.669 290.07 136.808C289.728 136.936 289.371 137 288.998 137C288.592 137 288.219 136.936 287.878 136.808C287.547 136.669 287.259 136.397 287.014 135.992C286.758 136.397 286.47 136.669 286.15 136.808C285.83 136.936 285.488 137 285.126 137H284.438C284.299 137 284.208 136.931 284.165 136.792C284.112 136.643 284.085 136.429 284.085 136.152C284.085 135.843 284.112 135.613 284.165 135.464C284.208 135.315 284.299 135.24 284.438 135.24H285.142ZM299.545 137C299.246 137 298.958 136.963 298.681 136.888C298.414 136.803 298.18 136.664 297.977 136.472C297.774 136.28 297.614 136.029 297.497 135.72C297.38 135.4 297.321 135.005 297.321 134.536V127.08H298.953V134.136C298.953 134.477 299.028 134.749 299.177 134.952C299.337 135.144 299.572 135.24 299.881 135.24H300.249C300.484 135.24 300.601 135.523 300.601 136.088C300.601 136.696 300.484 137 300.249 137H299.545ZM300.394 135.24C300.757 135.24 301.039 135.171 301.242 135.032C301.445 134.883 301.546 134.643 301.546 134.312V133.96C301.546 133.533 301.605 133.139 301.722 132.776C301.85 132.413 302.031 132.104 302.266 131.848C302.501 131.592 302.783 131.395 303.114 131.256C303.455 131.107 303.834 131.032 304.25 131.032C304.687 131.032 305.071 131.107 305.402 131.256C305.743 131.395 306.026 131.597 306.25 131.864C306.474 132.12 306.645 132.424 306.762 132.776C306.879 133.128 306.938 133.512 306.938 133.928V134.232C306.938 134.616 307.05 134.883 307.274 135.032C307.509 135.171 307.754 135.24 308.01 135.24H308.234C308.373 135.24 308.463 135.315 308.506 135.464C308.559 135.603 308.586 135.811 308.586 136.088C308.586 136.397 308.559 136.627 308.506 136.776C308.463 136.925 308.373 137 308.234 137H308.01C307.701 137 307.386 136.936 307.066 136.808C306.746 136.669 306.469 136.381 306.234 135.944C305.946 136.381 305.621 136.669 305.258 136.808C304.906 136.936 304.543 137 304.17 137C303.743 137 303.343 136.92 302.97 136.76C302.607 136.589 302.325 136.323 302.122 135.96C301.919 136.376 301.658 136.653 301.338 136.792C301.018 136.931 300.703 137 300.394 137H300.25C300.111 137 300.021 136.931 299.978 136.792C299.925 136.643 299.898 136.429 299.898 136.152C299.898 135.843 299.925 135.613 299.978 135.464C300.021 135.315 300.111 135.24 300.25 135.24H300.394ZM305.37 134.088C305.37 133.725 305.285 133.421 305.114 133.176C304.954 132.931 304.661 132.808 304.234 132.808C303.829 132.808 303.535 132.931 303.354 133.176C303.183 133.411 303.098 133.72 303.098 134.104C303.098 134.477 303.199 134.76 303.402 134.952C303.605 135.144 303.882 135.24 304.234 135.24C304.991 135.24 305.37 134.856 305.37 134.088ZM308.938 135.24C309.674 135.24 310.042 134.893 310.042 134.2V132.312H311.658V134.2C311.658 134.573 311.77 134.84 311.994 135C312.229 135.16 312.496 135.24 312.794 135.24C313.594 135.24 313.994 134.893 313.994 134.2V132.312H315.626V134.2C315.626 134.573 315.722 134.84 315.914 135C316.117 135.16 316.352 135.24 316.618 135.24C316.938 135.24 317.184 135.155 317.354 134.984C317.536 134.803 317.626 134.541 317.626 134.2V132.312H319.258V134.312C319.258 135.197 319.029 135.869 318.57 136.328C318.122 136.776 317.493 137 316.682 137C316.32 137 315.973 136.936 315.642 136.808C315.312 136.669 315.024 136.397 314.778 135.992C314.522 136.397 314.218 136.669 313.866 136.808C313.525 136.936 313.168 137 312.794 137C312.389 137 312.016 136.936 311.674 136.808C311.344 136.669 311.056 136.397 310.81 135.992C310.554 136.397 310.266 136.669 309.946 136.808C309.626 136.936 309.285 137 308.922 137H308.234C308.096 137 308.005 136.931 307.962 136.792C307.909 136.643 307.882 136.429 307.882 136.152C307.882 135.843 307.909 135.613 307.962 135.464C308.005 135.315 308.096 135.24 308.234 135.24H308.938ZM315.642 128.2H313.946V126.648H315.642V128.2ZM316.762 130.44H315.098V128.872H316.762V130.44ZM314.474 130.44H312.81V128.872H314.474V130.44ZM326.649 136.744C326.649 137.32 326.548 137.859 326.345 138.36C326.153 138.861 325.881 139.299 325.529 139.672C325.188 140.045 324.777 140.339 324.297 140.552C323.828 140.765 323.321 140.872 322.777 140.872H321.769L321.689 139.128H322.361C322.841 139.128 323.252 139.059 323.593 138.92C323.924 138.792 324.196 138.616 324.409 138.392C324.623 138.168 324.777 137.912 324.873 137.624C324.969 137.336 325.017 137.043 325.017 136.744V132.312H326.649V136.744ZM330.732 137C330.434 137 330.146 136.963 329.868 136.888C329.602 136.803 329.367 136.664 329.164 136.472C328.962 136.28 328.802 136.029 328.684 135.72C328.567 135.4 328.508 135.005 328.508 134.536V127.08H330.14V134.136C330.14 134.477 330.215 134.749 330.364 134.952C330.524 135.144 330.759 135.24 331.068 135.24H331.436C331.671 135.24 331.788 135.523 331.788 136.088C331.788 136.696 331.671 137 331.436 137H330.732ZM332.558 135.24C333.272 135.24 333.63 134.893 333.63 134.2V132.312H335.278V134.2C335.278 134.573 335.39 134.84 335.614 135C335.848 135.16 336.12 135.24 336.43 135.24H336.846C337.091 135.24 337.214 135.523 337.214 136.088C337.214 136.696 337.091 137 336.846 137H336.382C335.976 137 335.608 136.936 335.278 136.808C334.947 136.669 334.659 136.397 334.414 135.992C334.147 136.397 333.859 136.669 333.549 136.808C333.24 136.936 332.91 137 332.558 137H331.438C331.299 137 331.208 136.931 331.165 136.792C331.112 136.643 331.085 136.429 331.085 136.152C331.085 135.843 331.112 135.613 331.165 135.464C331.208 135.315 331.299 135.24 331.438 135.24H332.558ZM336.11 140.36H334.462V138.792H336.11V140.36ZM333.806 140.36H332.158V138.792H333.806V140.36ZM337.964 135.24C338.678 135.24 339.036 134.893 339.036 134.2V132.312H340.684V134.2C340.684 134.573 340.796 134.84 341.02 135C341.254 135.16 341.526 135.24 341.836 135.24H342.252C342.497 135.24 342.62 135.523 342.62 136.088C342.62 136.696 342.497 137 342.252 137H341.788C341.382 137 341.014 136.936 340.684 136.808C340.353 136.669 340.065 136.397 339.82 135.992C339.553 136.397 339.265 136.669 338.956 136.808C338.646 136.936 338.316 137 337.964 137H336.844C336.705 137 336.614 136.931 336.572 136.792C336.518 136.643 336.492 136.429 336.492 136.152C336.492 135.843 336.518 135.613 336.572 135.464C336.614 135.315 336.705 135.24 336.844 135.24H337.964ZM341.628 130.44H339.964V128.872H341.628V130.44ZM339.34 130.44H337.676V128.872H339.34V130.44ZM346.842 136.104C346.554 136.275 346.271 136.419 345.994 136.536C345.717 136.643 345.423 136.733 345.114 136.808C344.805 136.872 344.463 136.92 344.09 136.952C343.727 136.984 343.306 137 342.826 137H342.25C342.111 137 342.021 136.931 341.978 136.792C341.925 136.643 341.898 136.429 341.898 136.152C341.898 135.843 341.925 135.613 341.978 135.464C342.021 135.315 342.111 135.24 342.25 135.24H342.89C343.285 135.24 343.642 135.235 343.962 135.224C344.282 135.203 344.57 135.171 344.826 135.128C345.093 135.085 345.343 135.027 345.578 134.952C345.813 134.867 346.047 134.755 346.282 134.616L348.314 133.448C348.239 133.309 348.165 133.187 348.09 133.08C348.026 132.973 347.941 132.888 347.834 132.824C347.738 132.749 347.615 132.696 347.466 132.664C347.317 132.621 347.125 132.6 346.89 132.6H343.498L343.594 130.84H347.146C347.445 130.84 347.738 130.883 348.026 130.968C348.325 131.053 348.602 131.219 348.858 131.464C349.125 131.699 349.365 132.035 349.578 132.472C349.802 132.899 349.989 133.464 350.138 134.168L346.842 136.104ZM347.13 129.16H345.322V127.528H347.13V129.16ZM351.852 127.08H353.484V137H351.852V127.08ZM361.071 136.744C361.071 137.32 360.97 137.859 360.767 138.36C360.575 138.861 360.303 139.299 359.951 139.672C359.61 140.045 359.199 140.339 358.719 140.552C358.25 140.765 357.743 140.872 357.199 140.872H356.191L356.111 139.128H356.783C357.263 139.128 357.674 139.059 358.015 138.92C358.346 138.792 358.618 138.616 358.831 138.392C359.045 138.168 359.199 137.912 359.295 137.624C359.391 137.336 359.439 137.043 359.439 136.744V132.312H361.071V136.744ZM368.418 133C368.706 133.331 368.914 133.661 369.042 133.992C369.181 134.312 369.25 134.627 369.25 134.936C369.25 135.224 369.197 135.496 369.09 135.752C368.994 135.997 368.845 136.216 368.642 136.408C368.44 136.589 368.184 136.733 367.874 136.84C367.576 136.947 367.229 137 366.834 137H362.562L362.482 135.24H366.562C367.085 135.24 367.346 135.043 367.346 134.648C367.346 134.456 367.256 134.259 367.074 134.056L364.354 130.952L365.618 129.768L368.418 133Z" fill="white" fill-opacity="0.8"/>
</svg>
