<svg width="400" height="201" viewBox="0 0 400 201" fill="none" xmlns="http://www.w3.org/2000/svg">
<rect width="400" height="201" rx="10" fill="#0d0b01"/>
<path d="M257.128 56C256.776 56 256.424 55.936 256.072 55.808C255.72 55.68 255.424 55.448 255.184 55.112V55.544C255.184 56.408 255.048 57.216 254.776 57.968C254.504 58.736 254.112 59.4 253.6 59.96C253.088 60.536 252.472 60.984 251.752 61.304C251.032 61.64 250.216 61.808 249.304 61.808H247.84C246.048 61.808 244.656 61.256 243.664 60.152C242.672 59.048 242.176 57.536 242.176 55.616V51.368H244.12V55.544C244.12 56.792 244.432 57.8 245.056 58.568C245.68 59.336 246.704 59.72 248.128 59.72H249.184C249.904 59.72 250.52 59.608 251.032 59.384C251.56 59.16 251.992 58.856 252.328 58.472C252.664 58.088 252.912 57.64 253.072 57.128C253.232 56.616 253.312 56.08 253.312 55.52V41.12H255.256V52.208C255.256 52.736 255.432 53.152 255.784 53.456C256.136 53.744 256.584 53.888 257.128 53.888H257.392C257.76 53.888 257.944 54.232 257.944 54.92C257.944 55.64 257.76 56 257.392 56H257.128ZM260.311 53.888C259.943 53.472 259.695 53.032 259.567 52.568C259.455 52.104 259.399 51.704 259.399 51.368C259.399 50.76 259.503 50.192 259.711 49.664C259.919 49.136 260.207 48.68 260.575 48.296C260.943 47.912 261.391 47.608 261.919 47.384C262.447 47.16 263.023 47.048 263.647 47.048C264.207 47.048 264.743 47.136 265.255 47.312C265.783 47.488 266.351 47.776 266.959 48.176L266.119 49.856C265.623 49.6 265.183 49.424 264.799 49.328C264.415 49.216 264.031 49.16 263.647 49.16C263.295 49.16 262.975 49.224 262.687 49.352C262.415 49.48 262.175 49.648 261.967 49.856C261.775 50.048 261.623 50.28 261.511 50.552C261.415 50.824 261.367 51.104 261.367 51.392C261.367 51.728 261.423 52.048 261.535 52.352C261.663 52.64 261.831 52.904 262.039 53.144C262.247 53.368 262.487 53.552 262.759 53.696C263.031 53.824 263.319 53.888 263.623 53.888H267.535L267.415 56H257.383C257.175 56 257.039 55.92 256.975 55.76C256.895 55.584 256.855 55.328 256.855 54.992C256.855 54.608 256.895 54.328 256.975 54.152C257.039 53.976 257.175 53.888 257.383 53.888H260.311ZM264.247 44.264H261.895V42.2H264.247V44.264ZM273.575 56C273.143 56 272.727 55.944 272.327 55.832C271.927 55.704 271.575 55.496 271.271 55.208C270.983 54.92 270.751 54.544 270.575 54.08C270.399 53.6 270.311 53.008 270.311 52.304V41.12H272.279V51.872C272.279 52.48 272.407 52.968 272.663 53.336C272.935 53.704 273.359 53.888 273.935 53.888H274.415C274.767 53.888 274.943 54.232 274.943 54.92C274.943 55.64 274.767 56 274.415 56H273.575ZM275.382 53.888C276.646 53.888 277.278 53.304 277.278 52.136V49.064H279.246V52.136C279.246 52.456 279.302 52.728 279.414 52.952C279.526 53.176 279.67 53.36 279.846 53.504C280.022 53.632 280.222 53.728 280.446 53.792C280.686 53.856 280.926 53.888 281.166 53.888C282.542 53.888 283.23 53.304 283.23 52.136V49.064H285.198V52.136C285.198 52.792 285.366 53.248 285.702 53.504C286.054 53.76 286.462 53.888 286.926 53.888C287.486 53.888 287.918 53.736 288.222 53.432C288.542 53.128 288.702 52.696 288.702 52.136V49.064H290.67V52.136C290.67 52.456 290.718 52.728 290.814 52.952C290.926 53.176 291.07 53.36 291.246 53.504C291.422 53.632 291.622 53.728 291.846 53.792C292.07 53.856 292.294 53.888 292.518 53.888H293.022C293.374 53.888 293.55 54.232 293.55 54.92C293.55 55.64 293.374 56 293.022 56H292.518C291.926 56 291.374 55.896 290.862 55.688C290.366 55.48 289.95 55.072 289.614 54.464C289.246 55.072 288.814 55.48 288.318 55.688C287.838 55.896 287.374 56 286.926 56C286.366 56 285.846 55.896 285.366 55.688C284.886 55.48 284.478 55.072 284.142 54.464C283.774 55.072 283.326 55.48 282.798 55.688C282.27 55.896 281.726 56 281.166 56C280.558 56 279.99 55.896 279.462 55.688C278.95 55.48 278.526 55.072 278.19 54.464C277.822 55.072 277.39 55.48 276.894 55.688C276.398 55.896 275.87 56 275.31 56H274.422C274.214 56 274.078 55.92 274.014 55.76C273.934 55.584 273.894 55.328 273.894 54.992C273.894 54.608 273.934 54.328 274.014 54.152C274.078 53.976 274.214 53.888 274.422 53.888H275.382ZM285.318 43.016H283.11V41.024H285.318V43.016ZM286.902 46.112H284.718V44.096H286.902V46.112ZM283.686 46.112H281.502V44.096H283.686V46.112ZM293.343 53.888C294.559 53.888 295.167 53.376 295.167 52.352V51.608C295.167 50.248 295.519 49.176 296.223 48.392C296.943 47.592 297.935 47.192 299.199 47.192C299.855 47.192 300.431 47.304 300.927 47.528C301.423 47.736 301.839 48.032 302.175 48.416C302.511 48.8 302.759 49.264 302.919 49.808C303.095 50.336 303.183 50.92 303.183 51.56C303.183 52.968 302.823 54.064 302.103 54.848C301.383 55.616 300.391 56 299.127 56C298.487 56 297.871 55.88 297.279 55.64C296.703 55.384 296.255 54.96 295.935 54.368C295.791 54.704 295.615 54.984 295.407 55.208C295.199 55.416 294.983 55.584 294.759 55.712C294.535 55.824 294.295 55.904 294.039 55.952C293.799 55.984 293.567 56 293.343 56H293.031C292.823 56 292.687 55.92 292.623 55.76C292.543 55.584 292.503 55.328 292.503 54.992C292.503 54.608 292.543 54.328 292.623 54.152C292.687 53.976 292.823 53.888 293.031 53.888H293.343ZM301.263 51.704C301.263 51 301.103 50.424 300.783 49.976C300.479 49.528 299.935 49.304 299.151 49.304C298.431 49.304 297.895 49.52 297.543 49.952C297.207 50.384 297.039 50.992 297.039 51.776C297.039 52.48 297.231 53.008 297.615 53.36C298.015 53.712 298.519 53.888 299.127 53.888C299.847 53.888 300.383 53.704 300.735 53.336C301.087 52.952 301.263 52.408 301.263 51.704Z" fill="#F5E427"/>
<path d="M61.3634 109.745C61.7794 109.745 62.094 109.66 62.3074 109.489C62.5207 109.308 62.6274 109.068 62.6274 108.769V107.249H61.5074C61.0594 107.249 60.7394 107.383 60.5474 107.649C60.3554 107.905 60.2594 108.241 60.2594 108.657C60.2594 109.041 60.3447 109.319 60.5154 109.489C60.6967 109.66 60.9794 109.745 61.3634 109.745ZM64.2114 109.137C64.2114 109.479 64.2807 109.751 64.4194 109.953C64.5687 110.145 64.8034 110.241 65.1234 110.241H65.4914C65.63 110.241 65.7207 110.316 65.7634 110.465C65.8167 110.604 65.8434 110.812 65.8434 111.089C65.8434 111.399 65.8167 111.628 65.7634 111.777C65.7207 111.927 65.63 112.001 65.4914 112.001H65.1234C64.5794 112.001 64.1367 111.905 63.7954 111.713C63.4647 111.521 63.214 111.196 63.0434 110.737C62.7767 111.036 62.4567 111.228 62.0834 111.313C61.7207 111.388 61.3687 111.425 61.0274 111.425C60.27 111.425 59.6887 111.207 59.2834 110.769C58.8887 110.321 58.6914 109.66 58.6914 108.785C58.6914 108.391 58.7447 108.007 58.8514 107.633C58.9687 107.249 59.134 106.908 59.3474 106.609C59.5714 106.311 59.8487 106.071 60.1794 105.889C60.5207 105.708 60.9154 105.617 61.3634 105.617H62.6274V104.545H64.2114V109.137ZM66.9564 110.241C67.671 110.241 68.0284 109.895 68.0284 109.201V107.313H69.6604V109.313C69.6604 110.199 69.4364 110.871 68.9884 111.329C68.5404 111.777 67.911 112.001 67.1004 112.001H65.4844C65.3457 112.001 65.255 111.932 65.2124 111.793C65.159 111.644 65.1324 111.431 65.1324 111.153C65.1324 110.844 65.159 110.615 65.2124 110.465C65.255 110.316 65.3457 110.241 65.4844 110.241H66.9564ZM69.1644 105.441H67.3564V103.809H69.1644V105.441ZM73.7636 112.001C73.465 112.001 73.177 111.964 72.8996 111.889C72.633 111.804 72.3983 111.665 72.1956 111.473C71.993 111.281 71.833 111.031 71.7156 110.721C71.5983 110.401 71.5396 110.007 71.5396 109.537V102.081H73.1716V109.137C73.1716 109.479 73.2463 109.751 73.3956 109.953C73.5556 110.145 73.7903 110.241 74.0996 110.241H74.4676C74.7023 110.241 74.8196 110.524 74.8196 111.089C74.8196 111.697 74.7023 112.001 74.4676 112.001H73.7636ZM74.6128 110.241C74.9754 110.241 75.2581 110.172 75.4608 110.033C75.6634 109.884 75.7648 109.644 75.7648 109.313V108.961C75.7648 108.535 75.8234 108.14 75.9408 107.777C76.0688 107.415 76.2501 107.105 76.4848 106.849C76.7194 106.593 77.0021 106.396 77.3328 106.257C77.6741 106.108 78.0528 106.033 78.4688 106.033C78.9061 106.033 79.2901 106.108 79.6208 106.257C79.9621 106.396 80.2448 106.599 80.4688 106.865C80.6928 107.121 80.8634 107.431 80.9808 107.793C81.0981 108.156 81.1568 108.551 81.1568 108.977C81.1568 109.937 80.9114 110.684 80.4208 111.217C79.9408 111.74 79.2848 112.001 78.4528 112.001C78.0261 112.001 77.6154 111.921 77.2208 111.761C76.8368 111.591 76.5434 111.324 76.3408 110.961C76.1381 111.377 75.8768 111.655 75.5568 111.793C75.2368 111.932 74.9221 112.001 74.6128 112.001H74.4688C74.3301 112.001 74.2394 111.932 74.1967 111.793C74.1434 111.644 74.1167 111.431 74.1167 111.153C74.1167 110.844 74.1434 110.615 74.1967 110.465C74.2394 110.316 74.3301 110.241 74.4688 110.241H74.6128ZM79.5888 109.089C79.5888 108.727 79.5034 108.423 79.3328 108.177C79.1728 107.932 78.8794 107.809 78.4528 107.809C78.0474 107.809 77.7541 107.932 77.5728 108.177C77.4021 108.412 77.3168 108.721 77.3168 109.105C77.3168 109.479 77.4181 109.761 77.6208 109.953C77.8234 110.145 78.1008 110.241 78.4528 110.241C79.2101 110.241 79.5888 109.857 79.5888 109.089ZM85.248 112.001C84.9493 112.001 84.6613 111.964 84.384 111.889C84.1173 111.804 83.8827 111.665 83.68 111.473C83.4773 111.281 83.3173 111.031 83.2 110.721C83.0827 110.401 83.024 110.007 83.024 109.537V102.081H84.656V109.137C84.656 109.479 84.7307 109.751 84.88 109.953C85.04 110.145 85.2747 110.241 85.584 110.241H85.952C86.1867 110.241 86.304 110.524 86.304 111.089C86.304 111.697 86.1867 112.001 85.952 112.001H85.248ZM86.6571 110.241C87.3931 110.241 87.7611 109.895 87.7611 109.201V107.313H89.3771V109.201C89.3771 109.575 89.4891 109.841 89.7131 110.001C89.9478 110.161 90.2145 110.241 90.5131 110.241C91.3131 110.241 91.7131 109.895 91.7131 109.201V107.313H93.3451V109.201C93.3451 109.575 93.4411 109.841 93.6331 110.001C93.8358 110.161 94.0705 110.241 94.3371 110.241C94.6571 110.241 94.9025 110.156 95.0731 109.985C95.2545 109.804 95.3451 109.543 95.3451 109.201V107.313H96.9771V109.313C96.9771 110.199 96.7478 110.871 96.2891 111.329C95.8411 111.777 95.2118 112.001 94.4011 112.001C94.0385 112.001 93.6918 111.937 93.3611 111.809C93.0305 111.671 92.7425 111.399 92.4971 110.993C92.2411 111.399 91.9371 111.671 91.5851 111.809C91.2438 111.937 90.8865 112.001 90.5131 112.001C90.1078 112.001 89.7345 111.937 89.3931 111.809C89.0625 111.671 88.7745 111.399 88.5291 110.993C88.2731 111.399 87.9851 111.671 87.6651 111.809C87.3451 111.937 87.0038 112.001 86.6411 112.001H85.9531C85.8145 112.001 85.7238 111.932 85.6811 111.793C85.6278 111.644 85.6011 111.431 85.6011 111.153C85.6011 110.844 85.6278 110.615 85.6811 110.465C85.7238 110.316 85.8145 110.241 85.9531 110.241H86.6571ZM104.368 111.745C104.368 112.321 104.267 112.86 104.064 113.361C103.872 113.863 103.6 114.3 103.248 114.673C102.907 115.047 102.496 115.34 102.016 115.553C101.547 115.767 101.04 115.873 100.496 115.873H99.4881L99.4081 114.129H100.08C100.56 114.129 100.971 114.06 101.312 113.921C101.643 113.793 101.915 113.617 102.128 113.393C102.341 113.169 102.496 112.913 102.592 112.625C102.688 112.337 102.736 112.044 102.736 111.745V107.313H104.368V111.745ZM111.715 108.001C112.003 108.332 112.211 108.663 112.339 108.993C112.478 109.313 112.547 109.628 112.547 109.937C112.547 110.225 112.494 110.497 112.387 110.753C112.291 110.999 112.142 111.217 111.939 111.409C111.736 111.591 111.48 111.735 111.171 111.841C110.872 111.948 110.526 112.001 110.131 112.001H105.859L105.779 110.241H109.859C110.382 110.241 110.643 110.044 110.643 109.649C110.643 109.457 110.552 109.26 110.371 109.057L107.651 105.953L108.915 104.769L111.715 108.001ZM116.555 102.081H118.187V112.001H116.555V102.081ZM122.259 111.745C122.259 112.321 122.157 112.86 121.955 113.361C121.763 113.863 121.491 114.3 121.139 114.673C120.797 115.047 120.387 115.34 119.907 115.553C119.437 115.767 118.931 115.873 118.387 115.873H117.379L117.299 114.129H117.971C118.451 114.129 118.861 114.06 119.203 113.921C119.533 113.793 119.805 113.617 120.019 113.393C120.232 113.169 120.387 112.913 120.483 112.625C120.579 112.337 120.627 112.044 120.627 111.745V107.313H122.259V111.745ZM131.84 108.001C132.128 108.332 132.336 108.663 132.464 108.993C132.603 109.313 132.672 109.628 132.672 109.937C132.672 110.225 132.619 110.497 132.512 110.753C132.416 110.999 132.267 111.217 132.064 111.409C131.861 111.591 131.605 111.735 131.296 111.841C130.997 111.948 130.651 112.001 130.256 112.001H125.984L125.904 110.241H129.984C130.507 110.241 130.768 110.044 130.768 109.649C130.768 109.457 130.677 109.26 130.496 109.057L127.776 105.953L129.04 104.769L131.84 108.001ZM135.726 114.129C136.131 114.129 136.478 114.071 136.766 113.953C137.065 113.847 137.31 113.697 137.502 113.505C137.694 113.313 137.843 113.084 137.95 112.817C138.057 112.561 138.121 112.289 138.142 112.001H137.054C136.499 112.001 136.046 111.943 135.694 111.825C135.342 111.708 135.065 111.537 134.862 111.313C134.659 111.079 134.515 110.796 134.43 110.465C134.355 110.135 134.318 109.761 134.318 109.345C134.318 108.929 134.377 108.54 134.494 108.177C134.611 107.804 134.782 107.479 135.006 107.201C135.241 106.924 135.529 106.705 135.87 106.545C136.211 106.375 136.606 106.289 137.054 106.289C137.417 106.289 137.758 106.348 138.078 106.465C138.409 106.583 138.697 106.769 138.942 107.025C139.187 107.281 139.379 107.612 139.518 108.017C139.667 108.423 139.742 108.919 139.742 109.505V110.241H141.038C141.273 110.241 141.39 110.524 141.39 111.089C141.39 111.697 141.273 112.001 141.038 112.001H139.71C139.689 112.524 139.582 113.02 139.39 113.489C139.198 113.959 138.931 114.369 138.59 114.721C138.259 115.073 137.859 115.351 137.39 115.553C136.921 115.767 136.393 115.873 135.806 115.873H134.19L134.094 114.129H135.726ZM135.886 109.233C135.886 109.607 135.966 109.868 136.126 110.017C136.297 110.167 136.627 110.241 137.118 110.241H138.174V109.489C138.174 108.935 138.067 108.545 137.854 108.321C137.651 108.097 137.363 107.985 136.99 107.985C136.638 107.985 136.366 108.092 136.174 108.305C135.982 108.519 135.886 108.828 135.886 109.233ZM145.623 111.105C145.335 111.276 145.053 111.42 144.775 111.537C144.498 111.644 144.205 111.735 143.895 111.809C143.586 111.873 143.245 111.921 142.871 111.953C142.509 111.985 142.087 112.001 141.607 112.001H141.031C140.893 112.001 140.802 111.932 140.759 111.793C140.706 111.644 140.679 111.431 140.679 111.153C140.679 110.844 140.706 110.615 140.759 110.465C140.802 110.316 140.893 110.241 141.031 110.241H141.671C142.066 110.241 142.423 110.236 142.743 110.225C143.063 110.204 143.351 110.172 143.607 110.129C143.874 110.087 144.125 110.028 144.359 109.953C144.594 109.868 144.829 109.756 145.063 109.617L147.095 108.449C147.021 108.311 146.946 108.188 146.871 108.081C146.807 107.975 146.722 107.889 146.615 107.825C146.519 107.751 146.397 107.697 146.247 107.665C146.098 107.623 145.906 107.601 145.671 107.601H142.279L142.375 105.841H145.927C146.226 105.841 146.519 105.884 146.807 105.969C147.106 106.055 147.383 106.22 147.639 106.465C147.906 106.7 148.146 107.036 148.359 107.473C148.583 107.9 148.77 108.465 148.919 109.169L145.623 111.105ZM158.292 112.001C157.545 112.001 156.942 111.809 156.484 111.425C156.025 111.031 155.796 110.46 155.796 109.713V108.897C155.796 108.599 155.822 108.348 155.876 108.145C155.929 107.943 156.03 107.777 156.18 107.649H155.812C155.3 107.649 154.921 107.756 154.676 107.969C154.43 108.183 154.308 108.492 154.308 108.897V115.873H152.676V108.833C152.676 108.46 152.74 108.103 152.868 107.761C153.006 107.409 153.204 107.1 153.46 106.833C153.716 106.567 154.036 106.353 154.42 106.193C154.804 106.033 155.252 105.953 155.764 105.953H158.66C159.108 105.953 159.481 106.017 159.78 106.145C160.089 106.263 160.34 106.428 160.532 106.641C160.724 106.844 160.857 107.084 160.932 107.361C161.017 107.639 161.06 107.932 161.06 108.241V109.649C161.06 110.065 160.985 110.423 160.836 110.721C160.697 111.009 160.5 111.249 160.244 111.441C159.998 111.633 159.705 111.777 159.364 111.873C159.033 111.959 158.676 112.001 158.292 112.001ZM158.42 110.241C158.793 110.241 159.065 110.161 159.236 110.001C159.417 109.841 159.508 109.623 159.508 109.345V108.657C159.508 108.38 159.433 108.156 159.284 107.985C159.145 107.804 158.91 107.713 158.58 107.713H158.244C157.934 107.713 157.705 107.804 157.556 107.985C157.417 108.167 157.348 108.396 157.348 108.673V109.313C157.348 109.601 157.428 109.831 157.588 110.001C157.758 110.161 158.036 110.241 158.42 110.241ZM164.21 114.129C164.616 114.129 164.962 114.071 165.25 113.953C165.549 113.847 165.794 113.697 165.986 113.505C166.178 113.313 166.328 113.084 166.434 112.817C166.541 112.561 166.605 112.289 166.626 112.001H165.538C164.984 112.001 164.53 111.943 164.178 111.825C163.826 111.708 163.549 111.537 163.346 111.313C163.144 111.079 163 110.796 162.914 110.465C162.84 110.135 162.802 109.761 162.802 109.345C162.802 108.929 162.861 108.54 162.978 108.177C163.096 107.804 163.266 107.479 163.49 107.201C163.725 106.924 164.013 106.705 164.354 106.545C164.696 106.375 165.09 106.289 165.538 106.289C165.901 106.289 166.242 106.348 166.562 106.465C166.893 106.583 167.181 106.769 167.426 107.025C167.672 107.281 167.864 107.612 168.002 108.017C168.152 108.423 168.226 108.919 168.226 109.505V111.745C168.226 112.289 168.136 112.812 167.954 113.313C167.773 113.815 167.512 114.252 167.17 114.625C166.84 115.009 166.429 115.313 165.938 115.537C165.448 115.761 164.898 115.873 164.29 115.873H162.674L162.578 114.129H164.21ZM164.37 109.233C164.37 109.607 164.45 109.868 164.61 110.017C164.781 110.167 165.112 110.241 165.602 110.241H166.658V109.489C166.658 108.935 166.552 108.545 166.338 108.321C166.136 108.097 165.848 107.985 165.474 107.985C165.122 107.985 164.85 108.092 164.658 108.305C164.466 108.519 164.37 108.828 164.37 109.233ZM175.575 108.001C175.863 108.332 176.071 108.663 176.199 108.993C176.337 109.313 176.407 109.628 176.407 109.937C176.407 110.225 176.353 110.497 176.247 110.753C176.151 110.999 176.001 111.217 175.799 111.409C175.596 111.591 175.34 111.735 175.031 111.841C174.732 111.948 174.385 112.001 173.991 112.001H169.719L169.639 110.241H173.719C174.241 110.241 174.503 110.044 174.503 109.649C174.503 109.457 174.412 109.26 174.231 109.057L171.511 105.953L172.775 104.769L175.575 108.001ZM190.063 112.001C189.849 112.001 189.631 111.969 189.407 111.905C189.193 111.831 189.012 111.687 188.863 111.473V111.681C188.863 112.268 188.772 112.812 188.591 113.313C188.409 113.825 188.148 114.268 187.807 114.641C187.465 115.025 187.049 115.324 186.559 115.537C186.079 115.761 185.535 115.873 184.927 115.873H183.919C182.724 115.873 181.796 115.505 181.135 114.769C180.473 114.033 180.143 113.025 180.143 111.745V108.881H181.759V111.681C181.759 112.055 181.801 112.391 181.887 112.689C181.972 112.988 182.105 113.244 182.287 113.457C182.479 113.671 182.724 113.836 183.023 113.953C183.332 114.071 183.705 114.129 184.143 114.129H184.847C185.295 114.129 185.673 114.06 185.983 113.921C186.303 113.793 186.559 113.612 186.751 113.377C186.953 113.153 187.097 112.887 187.183 112.577C187.268 112.279 187.311 111.959 187.311 111.617V102.081H188.927V109.217C188.927 109.559 189.033 109.815 189.247 109.985C189.471 110.156 189.743 110.241 190.063 110.241H190.239C190.473 110.241 190.591 110.524 190.591 111.089C190.591 111.697 190.473 112.001 190.239 112.001H190.063ZM191.162 110.241C191.504 110.241 191.872 110.231 192.266 110.209C192.661 110.188 193.045 110.119 193.418 110.001L191.402 107.361L192.218 105.809H196.394C196.906 105.809 197.322 105.921 197.642 106.145C197.973 106.359 198.181 106.652 198.266 107.025C198.288 107.111 198.304 107.196 198.314 107.281C198.325 107.356 198.33 107.436 198.33 107.521C198.32 107.66 198.293 107.809 198.25 107.969C198.208 108.129 198.128 108.311 198.01 108.513C197.893 108.716 197.728 108.945 197.514 109.201C197.301 109.457 197.018 109.751 196.666 110.081C196.933 110.167 197.205 110.215 197.482 110.225C197.77 110.236 198.085 110.241 198.426 110.241H199.53C199.669 110.241 199.76 110.316 199.802 110.465C199.856 110.604 199.882 110.812 199.882 111.089C199.882 111.399 199.856 111.628 199.802 111.777C199.76 111.927 199.669 112.001 199.53 112.001H198.106C197.786 112.001 197.482 111.996 197.194 111.985C196.917 111.964 196.65 111.927 196.394 111.873C196.138 111.82 195.893 111.735 195.658 111.617C195.424 111.5 195.194 111.345 194.97 111.153C194.672 111.335 194.378 111.484 194.09 111.601C193.802 111.708 193.509 111.793 193.21 111.857C192.912 111.911 192.602 111.948 192.282 111.969C191.973 111.991 191.642 112.001 191.29 112.001H190.234C190.096 112.001 190.005 111.932 189.962 111.793C189.909 111.644 189.882 111.431 189.882 111.153C189.882 110.844 189.909 110.615 189.962 110.465C190.005 110.316 190.096 110.241 190.234 110.241H191.162ZM196.57 107.889C196.57 107.601 196.352 107.457 195.914 107.457H193.354L195.098 109.649C195.664 109.191 196.048 108.828 196.25 108.561C196.464 108.284 196.57 108.06 196.57 107.889ZM195.946 103.969H194.138V102.337H195.946V103.969ZM200.235 110.241C200.971 110.241 201.339 109.895 201.339 109.201V107.313H202.955V109.201C202.955 109.575 203.067 109.841 203.291 110.001C203.526 110.161 203.793 110.241 204.091 110.241C204.891 110.241 205.291 109.895 205.291 109.201V107.313H206.923V109.201C206.923 109.575 207.019 109.841 207.211 110.001C207.414 110.161 207.649 110.241 207.915 110.241C208.235 110.241 208.481 110.156 208.651 109.985C208.833 109.804 208.923 109.543 208.923 109.201V107.313H210.555V109.313C210.555 110.199 210.326 110.871 209.867 111.329C209.419 111.777 208.79 112.001 207.979 112.001C207.617 112.001 207.27 111.937 206.939 111.809C206.609 111.671 206.321 111.399 206.075 110.993C205.819 111.399 205.515 111.671 205.163 111.809C204.822 111.937 204.465 112.001 204.091 112.001C203.686 112.001 203.313 111.937 202.971 111.809C202.641 111.671 202.353 111.399 202.107 110.993C201.851 111.399 201.563 111.671 201.243 111.809C200.923 111.937 200.582 112.001 200.219 112.001H199.531C199.393 112.001 199.302 111.932 199.259 111.793C199.206 111.644 199.179 111.431 199.179 111.153C199.179 110.844 199.206 110.615 199.259 110.465C199.302 110.316 199.393 110.241 199.531 110.241H200.235ZM206.939 103.201H205.243V101.649H206.939V103.201ZM208.059 105.441H206.395V103.873H208.059V105.441ZM205.771 105.441H204.107V103.873H205.771V105.441ZM215.929 114.129C216.334 114.129 216.681 114.071 216.969 113.953C217.268 113.847 217.513 113.697 217.705 113.505C217.897 113.313 218.046 113.084 218.153 112.817C218.26 112.561 218.324 112.289 218.345 112.001H217.257C216.702 112.001 216.249 111.943 215.897 111.825C215.545 111.708 215.268 111.537 215.065 111.313C214.862 111.079 214.718 110.796 214.633 110.465C214.558 110.135 214.521 109.761 214.521 109.345C214.521 108.929 214.58 108.54 214.697 108.177C214.814 107.804 214.985 107.479 215.209 107.201C215.444 106.924 215.732 106.705 216.073 106.545C216.414 106.375 216.809 106.289 217.257 106.289C217.62 106.289 217.961 106.348 218.281 106.465C218.612 106.583 218.9 106.769 219.145 107.025C219.39 107.281 219.582 107.612 219.721 108.017C219.87 108.423 219.945 108.919 219.945 109.505V111.745C219.945 112.289 219.854 112.812 219.673 113.313C219.492 113.815 219.23 114.252 218.889 114.625C218.558 115.009 218.148 115.313 217.657 115.537C217.166 115.761 216.617 115.873 216.009 115.873H214.393L214.297 114.129H215.929ZM216.089 109.233C216.089 109.607 216.169 109.868 216.329 110.017C216.5 110.167 216.83 110.241 217.321 110.241H218.377V109.489C218.377 108.935 218.27 108.545 218.057 108.321C217.854 108.097 217.566 107.985 217.193 107.985C216.841 107.985 216.569 108.092 216.377 108.305C216.185 108.519 216.089 108.828 216.089 109.233ZM226.92 110.241C227.293 110.241 227.549 110.167 227.688 110.017C227.826 109.868 227.896 109.719 227.896 109.569C227.896 109.484 227.88 109.377 227.848 109.249C227.816 109.111 227.752 108.892 227.656 108.593C227.56 108.284 227.416 107.863 227.224 107.329C227.042 106.796 226.792 106.097 226.472 105.233L228.024 104.577L229.672 109.185C229.8 109.559 229.949 109.831 230.12 110.001C230.301 110.161 230.578 110.241 230.952 110.241H231.16C231.394 110.241 231.512 110.524 231.512 111.089C231.512 111.697 231.394 112.001 231.16 112.001H230.952C230.6 112.001 230.258 111.937 229.928 111.809C229.608 111.681 229.314 111.409 229.048 110.993C228.824 111.377 228.541 111.644 228.2 111.793C227.869 111.932 227.506 112.001 227.112 112.001H223.672L223.592 110.241H226.92ZM232.276 110.241C232.991 110.241 233.348 109.895 233.348 109.201V107.313H234.996V109.201C234.996 109.575 235.108 109.841 235.332 110.001C235.567 110.161 235.839 110.241 236.148 110.241H236.564C236.81 110.241 236.932 110.524 236.932 111.089C236.932 111.697 236.81 112.001 236.564 112.001H236.1C235.695 112.001 235.327 111.937 234.996 111.809C234.666 111.671 234.378 111.399 234.132 110.993C233.866 111.399 233.578 111.671 233.268 111.809C232.959 111.937 232.628 112.001 232.276 112.001H231.156C231.018 112.001 230.927 111.932 230.884 111.793C230.831 111.644 230.804 111.431 230.804 111.153C230.804 110.844 230.831 110.615 230.884 110.465C230.927 110.316 231.018 110.241 231.156 110.241H232.276ZM235.828 115.361H234.18V113.793H235.828V115.361ZM233.524 115.361H231.876V113.793H233.524V115.361ZM237.683 110.241C238.397 110.241 238.755 109.895 238.755 109.201V107.313H240.403V109.201C240.403 109.575 240.515 109.841 240.739 110.001C240.973 110.161 241.245 110.241 241.555 110.241H241.971C242.216 110.241 242.339 110.524 242.339 111.089C242.339 111.697 242.216 112.001 241.971 112.001H241.507C241.101 112.001 240.733 111.937 240.403 111.809C240.072 111.671 239.784 111.399 239.539 110.993C239.272 111.399 238.984 111.671 238.674 111.809C238.365 111.937 238.035 112.001 237.683 112.001H236.562C236.424 112.001 236.333 111.932 236.29 111.793C236.237 111.644 236.21 111.431 236.21 111.153C236.21 110.844 236.237 110.615 236.29 110.465C236.333 110.316 236.424 110.241 236.562 110.241H237.683ZM240.339 105.441H238.531V103.809H240.339V105.441ZM245.937 110.241C246.225 110.241 246.422 110.183 246.529 110.065C246.646 109.948 246.705 109.804 246.705 109.633C246.705 109.473 246.673 109.319 246.609 109.169C246.555 109.009 246.433 108.839 246.241 108.657L243.217 105.633V103.809L248.513 101.809L248.881 103.441L244.801 104.945L247.153 107.329C247.419 107.596 247.638 107.841 247.809 108.065C247.979 108.279 248.113 108.487 248.209 108.689C248.305 108.881 248.369 109.079 248.401 109.281C248.443 109.473 248.465 109.676 248.465 109.889C248.465 110.263 248.401 110.583 248.273 110.849C248.155 111.116 247.99 111.335 247.777 111.505C247.574 111.676 247.329 111.804 247.041 111.889C246.763 111.964 246.459 112.001 246.129 112.001H241.969C241.83 112.001 241.739 111.932 241.697 111.793C241.643 111.644 241.617 111.431 241.617 111.153C241.617 110.844 241.643 110.615 241.697 110.465C241.739 110.316 241.83 110.241 241.969 110.241H245.937ZM257.995 112.001C257.248 112.001 256.646 111.809 256.187 111.425C255.728 111.031 255.499 110.46 255.499 109.713V108.897C255.499 108.599 255.526 108.348 255.579 108.145C255.632 107.943 255.734 107.777 255.883 107.649H255.515C255.003 107.649 254.624 107.756 254.379 107.969C254.134 108.183 254.011 108.492 254.011 108.897V115.873H252.379V108.833C252.379 108.46 252.443 108.103 252.571 107.761C252.71 107.409 252.907 107.1 253.163 106.833C253.419 106.567 253.739 106.353 254.123 106.193C254.507 106.033 254.955 105.953 255.467 105.953H258.363C258.811 105.953 259.184 106.017 259.483 106.145C259.792 106.263 260.043 106.428 260.235 106.641C260.427 106.844 260.56 107.084 260.635 107.361C260.72 107.639 260.763 107.932 260.763 108.241V109.649C260.763 110.065 260.688 110.423 260.539 110.721C260.4 111.009 260.203 111.249 259.947 111.441C259.702 111.633 259.408 111.777 259.067 111.873C258.736 111.959 258.379 112.001 257.995 112.001ZM258.123 110.241C258.496 110.241 258.768 110.161 258.939 110.001C259.12 109.841 259.211 109.623 259.211 109.345V108.657C259.211 108.38 259.136 108.156 258.987 107.985C258.848 107.804 258.614 107.713 258.283 107.713H257.947C257.638 107.713 257.408 107.804 257.259 107.985C257.12 108.167 257.051 108.396 257.051 108.673V109.313C257.051 109.601 257.131 109.831 257.291 110.001C257.462 110.161 257.739 110.241 258.123 110.241ZM262.633 112.001V102.081H264.265V110.241H265.689C266.404 110.241 266.761 109.895 266.761 109.201V102.081H268.393V109.201C268.393 109.575 268.511 109.841 268.745 110.001C268.98 110.161 269.263 110.241 269.593 110.241H269.817C270.052 110.241 270.169 110.524 270.169 111.089C270.169 111.697 270.052 112.001 269.817 112.001H269.513C269.119 112.001 268.751 111.937 268.409 111.809C268.079 111.671 267.791 111.399 267.545 110.993C267.279 111.399 266.991 111.671 266.681 111.809C266.372 111.937 266.041 112.001 265.689 112.001H262.633ZM270.517 110.241C271.253 110.241 271.621 109.895 271.621 109.201V107.313H273.237V109.201C273.237 109.575 273.349 109.841 273.573 110.001C273.807 110.161 274.074 110.241 274.373 110.241C275.173 110.241 275.573 109.895 275.573 109.201V107.313H277.205V109.201C277.205 109.575 277.301 109.841 277.493 110.001C277.695 110.161 277.93 110.241 278.197 110.241C278.517 110.241 278.762 110.156 278.933 109.985C279.114 109.804 279.205 109.543 279.205 109.201V107.313H280.837V109.313C280.837 110.199 280.607 110.871 280.149 111.329C279.701 111.777 279.071 112.001 278.26 112.001C277.898 112.001 277.551 111.937 277.221 111.809C276.89 111.671 276.602 111.399 276.357 110.993C276.101 111.399 275.797 111.671 275.445 111.809C275.103 111.937 274.746 112.001 274.373 112.001C273.967 112.001 273.594 111.937 273.253 111.809C272.922 111.671 272.634 111.399 272.389 110.993C272.133 111.399 271.845 111.671 271.525 111.809C271.205 111.937 270.863 112.001 270.501 112.001H269.812C269.674 112.001 269.583 111.932 269.54 111.793C269.487 111.644 269.46 111.431 269.46 111.153C269.46 110.844 269.487 110.615 269.54 110.465C269.583 110.316 269.674 110.241 269.812 110.241H270.517ZM284.658 109.537C284.658 109.228 284.696 108.935 284.77 108.657C284.856 108.38 284.973 108.103 285.122 107.825C285.282 107.548 285.48 107.271 285.714 106.993C285.949 106.705 286.221 106.396 286.53 106.065L285.794 105.329L286.898 104.145C287.56 104.796 288.109 105.361 288.546 105.841C288.994 106.321 289.352 106.759 289.618 107.153C289.885 107.537 290.072 107.9 290.178 108.241C290.296 108.583 290.354 108.935 290.354 109.297C290.354 109.692 290.28 110.055 290.13 110.385C289.981 110.716 289.778 111.004 289.522 111.249C289.266 111.484 288.957 111.671 288.594 111.809C288.242 111.937 287.858 112.001 287.442 112.001C287.026 112.001 286.648 111.943 286.306 111.825C285.965 111.708 285.672 111.543 285.426 111.329C285.181 111.105 284.989 110.844 284.85 110.545C284.722 110.247 284.658 109.911 284.658 109.537ZM288.722 109.169C288.722 109.041 288.706 108.919 288.674 108.801C288.642 108.673 288.584 108.535 288.498 108.385C288.413 108.236 288.285 108.071 288.114 107.889C287.954 107.697 287.746 107.473 287.49 107.217C287.224 107.473 287.01 107.703 286.85 107.905C286.69 108.097 286.568 108.273 286.482 108.433C286.397 108.583 286.338 108.721 286.306 108.849C286.285 108.967 286.274 109.084 286.274 109.201C286.274 109.479 286.376 109.724 286.578 109.937C286.781 110.14 287.085 110.241 287.49 110.241C287.885 110.241 288.189 110.135 288.402 109.921C288.616 109.708 288.722 109.457 288.722 109.169ZM295.013 110.241C295.387 110.241 295.643 110.167 295.781 110.017C295.92 109.868 295.989 109.719 295.989 109.569C295.989 109.484 295.973 109.377 295.941 109.249C295.909 109.111 295.845 108.892 295.749 108.593C295.653 108.284 295.509 107.863 295.317 107.329C295.136 106.796 294.885 106.097 294.565 105.233L296.117 104.577L297.765 109.185C297.893 109.559 298.043 109.831 298.213 110.001C298.395 110.161 298.672 110.241 299.045 110.241H299.253C299.488 110.241 299.605 110.524 299.605 111.089C299.605 111.697 299.488 112.001 299.253 112.001H299.045C298.693 112.001 298.352 111.937 298.021 111.809C297.701 111.681 297.408 111.409 297.141 110.993C296.917 111.377 296.635 111.644 296.293 111.793C295.963 111.932 295.6 112.001 295.205 112.001H291.765L291.685 110.241H295.013ZM300.37 110.241C301.085 110.241 301.442 109.895 301.442 109.201V107.313H303.09V109.201C303.09 109.575 303.202 109.841 303.426 110.001C303.661 110.161 303.933 110.241 304.242 110.241H304.658C304.903 110.241 305.026 110.524 305.026 111.089C305.026 111.697 304.903 112.001 304.658 112.001H304.194C303.789 112.001 303.421 111.937 303.09 111.809C302.759 111.671 302.471 111.399 302.226 110.993C301.959 111.399 301.671 111.671 301.362 111.809C301.053 111.937 300.722 112.001 300.37 112.001H299.25C299.111 112.001 299.021 111.932 298.978 111.793C298.925 111.644 298.898 111.431 298.898 111.153C298.898 110.844 298.925 110.615 298.978 110.465C299.021 110.316 299.111 110.241 299.25 110.241H300.37ZM303.026 105.441H301.218V103.809H303.026V105.441ZM306.128 110.241C306.843 110.241 307.2 109.895 307.2 109.201V107.313H308.832V109.313C308.832 110.199 308.608 110.871 308.16 111.329C307.712 111.777 307.083 112.001 306.272 112.001H304.656C304.518 112.001 304.427 111.932 304.384 111.793C304.331 111.644 304.304 111.431 304.304 111.153C304.304 110.844 304.331 110.615 304.384 110.465C304.427 110.316 304.518 110.241 304.656 110.241H306.128ZM308.608 115.361H306.96V113.793H308.608V115.361ZM306.304 115.361H304.656V113.793H306.304V115.361ZM310.712 104.481H312.344V112.001H310.712V104.481ZM310.632 102.833C310.418 102.833 310.253 102.855 310.136 102.897C310.018 102.94 309.917 103.068 309.832 103.281L309.495 104.017L308.471 103.521L308.967 102.433C309.063 102.22 309.159 102.044 309.255 101.905C309.341 101.767 309.442 101.655 309.559 101.569C309.677 101.484 309.816 101.425 309.976 101.393C310.136 101.351 310.333 101.329 310.568 101.329H313.799L313.736 102.833H310.632ZM321.305 114.129C322.169 114.129 322.841 113.98 323.321 113.681C323.812 113.383 324.057 112.993 324.057 112.513C324.057 112.289 323.999 112.113 323.881 111.985C323.764 111.847 323.556 111.777 323.257 111.777H320.505V108.721C320.505 108.305 320.569 107.927 320.697 107.585C320.825 107.233 321.007 106.935 321.241 106.689C321.487 106.433 321.78 106.236 322.121 106.097C322.463 105.959 322.847 105.889 323.273 105.889H325.113L325.193 107.649H323.241C322.932 107.649 322.671 107.745 322.457 107.937C322.244 108.119 322.137 108.396 322.137 108.769V110.033H323.545C323.961 110.033 324.303 110.087 324.569 110.193C324.847 110.3 325.065 110.449 325.225 110.641C325.385 110.833 325.497 111.063 325.561 111.329C325.636 111.596 325.673 111.895 325.673 112.225C325.673 112.737 325.567 113.217 325.353 113.665C325.151 114.113 324.863 114.497 324.489 114.817C324.116 115.148 323.673 115.404 323.161 115.585C322.66 115.777 322.116 115.873 321.529 115.873H320.137C318.943 115.873 318.015 115.505 317.353 114.769C316.692 114.033 316.361 113.025 316.361 111.745V108.881H317.977V111.681C317.977 112.055 318.02 112.391 318.105 112.689C318.191 112.988 318.324 113.244 318.505 113.457C318.697 113.671 318.943 113.836 319.241 113.953C319.551 114.071 319.924 114.129 320.361 114.129H321.305ZM325.843 114.129H326.099C326.547 114.129 326.931 114.06 327.251 113.921C327.571 113.793 327.827 113.617 328.019 113.393C328.221 113.169 328.371 112.913 328.467 112.625C328.563 112.337 328.611 112.044 328.611 111.745V107.313H330.243V111.745C330.243 112.321 330.141 112.86 329.939 113.361C329.747 113.863 329.475 114.3 329.123 114.673C328.781 115.047 328.371 115.34 327.891 115.553C327.421 115.767 326.915 115.873 326.371 115.873H325.971L325.843 114.129ZM333.382 114.129C333.787 114.129 334.134 114.071 334.422 113.953C334.721 113.847 334.966 113.697 335.158 113.505C335.35 113.313 335.499 113.084 335.606 112.817C335.713 112.561 335.777 112.289 335.798 112.001H334.71C334.155 112.001 333.702 111.943 333.35 111.825C332.998 111.708 332.721 111.537 332.518 111.313C332.315 111.079 332.171 110.796 332.086 110.465C332.011 110.135 331.974 109.761 331.974 109.345C331.974 108.929 332.033 108.54 332.15 108.177C332.267 107.804 332.438 107.479 332.662 107.201C332.897 106.924 333.185 106.705 333.526 106.545C333.867 106.375 334.262 106.289 334.71 106.289C335.073 106.289 335.414 106.348 335.734 106.465C336.065 106.583 336.353 106.769 336.598 107.025C336.843 107.281 337.035 107.612 337.174 108.017C337.323 108.423 337.398 108.919 337.398 109.505V111.745C337.398 112.289 337.307 112.812 337.126 113.313C336.945 113.815 336.683 114.252 336.342 114.625C336.011 115.009 335.601 115.313 335.11 115.537C334.619 115.761 334.07 115.873 333.462 115.873H331.846L331.75 114.129H333.382ZM333.542 109.233C333.542 109.607 333.622 109.868 333.782 110.017C333.953 110.167 334.283 110.241 334.774 110.241H335.83V109.489C335.83 108.935 335.723 108.545 335.51 108.321C335.307 108.097 335.019 107.985 334.646 107.985C334.294 107.985 334.022 108.092 333.83 108.305C333.638 108.519 333.542 108.828 333.542 109.233ZM341.482 112.001C341.184 112.001 340.896 111.964 340.618 111.889C340.352 111.804 340.117 111.665 339.914 111.473C339.712 111.281 339.552 111.031 339.434 110.721C339.317 110.401 339.258 110.007 339.258 109.537V102.081H340.89V109.137C340.89 109.479 340.965 109.751 341.114 109.953C341.274 110.145 341.509 110.241 341.818 110.241H342.186C342.421 110.241 342.538 110.524 342.538 111.089C342.538 111.697 342.421 112.001 342.186 112.001H341.482ZM343.308 110.241C344.022 110.241 344.38 109.895 344.38 109.201V107.313H346.028V109.201C346.028 109.575 346.14 109.841 346.364 110.001C346.598 110.161 346.87 110.241 347.18 110.241H347.596C347.841 110.241 347.964 110.524 347.964 111.089C347.964 111.697 347.841 112.001 347.596 112.001H347.132C346.726 112.001 346.358 111.937 346.028 111.809C345.697 111.671 345.409 111.399 345.164 110.993C344.897 111.399 344.609 111.671 344.299 111.809C343.99 111.937 343.66 112.001 343.308 112.001H342.188C342.049 112.001 341.958 111.932 341.915 111.793C341.862 111.644 341.835 111.431 341.835 111.153C341.835 110.844 341.862 110.615 341.915 110.465C341.958 110.316 342.049 110.241 342.188 110.241H343.308ZM345.964 105.441H344.156V103.809H345.964V105.441ZM349.034 110.241C349.204 110.241 349.354 110.247 349.482 110.257C349.61 110.257 349.727 110.263 349.834 110.273C349.951 110.284 350.063 110.3 350.17 110.321C350.276 110.343 350.394 110.369 350.522 110.401C350.148 110.241 349.85 110.076 349.626 109.905C349.412 109.724 349.247 109.532 349.13 109.329C349.012 109.127 348.932 108.908 348.89 108.673C348.858 108.428 348.842 108.161 348.842 107.873C348.842 107.585 348.895 107.287 349.002 106.977C349.119 106.668 349.29 106.391 349.514 106.145C349.738 105.9 350.015 105.697 350.346 105.537C350.687 105.377 351.076 105.297 351.514 105.297C351.93 105.297 352.303 105.351 352.634 105.457C352.975 105.564 353.268 105.74 353.514 105.985C353.759 106.231 353.946 106.556 354.074 106.961C354.212 107.356 354.282 107.847 354.282 108.433V109.249C354.282 110.113 354.031 110.791 353.53 111.281C353.039 111.761 352.26 112.001 351.194 112.001H347.594C347.455 112.001 347.364 111.932 347.322 111.793C347.268 111.644 347.242 111.431 347.242 111.153C347.242 110.844 347.268 110.615 347.322 110.465C347.364 110.316 347.455 110.241 347.594 110.241H349.034ZM351.45 107.057C351.076 107.057 350.799 107.18 350.618 107.425C350.436 107.66 350.346 107.911 350.346 108.177C350.346 108.327 350.362 108.471 350.394 108.609C350.436 108.737 350.527 108.871 350.666 109.009C350.804 109.148 351.012 109.297 351.29 109.457C351.567 109.617 351.951 109.799 352.442 110.001C352.527 109.895 352.591 109.751 352.634 109.569C352.687 109.377 352.714 109.191 352.714 109.009V108.593C352.714 108.145 352.623 107.777 352.442 107.489C352.26 107.201 351.93 107.057 351.45 107.057ZM352.41 103.969H350.602V102.337H352.41V103.969ZM360.848 109.745C361.264 109.745 361.578 109.66 361.792 109.489C362.005 109.308 362.112 109.068 362.112 108.769V107.249H360.992C360.544 107.249 360.224 107.383 360.032 107.649C359.84 107.905 359.744 108.241 359.744 108.657C359.744 109.041 359.829 109.319 360 109.489C360.181 109.66 360.464 109.745 360.848 109.745ZM363.696 109.137C363.696 109.479 363.765 109.751 363.904 109.953C364.053 110.145 364.288 110.241 364.608 110.241H364.976C365.114 110.241 365.205 110.316 365.248 110.465C365.301 110.604 365.328 110.812 365.328 111.089C365.328 111.399 365.301 111.628 365.248 111.777C365.205 111.927 365.114 112.001 364.976 112.001H364.608C364.064 112.001 363.621 111.905 363.28 111.713C362.949 111.521 362.698 111.196 362.528 110.737C362.261 111.036 361.941 111.228 361.568 111.313C361.205 111.388 360.853 111.425 360.512 111.425C359.754 111.425 359.173 111.207 358.768 110.769C358.373 110.321 358.176 109.66 358.176 108.785C358.176 108.391 358.229 108.007 358.336 107.633C358.453 107.249 358.618 106.908 358.832 106.609C359.056 106.311 359.333 106.071 359.664 105.889C360.005 105.708 360.4 105.617 360.848 105.617H362.112V104.545H363.696V109.137ZM366.441 110.241C367.155 110.241 367.513 109.895 367.513 109.201V107.313H369.145V109.313C369.145 110.199 368.921 110.871 368.473 111.329C368.025 111.777 367.395 112.001 366.585 112.001H364.969C364.83 112.001 364.739 111.932 364.697 111.793C364.643 111.644 364.617 111.431 364.617 111.153C364.617 110.844 364.643 110.615 364.697 110.465C364.739 110.316 364.83 110.241 364.969 110.241H366.441ZM367.273 115.425H365.465V113.793H367.273V115.425ZM42.8254 133.961C42.8254 134.42 42.9267 134.751 43.1294 134.953C43.3427 135.145 43.5987 135.241 43.8974 135.241H44.1214C44.26 135.241 44.3507 135.316 44.3934 135.465C44.4467 135.604 44.4734 135.812 44.4734 136.089C44.4734 136.399 44.4467 136.628 44.3934 136.777C44.3507 136.927 44.26 137.001 44.1214 137.001H43.8974C43.7374 137.001 43.5774 136.991 43.4174 136.969C43.2574 136.948 43.0974 136.905 42.9374 136.841C42.788 136.777 42.6387 136.687 42.4894 136.569C42.3507 136.441 42.2227 136.271 42.1054 136.057C41.8387 136.441 41.5134 136.697 41.1294 136.825C40.756 136.943 40.3987 137.001 40.0574 137.001C39.3107 137.001 38.708 136.809 38.2494 136.425C37.7907 136.031 37.5614 135.46 37.5614 134.713V133.897C37.5614 133.599 37.588 133.348 37.6414 133.145C37.6947 132.943 37.796 132.777 37.9454 132.649H37.5774C37.0654 132.649 36.6867 132.756 36.4414 132.969C36.196 133.183 36.0734 133.492 36.0734 133.897V140.873H34.4414V133.833C34.4414 133.46 34.5054 133.103 34.6334 132.761C34.772 132.409 34.9694 132.1 35.2254 131.833C35.4814 131.567 35.8014 131.353 36.1854 131.193C36.5694 131.033 37.0174 130.953 37.5294 130.953H40.4254C40.8734 130.953 41.2467 131.017 41.5454 131.145C41.8547 131.263 42.1054 131.428 42.2974 131.641C42.4894 131.844 42.6227 132.084 42.6974 132.361C42.7827 132.639 42.8254 132.932 42.8254 133.241V133.961ZM40.1854 135.241C40.5587 135.241 40.8307 135.161 41.0014 135.001C41.1827 134.841 41.2734 134.623 41.2734 134.345V133.657C41.2734 133.38 41.1987 133.156 41.0494 132.985C40.9107 132.804 40.676 132.713 40.3454 132.713H40.0094C39.7 132.713 39.4707 132.804 39.3214 132.985C39.1827 133.167 39.1134 133.396 39.1134 133.673V134.313C39.1134 134.601 39.1934 134.831 39.3534 135.001C39.524 135.161 39.8014 135.241 40.1854 135.241ZM45.245 135.241C45.9597 135.241 46.317 134.895 46.317 134.201V132.313H47.965V134.201C47.965 134.575 48.077 134.841 48.301 135.001C48.5357 135.161 48.8077 135.241 49.117 135.241H49.533C49.7783 135.241 49.901 135.524 49.901 136.089C49.901 136.697 49.7783 137.001 49.533 137.001H49.069C48.6637 137.001 48.2957 136.937 47.965 136.809C47.6343 136.671 47.3463 136.399 47.101 135.993C46.8343 136.399 46.5463 136.671 46.237 136.809C45.9277 136.937 45.597 137.001 45.245 137.001H44.125C43.9863 137.001 43.8957 136.932 43.853 136.793C43.7997 136.644 43.773 136.431 43.773 136.153C43.773 135.844 43.7997 135.615 43.853 135.465C43.8957 135.316 43.9863 135.241 44.125 135.241H45.245ZM48.797 140.361H47.149V138.793H48.797V140.361ZM46.493 140.361H44.845V138.793H46.493V140.361ZM50.6513 135.241C51.3659 135.241 51.7233 134.895 51.7233 134.201V132.313H53.3713V134.201C53.3713 134.575 53.4833 134.841 53.7073 135.001C53.9419 135.161 54.2139 135.241 54.5233 135.241H54.9393C55.1846 135.241 55.3073 135.524 55.3073 136.089C55.3073 136.697 55.1846 137.001 54.9393 137.001H54.4753C54.0699 137.001 53.7019 136.937 53.3713 136.809C53.0406 136.671 52.7526 136.399 52.5073 135.993C52.2406 136.399 51.9526 136.671 51.6432 136.809C51.3339 136.937 51.0033 137.001 50.6513 137.001H49.5312C49.3926 137.001 49.3019 136.932 49.2592 136.793C49.2059 136.644 49.1792 136.431 49.1792 136.153C49.1792 135.844 49.2059 135.615 49.2592 135.465C49.3019 135.316 49.3926 135.241 49.5312 135.241H50.6513ZM54.3153 130.441H52.6513V128.873H54.3153V130.441ZM52.0273 130.441H50.3633V128.873H52.0273V130.441ZM55.6415 135.241C56.3775 135.241 56.7455 134.895 56.7455 134.201V132.313H58.3615V134.201C58.3615 134.575 58.4735 134.841 58.6975 135.001C58.9322 135.161 59.1988 135.241 59.4975 135.241C60.2975 135.241 60.6975 134.895 60.6975 134.201V132.313H62.3295V134.201C62.3295 134.575 62.4255 134.841 62.6175 135.001C62.8202 135.161 63.0548 135.241 63.3215 135.241C63.9935 135.241 64.3295 134.895 64.3295 134.201V132.313H65.9615V134.201C65.9615 134.575 66.0735 134.841 66.2975 135.001C66.5322 135.161 66.7935 135.241 67.0815 135.241H67.4495C67.5882 135.241 67.6788 135.316 67.7215 135.465C67.7748 135.604 67.8015 135.812 67.8015 136.089C67.8015 136.399 67.7748 136.628 67.7215 136.777C67.6788 136.927 67.5882 137.001 67.4495 137.001H67.0815C66.6762 137.001 66.3028 136.937 65.9615 136.809C65.6308 136.671 65.3428 136.399 65.0975 135.993C64.8415 136.399 64.5482 136.671 64.2175 136.809C63.8975 136.937 63.5988 137.001 63.3215 137.001C62.9482 137.001 62.6068 136.937 62.2975 136.809C61.9988 136.671 61.7268 136.399 61.4815 135.993C61.2255 136.399 60.9215 136.671 60.5695 136.809C60.2282 136.937 59.8708 137.001 59.4975 137.001C59.0922 137.001 58.7188 136.937 58.3775 136.809C58.0468 136.671 57.7588 136.399 57.5135 135.993C57.2575 136.399 56.9695 136.671 56.6495 136.809C56.3295 136.937 55.9882 137.001 55.6255 137.001H54.9375C54.7988 137.001 54.7082 136.932 54.6655 136.793C54.6122 136.644 54.5855 136.431 54.5855 136.153C54.5855 135.844 54.6122 135.615 54.6655 135.465C54.7082 135.316 54.7988 135.241 54.9375 135.241H55.6415ZM71.4051 132.201C71.0425 132.201 70.7491 132.319 70.5251 132.553C70.3118 132.788 70.2051 133.081 70.2051 133.433C70.2051 133.785 70.3278 134.105 70.5731 134.393C70.8291 134.671 71.1278 134.9 71.4691 135.081C71.7891 134.9 72.0558 134.671 72.2691 134.393C72.4825 134.116 72.5891 133.807 72.5891 133.465C72.5891 133.092 72.4771 132.788 72.2531 132.553C72.0398 132.319 71.7571 132.201 71.4051 132.201ZM67.4531 137.001C67.3145 137.001 67.2238 136.932 67.1811 136.793C67.1278 136.644 67.1011 136.431 67.1011 136.153C67.1011 135.844 67.1278 135.615 67.1811 135.465C67.2238 135.316 67.3145 135.241 67.4531 135.241H69.7411C69.0478 134.633 68.7011 133.945 68.7011 133.177C68.7011 132.825 68.7651 132.489 68.8931 132.169C69.0211 131.849 69.2078 131.567 69.4531 131.321C69.6985 131.065 69.9918 130.868 70.3331 130.729C70.6851 130.58 71.0851 130.505 71.5331 130.505C71.9705 130.505 72.3491 130.58 72.6691 130.729C72.9998 130.879 73.2665 131.076 73.4691 131.321C73.6825 131.567 73.8371 131.844 73.9331 132.153C74.0398 132.463 74.0931 132.777 74.0931 133.097C74.0931 133.535 74.0078 133.929 73.8371 134.281C73.6771 134.623 73.4425 134.943 73.1331 135.241H75.3731C75.8851 135.241 76.1411 135.044 76.1411 134.649C76.1411 134.564 76.1198 134.468 76.0771 134.361C76.0345 134.255 75.9545 134.127 75.8371 133.977L73.1811 130.745L74.3811 129.609L77.0851 132.937C77.3945 133.311 77.6078 133.663 77.7251 133.993C77.8531 134.313 77.9171 134.628 77.9171 134.937C77.9171 135.225 77.8638 135.497 77.7571 135.753C77.6611 135.999 77.5118 136.217 77.3091 136.409C77.1065 136.591 76.8505 136.735 76.5411 136.841C76.2425 136.948 75.8958 137.001 75.5011 137.001H73.7411C73.2505 137.001 72.8131 136.98 72.4291 136.937C72.0558 136.895 71.7625 136.815 71.5491 136.697C71.3891 136.772 71.1971 136.831 70.9731 136.873C70.7598 136.916 70.5358 136.948 70.3011 136.969C70.0771 136.98 69.8531 136.991 69.6291 137.001C69.4158 137.001 69.2345 137.001 69.0851 137.001H67.4531ZM84.1543 137.001C83.8556 137.001 83.5676 136.964 83.2903 136.889C83.0236 136.804 82.7889 136.665 82.5863 136.473C82.3836 136.281 82.2236 136.031 82.1063 135.721C81.9889 135.401 81.9303 135.007 81.9303 134.537V127.081H83.5623V134.137C83.5623 134.479 83.6369 134.751 83.7863 134.953C83.9463 135.145 84.1809 135.241 84.4903 135.241H84.8583C85.0929 135.241 85.2103 135.524 85.2103 136.089C85.2103 136.697 85.0929 137.001 84.8583 137.001H84.1543ZM85.0034 135.241C85.366 135.241 85.6487 135.172 85.8514 135.033C86.054 134.884 86.1554 134.644 86.1554 134.313V133.961C86.1554 133.535 86.214 133.14 86.3314 132.777C86.4594 132.415 86.6407 132.105 86.8754 131.849C87.11 131.593 87.3927 131.396 87.7234 131.257C88.0647 131.108 88.4434 131.033 88.8594 131.033C89.2967 131.033 89.6807 131.108 90.0114 131.257C90.3527 131.396 90.6354 131.599 90.8594 131.865C91.0834 132.121 91.254 132.425 91.3714 132.777C91.4887 133.129 91.5474 133.513 91.5474 133.929V134.233C91.5474 134.617 91.6594 134.884 91.8834 135.033C92.118 135.172 92.3634 135.241 92.6194 135.241H92.8434C92.982 135.241 93.0727 135.316 93.1154 135.465C93.1687 135.604 93.1954 135.812 93.1954 136.089C93.1954 136.399 93.1687 136.628 93.1154 136.777C93.0727 136.927 92.982 137.001 92.8434 137.001H92.6194C92.31 137.001 91.9954 136.937 91.6754 136.809C91.3554 136.671 91.078 136.383 90.8434 135.945C90.5554 136.383 90.23 136.671 89.8674 136.809C89.5154 136.937 89.1527 137.001 88.7794 137.001C88.3527 137.001 87.9527 136.921 87.5794 136.761C87.2167 136.591 86.934 136.324 86.7314 135.961C86.5287 136.377 86.2674 136.655 85.9474 136.793C85.6274 136.932 85.3127 137.001 85.0034 137.001H84.8594C84.7207 137.001 84.63 136.932 84.5874 136.793C84.534 136.644 84.5074 136.431 84.5074 136.153C84.5074 135.844 84.534 135.615 84.5874 135.465C84.63 135.316 84.7207 135.241 84.8594 135.241H85.0034ZM89.9794 134.089C89.9794 133.727 89.894 133.423 89.7234 133.177C89.5634 132.932 89.27 132.809 88.8434 132.809C88.438 132.809 88.1447 132.932 87.9634 133.177C87.7927 133.412 87.7074 133.721 87.7074 134.105C87.7074 134.479 87.8087 134.761 88.0114 134.953C88.214 135.145 88.4914 135.241 88.8434 135.241C89.6007 135.241 89.9794 134.857 89.9794 134.089ZM93.5478 135.241C94.2838 135.241 94.6518 134.895 94.6518 134.201V132.313H96.2678V134.201C96.2678 134.575 96.3798 134.841 96.6038 135.001C96.8384 135.161 97.1051 135.241 97.4038 135.241C98.2038 135.241 98.6038 134.895 98.6038 134.201V132.313H100.236V134.201C100.236 134.575 100.332 134.841 100.524 135.001C100.726 135.161 100.961 135.241 101.228 135.241C101.548 135.241 101.793 135.156 101.964 134.985C102.145 134.804 102.236 134.543 102.236 134.201V132.313H103.868V134.313C103.868 135.199 103.638 135.871 103.18 136.329C102.732 136.777 102.102 137.001 101.292 137.001C100.929 137.001 100.582 136.937 100.252 136.809C99.9211 136.671 99.6331 136.399 99.3878 135.993C99.1318 136.399 98.8278 136.671 98.4758 136.809C98.1344 136.937 97.7771 137.001 97.4038 137.001C96.9984 137.001 96.6251 136.937 96.2838 136.809C95.9531 136.671 95.6651 136.399 95.4198 135.993C95.1638 136.399 94.8758 136.671 94.5558 136.809C94.2358 136.937 93.8944 137.001 93.5318 137.001H92.8438C92.7051 137.001 92.6144 136.932 92.5717 136.793C92.5184 136.644 92.4917 136.431 92.4917 136.153C92.4917 135.844 92.5184 135.615 92.5717 135.465C92.6144 135.316 92.7051 135.241 92.8438 135.241H93.5478ZM100.252 128.201H98.5558V126.649H100.252V128.201ZM101.372 130.441H99.7078V128.873H101.372V130.441ZM99.0838 130.441H97.4198V128.873H99.0838V130.441ZM111.259 136.745C111.259 137.321 111.157 137.86 110.955 138.361C110.763 138.863 110.491 139.3 110.139 139.673C109.797 140.047 109.387 140.34 108.907 140.553C108.437 140.767 107.931 140.873 107.387 140.873H106.379L106.299 139.129H106.971C107.451 139.129 107.861 139.06 108.203 138.921C108.533 138.793 108.805 138.617 109.019 138.393C109.232 138.169 109.387 137.913 109.483 137.625C109.579 137.337 109.627 137.044 109.627 136.745V132.313H111.259V136.745ZM115.342 137.001C115.043 137.001 114.755 136.964 114.478 136.889C114.211 136.804 113.976 136.665 113.774 136.473C113.571 136.281 113.411 136.031 113.294 135.721C113.176 135.401 113.118 135.007 113.118 134.537V127.081H114.75V134.137C114.75 134.479 114.824 134.751 114.974 134.953C115.134 135.145 115.368 135.241 115.678 135.241H116.046C116.28 135.241 116.398 135.524 116.398 136.089C116.398 136.697 116.28 137.001 116.046 137.001H115.342ZM117.167 135.241C117.882 135.241 118.239 134.895 118.239 134.201V132.313H119.887V134.201C119.887 134.575 119.999 134.841 120.223 135.001C120.458 135.161 120.73 135.241 121.039 135.241H121.455C121.7 135.241 121.823 135.524 121.823 136.089C121.823 136.697 121.7 137.001 121.455 137.001H120.991C120.586 137.001 120.218 136.937 119.887 136.809C119.556 136.671 119.268 136.399 119.023 135.993C118.756 136.399 118.468 136.671 118.159 136.809C117.85 136.937 117.519 137.001 117.167 137.001H116.047C115.908 137.001 115.818 136.932 115.775 136.793C115.722 136.644 115.695 136.431 115.695 136.153C115.695 135.844 115.722 135.615 115.775 135.465C115.818 135.316 115.908 135.241 116.047 135.241H117.167ZM119.823 130.441H118.015V128.809H119.823V130.441ZM125.421 135.241C125.709 135.241 125.906 135.183 126.013 135.065C126.13 134.948 126.189 134.804 126.189 134.633C126.189 134.473 126.157 134.319 126.093 134.169C126.04 134.009 125.917 133.839 125.725 133.657L122.701 130.633V128.809L127.997 126.809L128.365 128.441L124.285 129.945L126.637 132.329C126.904 132.596 127.122 132.841 127.293 133.065C127.464 133.279 127.597 133.487 127.693 133.689C127.789 133.881 127.853 134.079 127.885 134.281C127.928 134.473 127.949 134.676 127.949 134.889C127.949 135.263 127.885 135.583 127.757 135.849C127.64 136.116 127.474 136.335 127.261 136.505C127.058 136.676 126.813 136.804 126.525 136.889C126.248 136.964 125.944 137.001 125.613 137.001H121.453C121.314 137.001 121.224 136.932 121.181 136.793C121.128 136.644 121.101 136.431 121.101 136.153C121.101 135.844 121.128 135.615 121.181 135.465C121.224 135.316 121.314 135.241 121.453 135.241H125.421ZM134.279 137.001C133.981 137.001 133.693 136.964 133.415 136.889C133.149 136.804 132.914 136.665 132.711 136.473C132.509 136.281 132.349 136.031 132.231 135.721C132.114 135.401 132.055 135.007 132.055 134.537V127.081H133.687V134.137C133.687 134.479 133.762 134.751 133.911 134.953C134.071 135.145 134.306 135.241 134.615 135.241H134.983C135.218 135.241 135.335 135.524 135.335 136.089C135.335 136.697 135.218 137.001 134.983 137.001H134.279ZM135.128 135.241C135.491 135.241 135.774 135.172 135.976 135.033C136.179 134.884 136.28 134.644 136.28 134.313V133.961C136.28 133.535 136.339 133.14 136.456 132.777C136.584 132.415 136.766 132.105 137 131.849C137.235 131.593 137.518 131.396 137.848 131.257C138.19 131.108 138.568 131.033 138.984 131.033C139.422 131.033 139.806 131.108 140.136 131.257C140.478 131.396 140.76 131.599 140.984 131.865C141.208 132.121 141.379 132.431 141.496 132.793C141.614 133.156 141.672 133.551 141.672 133.977C141.672 134.937 141.427 135.684 140.936 136.217C140.456 136.74 139.8 137.001 138.968 137.001C138.542 137.001 138.131 136.921 137.736 136.761C137.352 136.591 137.059 136.324 136.856 135.961C136.654 136.377 136.392 136.655 136.072 136.793C135.752 136.932 135.438 137.001 135.128 137.001H134.984C134.846 137.001 134.755 136.932 134.712 136.793C134.659 136.644 134.632 136.431 134.632 136.153C134.632 135.844 134.659 135.615 134.712 135.465C134.755 135.316 134.846 135.241 134.984 135.241H135.128ZM140.104 134.089C140.104 133.727 140.019 133.423 139.848 133.177C139.688 132.932 139.395 132.809 138.968 132.809C138.563 132.809 138.27 132.932 138.088 133.177C137.918 133.412 137.832 133.721 137.832 134.105C137.832 134.479 137.934 134.761 138.136 134.953C138.339 135.145 138.616 135.241 138.968 135.241C139.726 135.241 140.104 134.857 140.104 134.089ZM146.766 137.001C146.425 137.001 146.158 136.911 145.966 136.729C145.774 136.537 145.678 136.255 145.678 135.881C145.678 135.497 145.774 135.215 145.966 135.033C146.158 134.841 146.425 134.745 146.766 134.745C147.107 134.745 147.374 134.841 147.566 135.033C147.769 135.215 147.87 135.497 147.87 135.881C147.87 136.255 147.769 136.537 147.566 136.729C147.374 136.911 147.107 137.001 146.766 137.001ZM152.701 135.241C153.074 135.241 153.33 135.167 153.469 135.017C153.608 134.868 153.677 134.719 153.677 134.569C153.677 134.484 153.661 134.377 153.629 134.249C153.597 134.111 153.533 133.892 153.437 133.593C153.341 133.284 153.197 132.863 153.005 132.329C152.824 131.796 152.573 131.097 152.253 130.233L153.805 129.577L155.453 134.185C155.581 134.559 155.73 134.831 155.901 135.001C156.082 135.161 156.36 135.241 156.733 135.241H156.941C157.176 135.241 157.293 135.524 157.293 136.089C157.293 136.697 157.176 137.001 156.941 137.001H156.733C156.381 137.001 156.04 136.937 155.709 136.809C155.389 136.681 155.096 136.409 154.829 135.993C154.605 136.377 154.322 136.644 153.981 136.793C153.65 136.932 153.288 137.001 152.893 137.001H149.453L149.373 135.241H152.701ZM158.058 135.241C158.772 135.241 159.13 134.895 159.13 134.201V132.313H160.778V134.201C160.778 134.575 160.89 134.841 161.114 135.001C161.348 135.161 161.62 135.241 161.93 135.241H162.346C162.591 135.241 162.714 135.524 162.714 136.089C162.714 136.697 162.591 137.001 162.346 137.001H161.882C161.476 137.001 161.108 136.937 160.778 136.809C160.447 136.671 160.159 136.399 159.914 135.993C159.647 136.399 159.359 136.671 159.049 136.809C158.74 136.937 158.41 137.001 158.058 137.001H156.938C156.799 137.001 156.708 136.932 156.665 136.793C156.612 136.644 156.585 136.431 156.585 136.153C156.585 135.844 156.612 135.615 156.665 135.465C156.708 135.316 156.799 135.241 156.938 135.241H158.058ZM161.61 140.361H159.962V138.793H161.61V140.361ZM159.306 140.361H157.658V138.793H159.306V140.361ZM163.464 135.241C164.178 135.241 164.536 134.895 164.536 134.201V132.313H166.184V134.201C166.184 134.575 166.296 134.841 166.52 135.001C166.754 135.161 167.026 135.241 167.336 135.241H167.752C167.997 135.241 168.12 135.524 168.12 136.089C168.12 136.697 167.997 137.001 167.752 137.001H167.288C166.882 137.001 166.514 136.937 166.184 136.809C165.853 136.671 165.565 136.399 165.32 135.993C165.053 136.399 164.765 136.671 164.456 136.809C164.146 136.937 163.816 137.001 163.464 137.001H162.344C162.205 137.001 162.114 136.932 162.072 136.793C162.018 136.644 161.992 136.431 161.992 136.153C161.992 135.844 162.018 135.615 162.072 135.465C162.114 135.316 162.205 135.241 162.344 135.241H163.464ZM166.12 130.441H164.312V128.809H166.12V130.441ZM171.718 135.241C172.006 135.241 172.203 135.183 172.31 135.065C172.427 134.948 172.486 134.804 172.486 134.633C172.486 134.473 172.454 134.319 172.39 134.169C172.337 134.009 172.214 133.839 172.022 133.657L168.998 130.633V128.809L174.294 126.809L174.662 128.441L170.582 129.945L172.934 132.329C173.201 132.596 173.419 132.841 173.59 133.065C173.761 133.279 173.894 133.487 173.99 133.689C174.086 133.881 174.15 134.079 174.182 134.281C174.225 134.473 174.246 134.676 174.246 134.889C174.246 135.263 174.182 135.583 174.054 135.849C173.937 136.116 173.771 136.335 173.558 136.505C173.355 136.676 173.11 136.804 172.822 136.889C172.545 136.964 172.241 137.001 171.91 137.001H167.75C167.611 137.001 167.521 136.932 167.478 136.793C167.425 136.644 167.398 136.431 167.398 136.153C167.398 135.844 167.425 135.615 167.478 135.465C167.521 135.316 167.611 135.241 167.75 135.241H171.718ZM181.649 136.745C181.649 137.321 181.548 137.86 181.345 138.361C181.153 138.863 180.881 139.3 180.529 139.673C180.188 140.047 179.777 140.34 179.297 140.553C178.828 140.767 178.321 140.873 177.777 140.873H176.769L176.689 139.129H177.361C177.841 139.129 178.252 139.06 178.593 138.921C178.924 138.793 179.196 138.617 179.409 138.393C179.623 138.169 179.777 137.913 179.873 137.625C179.969 137.337 180.017 137.044 180.017 136.745V132.313H181.649V136.745ZM181.665 130.441H179.857V128.809H181.665V130.441ZM185.732 137.001C185.434 137.001 185.146 136.964 184.868 136.889C184.602 136.804 184.367 136.665 184.164 136.473C183.962 136.281 183.802 136.031 183.684 135.721C183.567 135.401 183.508 135.007 183.508 134.537V127.081H185.14V134.137C185.14 134.479 185.215 134.751 185.364 134.953C185.524 135.145 185.759 135.241 186.068 135.241H186.436C186.671 135.241 186.788 135.524 186.788 136.089C186.788 136.697 186.671 137.001 186.436 137.001H185.732ZM188.086 135.241C187.936 135.017 187.83 134.783 187.766 134.537C187.712 134.292 187.686 134.073 187.686 133.881C187.686 133.465 187.755 133.076 187.894 132.713C188.032 132.351 188.23 132.036 188.486 131.769C188.742 131.503 189.046 131.295 189.398 131.145C189.76 130.985 190.155 130.905 190.582 130.905C190.976 130.905 191.35 130.969 191.702 131.097C192.054 131.215 192.432 131.407 192.838 131.673L192.134 133.081C191.814 132.932 191.536 132.825 191.302 132.761C191.067 132.697 190.827 132.665 190.582 132.665C190.198 132.665 189.888 132.793 189.654 133.049C189.43 133.295 189.318 133.577 189.318 133.897C189.318 134.303 189.451 134.628 189.718 134.873C189.995 135.119 190.326 135.241 190.71 135.241H193.174L193.094 137.001H186.438C186.299 137.001 186.208 136.932 186.165 136.793C186.112 136.644 186.085 136.431 186.085 136.153C186.085 135.844 186.112 135.615 186.165 135.465C186.208 135.316 186.299 135.241 186.438 135.241H188.086ZM191.126 129.209H189.318V127.577H191.126V129.209ZM194.93 129.481H196.562V137.001H194.93V129.481ZM194.85 127.833C194.637 127.833 194.472 127.855 194.354 127.897C194.237 127.94 194.136 128.068 194.05 128.281L193.714 129.017L192.69 128.521L193.186 127.433C193.282 127.22 193.378 127.044 193.474 126.905C193.56 126.767 193.661 126.655 193.778 126.569C193.896 126.484 194.034 126.425 194.194 126.393C194.354 126.351 194.552 126.329 194.786 126.329H198.018L197.954 127.833H194.85ZM205.828 139.129C206.297 139.129 206.687 139.097 206.996 139.033C207.316 138.969 207.567 138.879 207.748 138.761C207.94 138.644 208.073 138.5 208.148 138.329C208.233 138.169 208.276 137.993 208.276 137.801C208.276 137.588 208.217 137.401 208.1 137.241C207.983 137.081 207.785 137.001 207.508 137.001H205.204L205.3 135.241H210.852C211.087 135.241 211.204 135.524 211.204 136.089C211.204 136.697 211.087 137.001 210.852 137.001H209.476C209.615 137.108 209.705 137.247 209.748 137.417C209.801 137.588 209.828 137.796 209.828 138.041C209.828 138.329 209.764 138.639 209.636 138.969C209.508 139.3 209.295 139.604 208.996 139.881C208.708 140.169 208.319 140.404 207.828 140.585C207.348 140.777 206.756 140.873 206.052 140.873H204.356C203.161 140.873 202.233 140.505 201.572 139.769C200.911 139.033 200.58 138.025 200.58 136.745V133.881H202.196V136.681C202.196 137.055 202.239 137.391 202.324 137.689C202.409 137.988 202.543 138.244 202.724 138.457C202.916 138.671 203.161 138.836 203.46 138.953C203.769 139.071 204.143 139.129 204.58 139.129H205.828ZM212.331 135.241C213.046 135.241 213.403 134.895 213.403 134.201V132.313H215.035V134.313C215.035 135.199 214.811 135.871 214.363 136.329C213.915 136.777 213.286 137.001 212.475 137.001H210.859C210.721 137.001 210.63 136.932 210.587 136.793C210.534 136.644 210.507 136.431 210.507 136.153C210.507 135.844 210.534 135.615 210.587 135.465C210.63 135.316 210.721 135.241 210.859 135.241H212.331ZM214.811 140.361H213.163V138.793H214.811V140.361ZM212.507 140.361H210.859V138.793H212.507V140.361ZM218.195 139.129C218.6 139.129 218.947 139.071 219.235 138.953C219.533 138.847 219.779 138.697 219.971 138.505C220.163 138.313 220.312 138.084 220.419 137.817C220.525 137.561 220.589 137.289 220.611 137.001H219.523C218.968 137.001 218.515 136.943 218.163 136.825C217.811 136.708 217.533 136.537 217.331 136.313C217.128 136.079 216.984 135.796 216.899 135.465C216.824 135.135 216.787 134.761 216.787 134.345C216.787 133.929 216.845 133.54 216.963 133.177C217.08 132.804 217.251 132.479 217.475 132.201C217.709 131.924 217.997 131.705 218.339 131.545C218.68 131.375 219.075 131.289 219.523 131.289C219.885 131.289 220.227 131.348 220.547 131.465C220.877 131.583 221.165 131.769 221.411 132.025C221.656 132.281 221.848 132.612 221.987 133.017C222.136 133.423 222.211 133.919 222.211 134.505V135.241H223.507C223.741 135.241 223.859 135.524 223.859 136.089C223.859 136.697 223.741 137.001 223.507 137.001H222.179C222.157 137.524 222.051 138.02 221.859 138.489C221.667 138.959 221.4 139.369 221.059 139.721C220.728 140.073 220.328 140.351 219.859 140.553C219.389 140.767 218.861 140.873 218.275 140.873H216.659L216.563 139.129H218.195ZM218.355 134.233C218.355 134.607 218.435 134.868 218.595 135.017C218.765 135.167 219.096 135.241 219.587 135.241H220.643V134.489C220.643 133.935 220.536 133.545 220.323 133.321C220.12 133.097 219.832 132.985 219.459 132.985C219.107 132.985 218.835 133.092 218.643 133.305C218.451 133.519 218.355 133.828 218.355 134.233ZM224.62 135.241C225.335 135.241 225.692 134.895 225.692 134.201V132.313H227.34V134.201C227.34 134.575 227.452 134.841 227.676 135.001C227.911 135.161 228.183 135.241 228.492 135.241H228.908C229.153 135.241 229.276 135.524 229.276 136.089C229.276 136.697 229.153 137.001 228.908 137.001H228.444C228.039 137.001 227.671 136.937 227.34 136.809C227.009 136.671 226.721 136.399 226.476 135.993C226.209 136.399 225.921 136.671 225.612 136.809C225.303 136.937 224.972 137.001 224.62 137.001H223.5C223.361 137.001 223.271 136.932 223.228 136.793C223.175 136.644 223.148 136.431 223.148 136.153C223.148 135.844 223.175 135.615 223.228 135.465C223.271 135.316 223.361 135.241 223.5 135.241H224.62ZM228.284 130.441H226.62V128.873H228.284V130.441ZM225.996 130.441H224.332V128.873H225.996V130.441ZM230.026 135.241C230.741 135.241 231.098 134.895 231.098 134.201V132.313H232.746V134.201C232.746 134.575 232.858 134.841 233.082 135.001C233.317 135.161 233.589 135.241 233.898 135.241H234.314C234.56 135.241 234.682 135.524 234.682 136.089C234.682 136.697 234.56 137.001 234.314 137.001H233.85C233.445 137.001 233.077 136.937 232.746 136.809C232.416 136.671 232.128 136.399 231.882 135.993C231.616 136.399 231.328 136.671 231.018 136.809C230.709 136.937 230.378 137.001 230.026 137.001H228.906C228.768 137.001 228.677 136.932 228.634 136.793C228.581 136.644 228.554 136.431 228.554 136.153C228.554 135.844 228.581 135.615 228.634 135.465C228.677 135.316 228.768 135.241 228.906 135.241H230.026ZM232.234 142.601H230.538V141.033H232.234V142.601ZM233.354 140.361H231.69V138.793H233.354V140.361ZM231.066 140.361H229.402V138.793H231.066V140.361ZM234.312 137.001C234.174 137.001 234.083 136.932 234.04 136.793C233.987 136.644 233.96 136.431 233.96 136.153C233.96 135.844 233.987 135.615 234.04 135.465C234.083 135.316 234.174 135.241 234.312 135.241H237.993C238.707 135.241 239.065 134.895 239.065 134.201V132.313H240.697V134.313C240.697 135.199 240.467 135.871 240.009 136.329C239.561 136.777 238.931 137.001 238.121 137.001H234.312ZM238.633 140.361H236.985V138.793H238.633V140.361ZM236.329 140.361H234.681V138.793H236.329V140.361ZM244.571 134.217C244.571 134.559 244.678 134.815 244.891 134.985C245.104 135.156 245.371 135.241 245.691 135.241H245.867C246.102 135.241 246.219 135.524 246.219 136.089C246.219 136.697 246.102 137.001 245.867 137.001H245.691C245.478 137.001 245.259 136.969 245.035 136.905C244.822 136.831 244.64 136.687 244.491 136.473V136.745C244.491 137.321 244.395 137.86 244.203 138.361C244.011 138.863 243.744 139.3 243.403 139.673C243.072 140.047 242.672 140.34 242.203 140.553C241.744 140.767 241.243 140.873 240.699 140.873H240.299L240.171 139.129H240.427C240.875 139.129 241.259 139.06 241.579 138.921C241.899 138.793 242.155 138.617 242.347 138.393C242.55 138.169 242.699 137.913 242.795 137.625C242.891 137.337 242.939 137.044 242.939 136.745V132.313H244.571V134.217ZM249.812 135.241C250.1 135.241 250.297 135.183 250.404 135.065C250.521 134.948 250.58 134.804 250.58 134.633C250.58 134.473 250.548 134.319 250.484 134.169C250.43 134.009 250.308 133.839 250.116 133.657L247.092 130.633V128.809L252.388 126.809L252.756 128.441L248.676 129.945L251.028 132.329C251.508 132.809 251.918 133.215 252.26 133.545C252.612 133.876 252.916 134.148 253.172 134.361C253.438 134.575 253.668 134.745 253.86 134.873C254.062 134.991 254.249 135.076 254.42 135.129C254.59 135.183 254.756 135.215 254.916 135.225C255.086 135.236 255.278 135.241 255.492 135.241C255.63 135.241 255.721 135.316 255.764 135.465C255.817 135.604 255.844 135.812 255.844 136.089C255.844 136.399 255.817 136.628 255.764 136.777C255.721 136.927 255.63 137.001 255.492 137.001C255.172 137.001 254.878 136.985 254.612 136.953C254.356 136.921 254.105 136.857 253.86 136.761C253.614 136.655 253.353 136.5 253.076 136.297C252.798 136.084 252.484 135.801 252.132 135.449C252.057 136.004 251.817 136.404 251.412 136.649C251.017 136.884 250.548 137.001 250.004 137.001H245.844C245.705 137.001 245.614 136.932 245.572 136.793C245.518 136.644 245.492 136.431 245.492 136.153C245.492 135.844 245.518 135.615 245.572 135.465C245.614 135.316 245.705 135.241 245.844 135.241H249.812ZM256.188 135.241C256.924 135.241 257.292 134.895 257.292 134.201V132.313H258.908V134.201C258.908 134.575 259.02 134.841 259.244 135.001C259.479 135.161 259.746 135.241 260.044 135.241C260.844 135.241 261.244 134.895 261.244 134.201V132.313H262.876V134.201C262.876 134.575 262.972 134.841 263.164 135.001C263.367 135.161 263.602 135.241 263.868 135.241C264.54 135.241 264.876 134.895 264.876 134.201V132.313H266.508V134.201C266.508 134.575 266.62 134.841 266.844 135.001C267.079 135.161 267.34 135.241 267.628 135.241H267.996C268.135 135.241 268.226 135.316 268.268 135.465C268.322 135.604 268.348 135.812 268.348 136.089C268.348 136.399 268.322 136.628 268.268 136.777C268.226 136.927 268.135 137.001 267.996 137.001H267.628C267.223 137.001 266.85 136.937 266.508 136.809C266.178 136.671 265.89 136.399 265.644 135.993C265.388 136.399 265.095 136.671 264.764 136.809C264.444 136.937 264.146 137.001 263.868 137.001C263.495 137.001 263.154 136.937 262.844 136.809C262.546 136.671 262.274 136.399 262.028 135.993C261.772 136.399 261.468 136.671 261.116 136.809C260.775 136.937 260.418 137.001 260.044 137.001C259.639 137.001 259.266 136.937 258.924 136.809C258.594 136.671 258.306 136.399 258.06 135.993C257.804 136.399 257.516 136.671 257.196 136.809C256.876 136.937 256.535 137.001 256.172 137.001H255.484C255.346 137.001 255.255 136.932 255.212 136.793C255.159 136.644 255.132 136.431 255.132 136.153C255.132 135.844 255.159 135.615 255.212 135.465C255.255 135.316 255.346 135.241 255.484 135.241H256.188ZM271.968 135.241C272.256 135.241 272.453 135.183 272.56 135.065C272.677 134.948 272.736 134.804 272.736 134.633C272.736 134.473 272.704 134.319 272.64 134.169C272.587 134.009 272.464 133.839 272.272 133.657L269.248 130.633V128.809L274.544 126.809L274.912 128.441L270.832 129.945L273.184 132.329C273.451 132.596 273.669 132.841 273.84 133.065C274.011 133.279 274.144 133.487 274.24 133.689C274.336 133.881 274.4 134.079 274.432 134.281C274.475 134.473 274.496 134.676 274.496 134.889C274.496 135.263 274.432 135.583 274.304 135.849C274.187 136.116 274.021 136.335 273.808 136.505C273.605 136.676 273.36 136.804 273.072 136.889C272.795 136.964 272.491 137.001 272.16 137.001H268C267.861 137.001 267.771 136.932 267.728 136.793C267.675 136.644 267.648 136.431 267.648 136.153C267.648 135.844 267.675 135.615 267.728 135.465C267.771 135.316 267.861 135.241 268 135.241H271.968ZM276.368 127.081H278V137.001H276.368V127.081ZM291.938 137.001C291.724 137.001 291.506 136.969 291.282 136.905C291.068 136.831 290.887 136.687 290.738 136.473V136.681C290.738 137.268 290.647 137.812 290.466 138.313C290.284 138.825 290.023 139.268 289.682 139.641C289.351 140.025 288.94 140.324 288.45 140.537C287.959 140.761 287.41 140.873 286.802 140.873H285.794C284.599 140.873 283.671 140.505 283.01 139.769C282.348 139.033 282.018 138.025 282.018 136.745V133.881H283.634V136.681C283.634 137.055 283.676 137.391 283.762 137.689C283.847 137.988 283.98 138.244 284.162 138.457C284.354 138.671 284.599 138.836 284.898 138.953C285.207 139.071 285.58 139.129 286.018 139.129H286.722C287.17 139.129 287.548 139.06 287.858 138.921C288.178 138.793 288.434 138.612 288.626 138.377C288.828 138.153 288.972 137.887 289.058 137.577C289.143 137.279 289.186 136.959 289.186 136.617V132.313H290.802V134.217C290.802 134.559 290.908 134.815 291.122 134.985C291.346 135.156 291.618 135.241 291.938 135.241H292.114C292.348 135.241 292.466 135.524 292.466 136.089C292.466 136.697 292.348 137.001 292.114 137.001H291.938ZM287.042 132.073H285.234V130.441H287.042V132.073ZM293.581 135.241C294.296 135.241 294.653 134.895 294.653 134.201V132.313H296.285V134.313C296.285 135.199 296.061 135.871 295.613 136.329C295.165 136.777 294.536 137.001 293.725 137.001H292.109C291.971 137.001 291.88 136.932 291.837 136.793C291.784 136.644 291.757 136.431 291.757 136.153C291.757 135.844 291.784 135.615 291.837 135.465C291.88 135.316 291.971 135.241 292.109 135.241H293.581ZM296.061 140.361H294.413V138.793H296.061V140.361ZM293.757 140.361H292.109V138.793H293.757V140.361ZM298.165 137.001V127.081H299.797V135.241H301.221C301.935 135.241 302.293 134.895 302.293 134.201V127.081H303.925V134.201C303.925 134.575 304.042 134.841 304.277 135.001C304.511 135.161 304.794 135.241 305.125 135.241H305.349C305.583 135.241 305.701 135.524 305.701 136.089C305.701 136.697 305.583 137.001 305.349 137.001H305.045C304.65 137.001 304.282 136.937 303.941 136.809C303.61 136.671 303.322 136.399 303.077 135.993C302.81 136.399 302.522 136.671 302.213 136.809C301.903 136.937 301.573 137.001 301.221 137.001H298.165ZM306.816 135.241C307.53 135.241 307.888 134.895 307.888 134.201V132.313H309.52V134.313C309.52 135.199 309.296 135.871 308.848 136.329C308.4 136.777 307.77 137.001 306.96 137.001H305.344C305.205 137.001 305.114 136.932 305.072 136.793C305.018 136.644 304.992 136.431 304.992 136.153C304.992 135.844 305.018 135.615 305.072 135.465C305.114 135.316 305.205 135.241 305.344 135.241H306.816ZM309.024 130.441H307.216V128.809H309.024V130.441ZM312.524 129.481H314.156V137.001H312.524V129.481ZM312.444 127.833C312.231 127.833 312.065 127.855 311.948 127.897C311.831 127.94 311.729 128.068 311.644 128.281L311.308 129.017L310.284 128.521L310.78 127.433C310.876 127.22 310.972 127.044 311.068 126.905C311.153 126.767 311.255 126.655 311.372 126.569C311.489 126.484 311.628 126.425 311.788 126.393C311.948 126.351 312.145 126.329 312.38 126.329H315.612L315.548 127.833H312.444ZM323.422 139.129C323.891 139.129 324.281 139.097 324.59 139.033C324.91 138.969 325.161 138.879 325.342 138.761C325.534 138.644 325.667 138.5 325.742 138.329C325.827 138.169 325.87 137.993 325.87 137.801C325.87 137.588 325.811 137.401 325.694 137.241C325.577 137.081 325.379 137.001 325.102 137.001H322.798L322.894 135.241H328.446C328.681 135.241 328.798 135.524 328.798 136.089C328.798 136.697 328.681 137.001 328.446 137.001H327.07C327.209 137.108 327.299 137.247 327.342 137.417C327.395 137.588 327.422 137.796 327.422 138.041C327.422 138.329 327.358 138.639 327.23 138.969C327.102 139.3 326.889 139.604 326.59 139.881C326.302 140.169 325.913 140.404 325.422 140.585C324.942 140.777 324.35 140.873 323.646 140.873H321.95C320.755 140.873 319.827 140.505 319.166 139.769C318.505 139.033 318.174 138.025 318.174 136.745V133.881H319.79V136.681C319.79 137.055 319.833 137.391 319.918 137.689C320.003 137.988 320.137 138.244 320.318 138.457C320.51 138.671 320.755 138.836 321.054 138.953C321.363 139.071 321.737 139.129 322.174 139.129H323.422ZM329.925 135.241C330.64 135.241 330.997 134.895 330.997 134.201V132.313H332.629V134.313C332.629 135.199 332.405 135.871 331.957 136.329C331.509 136.777 330.88 137.001 330.069 137.001H328.453C328.314 137.001 328.224 136.932 328.181 136.793C328.128 136.644 328.101 136.431 328.101 136.153C328.101 135.844 328.128 135.615 328.181 135.465C328.224 135.316 328.314 135.241 328.453 135.241H329.925ZM332.677 130.441H331.013V128.873H332.677V130.441ZM330.389 130.441H328.725V128.873H330.389V130.441ZM334.508 137.001V127.081H336.14V135.241H337.564C338.279 135.241 338.636 134.895 338.636 134.201V127.081H340.268V134.201C340.268 134.575 340.386 134.841 340.62 135.001C340.855 135.161 341.138 135.241 341.468 135.241H341.692C341.927 135.241 342.044 135.524 342.044 136.089C342.044 136.697 341.927 137.001 341.692 137.001H341.388C340.994 137.001 340.626 136.937 340.284 136.809C339.954 136.671 339.666 136.399 339.42 135.993C339.154 136.399 338.866 136.671 338.556 136.809C338.247 136.937 337.916 137.001 337.564 137.001H334.508ZM341.832 135.241C342.194 135.241 342.477 135.172 342.68 135.033C342.882 134.884 342.984 134.644 342.984 134.313V133.961C342.984 133.535 343.042 133.14 343.16 132.777C343.288 132.415 343.469 132.105 343.704 131.849C343.938 131.593 344.221 131.396 344.552 131.257C344.893 131.108 345.272 131.033 345.688 131.033C346.125 131.033 346.509 131.108 346.84 131.257C347.181 131.396 347.464 131.599 347.688 131.865C347.912 132.121 348.082 132.431 348.2 132.793C348.317 133.156 348.376 133.551 348.376 133.977C348.376 134.937 348.13 135.684 347.64 136.217C347.16 136.74 346.504 137.001 345.672 137.001C345.245 137.001 344.834 136.921 344.44 136.761C344.056 136.591 343.762 136.324 343.56 135.961C343.357 136.377 343.096 136.655 342.776 136.793C342.456 136.932 342.141 137.001 341.832 137.001H341.688C341.549 137.001 341.458 136.932 341.415 136.793C341.362 136.644 341.335 136.431 341.335 136.153C341.335 135.844 341.362 135.615 341.415 135.465C341.458 135.316 341.549 135.241 341.688 135.241H341.832ZM346.808 134.089C346.808 133.727 346.722 133.423 346.552 133.177C346.392 132.932 346.098 132.809 345.672 132.809C345.266 132.809 344.973 132.932 344.792 133.177C344.621 133.412 344.536 133.721 344.536 134.105C344.536 134.479 344.637 134.761 344.84 134.953C345.042 135.145 345.32 135.241 345.672 135.241C346.429 135.241 346.808 134.857 346.808 134.089ZM352.467 137.001C352.168 137.001 351.88 136.964 351.603 136.889C351.336 136.804 351.101 136.665 350.899 136.473C350.696 136.281 350.536 136.031 350.419 135.721C350.301 135.401 350.243 135.007 350.243 134.537V127.081H351.875V134.137C351.875 134.479 351.949 134.751 352.099 134.953C352.259 135.145 352.493 135.241 352.803 135.241H353.171C353.405 135.241 353.523 135.524 353.523 136.089C353.523 136.697 353.405 137.001 353.171 137.001H352.467ZM354.1 135.241C354.441 135.241 354.809 135.231 355.204 135.209C355.599 135.188 355.983 135.119 356.356 135.001L354.34 132.361L355.156 130.809H359.332C359.844 130.809 360.26 130.921 360.58 131.145C360.911 131.359 361.119 131.652 361.204 132.025C361.225 132.111 361.241 132.196 361.252 132.281C361.263 132.356 361.268 132.436 361.268 132.521C361.257 132.66 361.231 132.809 361.188 132.969C361.145 133.129 361.065 133.311 360.948 133.513C360.831 133.716 360.665 133.945 360.452 134.201C360.239 134.457 359.956 134.751 359.604 135.081C359.871 135.167 360.143 135.215 360.42 135.225C360.708 135.236 361.023 135.241 361.364 135.241H362.468C362.607 135.241 362.697 135.316 362.74 135.465C362.793 135.604 362.82 135.812 362.82 136.089C362.82 136.399 362.793 136.628 362.74 136.777C362.697 136.927 362.607 137.001 362.468 137.001H361.044C360.724 137.001 360.42 136.996 360.132 136.985C359.855 136.964 359.588 136.927 359.332 136.873C359.076 136.82 358.831 136.735 358.596 136.617C358.361 136.5 358.132 136.345 357.908 136.153C357.609 136.335 357.316 136.484 357.028 136.601C356.74 136.708 356.447 136.793 356.148 136.857C355.849 136.911 355.54 136.948 355.22 136.969C354.911 136.991 354.58 137.001 354.228 137.001H353.172C353.033 137.001 352.943 136.932 352.9 136.793C352.847 136.644 352.82 136.431 352.82 136.153C352.82 135.844 352.847 135.615 352.9 135.465C352.943 135.316 353.033 135.241 353.172 135.241H354.1ZM359.508 132.889C359.508 132.601 359.289 132.457 358.852 132.457H356.292L358.036 134.649C358.601 134.191 358.985 133.828 359.188 133.561C359.401 133.284 359.508 133.06 359.508 132.889ZM362.613 135.241C362.975 135.241 363.258 135.172 363.461 135.033C363.663 134.884 363.765 134.644 363.765 134.313V133.961C363.765 133.535 363.823 133.14 363.941 132.777C364.069 132.415 364.25 132.105 364.485 131.849C364.719 131.593 365.002 131.396 365.333 131.257C365.674 131.108 366.053 131.033 366.469 131.033C366.906 131.033 367.29 131.108 367.621 131.257C367.962 131.396 368.245 131.599 368.469 131.865C368.693 132.121 368.863 132.431 368.981 132.793C369.098 133.156 369.157 133.551 369.157 133.977C369.157 134.937 368.911 135.684 368.421 136.217C367.941 136.74 367.285 137.001 366.453 137.001C366.026 137.001 365.615 136.921 365.221 136.761C364.837 136.591 364.543 136.324 364.341 135.961C364.138 136.377 363.877 136.655 363.557 136.793C363.237 136.932 362.922 137.001 362.613 137.001H362.469C362.33 137.001 362.239 136.932 362.197 136.793C362.143 136.644 362.117 136.431 362.117 136.153C362.117 135.844 362.143 135.615 362.197 135.465C362.239 135.316 362.33 135.241 362.469 135.241H362.613ZM367.589 134.089C367.589 133.727 367.503 133.423 367.333 133.177C367.173 132.932 366.879 132.809 366.453 132.809C366.047 132.809 365.754 132.932 365.573 133.177C365.402 133.412 365.317 133.721 365.317 134.105C365.317 134.479 365.418 134.761 365.621 134.953C365.823 135.145 366.101 135.241 366.453 135.241C367.21 135.241 367.589 134.857 367.589 134.089Z" fill="white" fill-opacity="0.8"/>
<path d="M344.248 57.2374C344.248 60.2403 346.682 62.6746 349.685 62.6746C352.688 62.6746 355.122 60.2403 355.122 57.2374C355.122 54.2346 352.688 51.8003 349.685 51.8003C346.682 51.8003 344.248 54.2346 344.248 57.2374ZM353.247 57.2374C353.247 59.2048 351.652 60.7997 349.685 60.7997C347.718 60.7997 346.123 59.2048 346.123 57.2374C346.123 55.2701 347.718 53.6752 349.685 53.6752C351.652 53.6752 353.247 55.27 353.247 57.2374Z" fill="#F5E427"/>
<path d="M361.966 60.9406C361.935 60.9402 361.904 60.9399 361.872 60.9399H360.325C357.699 60.9737 355.274 62.3543 353.904 64.5958C352.846 64.0062 351.647 63.7146 350.436 63.7521H348.936C347.725 63.7146 346.526 64.0062 345.468 64.5958C344.098 62.3543 341.673 60.9737 339.046 60.9399H337.5C333.358 60.9396 330 64.2969 330 68.4385C330 68.47 330 68.5014 330.001 68.5328V71.5325C330.001 72.0481 330.329 72.6574 330.844 72.6574H341.249V74.2041C341.249 74.7197 341.718 75.001 342.234 75.001H357.138C357.654 75.001 358.123 74.7197 358.123 74.2041V72.6574H368.528C369.043 72.6574 369.371 72.0481 369.371 71.5325V68.5328C369.423 64.3915 366.108 60.9923 361.966 60.9406ZM341.39 70.7826H331.875V68.5328C331.824 65.427 334.299 62.8672 337.405 62.8155C337.437 62.8149 337.468 62.8147 337.5 62.8147H339.047C341.073 62.8443 342.938 63.9277 343.968 65.6737C342.459 66.9626 341.53 68.8031 341.39 70.7826ZM356.248 73.1262H343.124V71.6263C343.123 68.3849 345.696 65.7283 348.936 65.627H350.436C353.676 65.7283 356.249 68.3849 356.248 71.6263V73.1262ZM367.497 68.5329V70.7827H357.982C357.842 68.8031 356.913 66.9626 355.404 65.6739C356.434 63.9278 358.299 62.8444 360.325 62.8148H361.872C364.978 62.8144 367.497 65.3322 367.497 68.4384C367.497 68.4698 367.497 68.5014 367.497 68.5329Z" fill="#F5E427"/>
<path d="M361.122 49.1753C358.12 49.1753 355.686 51.6096 355.686 54.6124C355.686 57.6153 358.12 60.0496 361.122 60.0496C364.125 60.0496 366.559 57.6153 366.559 54.6124C366.559 51.6096 364.125 49.1753 361.122 49.1753ZM361.122 58.1748C359.155 58.1748 357.56 56.5799 357.56 54.6125C357.56 52.6451 359.155 51.0503 361.122 51.0503C363.09 51.0503 364.685 52.6451 364.685 54.6125C364.685 56.5799 363.09 58.1748 361.122 58.1748Z" fill="#F5E427"/>
<path d="M338.296 60.0496C341.299 60.0496 343.733 57.6153 343.733 54.6124C343.733 51.6096 341.299 49.1753 338.296 49.1753C335.294 49.1753 332.859 51.6096 332.859 54.6124C332.859 57.6153 335.294 60.0496 338.296 60.0496ZM338.296 51.0502C340.264 51.0502 341.858 52.6451 341.858 54.6124C341.858 56.5798 340.264 58.1747 338.296 58.1747C336.329 58.1747 334.734 56.5798 334.734 54.6124C334.734 52.6451 336.329 51.0502 338.296 51.0502Z" fill="#F5E427"/>
<path d="M334.687 45.9413H338.437V47.6286C338.432 47.9608 338.613 48.2681 338.906 48.4254C339.029 48.5139 339.176 48.5629 339.327 48.566C339.514 48.5536 339.692 48.4886 339.843 48.3785L343.311 45.9413H351.701C352.166 45.9183 352.525 45.5225 352.502 45.0571C352.501 45.0393 352.5 45.0216 352.498 45.0039V42.1917H357.138L361.45 46.7381C361.63 46.9392 361.884 47.0577 362.153 47.0662H362.575C362.967 46.9661 363.25 46.626 363.278 46.2225V42.1917H364.684C365.2 42.1917 365.621 42.0042 365.621 41.4417V30.8022C365.599 30.3368 365.203 29.9782 364.737 30.001C364.72 30.0019 364.702 30.0034 364.684 30.0053H343.311C342.796 30.0053 342.187 30.2866 342.187 30.8022V31.8802H334.687C334.172 31.8802 333.75 32.1145 333.75 32.6301V45.0039C333.75 45.5216 334.17 45.9413 334.687 45.9413ZM344.061 31.8802H363.747V40.3169H362.153C361.638 40.3169 361.403 40.9263 361.403 41.4418V43.8791L358.31 40.6918C358.098 40.4754 357.815 40.3424 357.513 40.3168H344.061V31.8802ZM335.625 33.7551H342.187V41.4418C342.187 42.0042 342.796 42.1917 343.312 42.1917H350.623V44.0666H343.03C342.842 44.066 342.659 44.1325 342.515 44.2541L340.312 45.8008V45.004C340.287 44.4788 339.853 44.0659 339.328 44.0666H335.625V33.7551Z" fill="#DFC845"/>
</svg>
