<svg width="36" height="36" viewBox="0 0 36 36" fill="none" xmlns="http://www.w3.org/2000/svg">
<path d="M18 35.1006C8.34875 35.1006 0.5 27.2501 0.5 17.6006C0.5 7.95109 8.34875 0.100586 18 0.100586C27.6495 0.100586 35.5 7.95109 35.5 17.6006C35.5 27.2501 27.6495 35.1006 18 35.1006Z" fill="#FFDF2C"/>
<path d="M20.5245 24.9867C20.1903 24.9867 19.8543 24.859 19.5988 24.6035L13.4965 18.531C13.2498 18.2842 13.1115 17.95 13.1115 17.6C13.1115 17.2517 13.2498 16.9175 13.4965 16.6707L19.5988 10.5947C20.1115 10.0837 20.941 10.0837 21.4538 10.5982C21.9648 11.1127 21.963 11.944 21.4503 12.455L16.2825 17.6L21.4503 22.745C21.963 23.256 21.9648 24.0855 21.4538 24.6C21.1983 24.859 20.8605 24.9867 20.5245 24.9867Z" fill="#1E1E1E"/>
</svg>
