<svg width="25" height="25" viewBox="0 0 25 25" fill="none" xmlns="http://www.w3.org/2000/svg">
<path d="M16.1043 13.737C15.6844 13.6467 15.3523 13.8416 15.0583 14.0118C14.7571 14.1872 14.1845 14.6518 13.8562 14.5329C12.1757 13.841 10.5951 12.37 9.91087 10.6827C9.79027 10.3475 10.2527 9.7712 10.4268 9.46648C10.5957 9.17152 10.7866 8.83627 10.6996 8.41331C10.6209 8.03323 9.60326 6.73837 9.24342 6.38428C9.0061 6.15038 8.76299 6.02174 8.51342 6.00095C7.57512 5.96067 6.5272 7.21265 6.34341 7.51217C5.88297 8.15083 5.88555 9.00064 6.35115 10.0311C7.47323 12.7988 11.7172 16.9758 14.4953 18.1401C15.008 18.3798 15.4768 18.5 15.8979 18.5C16.31 18.5 16.6769 18.385 16.9923 18.157C17.2302 18.0199 18.5335 16.9199 18.4993 15.9564C18.4787 15.7108 18.3504 15.4652 18.1195 15.2274C17.768 14.8642 16.4815 13.8163 16.1043 13.737" fill="#FFDF2C"/>
<circle cx="12.5" cy="12.5" r="12.5" fill="white" fill-opacity="0.2"/>
</svg>
