<svg width="580" height="379" viewBox="0 0 580 379" fill="none" xmlns="http://www.w3.org/2000/svg">
<g filter="url(#filter0_d)">
<rect x="50" y="50" width="479.279" height="279" rx="20" fill="#1E1E1E"/>
</g>
<path d="M118.131 262.344C118.483 262.344 118.779 262.304 119.019 262.224C119.259 262.128 119.451 262.016 119.595 261.888C119.755 261.744 119.867 261.592 119.931 261.432C120.011 261.272 120.051 261.12 120.051 260.976C120.051 260.816 120.019 260.6 119.955 260.328C119.891 260.056 119.771 259.656 119.595 259.128C119.435 258.6 119.195 257.896 118.875 257.016C118.571 256.136 118.171 255.008 117.675 253.632L119.139 253.032L121.707 260.352C121.963 261.072 122.259 261.584 122.595 261.888C122.931 262.192 123.403 262.344 124.011 262.344H124.347C124.699 262.344 124.875 262.616 124.875 263.16C124.875 263.72 124.699 264 124.347 264H124.011C123.483 264 122.979 263.904 122.499 263.712C122.019 263.504 121.579 263.064 121.179 262.392C120.843 263.048 120.419 263.48 119.907 263.688C119.411 263.896 118.867 264 118.275 264H113.115L112.995 262.344H118.131ZM126.164 262.344C126.836 262.344 127.348 262.176 127.7 261.84C128.052 261.504 128.228 261.04 128.228 260.448V257.136H129.788V260.448C129.788 260.8 129.844 261.096 129.956 261.336C130.084 261.576 130.244 261.776 130.436 261.936C130.628 262.08 130.844 262.184 131.084 262.248C131.324 262.312 131.572 262.344 131.828 262.344H132.548C132.916 262.344 133.1 262.616 133.1 263.16C133.1 263.72 132.916 264 132.548 264H131.78C131.204 264 130.668 263.896 130.172 263.688C129.676 263.464 129.268 263.048 128.948 262.44C128.58 263.048 128.156 263.464 127.676 263.688C127.212 263.896 126.708 264 126.164 264H124.34C124.132 264 123.996 263.936 123.932 263.808C123.852 263.68 123.812 263.48 123.812 263.208C123.812 262.92 123.852 262.704 123.932 262.56C123.996 262.416 124.132 262.344 124.34 262.344H126.164ZM130.82 268.488H128.996V266.784H130.82V268.488ZM127.7 268.488H125.852V266.784H127.7V268.488ZM134.367 262.344C135.039 262.344 135.551 262.176 135.903 261.84C136.255 261.504 136.431 261.04 136.431 260.448V257.136H137.991V260.448C137.991 260.8 138.047 261.096 138.159 261.336C138.287 261.576 138.447 261.776 138.639 261.936C138.831 262.08 139.047 262.184 139.287 262.248C139.527 262.312 139.775 262.344 140.031 262.344H140.751C141.119 262.344 141.303 262.616 141.303 263.16C141.303 263.72 141.119 264 140.751 264H139.983C139.407 264 138.871 263.896 138.375 263.688C137.879 263.464 137.471 263.048 137.151 262.44C136.783 263.048 136.359 263.464 135.879 263.688C135.415 263.896 134.911 264 134.367 264H132.543C132.335 264 132.199 263.936 132.135 263.808C132.055 263.68 132.015 263.48 132.015 263.208C132.015 262.92 132.055 262.704 132.135 262.56C132.199 262.416 132.335 262.344 132.543 262.344H134.367ZM138.039 254.064H136.023V252.312H138.039V254.064ZM147.082 262.344C147.802 262.344 148.298 262.2 148.57 261.912C148.842 261.608 148.978 261.248 148.978 260.832C148.978 260.56 148.93 260.256 148.834 259.92C148.738 259.584 148.474 259.2 148.042 258.768L142.858 253.608V251.904L150.802 248.76L151.21 250.32L144.394 252.984L148.738 257.328C149.122 257.728 149.434 258.088 149.674 258.408C149.93 258.728 150.13 259.032 150.274 259.32C150.418 259.608 150.514 259.888 150.562 260.16C150.61 260.432 150.634 260.72 150.634 261.024C150.634 261.536 150.546 261.984 150.37 262.368C150.21 262.736 149.978 263.04 149.674 263.28C149.37 263.52 149.01 263.704 148.594 263.832C148.178 263.944 147.722 264 147.226 264H140.746C140.538 264 140.402 263.936 140.338 263.808C140.258 263.68 140.218 263.48 140.218 263.208C140.218 262.92 140.258 262.704 140.338 262.56C140.402 262.416 140.538 262.344 140.746 262.344H147.082ZM175.906 260.448C175.906 261.152 176.106 261.648 176.506 261.936C176.906 262.208 177.354 262.344 177.85 262.344C178.458 262.344 178.938 262.176 179.29 261.84C179.658 261.504 179.842 261.04 179.842 260.448V257.136H181.402V260.448C181.402 261.584 181.082 262.464 180.442 263.088C179.818 263.696 178.97 264 177.898 264C177.322 264 176.786 263.896 176.29 263.688C175.794 263.464 175.386 263.048 175.066 262.44C174.698 263.048 174.25 263.464 173.722 263.688C173.21 263.896 172.674 264 172.114 264C171.602 264 171.162 263.92 170.794 263.76C170.426 263.584 170.13 263.352 169.906 263.064V263.616C169.906 264.432 169.77 265.216 169.498 265.968C169.226 266.72 168.834 267.376 168.322 267.936C167.826 268.512 167.218 268.968 166.498 269.304C165.778 269.64 164.962 269.808 164.05 269.808H162.634C160.842 269.808 159.45 269.256 158.458 268.152C157.466 267.048 156.97 265.536 156.97 263.616V259.416H158.506V263.568C158.506 264.256 158.586 264.88 158.746 265.44C158.922 266 159.186 266.48 159.538 266.88C159.906 267.296 160.362 267.616 160.906 267.84C161.45 268.064 162.106 268.176 162.874 268.176H163.93C164.682 268.176 165.338 268.048 165.898 267.792C166.458 267.552 166.922 267.224 167.29 266.808C167.674 266.392 167.954 265.904 168.13 265.344C168.322 264.784 168.418 264.2 168.418 263.592V257.136H169.954V260.52C169.954 261.08 170.146 261.528 170.53 261.864C170.914 262.184 171.434 262.344 172.09 262.344C172.826 262.344 173.386 262.176 173.77 261.84C174.17 261.504 174.37 261.04 174.37 260.448V257.136H175.906V260.448ZM176.098 251.184H174.178V249.504H176.098V251.184ZM177.61 254.064H175.69V252.36H177.61V254.064ZM174.562 254.064H172.642V252.36H174.562V254.064ZM186.25 268.176C186.954 268.176 187.57 268.064 188.098 267.84C188.642 267.616 189.098 267.312 189.466 266.928C189.834 266.544 190.114 266.096 190.306 265.584C190.498 265.088 190.61 264.56 190.642 264H188.242C187.426 264 186.754 263.912 186.226 263.736C185.698 263.56 185.282 263.304 184.978 262.968C184.674 262.632 184.458 262.232 184.33 261.768C184.218 261.288 184.162 260.752 184.162 260.16C184.162 259.552 184.25 258.976 184.426 258.432C184.602 257.888 184.858 257.408 185.194 256.992C185.53 256.576 185.946 256.248 186.442 256.008C186.954 255.752 187.538 255.624 188.194 255.624C188.722 255.624 189.226 255.712 189.706 255.888C190.186 256.064 190.61 256.344 190.978 256.728C191.346 257.096 191.634 257.584 191.842 258.192C192.066 258.784 192.178 259.504 192.178 260.352V263.616C192.178 264.432 192.042 265.216 191.77 265.968C191.514 266.72 191.138 267.376 190.642 267.936C190.146 268.512 189.538 268.968 188.818 269.304C188.098 269.64 187.29 269.808 186.394 269.808H183.85L183.706 268.176H186.25ZM185.65 260.064C185.65 260.464 185.69 260.808 185.77 261.096C185.866 261.384 186.018 261.624 186.226 261.816C186.45 261.992 186.746 262.128 187.114 262.224C187.482 262.304 187.946 262.344 188.506 262.344H190.666V260.544C190.666 259.36 190.434 258.512 189.97 258C189.506 257.488 188.866 257.232 188.05 257.232C187.282 257.232 186.69 257.488 186.274 258C185.858 258.512 185.65 259.2 185.65 260.064ZM198.755 260.52C198.755 261.08 198.939 261.528 199.307 261.864C199.675 262.184 200.163 262.344 200.771 262.344H201.035C201.387 262.344 201.563 262.616 201.563 263.16C201.563 263.72 201.387 264 201.035 264H200.771C200.387 264 200.003 263.928 199.619 263.784C199.251 263.64 198.947 263.392 198.707 263.04V263.616C198.707 264.544 198.563 265.384 198.275 266.136C197.987 266.904 197.587 267.56 197.075 268.104C196.563 268.648 195.963 269.064 195.275 269.352C194.587 269.656 193.835 269.808 193.019 269.808H192.419L192.251 268.176H192.731C193.515 268.176 194.187 268.048 194.747 267.792C195.307 267.536 195.763 267.192 196.115 266.76C196.483 266.344 196.755 265.864 196.931 265.32C197.107 264.776 197.195 264.208 197.195 263.616V257.136H198.755V260.52ZM205.083 262.344C205.499 262.344 205.851 262.344 206.139 262.344C206.443 262.328 206.763 262.328 207.099 262.344C206.187 262.04 205.467 261.736 204.939 261.432C204.427 261.128 204.035 260.816 203.763 260.496C203.491 260.176 203.315 259.832 203.235 259.464C203.171 259.08 203.139 258.656 203.139 258.192C203.139 257.744 203.227 257.288 203.403 256.824C203.579 256.36 203.835 255.944 204.171 255.576C204.523 255.192 204.947 254.88 205.443 254.64C205.955 254.4 206.539 254.28 207.195 254.28C207.803 254.28 208.355 254.368 208.851 254.544C209.347 254.704 209.771 254.968 210.123 255.336C210.491 255.704 210.771 256.184 210.963 256.776C211.171 257.368 211.275 258.096 211.275 258.96V260.04C211.275 261.272 210.899 262.24 210.147 262.944C209.411 263.648 208.243 264 206.643 264H201.027C200.819 264 200.683 263.936 200.619 263.808C200.539 263.68 200.499 263.48 200.499 263.208C200.499 262.92 200.539 262.704 200.619 262.56C200.683 262.416 200.819 262.344 201.027 262.344H205.083ZM207.099 255.936C206.715 255.936 206.363 256.008 206.043 256.152C205.739 256.296 205.475 256.48 205.251 256.704C205.043 256.928 204.883 257.184 204.771 257.472C204.659 257.76 204.603 258.056 204.603 258.36C204.603 258.664 204.635 258.952 204.699 259.224C204.763 259.48 204.939 259.744 205.227 260.016C205.515 260.272 205.947 260.552 206.523 260.856C207.115 261.144 207.931 261.472 208.971 261.84C209.483 261.408 209.739 260.768 209.739 259.92V259.128C209.739 258.136 209.539 257.36 209.139 256.8C208.739 256.224 208.059 255.936 207.099 255.936ZM208.203 251.904H206.187V250.152H208.203V251.904ZM219.742 268.176C220.446 268.176 221.062 268.064 221.59 267.84C222.134 267.616 222.59 267.312 222.958 266.928C223.326 266.544 223.606 266.096 223.798 265.584C223.99 265.088 224.102 264.56 224.134 264H221.734C220.918 264 220.246 263.912 219.718 263.736C219.19 263.56 218.774 263.304 218.47 262.968C218.166 262.632 217.95 262.232 217.822 261.768C217.71 261.288 217.654 260.752 217.654 260.16C217.654 259.552 217.742 258.976 217.918 258.432C218.094 257.888 218.35 257.408 218.686 256.992C219.022 256.576 219.438 256.248 219.934 256.008C220.446 255.752 221.03 255.624 221.686 255.624C222.214 255.624 222.718 255.712 223.198 255.888C223.678 256.064 224.102 256.344 224.47 256.728C224.838 257.096 225.126 257.584 225.334 258.192C225.558 258.784 225.67 259.504 225.67 260.352V263.616C225.67 264.432 225.534 265.216 225.262 265.968C225.006 266.72 224.63 267.376 224.134 267.936C223.638 268.512 223.03 268.968 222.31 269.304C221.59 269.64 220.782 269.808 219.886 269.808H217.342L217.198 268.176H219.742ZM219.142 260.064C219.142 260.464 219.182 260.808 219.262 261.096C219.358 261.384 219.51 261.624 219.718 261.816C219.942 261.992 220.238 262.128 220.606 262.224C220.974 262.304 221.438 262.344 221.998 262.344H224.158V260.544C224.158 259.36 223.926 258.512 223.462 258C222.998 257.488 222.358 257.232 221.542 257.232C220.774 257.232 220.182 257.488 219.766 258C219.35 258.512 219.142 259.2 219.142 260.064ZM236.795 262.344C237.147 262.344 237.443 262.304 237.683 262.224C237.923 262.128 238.115 262.016 238.259 261.888C238.419 261.744 238.531 261.592 238.595 261.432C238.675 261.272 238.715 261.12 238.715 260.976C238.715 260.816 238.683 260.6 238.619 260.328C238.555 260.056 238.435 259.656 238.259 259.128C238.099 258.6 237.859 257.896 237.539 257.016C237.235 256.136 236.835 255.008 236.339 253.632L237.803 253.032L240.371 260.352C240.627 261.072 240.923 261.584 241.259 261.888C241.595 262.192 242.067 262.344 242.675 262.344H243.011C243.363 262.344 243.539 262.616 243.539 263.16C243.539 263.72 243.363 264 243.011 264H242.675C242.147 264 241.643 263.904 241.163 263.712C240.683 263.504 240.243 263.064 239.843 262.392C239.507 263.048 239.083 263.48 238.571 263.688C238.075 263.896 237.531 264 236.939 264H231.779L231.659 262.344H236.795ZM243.004 264C242.796 264 242.66 263.936 242.596 263.808C242.516 263.68 242.476 263.48 242.476 263.208C242.476 262.92 242.516 262.704 242.596 262.56C242.66 262.416 242.796 262.344 243.004 262.344H248.476C249.1 262.344 249.596 262.176 249.964 261.84C250.332 261.504 250.516 261.04 250.516 260.448V257.136H252.1V260.448C252.1 261.584 251.78 262.464 251.14 263.088C250.5 263.696 249.644 264 248.572 264H243.004ZM249.148 268.488H247.324V266.784H249.148V268.488ZM246.028 268.488H244.18V266.784H246.028V268.488ZM257.466 260.52C257.466 261.08 257.65 261.528 258.018 261.864C258.386 262.184 258.874 262.344 259.482 262.344H259.746C260.098 262.344 260.274 262.616 260.274 263.16C260.274 263.72 260.098 264 259.746 264H259.482C259.098 264 258.714 263.928 258.33 263.784C257.962 263.64 257.658 263.392 257.418 263.04V263.616C257.418 264.544 257.274 265.384 256.986 266.136C256.698 266.904 256.298 267.56 255.786 268.104C255.274 268.648 254.674 269.064 253.986 269.352C253.298 269.656 252.546 269.808 251.73 269.808H251.13L250.962 268.176H251.442C252.226 268.176 252.898 268.048 253.458 267.792C254.018 267.536 254.474 267.192 254.826 266.76C255.194 266.344 255.466 265.864 255.642 265.32C255.818 264.776 255.906 264.208 255.906 263.616V257.136H257.466V260.52ZM266.674 262.584C266.258 262.824 265.858 263.04 265.474 263.232C265.09 263.408 264.674 263.552 264.226 263.664C263.778 263.776 263.282 263.864 262.738 263.928C262.21 263.976 261.602 264 260.914 264H259.738C259.53 264 259.394 263.936 259.33 263.808C259.25 263.68 259.21 263.48 259.21 263.208C259.21 262.92 259.25 262.704 259.33 262.56C259.394 262.416 259.53 262.344 259.738 262.344H260.938C261.562 262.344 262.114 262.328 262.594 262.296C263.074 262.248 263.514 262.184 263.914 262.104C264.314 262.008 264.69 261.888 265.042 261.744C265.394 261.6 265.754 261.416 266.122 261.192L270.178 258.84C270.05 258.504 269.914 258.2 269.77 257.928C269.626 257.64 269.442 257.4 269.218 257.208C269.01 257.016 268.746 256.872 268.426 256.776C268.106 256.664 267.706 256.608 267.226 256.608H261.85L261.994 254.952H267.442C267.858 254.952 268.282 255 268.714 255.096C269.162 255.192 269.578 255.4 269.962 255.72C270.362 256.024 270.73 256.48 271.066 257.088C271.418 257.696 271.706 258.504 271.93 259.512L266.674 262.584ZM266.77 252.24H264.754V250.488H266.77V252.24ZM282.85 262.344C283.202 262.344 283.498 262.304 283.738 262.224C283.978 262.128 284.17 262.016 284.314 261.888C284.474 261.744 284.586 261.592 284.65 261.432C284.73 261.272 284.77 261.12 284.77 260.976C284.77 260.816 284.738 260.6 284.674 260.328C284.61 260.056 284.49 259.656 284.314 259.128C284.154 258.6 283.914 257.896 283.594 257.016C283.29 256.136 282.89 255.008 282.394 253.632L283.858 253.032L286.426 260.352C286.682 261.072 286.978 261.584 287.314 261.888C287.65 262.192 288.122 262.344 288.73 262.344H289.066C289.418 262.344 289.594 262.616 289.594 263.16C289.594 263.72 289.418 264 289.066 264H288.73C288.202 264 287.698 263.904 287.218 263.712C286.738 263.504 286.298 263.064 285.898 262.392C285.562 263.048 285.138 263.48 284.626 263.688C284.13 263.896 283.586 264 282.994 264H277.834L277.714 262.344H282.85ZM290.883 262.344C291.555 262.344 292.067 262.176 292.419 261.84C292.771 261.504 292.947 261.04 292.947 260.448V257.136H294.507V260.448C294.507 260.8 294.563 261.096 294.675 261.336C294.803 261.576 294.963 261.776 295.155 261.936C295.347 262.08 295.563 262.184 295.803 262.248C296.043 262.312 296.291 262.344 296.547 262.344H297.267C297.635 262.344 297.819 262.616 297.819 263.16C297.819 263.72 297.635 264 297.267 264H296.499C295.923 264 295.387 263.896 294.891 263.688C294.395 263.464 293.987 263.048 293.667 262.44C293.299 263.048 292.875 263.464 292.395 263.688C291.931 263.896 291.427 264 290.883 264H289.059C288.851 264 288.715 263.936 288.651 263.808C288.571 263.68 288.531 263.48 288.531 263.208C288.531 262.92 288.571 262.704 288.651 262.56C288.715 262.416 288.851 262.344 289.059 262.344H290.883ZM295.539 268.488H293.715V266.784H295.539V268.488ZM292.419 268.488H290.571V266.784H292.419V268.488ZM299.422 262.344C300.046 262.344 300.542 262.176 300.91 261.84C301.294 261.504 301.486 261.04 301.486 260.448V257.136H303.046V260.448C303.046 261.584 302.726 262.464 302.086 263.088C301.462 263.696 300.606 264 299.518 264H297.262C297.054 264 296.918 263.936 296.854 263.808C296.774 263.68 296.734 263.48 296.734 263.208C296.734 262.92 296.774 262.704 296.854 262.56C296.918 262.416 297.054 262.344 297.262 262.344H299.422ZM302.398 254.064H300.382V252.312H302.398V254.064ZM306.043 249.12H307.603V264H306.043V249.12ZM312.789 268.176C313.493 268.176 314.109 268.064 314.637 267.84C315.181 267.616 315.637 267.312 316.005 266.928C316.373 266.544 316.653 266.096 316.845 265.584C317.037 265.088 317.149 264.56 317.181 264H314.781C313.965 264 313.293 263.912 312.765 263.736C312.237 263.56 311.821 263.304 311.517 262.968C311.213 262.632 310.997 262.232 310.869 261.768C310.757 261.288 310.701 260.752 310.701 260.16C310.701 259.552 310.789 258.976 310.965 258.432C311.141 257.888 311.397 257.408 311.733 256.992C312.069 256.576 312.485 256.248 312.981 256.008C313.493 255.752 314.077 255.624 314.733 255.624C315.261 255.624 315.765 255.712 316.245 255.888C316.725 256.064 317.149 256.344 317.517 256.728C317.885 257.096 318.173 257.584 318.381 258.192C318.605 258.784 318.717 259.504 318.717 260.352V262.344H321.021C321.213 262.344 321.341 262.416 321.405 262.56C321.485 262.688 321.525 262.888 321.525 263.16C321.525 263.448 321.485 263.664 321.405 263.808C321.341 263.936 321.213 264 321.021 264H318.669C318.637 264.784 318.477 265.528 318.189 266.232C317.917 266.936 317.533 267.552 317.037 268.08C316.541 268.608 315.949 269.024 315.261 269.328C314.573 269.648 313.797 269.808 312.933 269.808H310.389L310.245 268.176H312.789ZM312.189 260.064C312.189 260.464 312.229 260.808 312.309 261.096C312.405 261.384 312.557 261.624 312.765 261.816C312.989 261.992 313.285 262.128 313.653 262.224C314.021 262.304 314.485 262.344 315.045 262.344H317.205V260.544C317.205 259.36 316.973 258.512 316.509 258C316.045 257.488 315.405 257.232 314.589 257.232C313.821 257.232 313.229 257.488 312.813 258C312.397 258.512 312.189 259.2 312.189 260.064ZM322.851 262.344C323.523 262.344 324.035 262.176 324.387 261.84C324.739 261.504 324.915 261.04 324.915 260.448V257.136H326.475V260.448C326.475 260.8 326.531 261.096 326.643 261.336C326.771 261.576 326.931 261.776 327.123 261.936C327.315 262.08 327.531 262.184 327.771 262.248C328.011 262.312 328.259 262.344 328.515 262.344H329.235C329.603 262.344 329.787 262.616 329.787 263.16C329.787 263.72 329.603 264 329.235 264H328.467C327.891 264 327.355 263.896 326.859 263.688C326.363 263.464 325.955 263.048 325.635 262.44C325.267 263.048 324.843 263.464 324.363 263.688C323.899 263.896 323.395 264 322.851 264H321.027C320.819 264 320.683 263.936 320.619 263.808C320.539 263.68 320.499 263.48 320.499 263.208C320.499 262.92 320.539 262.704 320.619 262.56C320.683 262.416 320.819 262.344 321.027 262.344H322.851ZM327.915 254.064H325.995V252.36H327.915V254.064ZM324.867 254.064H322.947V252.36H324.867V254.064ZM331.054 262.344C331.726 262.344 332.238 262.176 332.59 261.84C332.942 261.504 333.118 261.04 333.118 260.448V257.136H334.678V260.448C334.678 260.8 334.734 261.096 334.846 261.336C334.974 261.576 335.134 261.776 335.326 261.936C335.518 262.08 335.734 262.184 335.974 262.248C336.214 262.312 336.462 262.344 336.718 262.344H337.438C337.806 262.344 337.99 262.616 337.99 263.16C337.99 263.72 337.806 264 337.438 264H336.67C336.094 264 335.558 263.896 335.062 263.688C334.566 263.464 334.158 263.048 333.838 262.44C333.47 263.048 333.046 263.464 332.566 263.688C332.102 263.896 331.598 264 331.054 264H329.23C329.022 264 328.886 263.936 328.822 263.808C328.742 263.68 328.702 263.48 328.702 263.208C328.702 262.92 328.742 262.704 328.822 262.56C328.886 262.416 329.022 262.344 329.23 262.344H331.054ZM335.71 268.488H333.886V266.784H335.71V268.488ZM332.59 268.488H330.742V266.784H332.59V268.488ZM337.818 262.344C338.442 262.344 338.914 262.192 339.234 261.888C339.554 261.584 339.714 261.176 339.714 260.664V259.752C339.714 258.36 340.066 257.272 340.77 256.488C341.49 255.704 342.482 255.312 343.746 255.312C344.402 255.312 344.978 255.416 345.474 255.624C345.97 255.832 346.378 256.128 346.698 256.512C347.034 256.896 347.282 257.352 347.442 257.88C347.602 258.408 347.682 258.992 347.682 259.632C347.682 261.008 347.322 262.08 346.602 262.848C345.882 263.616 344.898 264 343.65 264C343.01 264 342.394 263.88 341.802 263.64C341.21 263.384 340.746 262.936 340.41 262.296C340.266 262.664 340.09 262.96 339.882 263.184C339.674 263.408 339.458 263.584 339.234 263.712C339.01 263.824 338.77 263.904 338.514 263.952C338.274 263.984 338.042 264 337.818 264H337.434C337.226 264 337.09 263.936 337.026 263.808C336.946 263.68 336.906 263.48 336.906 263.208C336.906 262.92 336.946 262.704 337.026 262.56C337.09 262.416 337.226 262.344 337.434 262.344H337.818ZM346.146 259.776C346.146 258.944 345.962 258.272 345.594 257.76C345.226 257.232 344.594 256.968 343.698 256.968C342.034 256.968 341.202 257.936 341.202 259.872C341.202 260.688 341.426 261.304 341.874 261.72C342.338 262.136 342.93 262.344 343.65 262.344C344.466 262.344 345.082 262.12 345.498 261.672C345.93 261.224 346.146 260.592 346.146 259.776ZM366.923 263.52C366.923 264.384 366.787 265.192 366.515 265.944C366.243 266.712 365.851 267.376 365.339 267.936C364.827 268.512 364.203 268.968 363.467 269.304C362.747 269.64 361.931 269.808 361.019 269.808H359.603C357.811 269.808 356.419 269.256 355.427 268.152C354.435 267.048 353.939 265.536 353.939 263.616V259.416H355.475V263.568C355.475 264.256 355.555 264.88 355.715 265.44C355.891 266 356.155 266.48 356.507 266.88C356.875 267.296 357.331 267.616 357.875 267.84C358.419 268.064 359.075 268.176 359.843 268.176H360.899C361.651 268.176 362.307 268.048 362.867 267.792C363.427 267.552 363.891 267.224 364.259 266.808C364.643 266.392 364.923 265.904 365.099 265.344C365.291 264.784 365.387 264.2 365.387 263.592V257.136H366.923V263.52ZM361.139 256.608H359.123V254.856H361.139V256.608ZM371.781 268.176C372.485 268.176 373.101 268.064 373.629 267.84C374.173 267.616 374.629 267.312 374.997 266.928C375.365 266.544 375.645 266.096 375.837 265.584C376.029 265.088 376.141 264.56 376.173 264H373.773C372.957 264 372.285 263.912 371.757 263.736C371.229 263.56 370.813 263.304 370.509 262.968C370.205 262.632 369.989 262.232 369.861 261.768C369.749 261.288 369.693 260.752 369.693 260.16C369.693 259.552 369.781 258.976 369.957 258.432C370.133 257.888 370.389 257.408 370.725 256.992C371.061 256.576 371.477 256.248 371.973 256.008C372.485 255.752 373.069 255.624 373.725 255.624C374.253 255.624 374.757 255.712 375.237 255.888C375.717 256.064 376.141 256.344 376.509 256.728C376.877 257.096 377.165 257.584 377.373 258.192C377.597 258.784 377.709 259.504 377.709 260.352V262.344H380.013C380.205 262.344 380.333 262.416 380.397 262.56C380.477 262.688 380.517 262.888 380.517 263.16C380.517 263.448 380.477 263.664 380.397 263.808C380.333 263.936 380.205 264 380.013 264H377.661C377.629 264.784 377.469 265.528 377.181 266.232C376.909 266.936 376.525 267.552 376.029 268.08C375.533 268.608 374.941 269.024 374.253 269.328C373.565 269.648 372.789 269.808 371.925 269.808H369.381L369.237 268.176H371.781ZM371.181 260.064C371.181 260.464 371.221 260.808 371.301 261.096C371.397 261.384 371.549 261.624 371.757 261.816C371.981 261.992 372.277 262.128 372.645 262.224C373.013 262.304 373.477 262.344 374.037 262.344H376.197V260.544C376.197 259.36 375.965 258.512 375.501 258C375.037 257.488 374.397 257.232 373.581 257.232C372.813 257.232 372.221 257.488 371.805 258C371.389 258.512 371.181 259.2 371.181 260.064ZM381.844 262.344C382.516 262.344 383.028 262.176 383.38 261.84C383.732 261.504 383.908 261.04 383.908 260.448V257.136H385.468V260.448C385.468 260.8 385.524 261.096 385.636 261.336C385.764 261.576 385.924 261.776 386.116 261.936C386.308 262.08 386.524 262.184 386.764 262.248C387.004 262.312 387.252 262.344 387.508 262.344H388.228C388.596 262.344 388.78 262.616 388.78 263.16C388.78 263.72 388.596 264 388.228 264H387.46C386.884 264 386.348 263.896 385.852 263.688C385.356 263.464 384.948 263.048 384.628 262.44C384.26 263.048 383.836 263.464 383.356 263.688C382.892 263.896 382.388 264 381.844 264H380.02C379.812 264 379.676 263.936 379.612 263.808C379.532 263.68 379.492 263.48 379.492 263.208C379.492 262.92 379.532 262.704 379.612 262.56C379.676 262.416 379.812 262.344 380.02 262.344H381.844ZM385.516 254.064H383.5V252.312H385.516V254.064ZM394.559 262.344C395.279 262.344 395.775 262.2 396.047 261.912C396.319 261.608 396.455 261.248 396.455 260.832C396.455 260.56 396.407 260.256 396.311 259.92C396.215 259.584 395.951 259.2 395.519 258.768L390.335 253.608V251.904L398.279 248.76L398.687 250.32L391.871 252.984L396.215 257.328C396.599 257.728 396.911 258.088 397.151 258.408C397.407 258.728 397.607 259.032 397.751 259.32C397.895 259.608 397.991 259.888 398.039 260.16C398.087 260.432 398.111 260.72 398.111 261.024C398.111 261.536 398.023 261.984 397.847 262.368C397.687 262.736 397.455 263.04 397.151 263.28C396.847 263.52 396.487 263.704 396.071 263.832C395.655 263.944 395.199 264 394.703 264H388.223C388.015 264 387.879 263.936 387.815 263.808C387.735 263.68 387.695 263.48 387.695 263.208C387.695 262.92 387.735 262.704 387.815 262.56C387.879 262.416 388.015 262.344 388.223 262.344H394.559ZM401.199 249.12H402.759V264H401.199V249.12ZM411.433 252.624C411.433 253.424 411.425 254.128 411.409 254.736C411.393 255.344 411.369 255.912 411.337 256.44C411.321 256.968 411.297 257.48 411.265 257.976C411.233 258.456 411.193 258.976 411.145 259.536H410.209C410.161 258.976 410.113 258.456 410.065 257.976C410.033 257.48 410.001 256.968 409.969 256.44C409.937 255.912 409.913 255.344 409.897 254.736C409.881 254.128 409.873 253.424 409.873 252.624V249.6H411.433V252.624ZM410.665 264C409.961 264 409.609 263.624 409.609 262.872C409.609 262.456 409.689 262.16 409.849 261.984C410.025 261.792 410.297 261.696 410.665 261.696C411.017 261.696 411.281 261.792 411.457 261.984C411.633 262.16 411.721 262.456 411.721 262.872C411.721 263.624 411.369 264 410.665 264ZM422.999 253.608V251.904L430.967 248.76L431.351 250.32L424.559 252.984L428.879 257.328C429.695 258.144 430.391 258.832 430.967 259.392C431.543 259.952 432.039 260.424 432.455 260.808C432.871 261.176 433.223 261.464 433.511 261.672C433.815 261.88 434.087 262.032 434.327 262.128C434.567 262.224 434.791 262.288 434.999 262.32C435.223 262.336 435.471 262.344 435.743 262.344C435.951 262.344 436.087 262.416 436.151 262.56C436.231 262.688 436.271 262.888 436.271 263.16C436.271 263.448 436.231 263.664 436.151 263.808C436.087 263.936 435.951 264 435.743 264C435.295 264 434.887 263.96 434.519 263.88C434.167 263.8 433.799 263.648 433.415 263.424C433.047 263.2 432.639 262.896 432.191 262.512C431.743 262.128 431.207 261.624 430.583 261C430.631 261.528 430.575 261.984 430.415 262.368C430.271 262.736 430.047 263.04 429.743 263.28C429.455 263.52 429.103 263.704 428.687 263.832C428.287 263.944 427.855 264 427.391 264H418.247C417.591 264 417.023 263.904 416.543 263.712C416.079 263.504 415.695 263.232 415.391 262.896C415.103 262.56 414.887 262.168 414.743 261.72C414.615 261.272 414.551 260.8 414.551 260.304V257.088H416.087V259.944C416.087 260.68 416.271 261.264 416.639 261.696C417.023 262.128 417.671 262.344 418.583 262.344H427.247C427.967 262.344 428.463 262.2 428.735 261.912C429.007 261.608 429.143 261.248 429.143 260.832C429.143 260.56 429.087 260.256 428.975 259.92C428.879 259.584 428.615 259.2 428.183 258.768L422.999 253.608ZM435.754 264C435.546 264 435.41 263.936 435.346 263.808C435.266 263.68 435.226 263.48 435.226 263.208C435.226 262.92 435.266 262.704 435.346 262.56C435.41 262.416 435.546 262.344 435.754 262.344H441.226C441.85 262.344 442.346 262.176 442.714 261.84C443.082 261.504 443.266 261.04 443.266 260.448V257.136H444.85V260.448C444.85 261.584 444.53 262.464 443.89 263.088C443.25 263.696 442.394 264 441.322 264H435.754ZM441.898 268.488H440.074V266.784H441.898V268.488ZM438.778 268.488H436.93V266.784H438.778V268.488ZM450.216 260.52C450.216 261.08 450.4 261.528 450.768 261.864C451.136 262.184 451.624 262.344 452.232 262.344H452.496C452.848 262.344 453.024 262.616 453.024 263.16C453.024 263.72 452.848 264 452.496 264H452.232C451.848 264 451.464 263.928 451.08 263.784C450.712 263.64 450.408 263.392 450.168 263.04V263.616C450.168 264.544 450.024 265.384 449.736 266.136C449.448 266.904 449.048 267.56 448.536 268.104C448.024 268.648 447.424 269.064 446.736 269.352C446.048 269.656 445.296 269.808 444.48 269.808H443.88L443.712 268.176H444.192C444.976 268.176 445.648 268.048 446.208 267.792C446.768 267.536 447.224 267.192 447.576 266.76C447.944 266.344 448.216 265.864 448.392 265.32C448.568 264.776 448.656 264.208 448.656 263.616V257.136H450.216V260.52ZM454.312 262.344C454.984 262.344 455.496 262.176 455.848 261.84C456.2 261.504 456.376 261.04 456.376 260.448V257.136H457.936V260.448C457.936 260.8 457.992 261.096 458.104 261.336C458.232 261.576 458.392 261.776 458.584 261.936C458.776 262.08 458.992 262.184 459.232 262.248C459.472 262.312 459.72 262.344 459.976 262.344H460.696C461.064 262.344 461.248 262.616 461.248 263.16C461.248 263.72 461.064 264 460.696 264H459.928C459.352 264 458.816 263.896 458.32 263.688C457.824 263.464 457.416 263.048 457.096 262.44C456.728 263.048 456.304 263.464 455.824 263.688C455.36 263.896 454.856 264 454.312 264H452.488C452.28 264 452.144 263.936 452.08 263.808C452 263.68 451.96 263.48 451.96 263.208C451.96 262.92 452 262.704 452.08 262.56C452.144 262.416 452.28 262.344 452.488 262.344H454.312ZM457.576 268.536H455.56V266.784H457.576V268.536ZM462.851 262.344C463.475 262.344 463.971 262.176 464.339 261.84C464.723 261.504 464.915 261.04 464.915 260.448V257.136H466.475V260.448C466.475 261.584 466.155 262.464 465.515 263.088C464.891 263.696 464.035 264 462.947 264H460.691C460.483 264 460.347 263.936 460.283 263.808C460.203 263.68 460.163 263.48 460.163 263.208C460.163 262.92 460.203 262.704 460.283 262.56C460.347 262.416 460.483 262.344 460.691 262.344H462.851ZM466.715 254.064H464.795V252.36H466.715V254.064ZM463.667 254.064H461.747V252.36H463.667V254.064Z" fill="white"/>
<path opacity="0.5" d="M262.787 156.132L308.18 156.132" stroke="#FFDF2C" stroke-width="5" stroke-linecap="round" stroke-linejoin="round"/>
<path d="M276.441 169.724L262.786 156.132L276.441 142.539" stroke="#FFDF2C" stroke-width="5" stroke-linecap="round" stroke-linejoin="round"/>
<path opacity="0.5" d="M317.225 123.037L271.832 123.037" stroke="#FFDF2C" stroke-width="5" stroke-linecap="round" stroke-linejoin="round"/>
<path d="M303.571 109.445L317.227 123.037L303.571 136.63" stroke="#FFDF2C" stroke-width="5" stroke-linecap="round" stroke-linejoin="round"/>
<defs>
<filter id="filter0_d" x="0" y="0" width="579.279" height="379" filterUnits="userSpaceOnUse" color-interpolation-filters="sRGB">
<feFlood flood-opacity="0" result="BackgroundImageFix"/>
<feColorMatrix in="SourceAlpha" type="matrix" values="0 0 0 0 0 0 0 0 0 0 0 0 0 0 0 0 0 0 127 0"/>
<feOffset/>
<feGaussianBlur stdDeviation="25"/>
<feColorMatrix type="matrix" values="0 0 0 0 0 0 0 0 0 0 0 0 0 0 0 0 0 0 0.05 0"/>
<feBlend mode="normal" in2="BackgroundImageFix" result="effect1_dropShadow"/>
<feBlend mode="normal" in="SourceGraphic" in2="effect1_dropShadow" result="shape"/>
</filter>
</defs>
</svg>
