<svg width="288" height="339" viewBox="0 0 288 339" fill="none" xmlns="http://www.w3.org/2000/svg">
<g filter="url(#filter0_d)">
<rect x="50" y="25" width="188" height="188" rx="35" fill="white"/>
</g>
<path d="M189.156 79.8489L144.756 64.1864C144.052 63.9382 143.285 63.9382 142.581 64.1864L98.1814 79.8489C96.8743 80.31 96 81.5455 96 82.9317V105.959C96 120.807 100.391 135.159 108.698 147.465C117.002 159.766 128.665 169.202 142.427 174.755C142.824 174.918 143.246 175 143.67 175C144.084 175 144.499 174.921 144.892 174.763C158.662 169.211 170.332 159.772 178.639 147.466C186.947 135.159 191.338 120.807 191.338 105.96V82.9317C191.337 81.5455 190.463 80.31 189.156 79.8489Z" fill="#5A915A"/>
<path d="M189.156 79.8486L144.756 64.1862C144.404 64.062 144.036 64 143.668 64V175C143.668 175 143.669 175 143.669 175C144.084 175 144.499 174.921 144.892 174.762C158.662 169.21 170.332 159.771 178.639 147.465C186.946 135.159 191.337 120.806 191.337 105.959V82.9315C191.337 81.5453 190.463 80.3098 189.156 79.8486Z" fill="#43765A"/>
<path d="M143.669 83.7593C126.185 83.7593 111.961 97.9835 111.961 115.467C111.961 132.951 126.185 147.175 143.669 147.175C161.153 147.175 175.377 132.951 175.377 115.467C175.377 97.9835 161.153 83.7593 143.669 83.7593ZM143.669 112.198C148.453 112.198 152.345 116.091 152.345 120.875C152.345 124.503 150.106 127.616 146.938 128.91V130.935C146.938 132.741 145.474 134.205 143.669 134.205C141.863 134.205 140.4 132.741 140.4 130.935V129.551H138.261C136.456 129.551 134.992 128.088 134.992 126.282C134.992 124.477 136.456 123.013 138.261 123.013H143.669C144.848 123.013 145.807 122.054 145.807 120.875C145.807 119.695 144.848 118.736 143.669 118.736C138.884 118.736 134.992 114.844 134.992 110.06C134.992 106.432 137.232 103.318 140.4 102.025V99.9988C140.4 98.1936 141.863 96.7298 143.669 96.7298C145.474 96.7298 146.938 98.1934 146.938 99.9988V101.383H149.076C150.882 101.383 152.346 102.847 152.346 104.652C152.346 106.458 150.882 107.921 149.076 107.921H143.669C142.49 107.921 141.53 108.881 141.53 110.06C141.53 111.239 142.49 112.198 143.669 112.198Z" fill="#C8D264"/>
<path d="M145.807 120.875C145.807 119.696 144.848 118.736 143.669 118.736C143.668 118.736 143.668 118.736 143.668 118.736V123.014H143.669C144.848 123.014 145.807 122.054 145.807 120.875Z" fill="#82BE50"/>
<path d="M175.377 115.467C175.377 97.9833 161.153 83.7593 143.669 83.7593C143.669 83.7593 143.668 83.7593 143.668 83.7593V96.73C143.668 96.73 143.669 96.73 143.669 96.73C145.474 96.73 146.938 98.1936 146.938 99.999V101.383H149.076C150.882 101.383 152.345 102.847 152.345 104.652C152.345 106.458 150.882 107.921 149.076 107.921H143.669C143.669 107.921 143.668 107.921 143.668 107.921V112.199C143.668 112.199 143.669 112.199 143.669 112.199C148.453 112.199 152.345 116.091 152.345 120.875C152.345 124.503 150.106 127.617 146.938 128.911V130.936C146.938 132.741 145.474 134.205 143.669 134.205C143.668 134.205 143.668 134.205 143.668 134.205V147.176C143.668 147.176 143.668 147.176 143.669 147.176C161.153 147.175 175.377 132.951 175.377 115.467Z" fill="#82BE50"/>
<path d="M81.372 316C80.796 316 80.22 315.892 79.644 315.676C79.092 315.46 78.624 315.088 78.24 314.56V315.352C78.24 316.624 78.036 317.824 77.628 318.952C77.22 320.08 76.632 321.064 75.864 321.904C75.12 322.768 74.208 323.452 73.128 323.956C72.048 324.46 70.824 324.712 69.456 324.712H67.332C64.644 324.712 62.556 323.884 61.068 322.228C59.58 320.572 58.836 318.304 58.836 315.424V309.124H61.14V315.352C61.14 316.384 61.26 317.32 61.5 318.16C61.764 319 62.16 319.72 62.688 320.32C63.24 320.944 63.924 321.424 64.74 321.76C65.556 322.096 66.54 322.264 67.692 322.264H69.276C70.404 322.264 71.388 322.072 72.228 321.688C73.068 321.328 73.764 320.836 74.316 320.212C74.892 319.588 75.312 318.856 75.576 318.016C75.864 317.176 76.008 316.3 76.008 315.388V305.704H78.312V310.78C78.312 311.62 78.588 312.292 79.14 312.796C79.716 313.276 80.46 313.516 81.372 313.516H81.768C82.296 313.516 82.56 313.924 82.56 314.74C82.56 315.58 82.296 316 81.768 316H81.372ZM69.636 304.912H66.612V302.284H69.636V304.912ZM82.3612 313.516C83.2972 313.516 84.0052 313.288 84.4852 312.832C84.9652 312.376 85.2052 311.764 85.2052 310.996V309.628C85.2052 307.54 85.7332 305.908 86.7892 304.732C87.8692 303.556 89.3572 302.968 91.2532 302.968C92.2372 302.968 93.1012 303.124 93.8452 303.436C94.5892 303.748 95.2012 304.192 95.6812 304.768C96.1852 305.344 96.5572 306.028 96.7972 306.82C97.0372 307.612 97.1572 308.488 97.1572 309.448C97.1572 311.512 96.6172 313.12 95.5372 314.272C94.4572 315.424 92.9812 316 91.1092 316C90.1492 316 89.2252 315.82 88.3372 315.46C87.4492 315.076 86.7532 314.404 86.2492 313.444C86.0332 313.996 85.7692 314.44 85.4572 314.776C85.1452 315.112 84.8212 315.376 84.4852 315.568C84.1492 315.736 83.7892 315.856 83.4052 315.928C83.0452 315.976 82.6972 316 82.3612 316H81.7852C81.4732 316 81.2692 315.904 81.1732 315.712C81.0532 315.52 80.9932 315.22 80.9932 314.812C80.9932 314.38 81.0532 314.056 81.1732 313.84C81.2692 313.624 81.4732 313.516 81.7852 313.516H82.3612ZM94.8532 309.664C94.8532 308.416 94.5772 307.408 94.0252 306.64C93.4732 305.848 92.5252 305.452 91.1812 305.452C88.6852 305.452 87.4372 306.904 87.4372 309.808C87.4372 311.032 87.7732 311.956 88.4452 312.58C89.1412 313.204 90.0292 313.516 91.1092 313.516C92.3332 313.516 93.2572 313.18 93.8812 312.508C94.5292 311.836 94.8532 310.888 94.8532 309.664ZM101.672 293.68H104.012V316H101.672V293.68ZM133.367 315.28C133.367 316.576 133.163 317.788 132.755 318.916C132.347 320.068 131.759 321.064 130.991 321.904C130.223 322.768 129.287 323.452 128.183 323.956C127.103 324.46 125.879 324.712 124.511 324.712H122.387C119.699 324.712 117.611 323.884 116.123 322.228C114.635 320.572 113.891 318.304 113.891 315.424V309.124H116.195V315.352C116.195 316.384 116.315 317.32 116.555 318.16C116.819 319 117.215 319.72 117.743 320.32C118.295 320.944 118.979 321.424 119.795 321.76C120.611 322.096 121.595 322.264 122.747 322.264H124.331C125.459 322.264 126.443 322.072 127.283 321.688C128.123 321.328 128.819 320.836 129.371 320.212C129.947 319.588 130.367 318.856 130.631 318.016C130.919 317.176 131.063 316.3 131.063 315.388V293.68H133.367V315.28ZM141.111 322.264C142.167 322.264 143.091 322.096 143.883 321.76C144.699 321.424 145.383 320.968 145.935 320.392C146.487 319.816 146.907 319.144 147.195 318.376C147.483 317.632 147.651 316.84 147.699 316H144.099C142.875 316 141.867 315.868 141.075 315.604C140.283 315.34 139.659 314.956 139.203 314.452C138.747 313.948 138.423 313.348 138.231 312.652C138.063 311.932 137.979 311.128 137.979 310.24C137.979 309.328 138.111 308.464 138.375 307.648C138.639 306.832 139.023 306.112 139.527 305.488C140.031 304.864 140.655 304.372 141.399 304.012C142.167 303.628 143.043 303.436 144.027 303.436C144.819 303.436 145.575 303.568 146.295 303.832C147.015 304.096 147.651 304.516 148.203 305.092C148.755 305.644 149.187 306.376 149.499 307.288C149.835 308.176 150.003 309.256 150.003 310.528V313.516H153.459C153.747 313.516 153.939 313.624 154.035 313.84C154.155 314.032 154.215 314.332 154.215 314.74C154.215 315.172 154.155 315.496 154.035 315.712C153.939 315.904 153.747 316 153.459 316H149.931C149.883 317.176 149.643 318.292 149.211 319.348C148.803 320.404 148.227 321.328 147.483 322.12C146.739 322.912 145.851 323.536 144.819 323.992C143.787 324.472 142.623 324.712 141.327 324.712H137.511L137.295 322.264H141.111ZM140.211 310.096C140.211 310.696 140.271 311.212 140.391 311.644C140.535 312.076 140.763 312.436 141.075 312.724C141.411 312.988 141.855 313.192 142.407 313.336C142.959 313.456 143.655 313.516 144.495 313.516H147.735V310.816C147.735 309.04 147.387 307.768 146.691 307C145.995 306.232 145.035 305.848 143.811 305.848C142.659 305.848 141.771 306.232 141.147 307C140.523 307.768 140.211 308.8 140.211 310.096ZM156.709 313.516C157.645 313.516 158.389 313.264 158.941 312.76C159.517 312.256 159.805 311.56 159.805 310.672V305.704H162.145V310.672C162.145 312.376 161.665 313.696 160.705 314.632C159.769 315.544 158.485 316 156.853 316H153.469C153.157 316 152.953 315.904 152.857 315.712C152.737 315.52 152.677 315.22 152.677 314.812C152.677 314.38 152.737 314.056 152.857 313.84C152.953 313.624 153.157 313.516 153.469 313.516H156.709ZM159.049 327.052H156.169V324.496H159.049V327.052ZM161.317 322.732H158.437V320.176H161.317V322.732ZM156.745 322.732H153.865V320.176H156.745V322.732ZM192.248 304.228C191.048 304.228 190.088 304.612 189.368 305.38C188.672 306.148 188.324 307.084 188.324 308.188C188.324 308.812 188.456 309.376 188.72 309.88C188.984 310.384 189.32 310.84 189.728 311.248C190.136 311.656 190.58 312.016 191.06 312.328C191.564 312.616 192.056 312.868 192.536 313.084C192.92 312.868 193.316 312.616 193.724 312.328C194.156 312.016 194.552 311.668 194.912 311.284C195.272 310.876 195.572 310.42 195.812 309.916C196.052 309.412 196.172 308.872 196.172 308.296C196.172 307.072 195.812 306.088 195.092 305.344C194.396 304.6 193.448 304.228 192.248 304.228ZM192.464 301.744C193.472 301.744 194.348 301.924 195.092 302.284C195.836 302.62 196.448 303.076 196.928 303.652C197.432 304.204 197.804 304.84 198.044 305.56C198.308 306.256 198.44 306.964 198.44 307.684C198.44 310.036 197.312 311.98 195.056 313.516H201.644C202.172 313.516 202.436 313.924 202.436 314.74C202.436 315.58 202.172 316 201.644 316H197.648C196.544 316 195.56 315.976 194.696 315.928C193.832 315.856 193.16 315.7 192.68 315.46C192.32 315.604 191.9 315.712 191.42 315.784C190.94 315.856 190.436 315.916 189.908 315.964C189.38 315.988 188.876 316 188.396 316C187.916 316 187.496 316 187.136 316H177.236C176.252 316 175.4 315.856 174.68 315.568C173.984 315.256 173.408 314.848 172.952 314.344C172.52 313.84 172.196 313.252 171.98 312.58C171.788 311.908 171.692 311.2 171.692 310.456V305.632H173.996V309.916C173.996 310.996 174.272 311.872 174.824 312.544C175.376 313.192 176.348 313.516 177.74 313.516H189.8C188.648 312.844 187.736 312.04 187.064 311.104C186.416 310.144 186.092 309.076 186.092 307.9C186.092 307.108 186.236 306.34 186.524 305.596C186.836 304.852 187.268 304.204 187.82 303.652C188.372 303.076 189.032 302.62 189.8 302.284C190.592 301.924 191.48 301.744 192.464 301.744ZM193.796 298.252H190.772V295.624H193.796V298.252ZM204.369 313.516C205.377 313.516 206.145 313.264 206.673 312.76C207.201 312.256 207.465 311.56 207.465 310.672V305.704H209.805V310.672C209.805 311.2 209.889 311.644 210.057 312.004C210.249 312.364 210.489 312.664 210.777 312.904C211.065 313.12 211.389 313.276 211.749 313.372C212.109 313.468 212.481 313.516 212.865 313.516H213.945C214.497 313.516 214.773 313.924 214.773 314.74C214.773 315.58 214.497 316 213.945 316H212.793C211.929 316 211.125 315.844 210.381 315.532C209.637 315.196 209.025 314.572 208.545 313.66C207.993 314.572 207.357 315.196 206.637 315.532C205.941 315.844 205.185 316 204.369 316H201.633C201.321 316 201.117 315.904 201.021 315.712C200.901 315.52 200.841 315.22 200.841 314.812C200.841 314.38 200.901 314.056 201.021 313.84C201.117 313.624 201.321 313.516 201.633 313.516H204.369ZM211.353 322.732H208.617V320.176H211.353V322.732ZM206.673 322.732H203.901V320.176H206.673V322.732ZM223.441 313.516C224.522 313.516 225.266 313.3 225.674 312.868C226.082 312.412 226.286 311.872 226.286 311.248C226.286 310.84 226.214 310.384 226.07 309.88C225.926 309.376 225.53 308.8 224.882 308.152L217.106 300.412V297.856L229.022 293.14L229.634 295.48L219.41 299.476L225.926 305.992C226.502 306.592 226.97 307.132 227.33 307.612C227.714 308.092 228.014 308.548 228.23 308.98C228.446 309.412 228.59 309.832 228.662 310.24C228.734 310.648 228.77 311.08 228.77 311.536C228.77 312.304 228.638 312.976 228.374 313.552C228.134 314.104 227.786 314.56 227.33 314.92C226.874 315.28 226.334 315.556 225.71 315.748C225.086 315.916 224.402 316 223.658 316H213.938C213.625 316 213.421 315.904 213.325 315.712C213.205 315.52 213.145 315.22 213.145 314.812C213.145 314.38 213.205 314.056 213.325 313.84C213.421 313.624 213.625 313.516 213.938 313.516H223.441Z" fill="#434243"/>
<defs>
<filter id="filter0_d" x="0" y="0" width="288" height="288" filterUnits="userSpaceOnUse" color-interpolation-filters="sRGB">
<feFlood flood-opacity="0" result="BackgroundImageFix"/>
<feColorMatrix in="SourceAlpha" type="matrix" values="0 0 0 0 0 0 0 0 0 0 0 0 0 0 0 0 0 0 127 0"/>
<feOffset dy="25"/>
<feGaussianBlur stdDeviation="25"/>
<feColorMatrix type="matrix" values="0 0 0 0 0 0 0 0 0 0 0 0 0 0 0 0 0 0 0.05 0"/>
<feBlend mode="normal" in2="BackgroundImageFix" result="effect1_dropShadow"/>
<feBlend mode="normal" in="SourceGraphic" in2="effect1_dropShadow" result="shape"/>
</filter>
</defs>
</svg>
