<svg width="142" height="40" viewBox="0 0 142 40" fill="none" xmlns="http://www.w3.org/2000/svg">
<g clip-path="url(#clip0)">
<path d="M10.9256 16C10.7989 17.1948 10.6776 18.2635 10.5687 19.334C10.2761 22.256 9.97988 25.1763 9.70151 28.1001C9.44099 30.8553 9.21081 33.6122 8.95386 36.3656C8.88249 37.1254 8.70582 37.8763 8.67906 38.6343C8.65586 39.2983 8.39357 39.474 7.75476 39.4652C5.4065 39.4332 3.05765 39.4332 0.7082 39.4652C0.0997222 39.4652 -0.0501726 39.2876 0.0104966 38.6929C0.395925 34.9791 0.762901 31.263 1.11145 27.5445C1.37197 24.7928 1.58254 22.0412 1.85376 19.286C2.23741 15.4214 2.66923 11.5602 3.05466 7.69551C3.27235 5.4954 3.46031 3.29289 3.61853 1.08804C3.66314 0.454281 3.87369 0.237744 4.52856 0.24307C8.09735 0.273249 11.6661 0.264372 15.2349 0.24307C15.7827 0.24307 16.0272 0.331852 16.1574 0.974488C17.4636 7.39197 18.834 13.7952 20.1581 20.2109C20.4061 21.4199 20.6452 22.6324 20.9289 23.8342C20.9699 24.0117 21.0092 24.2194 21.218 24.2247C21.4267 24.2301 21.441 24.0135 21.4767 23.8378C22.3094 19.866 23.1421 15.8954 23.9748 11.9259C24.7588 8.21686 25.5463 4.50958 26.3374 0.804072C26.4231 0.408194 26.6015 0.23774 27.0512 0.239516C30.7092 0.260819 34.3672 0.260819 38.0252 0.239516C38.6301 0.239516 38.7389 0.464992 38.7835 1.01532C39.0494 4.41845 39.367 7.81801 39.7988 11.2052C40.1093 13.6301 40.2449 16.0782 40.5679 18.4996C40.9123 21.0843 40.7463 23.7383 41.6189 26.252C42.6431 29.2025 44.7826 30.8517 47.7893 31.4961C48.5156 31.637 49.2551 31.6996 49.9948 31.6825C54.2167 31.6825 58.4404 31.6825 62.664 31.6736C67.3873 31.6612 68.3562 29.3819 68.9254 26.1527C69.5286 22.7247 69.3251 19.2612 69.2306 15.8119C69.186 14.1769 68.9326 12.533 68.2438 11.0028C67.9744 10.401 68.1243 10.1808 68.8184 10.1897C71.3469 10.2199 73.8753 10.2145 76.402 10.1897C76.9606 10.1897 77.2068 10.4046 77.3085 10.9229C77.7178 12.971 77.9566 15.0491 78.0223 17.1363C78.1204 20.4719 78.1079 23.8147 77.644 27.1255C77.2496 29.9428 76.5109 32.6678 74.7889 35.0271C72.9778 37.5124 70.4136 38.6024 67.4729 39.1385C63.972 39.7794 60.4478 39.6587 56.9236 39.6427C54.6628 39.6338 52.402 39.6569 50.1429 39.5841C47.304 39.4935 44.4632 39.3924 41.6956 38.6166C39.3741 37.9542 37.3 36.6263 35.7321 34.7987C34.1642 32.9712 33.1719 30.7248 32.879 28.3398C32.4507 24.6342 32.0302 20.9275 31.6174 17.2196C31.6174 17.1895 31.6174 17.1611 31.6067 17.1309C31.5425 16.8628 31.6299 16.4386 31.2498 16.4315C30.959 16.4315 30.9608 16.8096 30.9072 17.067C30.6235 18.4162 30.3237 19.7636 30.0418 21.1145C29.102 25.6295 28.164 30.1452 27.2278 34.6614C26.9602 35.9555 26.6925 37.2461 26.4498 38.5456C26.332 39.1917 26.0751 39.4759 25.3417 39.4634C22.6366 39.4137 19.9308 39.4137 17.2245 39.4634C16.4911 39.4759 16.2484 39.1865 16.1128 38.5474C14.6318 31.6263 13.1371 24.7064 11.6287 17.7878C11.5091 17.2303 11.5127 16.5752 10.9256 16Z" fill="#00ABED"/>
<path d="M74.0058 39.625C76.7252 38.0006 78.0671 35.4497 79.0164 32.6395C79.227 32.0182 79.6445 32.0394 80.1245 32.0394C82.7368 32.0394 85.3492 32.0395 87.9615 32.1406C88.6135 32.1597 89.2654 32.1001 89.903 31.9631C91.152 31.7057 92.0442 30.9867 92.3779 29.7085C92.851 27.9948 92.7585 26.1752 92.1138 24.5178C91.5607 23.1118 90.4472 22.4318 88.9144 22.4372C86.327 22.4372 83.7397 22.4176 81.1541 22.4531C80.5117 22.4531 80.2815 22.3324 80.3029 21.6365C80.3636 19.776 80.3565 17.9085 80.3244 16.048C80.3136 15.4516 80.5153 15.3078 81.0845 15.3149C83.4042 15.3433 85.7239 15.3327 88.0436 15.3256C89.5836 15.3256 90.9415 14.9172 91.632 13.3887C92.3458 11.8035 92.2013 10.2395 91.2645 8.78379C90.8612 8.15713 90.2313 7.866 89.4497 7.866C79.8765 7.87488 70.3032 7.81988 60.721 7.90154C57.4931 7.92817 55.7926 9.01818 55.1894 12.9716C54.4114 18.0648 54.2187 23.1703 55.5463 28.2226C55.7248 28.9132 55.4874 28.9949 54.8843 28.9878C52.4183 28.9629 49.9511 28.9629 47.4827 28.9878C46.917 28.9878 46.6886 28.876 46.5905 28.2351C45.8508 23.753 45.7224 19.1921 46.2086 14.6758C46.4834 12.0626 46.9224 9.49749 47.9698 7.06541C49.5758 3.33742 52.3683 1.10232 56.4028 0.422402C58.0668 0.139033 59.7519 -0.00402683 61.4402 -0.00537109C70.895 -0.00537109 80.3523 -0.000623258 89.812 0.00884468C92.2548 0.00884468 94.5906 0.425991 96.6408 1.8373C99.1497 3.56461 100.318 6.0535 100.704 8.9933C100.991 11.1875 100.59 13.2538 99.7135 15.2599C98.9998 16.8824 97.856 18.0381 96.1876 18.679C95.986 18.7571 95.6915 18.7766 95.6772 19.0731C95.6665 19.2967 95.8771 19.3305 96.0484 19.3837C99.2603 20.4098 100.65 22.8561 101.291 25.9326C101.932 29.0091 101.566 31.8921 100.054 34.6313C98.4181 37.5977 95.7468 39.0978 92.4975 39.4244C86.3538 40.044 80.1977 39.6108 74.0058 39.625Z" fill="#00ABED"/>
<path d="M103.357 19.8204C103.357 13.6071 103.368 7.39374 103.341 1.18041C103.341 0.47031 103.461 0.228947 104.242 0.230723C116.522 0.259126 128.802 0.259126 141.081 0.230723C141.839 0.230723 142.018 0.452638 142 1.17338C141.952 3.24331 141.957 5.31501 142 7.38672C142.014 8.0471 141.837 8.23883 141.161 8.22995C138.188 8.19267 135.216 8.24053 132.239 8.19615C131.447 8.18372 131.199 8.36131 131.203 9.19923C131.235 18.9311 131.203 28.6629 131.249 38.3948C131.249 39.3339 130.972 39.5007 130.114 39.4776C127.826 39.419 125.535 39.4279 123.246 39.4776C122.52 39.4936 122.372 39.2522 122.373 38.5794C122.393 28.8156 122.373 19.0518 122.411 9.29683C122.411 8.38436 122.175 8.17129 121.285 8.19259C118.671 8.2565 116.053 8.21574 113.434 8.21574C112.14 8.21574 112.14 8.21574 112.14 9.4584C112.14 19.1015 112.124 28.7446 112.165 38.3948C112.165 39.3339 111.89 39.5061 111.028 39.483C108.739 39.4244 106.449 39.4333 104.16 39.483C103.466 39.4972 103.334 39.277 103.337 38.6344C103.368 32.3625 103.357 26.0905 103.357 19.8204Z" fill="#00ABED"/>
</g>
<defs>
<clipPath id="clip0">
<path d="M0 0H142V39.76H0V0Z" fill="white"/>
</clipPath>
</defs>
</svg>
