<svg width="100%" height="100%" viewBox="0 0 48 48" fill="none" xmlns="http://www.w3.org/2000/svg">
<path fill-rule="evenodd" clip-rule="evenodd" d="M24.0001 0.666687C11.1135 0.6667 0.666748 11.1134 0.666748 24C0.666748 36.8867 11.1134 47.3333 24.0001 47.3333C36.8867 47.3333 47.3334 36.8867 47.3334 24C47.3334 11.1134 36.8867 0.666687 24.0001 0.666687ZM24.0001 5.33335C34.3094 5.33335 42.6668 13.6907 42.6668 24C42.6668 34.3093 34.3094 42.6667 24.0001 42.6667C13.6908 42.6667 5.33342 34.3093 5.33342 24C5.33342 13.6907 13.6908 5.33336 24.0001 5.33335ZM17.0001 13.5C15.0671 13.5 13.5001 15.067 13.5001 17C13.5001 18.933 15.0671 20.5 17.0001 20.5C18.9331 20.5 20.5001 18.933 20.5001 17C20.5001 15.067 18.9331 13.5 17.0001 13.5ZM32.65 18.6499L18.65 32.6499C17.7388 33.5611 16.2614 33.5611 15.3502 32.6499C14.4389 31.7387 14.4389 30.2613 15.3502 29.3501L29.3502 15.3501C30.2614 14.4388 31.7388 14.4388 32.65 15.3501C33.5612 16.2613 33.5612 17.7387 32.65 18.6499ZM27.5001 31C27.5001 29.067 29.0671 27.5 31.0001 27.5C32.9331 27.5 34.5001 29.067 34.5001 31C34.5001 32.933 32.9331 34.5 31.0001 34.5C29.0671 34.5 27.5001 32.933 27.5001 31Z" fill="url(#paint0_linear)"/>
<defs>
<linearGradient id="paint0_linear" x1="13.9379" y1="0.375011" x2="30.5629" y2="47.625" gradientUnits="userSpaceOnUse">
<stop stop-color="#FFA34F"/>
<stop offset="1" stop-color="#1B9EC8"/>
</linearGradient>
</defs>
</svg>
