<svg width="288" height="339" viewBox="0 0 288 339" fill="none" xmlns="http://www.w3.org/2000/svg">
<g filter="url(#filter0_d)">
<rect x="50" y="25" width="188" height="188" rx="35" fill="white"/>
</g>
<path d="M116.339 102.554H89.4216C88.0419 102.554 86.7973 101.604 86.265 100.144C85.7329 98.6834 86.0167 96.9995 86.9856 95.873L114.245 64.1688C114.888 63.4209 115.765 63 116.681 63H130.139C131.325 63 132.426 63.7038 133.049 64.8607C133.673 66.0174 133.73 67.4617 133.2 68.6786L119.4 100.383C118.821 101.714 117.635 102.554 116.339 102.554Z" fill="#A0EBFF"/>
<path d="M198.458 102.554H171.541C170.244 102.554 169.059 101.714 168.479 100.383L154.679 68.6786C154.149 67.4617 154.206 66.0174 154.83 64.8607C155.453 63.7041 156.555 63 157.74 63H171.198C172.114 63 172.991 63.4211 173.634 64.1688L200.894 95.873C201.862 96.9997 202.147 98.6839 201.614 100.144C201.082 101.604 199.837 102.554 198.458 102.554Z" fill="#73C8F0"/>
<path d="M112.512 98.5273L130.138 63H157.74L175.313 98.5273H112.512Z" fill="#D2F0FF"/>
<path d="M167.839 98.5271L140.811 168.576C140.126 170.35 140.674 172.432 142.1 173.474C142.667 173.889 143.305 174.09 143.938 174.09C144.897 174.09 145.845 173.628 146.516 172.748L201.034 101.212C201.61 100.456 201.898 99.494 201.876 98.5269H167.839V98.5271Z" fill="#0073AA"/>
<path d="M120.041 98.5273H86.0031C85.9814 99.4942 86.2693 100.457 86.8455 101.213L141.364 172.749C142.034 173.628 142.982 174.09 143.941 174.09C144.574 174.09 145.212 173.889 145.779 173.475C147.205 172.432 147.753 170.35 147.069 168.577L120.041 98.5273Z" fill="#41B4E6"/>
<path d="M112.512 98.5273L140.811 171.753C141.358 173.174 142.585 174.09 143.939 174.09C145.293 174.09 146.52 173.174 147.068 171.753L175.313 98.5273H112.512Z" fill="#A0EBFF"/>
<path d="M143.912 98.5273H175.313L157.74 63H143.912V98.5273Z" fill="#41B4E6"/>
<path d="M143.939 174.09C145.294 174.09 146.52 173.174 147.068 171.753L175.313 98.5273H143.939V174.09Z" fill="#73C8F0"/>
<path d="M13.144 313.516C13.672 313.516 14.116 313.456 14.476 313.336C14.836 313.192 15.124 313.024 15.34 312.832C15.58 312.616 15.748 312.388 15.844 312.148C15.964 311.908 16.024 311.68 16.024 311.464C16.024 311.224 15.976 310.9 15.88 310.492C15.784 310.084 15.604 309.484 15.34 308.692C15.1 307.9 14.74 306.844 14.26 305.524C13.804 304.204 13.204 302.512 12.46 300.448L14.656 299.548L18.508 310.528C18.892 311.608 19.336 312.376 19.84 312.832C20.344 313.288 21.052 313.516 21.964 313.516H22.468C22.996 313.516 23.26 313.924 23.26 314.74C23.26 315.58 22.996 316 22.468 316H21.964C21.172 316 20.416 315.856 19.696 315.568C18.976 315.256 18.316 314.596 17.716 313.588C17.212 314.572 16.576 315.22 15.808 315.532C15.064 315.844 14.248 316 13.36 316H5.62L5.44 313.516H13.144ZM22.457 316C22.145 316 21.941 315.904 21.845 315.712C21.725 315.52 21.665 315.22 21.665 314.812C21.665 314.38 21.725 314.056 21.845 313.84C21.941 313.624 22.145 313.516 22.457 313.516H30.665C31.601 313.516 32.345 313.264 32.897 312.76C33.449 312.256 33.725 311.56 33.725 310.672V305.704H36.101V310.672C36.101 312.376 35.621 313.696 34.661 314.632C33.701 315.544 32.417 316 30.809 316H22.457ZM31.673 322.732H28.937V320.176H31.673V322.732ZM26.993 322.732H24.221V320.176H26.993V322.732ZM44.1496 310.78C44.1496 311.62 44.4256 312.292 44.9776 312.796C45.5296 313.276 46.2616 313.516 47.1736 313.516H47.5696C48.0976 313.516 48.3616 313.924 48.3616 314.74C48.3616 315.58 48.0976 316 47.5696 316H47.1736C46.5976 316 46.0216 315.892 45.4456 315.676C44.8936 315.46 44.4376 315.088 44.0776 314.56V315.424C44.0776 316.816 43.8616 318.076 43.4296 319.204C42.9976 320.356 42.3976 321.34 41.6296 322.156C40.8616 322.972 39.9616 323.596 38.9296 324.028C37.8976 324.484 36.7696 324.712 35.5456 324.712H34.6456L34.3936 322.264H35.1136C36.2896 322.264 37.2976 322.072 38.1376 321.688C38.9776 321.304 39.6616 320.788 40.1896 320.14C40.7416 319.516 41.1496 318.796 41.4136 317.98C41.6776 317.164 41.8096 316.312 41.8096 315.424V305.704H44.1496V310.78ZM50.7986 313.516C51.7346 313.516 52.4786 313.264 53.0306 312.76C53.6066 312.256 53.8946 311.56 53.8946 310.672V305.704H56.2346V310.672C56.2346 312.376 55.7546 313.696 54.7946 314.632C53.8586 315.544 52.5746 316 50.9426 316H47.5586C47.2466 316 47.0426 315.904 46.9466 315.712C46.8266 315.52 46.7666 315.22 46.7666 314.812C46.7666 314.38 46.8266 314.056 46.9466 313.84C47.0426 313.624 47.2466 313.516 47.5586 313.516H50.7986ZM56.5946 301.096H53.7146V298.54H56.5946V301.096ZM52.0226 301.096H49.1426V298.54H52.0226V301.096ZM77.3736 322.264C78.5976 322.264 79.6176 322.144 80.4336 321.904C81.2736 321.664 81.9576 321.34 82.4856 320.932C83.0136 320.548 83.3856 320.104 83.6016 319.6C83.8416 319.12 83.9616 318.616 83.9616 318.088C83.9616 317.512 83.8056 317.02 83.4936 316.612C83.2056 316.204 82.7016 316 81.9816 316H75.9696L76.1496 313.516H88.9296C89.4576 313.516 89.7216 313.924 89.7216 314.74C89.7216 315.58 89.4576 316 88.9296 316H85.4016C85.7136 316.264 85.9176 316.588 86.0136 316.972C86.1336 317.356 86.1936 317.788 86.1936 318.268C86.1936 318.916 86.0496 319.612 85.7616 320.356C85.4976 321.1 85.0296 321.796 84.3576 322.444C83.7096 323.092 82.8336 323.632 81.7296 324.064C80.6496 324.496 79.3056 324.712 77.6976 324.712H74.0976C71.4096 324.712 69.3216 323.884 67.8336 322.228C66.3456 320.572 65.6016 318.304 65.6016 315.424V309.124H67.9056V315.352C67.9056 316.384 68.0256 317.32 68.2656 318.16C68.5296 319 68.9256 319.72 69.4536 320.32C70.0056 320.944 70.6896 321.424 71.5056 321.76C72.3216 322.096 73.3056 322.264 74.4576 322.264H77.3736ZM98.0095 313.408C99.0895 311.44 100.11 309.76 101.07 308.368C102.03 306.976 102.954 305.848 103.842 304.984C104.73 304.096 105.594 303.46 106.434 303.076C107.274 302.668 108.126 302.464 108.99 302.464C109.926 302.464 110.766 302.644 111.51 303.004C112.278 303.364 112.938 303.856 113.49 304.48C114.042 305.104 114.462 305.836 114.75 306.676C115.062 307.516 115.218 308.416 115.218 309.376C115.218 310.192 115.086 310.996 114.822 311.788C114.582 312.58 114.198 313.288 113.67 313.912C113.142 314.536 112.47 315.04 111.654 315.424C110.838 315.808 109.878 316 108.773 316H98.7655C97.8295 316 96.9775 315.844 96.2095 315.532C95.4415 315.196 94.8175 314.572 94.3375 313.66C93.8095 314.572 93.1495 315.196 92.3575 315.532C91.5895 315.844 90.7855 316 89.9455 316H88.9375C88.6255 316 88.4215 315.904 88.3255 315.712C88.2055 315.52 88.1455 315.22 88.1455 314.812C88.1455 314.38 88.2055 314.056 88.3255 313.84C88.4215 313.624 88.6255 313.516 88.9375 313.516H90.0895C91.0975 313.516 91.8775 313.264 92.4295 312.76C93.0055 312.256 93.2935 311.56 93.2935 310.672V305.704H95.6335V310.672C95.6335 311.44 95.8495 312.064 96.2815 312.544C96.7375 313 97.3135 313.288 98.0095 313.408ZM112.878 309.376C112.878 308.752 112.77 308.176 112.554 307.648C112.362 307.096 112.086 306.628 111.726 306.244C111.366 305.836 110.934 305.524 110.43 305.308C109.95 305.068 109.422 304.948 108.846 304.948C107.574 304.948 106.242 305.632 104.85 307C103.482 308.344 101.958 310.516 100.278 313.516H108.846C109.35 313.516 109.842 313.444 110.322 313.3C110.826 313.132 111.258 312.88 111.618 312.544C112.002 312.184 112.302 311.752 112.518 311.248C112.758 310.72 112.878 310.096 112.878 309.376ZM124.335 316C123.711 316 123.111 315.916 122.535 315.748C121.959 315.556 121.443 315.244 120.987 314.812C120.555 314.38 120.207 313.816 119.943 313.12C119.679 312.4 119.547 311.512 119.547 310.456V293.68H121.887V310.024C121.887 311.032 122.103 311.872 122.535 312.544C122.991 313.192 123.723 313.516 124.731 313.516H125.343C125.871 313.516 126.135 313.924 126.135 314.74C126.135 315.58 125.871 316 125.343 316H124.335ZM134.431 313.408C135.511 311.44 136.531 309.76 137.491 308.368C138.451 306.976 139.375 305.848 140.263 304.984C141.151 304.096 142.015 303.46 142.855 303.076C143.695 302.668 144.547 302.464 145.411 302.464C146.347 302.464 147.187 302.644 147.931 303.004C148.699 303.364 149.359 303.856 149.911 304.48C150.463 305.104 150.883 305.836 151.171 306.676C151.483 307.516 151.639 308.416 151.639 309.376C151.639 310.528 151.339 311.572 150.739 312.508C151.219 312.988 151.735 313.276 152.287 313.372C152.863 313.468 153.535 313.516 154.303 313.516H154.843C155.371 313.516 155.635 313.924 155.635 314.74C155.635 315.58 155.371 316 154.843 316H154.303C153.919 316 153.535 316 153.151 316C152.767 315.976 152.371 315.916 151.963 315.82C151.579 315.7 151.183 315.532 150.775 315.316C150.391 315.1 150.019 314.788 149.659 314.38C149.107 314.86 148.459 315.256 147.715 315.568C146.995 315.856 146.155 316 145.195 316H135.187C134.251 316 133.399 315.844 132.631 315.532C131.863 315.196 131.239 314.572 130.759 313.66C130.231 314.572 129.571 315.196 128.779 315.532C128.011 315.844 127.207 316 126.367 316H125.359C125.047 316 124.843 315.904 124.747 315.712C124.627 315.52 124.567 315.22 124.567 314.812C124.567 314.38 124.627 314.056 124.747 313.84C124.843 313.624 125.047 313.516 125.359 313.516H126.511C127.519 313.516 128.299 313.264 128.851 312.76C129.427 312.256 129.715 311.56 129.715 310.672V305.704H132.055V310.672C132.055 311.44 132.271 312.064 132.703 312.544C133.159 313 133.735 313.288 134.431 313.408ZM149.299 309.376C149.299 308.752 149.191 308.176 148.975 307.648C148.783 307.096 148.507 306.628 148.147 306.244C147.787 305.836 147.355 305.524 146.851 305.308C146.371 305.068 145.843 304.948 145.267 304.948C143.995 304.948 142.663 305.632 141.271 307C139.903 308.344 138.379 310.516 136.699 313.516H145.267C145.771 313.516 146.263 313.444 146.743 313.3C147.247 313.132 147.679 312.88 148.039 312.544C148.423 312.184 148.723 311.752 148.939 311.248C149.179 310.72 149.299 310.096 149.299 309.376ZM157.591 313.516C158.599 313.516 159.367 313.264 159.895 312.76C160.423 312.256 160.687 311.56 160.687 310.672V305.704H163.027V310.672C163.027 311.2 163.111 311.644 163.279 312.004C163.471 312.364 163.711 312.664 163.999 312.904C164.287 313.12 164.611 313.276 164.971 313.372C165.331 313.468 165.703 313.516 166.087 313.516H167.167C167.719 313.516 167.995 313.924 167.995 314.74C167.995 315.58 167.719 316 167.167 316H166.015C165.151 316 164.347 315.844 163.603 315.532C162.859 315.196 162.247 314.572 161.767 313.66C161.215 314.572 160.579 315.196 159.859 315.532C159.163 315.844 158.407 316 157.591 316H154.855C154.543 316 154.339 315.904 154.243 315.712C154.123 315.52 154.063 315.22 154.063 314.812C154.063 314.38 154.123 314.056 154.243 313.84C154.339 313.624 154.543 313.516 154.855 313.516H157.591ZM165.187 301.096H162.307V298.54H165.187V301.096ZM160.615 301.096H157.735V298.54H160.615V301.096ZM177.564 313.876C176.94 314.236 176.34 314.56 175.764 314.848C175.188 315.112 174.564 315.328 173.892 315.496C173.22 315.664 172.476 315.796 171.66 315.892C170.868 315.964 169.956 316 168.924 316H167.16C166.848 316 166.644 315.904 166.548 315.712C166.428 315.52 166.368 315.22 166.368 314.812C166.368 314.38 166.428 314.056 166.548 313.84C166.644 313.624 166.848 313.516 167.16 313.516H168.96C169.896 313.516 170.724 313.492 171.444 313.444C172.164 313.372 172.824 313.276 173.424 313.156C174.024 313.012 174.588 312.832 175.116 312.616C175.644 312.4 176.184 312.124 176.736 311.788L182.82 308.26C182.628 307.756 182.424 307.3 182.208 306.892C181.992 306.46 181.716 306.1 181.38 305.812C181.068 305.524 180.672 305.308 180.192 305.164C179.712 304.996 179.112 304.912 178.392 304.912H170.328L170.544 302.428H178.716C179.34 302.428 179.976 302.5 180.624 302.644C181.296 302.788 181.92 303.1 182.496 303.58C183.096 304.036 183.648 304.72 184.152 305.632C184.68 306.544 185.112 307.756 185.448 309.268L177.564 313.876ZM177.708 298.36H174.684V295.732H177.708V298.36ZM189.648 293.68H191.988V316H189.648V293.68ZM214.611 316C212.955 316 211.623 315.568 210.615 314.704C209.607 313.816 209.103 312.532 209.103 310.852V308.656C209.103 307.888 209.199 307.228 209.391 306.676C209.583 306.124 209.931 305.62 210.435 305.164H208.923C207.411 305.164 206.271 305.548 205.503 306.316C204.735 307.06 204.351 308.032 204.351 309.232V324.712H202.047V309.16C202.047 308.32 202.191 307.516 202.479 306.748C202.791 305.98 203.235 305.296 203.811 304.696C204.387 304.096 205.107 303.628 205.971 303.292C206.835 302.932 207.843 302.752 208.995 302.752H215.511C216.471 302.752 217.275 302.896 217.923 303.184C218.595 303.448 219.135 303.808 219.543 304.264C219.951 304.72 220.239 305.248 220.407 305.848C220.599 306.424 220.695 307.012 220.695 307.612V310.78C220.695 311.692 220.539 312.484 220.227 313.156C219.915 313.804 219.483 314.344 218.931 314.776C218.403 315.184 217.767 315.496 217.023 315.712C216.279 315.904 215.475 316 214.611 316ZM214.863 313.516C215.967 313.516 216.831 313.276 217.455 312.796C218.103 312.292 218.427 311.536 218.427 310.528V308.152C218.427 307.36 218.199 306.676 217.743 306.1C217.287 305.524 216.555 305.236 215.547 305.236H214.251C213.243 305.236 212.511 305.536 212.055 306.136C211.599 306.712 211.371 307.432 211.371 308.296V310.42C211.371 311.428 211.659 312.196 212.235 312.724C212.835 313.252 213.711 313.516 214.863 313.516ZM228.683 315.424C228.683 316.816 228.467 318.076 228.035 319.204C227.603 320.356 227.003 321.34 226.235 322.156C225.467 322.972 224.567 323.596 223.535 324.028C222.503 324.484 221.375 324.712 220.151 324.712H218.027L217.847 322.264H219.611C220.811 322.264 221.843 322.072 222.707 321.688C223.571 321.304 224.279 320.788 224.831 320.14C225.383 319.516 225.791 318.796 226.055 317.98C226.319 317.164 226.451 316.312 226.451 315.424V305.704H228.755V310.78C228.755 311.62 229.031 312.292 229.583 312.796C230.159 313.276 230.903 313.516 231.815 313.516H232.211C232.739 313.516 233.003 313.924 233.003 314.74C233.003 315.58 232.739 316 232.211 316H231.815C231.239 316 230.663 315.892 230.087 315.676C229.535 315.46 229.067 315.088 228.683 314.56V315.424ZM239.111 313.516C237.959 312.844 237.047 312.04 236.375 311.104C235.703 310.144 235.367 309.076 235.367 307.9C235.367 307.108 235.511 306.34 235.799 305.596C236.111 304.852 236.543 304.204 237.095 303.652C237.647 303.076 238.319 302.62 239.111 302.284C239.927 301.924 240.827 301.744 241.811 301.744C242.795 301.744 243.659 301.924 244.403 302.284C245.147 302.62 245.759 303.076 246.239 303.652C246.743 304.204 247.115 304.84 247.355 305.56C247.619 306.256 247.751 306.964 247.751 307.684C247.751 310.06 246.623 312.004 244.367 313.516H250.955C251.483 313.516 251.747 313.924 251.747 314.74C251.747 315.58 251.483 316 250.955 316H246.959C245.855 316 244.871 315.976 244.007 315.928C243.143 315.856 242.471 315.7 241.991 315.46C241.655 315.604 241.235 315.712 240.731 315.784C240.251 315.856 239.747 315.916 239.219 315.964C238.715 315.988 238.211 316 237.707 316C237.227 316 236.819 316 236.483 316H232.199C231.887 316 231.683 315.904 231.587 315.712C231.467 315.52 231.407 315.22 231.407 314.812C231.407 314.38 231.467 314.056 231.587 313.84C231.683 313.624 231.887 313.516 232.199 313.516H239.111ZM241.559 304.228C240.359 304.228 239.411 304.612 238.715 305.38C238.019 306.148 237.671 307.084 237.671 308.188C237.671 308.812 237.803 309.376 238.067 309.88C238.331 310.384 238.655 310.84 239.039 311.248C239.447 311.656 239.891 312.016 240.371 312.328C240.875 312.616 241.367 312.868 241.847 313.084C242.231 312.868 242.627 312.616 243.035 312.328C243.467 312.016 243.863 311.668 244.223 311.284C244.583 310.876 244.883 310.42 245.123 309.916C245.363 309.412 245.483 308.872 245.483 308.296C245.483 307.072 245.135 306.088 244.439 305.344C243.743 304.6 242.783 304.228 241.559 304.228ZM243.359 298.252H240.335V295.624H243.359V298.252ZM253.709 313.516C254.717 313.516 255.485 313.264 256.013 312.76C256.541 312.256 256.805 311.56 256.805 310.672V305.704H259.145V310.672C259.145 311.2 259.229 311.644 259.397 312.004C259.589 312.364 259.829 312.664 260.117 312.904C260.405 313.12 260.729 313.276 261.089 313.372C261.449 313.468 261.821 313.516 262.205 313.516H263.285C263.837 313.516 264.113 313.924 264.113 314.74C264.113 315.58 263.837 316 263.285 316H262.133C261.269 316 260.465 315.844 259.721 315.532C258.977 315.196 258.365 314.572 257.885 313.66C257.333 314.572 256.697 315.196 255.977 315.532C255.281 315.844 254.525 316 253.709 316H250.973C250.661 316 250.457 315.904 250.361 315.712C250.241 315.52 250.181 315.22 250.181 314.812C250.181 314.38 250.241 314.056 250.361 313.84C250.457 313.624 250.661 313.516 250.973 313.516H253.709ZM261.305 301.096H258.425V298.54H261.305V301.096ZM256.733 301.096H253.853V298.54H256.733V301.096ZM264.213 313.516C265.221 313.516 265.977 313.264 266.481 312.76C267.009 312.256 267.273 311.56 267.273 310.672V293.68H269.613V310.672C269.613 311.2 269.697 311.644 269.865 312.004C270.057 312.364 270.297 312.664 270.585 312.904C270.873 313.12 271.197 313.276 271.557 313.372C271.917 313.468 272.289 313.516 272.673 313.516H273.177C273.489 313.516 273.693 313.624 273.789 313.84C273.909 314.032 273.969 314.332 273.969 314.74C273.969 315.172 273.909 315.496 273.789 315.712C273.693 315.904 273.489 316 273.177 316H272.601C271.737 316 270.933 315.844 270.189 315.532C269.445 315.196 268.833 314.572 268.353 313.66C267.825 314.572 267.189 315.196 266.445 315.532C265.725 315.844 264.981 316 264.213 316H263.277C262.965 316 262.761 315.904 262.665 315.712C262.545 315.52 262.485 315.22 262.485 314.812C262.485 314.38 262.545 314.056 262.665 313.84C262.761 313.624 262.965 313.516 263.277 313.516H264.213ZM276.431 313.516C277.367 313.516 278.111 313.264 278.663 312.76C279.239 312.256 279.527 311.56 279.527 310.672V305.704H281.867V310.672C281.867 312.376 281.387 313.696 280.427 314.632C279.491 315.544 278.207 316 276.575 316H273.191C272.879 316 272.675 315.904 272.579 315.712C272.459 315.52 272.399 315.22 272.399 314.812C272.399 314.38 272.459 314.056 272.579 313.84C272.675 313.624 272.879 313.516 273.191 313.516H276.431ZM278.771 327.052H275.891V324.496H278.771V327.052ZM281.039 322.732H278.159V320.176H281.039V322.732ZM276.467 322.732H273.587V320.176H276.467V322.732Z" fill="#434243"/>
<defs>
<filter id="filter0_d" x="0" y="0" width="288" height="288" filterUnits="userSpaceOnUse" color-interpolation-filters="sRGB">
<feFlood flood-opacity="0" result="BackgroundImageFix"/>
<feColorMatrix in="SourceAlpha" type="matrix" values="0 0 0 0 0 0 0 0 0 0 0 0 0 0 0 0 0 0 127 0"/>
<feOffset dy="25"/>
<feGaussianBlur stdDeviation="25"/>
<feColorMatrix type="matrix" values="0 0 0 0 0 0 0 0 0 0 0 0 0 0 0 0 0 0 0.05 0"/>
<feBlend mode="normal" in2="BackgroundImageFix" result="effect1_dropShadow"/>
<feBlend mode="normal" in="SourceGraphic" in2="effect1_dropShadow" result="shape"/>
</filter>
</defs>
</svg>
