<svg width="25" height="25" viewBox="0 0 25 25" fill="none" xmlns="http://www.w3.org/2000/svg">
<path fill-rule="evenodd" clip-rule="evenodd" d="M6 11.1192C6 7.73517 8.82786 5 12.2484 5C15.6787 5 18.5065 7.73517 18.5065 11.1192C18.5065 12.8244 17.8863 14.4076 16.8656 15.7494C15.7395 17.2295 14.3515 18.5191 12.7892 19.5314C12.4317 19.7653 12.109 19.783 11.7165 19.5314C10.1453 18.5191 8.75738 17.2295 7.64093 15.7494C6.61943 14.4076 6 12.8244 6 11.1192ZM10.1892 11.3109C10.1892 12.4446 11.1142 13.3362 12.2485 13.3362C13.3835 13.3362 14.3174 12.4446 14.3174 11.3109C14.3174 10.1861 13.3835 9.2511 12.2485 9.2511C11.1142 9.2511 10.1892 10.1861 10.1892 11.3109Z" fill="#FFDF2C"/>
<circle cx="12.5" cy="12.5" r="12.5" fill="white" fill-opacity="0.2"/>
</svg>
