<svg width="288" height="339" viewBox="0 0 288 339" fill="none" xmlns="http://www.w3.org/2000/svg">
<g filter="url(#filter0_d)">
<rect x="50" y="25" width="188" height="188" rx="35" fill="white"/>
</g>
<path d="M195.052 146.487C193.843 140.489 190.364 135.317 185.257 131.923C180.152 128.528 174.037 127.326 168.039 128.535C162.041 129.741 156.869 133.22 153.477 138.327C150.082 143.434 148.878 149.55 150.087 155.545C152.277 166.421 161.87 173.953 172.56 173.953C174.059 173.953 175.577 173.805 177.1 173.497C183.095 172.289 188.267 168.812 191.661 163.705C195.056 158.597 196.259 152.482 195.052 146.487ZM169.509 151.631C169.345 150.818 169.509 149.985 169.971 149.289C170.203 148.939 170.494 148.648 170.83 148.422C171.166 148.197 171.546 148.038 171.953 147.954C172.159 147.914 172.366 147.892 172.572 147.892C173.179 147.892 173.776 148.071 174.295 148.418C174.992 148.88 175.465 149.585 175.63 150.398C175.971 152.087 174.872 153.735 173.186 154.076C172.37 154.242 171.539 154.076 170.843 153.614C170.147 153.15 169.672 152.447 169.509 151.631Z" fill="#FF6E23"/>
<path d="M179.538 65.6526C174.99 62.6294 168.828 63.8714 165.805 68.4196L105.201 159.61C102.178 164.158 103.42 170.319 107.968 173.343C109.613 174.434 111.5 175 113.432 175C114.088 175 114.749 174.936 115.407 174.803C118.002 174.28 120.236 172.779 121.701 170.576L182.305 79.3857C185.328 74.8375 184.086 68.6761 179.538 65.6526Z" fill="#FAA55F"/>
<path d="M119.467 110.461C131.863 107.964 139.917 95.8459 137.419 83.4498C134.922 71.0516 122.802 62.9983 110.406 65.4979C98.0101 67.9952 89.9569 80.1127 92.4542 92.5087C93.6631 98.5066 97.1416 103.678 102.249 107.073C106.061 109.605 110.435 110.92 114.904 110.92C116.42 110.918 117.947 110.768 119.467 110.461ZM114.32 84.9195C114.526 84.8774 114.733 84.8577 114.939 84.8577C115.547 84.8577 116.143 85.0368 116.663 85.3815C117.359 85.8457 117.834 86.5483 117.997 87.3639C118.161 88.1771 117.997 89.0103 117.535 89.7066C117.071 90.4027 116.369 90.8758 115.553 91.0414C114.74 91.2049 113.907 91.0414 113.21 90.5773C112.514 90.1153 112.041 89.4105 111.876 88.597C111.535 86.9086 112.634 85.2599 114.32 84.9195Z" fill="#FAA55F"/>
<path d="M179.538 65.6526C174.99 62.6294 168.828 63.8714 165.805 68.4196L143.754 101.599V137.393L182.305 79.3856C185.328 74.8374 184.086 68.6761 179.538 65.6526Z" fill="#FF6E23"/>
<path d="M101.664 310.204C101.664 311.428 101.928 312.292 102.456 312.796C103.008 313.276 103.668 313.516 104.436 313.516H105.084C105.396 313.516 105.6 313.624 105.696 313.84C105.816 314.032 105.876 314.332 105.876 314.74C105.876 315.172 105.816 315.496 105.696 315.712C105.6 315.904 105.396 316 105.084 316H104.436C103.668 316 102.948 315.868 102.276 315.604C101.604 315.316 101.028 314.668 100.548 313.66C100.26 314.14 99.912 314.536 99.504 314.848C99.096 315.16 98.664 315.4 98.208 315.568C97.776 315.736 97.332 315.856 96.876 315.928C96.42 315.976 95.988 316 95.58 316C93.924 316 92.592 315.568 91.584 314.704C90.576 313.816 90.072 312.532 90.072 310.852V308.656C90.072 307.888 90.168 307.228 90.36 306.676C90.552 306.124 90.9 305.62 91.404 305.164H89.892C88.38 305.164 87.24 305.548 86.472 306.316C85.704 307.06 85.32 308.032 85.32 309.232V324.712H83.016V309.16C83.016 308.32 83.16 307.516 83.448 306.748C83.76 305.98 84.204 305.296 84.78 304.696C85.356 304.096 86.076 303.628 86.94 303.292C87.804 302.932 88.812 302.752 89.964 302.752H96.48C97.44 302.752 98.244 302.896 98.892 303.184C99.564 303.448 100.104 303.808 100.512 304.264C100.92 304.72 101.208 305.248 101.376 305.848C101.568 306.424 101.664 307.012 101.664 307.612V310.204ZM95.832 313.516C96.936 313.516 97.8 313.276 98.424 312.796C99.072 312.292 99.396 311.536 99.396 310.528V308.152C99.396 307.36 99.168 306.676 98.712 306.1C98.256 305.524 97.524 305.236 96.516 305.236H95.22C94.212 305.236 93.48 305.536 93.024 306.136C92.568 306.712 92.34 307.432 92.34 308.296V310.42C92.34 311.428 92.628 312.196 93.204 312.724C93.804 313.252 94.68 313.516 95.832 313.516ZM114.586 313.516C115.666 313.516 116.41 313.3 116.818 312.868C117.226 312.412 117.43 311.872 117.43 311.248C117.43 310.84 117.358 310.384 117.214 309.88C117.07 309.376 116.674 308.8 116.026 308.152L108.25 300.412V297.856L120.166 293.14L120.778 295.48L110.554 299.476L117.07 305.992C117.646 306.592 118.114 307.132 118.474 307.612C118.858 308.092 119.158 308.548 119.374 308.98C119.59 309.412 119.734 309.832 119.806 310.24C119.878 310.648 119.914 311.08 119.914 311.536C119.914 312.304 119.782 312.976 119.518 313.552C119.278 314.104 118.93 314.56 118.474 314.92C118.018 315.28 117.478 315.556 116.854 315.748C116.23 315.916 115.546 316 114.802 316H105.082C104.77 316 104.566 315.904 104.47 315.712C104.35 315.52 104.29 315.22 104.29 314.812C104.29 314.38 104.35 314.056 104.47 313.84C104.566 313.624 104.77 313.516 105.082 313.516H114.586ZM142.81 307.432C143.434 308.128 143.878 308.824 144.142 309.52C144.43 310.192 144.574 310.852 144.574 311.5C144.574 312.796 144.106 313.876 143.17 314.74C142.258 315.58 140.95 316 139.246 316H129.202L129.022 313.516H138.958C139.894 313.516 140.614 313.3 141.118 312.868C141.646 312.436 141.91 311.872 141.91 311.176C141.91 310.84 141.826 310.468 141.658 310.06C141.49 309.652 141.238 309.268 140.902 308.908L134.206 301.348L136.042 299.62L142.81 307.432ZM152.367 315.424C152.367 316.816 152.151 318.076 151.719 319.204C151.287 320.356 150.687 321.34 149.919 322.156C149.151 322.972 148.251 323.596 147.219 324.028C146.187 324.484 145.059 324.712 143.835 324.712H141.711L141.531 322.264H143.295C144.495 322.264 145.527 322.072 146.391 321.688C147.255 321.304 147.963 320.788 148.515 320.14C149.067 319.516 149.475 318.796 149.739 317.98C150.003 317.164 150.135 316.312 150.135 315.424V305.704H152.439V310.78C152.439 311.62 152.715 312.292 153.267 312.796C153.843 313.276 154.587 313.516 155.499 313.516H155.895C156.423 313.516 156.687 313.924 156.687 314.74C156.687 315.58 156.423 316 155.895 316H155.499C154.923 316 154.347 315.892 153.771 315.676C153.219 315.46 152.751 315.088 152.367 314.56V315.424ZM152.583 301.096H149.559V298.468H152.583V301.096ZM156.459 313.516C157.395 313.516 158.103 313.288 158.583 312.832C159.063 312.376 159.303 311.764 159.303 310.996V309.628C159.303 307.54 159.831 305.908 160.887 304.732C161.967 303.556 163.455 302.968 165.351 302.968C166.335 302.968 167.199 303.124 167.943 303.436C168.687 303.748 169.299 304.192 169.779 304.768C170.283 305.344 170.655 306.028 170.895 306.82C171.135 307.612 171.255 308.488 171.255 309.448C171.255 311.512 170.715 313.12 169.635 314.272C168.555 315.424 167.079 316 165.207 316C164.247 316 163.323 315.82 162.435 315.46C161.547 315.076 160.851 314.404 160.347 313.444C160.131 313.996 159.867 314.44 159.555 314.776C159.243 315.112 158.919 315.376 158.583 315.568C158.247 315.736 157.887 315.856 157.503 315.928C157.143 315.976 156.795 316 156.459 316H155.883C155.571 316 155.367 315.904 155.271 315.712C155.151 315.52 155.091 315.22 155.091 314.812C155.091 314.38 155.151 314.056 155.271 313.84C155.367 313.624 155.571 313.516 155.883 313.516H156.459ZM168.951 309.664C168.951 308.416 168.675 307.408 168.123 306.64C167.571 305.848 166.623 305.452 165.279 305.452C162.783 305.452 161.535 306.904 161.535 309.808C161.535 311.032 161.871 311.956 162.543 312.58C163.239 313.204 164.127 313.516 165.207 313.516C166.431 313.516 167.355 313.18 167.979 312.508C168.627 311.836 168.951 310.888 168.951 309.664ZM179.333 315.424C179.333 316.816 179.105 318.076 178.649 319.204C178.217 320.356 177.617 321.34 176.849 322.156C176.081 322.972 175.169 323.596 174.113 324.028C173.081 324.484 171.953 324.712 170.729 324.712H168.605L168.425 322.264H170.189C171.389 322.264 172.421 322.072 173.285 321.688C174.149 321.304 174.857 320.788 175.409 320.14C175.961 319.516 176.369 318.796 176.633 317.98C176.897 317.164 177.029 316.312 177.029 315.424V305.704H179.333V315.424ZM188.643 316C188.019 316 187.419 315.916 186.843 315.748C186.267 315.556 185.751 315.244 185.295 314.812C184.863 314.38 184.515 313.816 184.251 313.12C183.987 312.4 183.855 311.512 183.855 310.456V293.68H186.195V310.024C186.195 311.032 186.411 311.872 186.843 312.544C187.299 313.192 188.031 313.516 189.039 313.516H189.651C190.179 313.516 190.443 313.924 190.443 314.74C190.443 315.58 190.179 316 189.651 316H188.643ZM199.172 313.516C200.252 313.516 200.996 313.3 201.404 312.868C201.812 312.412 202.016 311.872 202.016 311.248C202.016 310.84 201.944 310.384 201.8 309.88C201.656 309.376 201.26 308.8 200.612 308.152L192.836 300.412V297.856L204.752 293.14L205.364 295.48L195.14 299.476L201.656 305.992C202.232 306.592 202.7 307.132 203.06 307.612C203.444 308.092 203.744 308.548 203.96 308.98C204.176 309.412 204.32 309.832 204.392 310.24C204.464 310.648 204.5 311.08 204.5 311.536C204.5 312.304 204.368 312.976 204.104 313.552C203.864 314.104 203.516 314.56 203.06 314.92C202.604 315.28 202.064 315.556 201.44 315.748C200.816 315.916 200.132 316 199.388 316H189.668C189.356 316 189.152 315.904 189.056 315.712C188.936 315.52 188.876 315.22 188.876 314.812C188.876 314.38 188.936 314.056 189.056 313.84C189.152 313.624 189.356 313.516 189.668 313.516H199.172Z" fill="#434243"/>
<defs>
<filter id="filter0_d" x="0" y="0" width="288" height="288" filterUnits="userSpaceOnUse" color-interpolation-filters="sRGB">
<feFlood flood-opacity="0" result="BackgroundImageFix"/>
<feColorMatrix in="SourceAlpha" type="matrix" values="0 0 0 0 0 0 0 0 0 0 0 0 0 0 0 0 0 0 127 0"/>
<feOffset dy="25"/>
<feGaussianBlur stdDeviation="25"/>
<feColorMatrix type="matrix" values="0 0 0 0 0 0 0 0 0 0 0 0 0 0 0 0 0 0 0.05 0"/>
<feBlend mode="normal" in2="BackgroundImageFix" result="effect1_dropShadow"/>
<feBlend mode="normal" in="SourceGraphic" in2="effect1_dropShadow" result="shape"/>
</filter>
</defs>
</svg>
