<svg width="580" height="379" viewBox="0 0 580 379" fill="none" xmlns="http://www.w3.org/2000/svg">
<g filter="url(#filter0_d)">
<rect x="50.3613" y="50" width="479.279" height="279" rx="20" fill="#1E1E1E"/>
</g>
<path d="M157.516 262.344C157.868 262.344 158.164 262.304 158.404 262.224C158.644 262.128 158.836 262.016 158.98 261.888C159.14 261.744 159.252 261.592 159.316 261.432C159.396 261.272 159.436 261.12 159.436 260.976C159.436 260.816 159.404 260.6 159.34 260.328C159.276 260.056 159.156 259.656 158.98 259.128C158.82 258.6 158.58 257.896 158.26 257.016C157.956 256.136 157.556 255.008 157.06 253.632L158.524 253.032L161.092 260.352C161.348 261.072 161.644 261.584 161.98 261.888C162.316 262.192 162.788 262.344 163.396 262.344H163.732C164.084 262.344 164.26 262.616 164.26 263.16C164.26 263.72 164.084 264 163.732 264H163.396C162.868 264 162.364 263.904 161.884 263.712C161.404 263.504 160.964 263.064 160.564 262.392C160.228 263.048 159.804 263.48 159.292 263.688C158.796 263.896 158.252 264 157.66 264H152.5L152.38 262.344H157.516ZM165.549 262.344C166.221 262.344 166.733 262.176 167.085 261.84C167.437 261.504 167.613 261.04 167.613 260.448V257.136H169.173V260.448C169.173 260.8 169.229 261.096 169.341 261.336C169.469 261.576 169.629 261.776 169.821 261.936C170.013 262.08 170.229 262.184 170.469 262.248C170.709 262.312 170.957 262.344 171.213 262.344H171.933C172.301 262.344 172.485 262.616 172.485 263.16C172.485 263.72 172.301 264 171.933 264H171.165C170.589 264 170.053 263.896 169.557 263.688C169.061 263.464 168.653 263.048 168.333 262.44C167.965 263.048 167.541 263.464 167.061 263.688C166.597 263.896 166.093 264 165.549 264H163.725C163.517 264 163.381 263.936 163.317 263.808C163.237 263.68 163.197 263.48 163.197 263.208C163.197 262.92 163.237 262.704 163.317 262.56C163.381 262.416 163.517 262.344 163.725 262.344H165.549ZM170.205 268.488H168.381V266.784H170.205V268.488ZM167.085 268.488H165.237V266.784H167.085V268.488ZM178.12 256.32C177.32 256.32 176.68 256.576 176.2 257.088C175.736 257.6 175.504 258.224 175.504 258.96C175.504 259.376 175.592 259.744 175.768 260.064C175.944 260.384 176.168 260.672 176.44 260.928C176.712 261.184 177.008 261.408 177.328 261.6C177.664 261.792 177.992 261.96 178.312 262.104C178.552 261.96 178.816 261.8 179.104 261.624C179.392 261.432 179.656 261.208 179.896 260.952C180.136 260.696 180.336 260.408 180.496 260.088C180.656 259.768 180.736 259.416 180.736 259.032C180.736 258.216 180.504 257.56 180.04 257.064C179.576 256.568 178.936 256.32 178.12 256.32ZM171.928 264C171.72 264 171.584 263.936 171.52 263.808C171.44 263.68 171.4 263.48 171.4 263.208C171.4 262.92 171.44 262.704 171.52 262.56C171.584 262.416 171.72 262.344 171.928 262.344H176.536C175.784 261.928 175.176 261.424 174.712 260.832C174.264 260.24 174.04 259.544 174.04 258.744C174.04 258.216 174.136 257.712 174.328 257.232C174.52 256.736 174.8 256.304 175.168 255.936C175.536 255.568 175.976 255.272 176.488 255.048C177.016 254.824 177.616 254.712 178.288 254.712C178.944 254.712 179.512 254.824 179.992 255.048C180.488 255.272 180.896 255.576 181.216 255.96C181.552 256.328 181.8 256.744 181.96 257.208C182.12 257.672 182.2 258.144 182.2 258.624C182.2 260.096 181.448 261.336 179.944 262.344H184.192C184.816 262.344 185.296 262.2 185.632 261.912C185.984 261.624 186.16 261.248 186.16 260.784C186.16 260.56 186.104 260.32 185.992 260.064C185.896 259.792 185.72 259.512 185.464 259.224L181.12 254.184L182.272 253.104L186.688 258.24C187.104 258.752 187.4 259.232 187.576 259.68C187.752 260.128 187.84 260.568 187.84 261C187.84 261.864 187.528 262.584 186.904 263.16C186.296 263.72 185.432 264 184.312 264H181.672C180.936 264 180.28 263.984 179.704 263.952C179.144 263.904 178.696 263.8 178.36 263.64C178.136 263.736 177.856 263.808 177.52 263.856C177.2 263.904 176.864 263.944 176.512 263.976C176.176 263.992 175.84 264 175.504 264C175.184 264 174.912 264 174.688 264H171.928ZM195.157 262.344C195.509 262.344 195.805 262.304 196.045 262.224C196.285 262.128 196.477 262.016 196.621 261.888C196.781 261.744 196.893 261.592 196.957 261.432C197.037 261.272 197.077 261.12 197.077 260.976C197.077 260.816 197.045 260.6 196.981 260.328C196.917 260.056 196.797 259.656 196.621 259.128C196.461 258.6 196.221 257.896 195.901 257.016C195.597 256.136 195.197 255.008 194.701 253.632L196.165 253.032L198.733 260.352C198.989 261.072 199.285 261.584 199.621 261.888C199.957 262.192 200.429 262.344 201.037 262.344H201.373C201.725 262.344 201.901 262.616 201.901 263.16C201.901 263.72 201.725 264 201.373 264H201.037C200.509 264 200.005 263.904 199.525 263.712C199.045 263.504 198.605 263.064 198.205 262.392C197.869 263.048 197.445 263.48 196.933 263.688C196.437 263.896 195.893 264 195.301 264H190.141L190.021 262.344H195.157ZM203.525 262.344C204.149 262.344 204.645 262.176 205.013 261.84C205.397 261.504 205.589 261.04 205.589 260.448V257.136H207.149V260.448C207.149 261.584 206.829 262.464 206.189 263.088C205.565 263.696 204.709 264 203.621 264H201.365C201.157 264 201.021 263.936 200.957 263.808C200.877 263.68 200.837 263.48 200.837 263.208C200.837 262.92 200.877 262.704 200.957 262.56C201.021 262.416 201.157 262.344 201.365 262.344H203.525ZM204.485 268.536H202.469V266.784H204.485V268.536ZM218.266 262.344C218.618 262.344 218.914 262.304 219.154 262.224C219.394 262.128 219.586 262.016 219.73 261.888C219.89 261.744 220.002 261.592 220.066 261.432C220.146 261.272 220.186 261.12 220.186 260.976C220.186 260.816 220.154 260.6 220.09 260.328C220.026 260.056 219.906 259.656 219.73 259.128C219.57 258.6 219.33 257.896 219.01 257.016C218.706 256.136 218.306 255.008 217.81 253.632L219.274 253.032L221.842 260.352C222.098 261.072 222.394 261.584 222.73 261.888C223.066 262.192 223.538 262.344 224.146 262.344H224.482C224.834 262.344 225.01 262.616 225.01 263.16C225.01 263.72 224.834 264 224.482 264H224.146C223.618 264 223.114 263.904 222.634 263.712C222.154 263.504 221.714 263.064 221.314 262.392C220.978 263.048 220.554 263.48 220.042 263.688C219.546 263.896 219.002 264 218.41 264H213.25L213.13 262.344H218.266ZM226.635 262.344C227.259 262.344 227.755 262.176 228.123 261.84C228.507 261.504 228.699 261.04 228.699 260.448V257.136H230.259V260.448C230.259 261.584 229.939 262.464 229.299 263.088C228.675 263.696 227.819 264 226.731 264H224.475C224.267 264 224.131 263.936 224.067 263.808C223.987 263.68 223.947 263.48 223.947 263.208C223.947 262.92 223.987 262.704 224.067 262.56C224.131 262.416 224.267 262.344 224.475 262.344H226.635ZM229.611 254.064H227.595V252.312H229.611V254.064ZM235.104 268.176C235.808 268.176 236.424 268.064 236.952 267.84C237.496 267.616 237.952 267.312 238.32 266.928C238.688 266.544 238.968 266.096 239.16 265.584C239.352 265.088 239.464 264.56 239.496 264H237.096C236.28 264 235.608 263.912 235.08 263.736C234.552 263.56 234.136 263.304 233.832 262.968C233.528 262.632 233.312 262.232 233.184 261.768C233.072 261.288 233.016 260.752 233.016 260.16C233.016 259.552 233.104 258.976 233.28 258.432C233.456 257.888 233.712 257.408 234.048 256.992C234.384 256.576 234.8 256.248 235.296 256.008C235.808 255.752 236.392 255.624 237.048 255.624C237.576 255.624 238.08 255.712 238.56 255.888C239.04 256.064 239.464 256.344 239.832 256.728C240.2 257.096 240.488 257.584 240.696 258.192C240.92 258.784 241.032 259.504 241.032 260.352V262.344H243.336C243.528 262.344 243.656 262.416 243.72 262.56C243.8 262.688 243.84 262.888 243.84 263.16C243.84 263.448 243.8 263.664 243.72 263.808C243.656 263.936 243.528 264 243.336 264H240.984C240.952 264.784 240.792 265.528 240.504 266.232C240.232 266.936 239.848 267.552 239.352 268.08C238.856 268.608 238.264 269.024 237.576 269.328C236.888 269.648 236.112 269.808 235.248 269.808H232.704L232.56 268.176H235.104ZM234.504 260.064C234.504 260.464 234.544 260.808 234.624 261.096C234.72 261.384 234.872 261.624 235.08 261.816C235.304 261.992 235.6 262.128 235.968 262.224C236.336 262.304 236.8 262.344 237.36 262.344H239.52V260.544C239.52 259.36 239.288 258.512 238.824 258C238.36 257.488 237.72 257.232 236.904 257.232C236.136 257.232 235.544 257.488 235.128 258C234.712 258.512 234.504 259.2 234.504 260.064ZM245.166 262.344C245.838 262.344 246.35 262.176 246.702 261.84C247.054 261.504 247.23 261.04 247.23 260.448V257.136H248.79V260.448C248.79 260.8 248.846 261.096 248.958 261.336C249.086 261.576 249.246 261.776 249.438 261.936C249.63 262.08 249.846 262.184 250.086 262.248C250.326 262.312 250.574 262.344 250.83 262.344H251.55C251.918 262.344 252.102 262.616 252.102 263.16C252.102 263.72 251.918 264 251.55 264H250.782C250.206 264 249.67 263.896 249.174 263.688C248.678 263.464 248.27 263.048 247.95 262.44C247.582 263.048 247.158 263.464 246.678 263.688C246.214 263.896 245.71 264 245.166 264H243.342C243.134 264 242.998 263.936 242.934 263.808C242.854 263.68 242.814 263.48 242.814 263.208C242.814 262.92 242.854 262.704 242.934 262.56C242.998 262.416 243.134 262.344 243.342 262.344H245.166ZM249.822 268.488H247.998V266.784H249.822V268.488ZM246.702 268.488H244.854V266.784H246.702V268.488ZM253.705 262.344C254.329 262.344 254.825 262.176 255.193 261.84C255.577 261.504 255.769 261.04 255.769 260.448V257.136H257.329V260.448C257.329 261.584 257.009 262.464 256.369 263.088C255.745 263.696 254.889 264 253.801 264H251.545C251.337 264 251.201 263.936 251.137 263.808C251.057 263.68 251.017 263.48 251.017 263.208C251.017 262.92 251.057 262.704 251.137 262.56C251.201 262.416 251.337 262.344 251.545 262.344H253.705ZM255.265 271.368H253.345V269.664H255.265V271.368ZM256.777 268.488H254.857V266.784H256.777V268.488ZM253.729 268.488H251.809V266.784H253.729V268.488ZM264.006 249.12H265.566V264H264.006V249.12ZM271.28 263.616C271.28 264.544 271.128 265.384 270.824 266.136C270.536 266.904 270.136 267.56 269.624 268.104C269.112 268.648 268.504 269.064 267.8 269.352C267.112 269.656 266.36 269.808 265.544 269.808H264.128L264.008 268.176H265.184C265.984 268.176 266.672 268.048 267.248 267.792C267.824 267.536 268.296 267.192 268.664 266.76C269.032 266.344 269.304 265.864 269.48 265.32C269.656 264.776 269.744 264.208 269.744 263.616V257.136H271.28V263.616ZM286.47 258.288C286.886 258.752 287.182 259.216 287.358 259.68C287.55 260.128 287.646 260.568 287.646 261C287.646 261.864 287.334 262.584 286.71 263.16C286.102 263.72 285.23 264 284.094 264H277.398L277.278 262.344H283.902C284.526 262.344 285.006 262.2 285.342 261.912C285.694 261.624 285.87 261.248 285.87 260.784C285.87 260.56 285.814 260.312 285.702 260.04C285.59 259.768 285.422 259.512 285.198 259.272L280.734 254.232L281.958 253.08L286.47 258.288ZM292.361 268.176C293.065 268.176 293.681 268.064 294.209 267.84C294.753 267.616 295.209 267.312 295.577 266.928C295.945 266.544 296.225 266.096 296.417 265.584C296.609 265.088 296.721 264.56 296.753 264H294.353C293.537 264 292.865 263.912 292.337 263.736C291.809 263.56 291.393 263.304 291.089 262.968C290.785 262.632 290.569 262.232 290.441 261.768C290.329 261.288 290.273 260.752 290.273 260.16C290.273 259.552 290.361 258.976 290.537 258.432C290.713 257.888 290.969 257.408 291.305 256.992C291.641 256.576 292.057 256.248 292.553 256.008C293.065 255.752 293.649 255.624 294.305 255.624C294.833 255.624 295.337 255.712 295.817 255.888C296.297 256.064 296.721 256.344 297.089 256.728C297.457 257.096 297.745 257.584 297.953 258.192C298.177 258.784 298.289 259.504 298.289 260.352V262.344H300.593C300.785 262.344 300.913 262.416 300.977 262.56C301.057 262.688 301.097 262.888 301.097 263.16C301.097 263.448 301.057 263.664 300.977 263.808C300.913 263.936 300.785 264 300.593 264H298.241C298.209 264.784 298.049 265.528 297.761 266.232C297.489 266.936 297.105 267.552 296.609 268.08C296.113 268.608 295.521 269.024 294.833 269.328C294.145 269.648 293.369 269.808 292.505 269.808H289.961L289.817 268.176H292.361ZM291.761 260.064C291.761 260.464 291.801 260.808 291.881 261.096C291.977 261.384 292.129 261.624 292.337 261.816C292.561 261.992 292.857 262.128 293.225 262.224C293.593 262.304 294.057 262.344 294.617 262.344H296.777V260.544C296.777 259.36 296.545 258.512 296.081 258C295.617 257.488 294.977 257.232 294.161 257.232C293.393 257.232 292.801 257.488 292.385 258C291.969 258.512 291.761 259.2 291.761 260.064ZM307.536 262.584C307.12 262.824 306.72 263.04 306.336 263.232C305.952 263.408 305.536 263.552 305.088 263.664C304.64 263.776 304.144 263.864 303.6 263.928C303.072 263.976 302.464 264 301.776 264H300.6C300.392 264 300.256 263.936 300.192 263.808C300.112 263.68 300.072 263.48 300.072 263.208C300.072 262.92 300.112 262.704 300.192 262.56C300.256 262.416 300.392 262.344 300.6 262.344H301.8C302.424 262.344 302.976 262.328 303.456 262.296C303.936 262.248 304.376 262.184 304.776 262.104C305.176 262.008 305.552 261.888 305.904 261.744C306.256 261.6 306.616 261.416 306.984 261.192L311.04 258.84C310.912 258.504 310.776 258.2 310.632 257.928C310.488 257.64 310.304 257.4 310.08 257.208C309.872 257.016 309.608 256.872 309.288 256.776C308.968 256.664 308.568 256.608 308.088 256.608H302.712L302.856 254.952H308.304C308.72 254.952 309.144 255 309.576 255.096C310.024 255.192 310.44 255.4 310.824 255.72C311.224 256.024 311.592 256.48 311.928 257.088C312.28 257.696 312.568 258.504 312.792 259.512L307.536 262.584ZM307.632 252.24H305.616V250.488H307.632V252.24ZM326.687 268.176C327.503 268.176 328.183 268.096 328.727 267.936C329.287 267.776 329.743 267.56 330.095 267.288C330.447 267.032 330.695 266.736 330.839 266.4C330.999 266.08 331.079 265.744 331.079 265.392C331.079 265.008 330.975 264.68 330.767 264.408C330.575 264.136 330.239 264 329.759 264H325.751L325.871 262.344H334.391C334.743 262.344 334.919 262.616 334.919 263.16C334.919 263.72 334.743 264 334.391 264H332.039C332.247 264.176 332.383 264.392 332.447 264.648C332.527 264.904 332.567 265.192 332.567 265.512C332.567 265.944 332.471 266.408 332.279 266.904C332.103 267.4 331.791 267.864 331.343 268.296C330.911 268.728 330.327 269.088 329.591 269.376C328.871 269.664 327.975 269.808 326.903 269.808H324.503C322.711 269.808 321.319 269.256 320.327 268.152C319.335 267.048 318.839 265.536 318.839 263.616V259.416H320.375V263.568C320.375 264.256 320.455 264.88 320.615 265.44C320.791 266 321.055 266.48 321.407 266.88C321.775 267.296 322.231 267.616 322.775 267.84C323.319 268.064 323.975 268.176 324.743 268.176H326.687ZM340.732 262.344C341.452 262.344 341.948 262.2 342.22 261.912C342.492 261.608 342.628 261.248 342.628 260.832C342.628 260.56 342.58 260.256 342.484 259.92C342.388 259.584 342.124 259.2 341.692 258.768L336.508 253.608V251.904L344.452 248.76L344.86 250.32L338.044 252.984L342.388 257.328C343.188 258.144 343.876 258.832 344.452 259.392C345.044 259.952 345.548 260.424 345.964 260.808C346.38 261.176 346.732 261.464 347.02 261.672C347.308 261.88 347.572 262.032 347.812 262.128C348.052 262.224 348.276 262.288 348.484 262.32C348.708 262.336 348.956 262.344 349.228 262.344C349.58 262.344 349.756 262.616 349.756 263.16C349.756 263.72 349.58 264 349.228 264C348.764 264 348.356 263.96 348.004 263.88C347.652 263.8 347.284 263.648 346.9 263.424C346.532 263.2 346.124 262.896 345.676 262.512C345.228 262.128 344.692 261.624 344.068 261C344.116 261.528 344.06 261.984 343.9 262.368C343.756 262.736 343.54 263.04 343.252 263.28C342.964 263.52 342.612 263.704 342.196 263.832C341.796 263.944 341.356 264 340.876 264H334.396C334.188 264 334.052 263.936 333.988 263.808C333.908 263.68 333.868 263.48 333.868 263.208C333.868 262.92 333.908 262.704 333.988 262.56C334.052 262.416 334.188 262.344 334.396 262.344H340.732ZM351.392 262.344C352.016 262.344 352.512 262.176 352.88 261.84C353.264 261.504 353.456 261.04 353.456 260.448V257.136H355.016V260.448C355.016 261.584 354.696 262.464 354.056 263.088C353.432 263.696 352.576 264 351.488 264H349.232C349.024 264 348.888 263.936 348.824 263.808C348.744 263.68 348.704 263.48 348.704 263.208C348.704 262.92 348.744 262.704 348.824 262.56C348.888 262.416 349.024 262.344 349.232 262.344H351.392ZM354.368 254.064H352.352V252.312H354.368V254.064ZM361.205 264C360.789 264 360.389 263.944 360.005 263.832C359.621 263.704 359.277 263.496 358.973 263.208C358.685 262.92 358.453 262.544 358.277 262.08C358.101 261.6 358.013 261.008 358.013 260.304V249.12H359.573V260.016C359.573 260.688 359.717 261.248 360.005 261.696C360.309 262.128 360.797 262.344 361.469 262.344H361.877C362.229 262.344 362.405 262.616 362.405 263.16C362.405 263.72 362.229 264 361.877 264H361.205ZM364.049 262.344C364.673 262.344 365.169 262.176 365.537 261.84C365.921 261.504 366.113 261.04 366.113 260.448V257.136H367.673V260.448C367.673 261.584 367.353 262.464 366.713 263.088C366.089 263.696 365.233 264 364.145 264H361.889C361.681 264 361.545 263.936 361.481 263.808C361.401 263.68 361.361 263.48 361.361 263.208C361.361 262.92 361.401 262.704 361.481 262.56C361.545 262.416 361.681 262.344 361.889 262.344H364.049ZM365.009 268.536H362.993V266.784H365.009V268.536ZM377.661 264C377.005 264 376.437 263.904 375.957 263.712C375.493 263.504 375.109 263.232 374.805 262.896C374.517 262.56 374.301 262.168 374.157 261.72C374.029 261.272 373.965 260.8 373.965 260.304V257.088H375.501V259.944C375.501 260.664 375.685 261.248 376.053 261.696C376.421 262.128 377.069 262.344 377.997 262.344H386.181C386.837 262.344 387.341 262.176 387.693 261.84C388.061 261.504 388.245 261.04 388.245 260.448V257.136H389.805V260.664C389.805 261.192 389.709 261.664 389.517 262.08C389.341 262.496 389.093 262.848 388.773 263.136C388.469 263.424 388.109 263.64 387.693 263.784C387.293 263.928 386.861 264 386.397 264H377.661ZM382.773 268.536H380.757V266.784H382.773V268.536ZM395.916 264C395.5 264 395.1 263.944 394.716 263.832C394.332 263.704 393.988 263.496 393.684 263.208C393.396 262.92 393.164 262.544 392.988 262.08C392.812 261.6 392.724 261.008 392.724 260.304V249.12H394.284V260.016C394.284 260.688 394.428 261.248 394.716 261.696C395.02 262.128 395.508 262.344 396.18 262.344H396.588C396.94 262.344 397.116 262.616 397.116 263.16C397.116 263.72 396.94 264 396.588 264H395.916ZM397.464 262.344C398.136 262.344 398.656 262.176 399.024 261.84C399.408 261.504 399.6 261.04 399.6 260.448V257.136H401.16V260.448C401.16 260.8 401.216 261.096 401.328 261.336C401.456 261.576 401.616 261.776 401.808 261.936C402.016 262.08 402.24 262.184 402.48 262.248C402.736 262.312 402.992 262.344 403.248 262.344C404 262.344 404.568 262.176 404.952 261.84C405.352 261.504 405.552 261.04 405.552 260.448V257.136H407.112V260.448C407.112 261.152 407.304 261.648 407.688 261.936C408.088 262.208 408.536 262.344 409.032 262.344C409.672 262.344 410.16 262.176 410.496 261.84C410.848 261.504 411.024 261.04 411.024 260.448V257.136H412.584V260.448C412.584 260.8 412.64 261.096 412.752 261.336C412.88 261.576 413.032 261.776 413.208 261.936C413.4 262.08 413.616 262.184 413.856 262.248C414.096 262.312 414.336 262.344 414.576 262.344H415.032C415.24 262.344 415.376 262.416 415.44 262.56C415.52 262.688 415.56 262.888 415.56 263.16C415.56 263.448 415.52 263.664 415.44 263.808C415.376 263.936 415.24 264 415.032 264H414.576C414 264 413.464 263.896 412.968 263.688C412.472 263.464 412.064 263.048 411.744 262.44C411.376 263.048 410.944 263.464 410.448 263.688C409.968 263.896 409.496 264 409.032 264C408.456 264 407.928 263.896 407.448 263.688C406.968 263.464 406.568 263.048 406.248 262.44C405.896 263.048 405.448 263.464 404.904 263.688C404.376 263.896 403.824 264 403.248 264C402.624 264 402.056 263.896 401.544 263.688C401.032 263.464 400.616 263.048 400.296 262.44C399.944 263.048 399.512 263.464 399 263.688C398.488 263.896 397.944 264 397.368 264H396.6C396.392 264 396.256 263.936 396.192 263.808C396.112 263.68 396.072 263.48 396.072 263.208C396.072 262.92 396.112 262.704 396.192 262.56C396.256 262.416 396.392 262.344 396.6 262.344H397.464ZM421.957 262.584C421.541 262.824 421.141 263.04 420.757 263.232C420.373 263.408 419.957 263.552 419.509 263.664C419.061 263.776 418.565 263.864 418.021 263.928C417.493 263.976 416.885 264 416.197 264H415.021C414.813 264 414.677 263.936 414.613 263.808C414.533 263.68 414.493 263.48 414.493 263.208C414.493 262.92 414.533 262.704 414.613 262.56C414.677 262.416 414.813 262.344 415.021 262.344H416.221C416.845 262.344 417.397 262.328 417.877 262.296C418.357 262.248 418.797 262.184 419.197 262.104C419.597 262.008 419.973 261.888 420.325 261.744C420.677 261.6 421.037 261.416 421.405 261.192L425.461 258.84C425.333 258.504 425.197 258.2 425.053 257.928C424.909 257.64 424.725 257.4 424.501 257.208C424.293 257.016 424.029 256.872 423.709 256.776C423.389 256.664 422.989 256.608 422.509 256.608H417.133L417.277 254.952H422.725C423.141 254.952 423.565 255 423.997 255.096C424.445 255.192 424.861 255.4 425.245 255.72C425.645 256.024 426.013 256.48 426.349 257.088C426.701 257.696 426.989 258.504 427.213 259.512L421.957 262.584Z" fill="white"/>
<path opacity="0.5" d="M260.348 151.59C260.348 151.59 260.821 157.384 260.931 159.21C261.078 161.66 262.024 164.397 263.604 166.297C265.834 168.99 268.461 169.94 271.968 169.947C276.091 169.954 306.074 169.954 310.198 169.947C313.704 169.94 316.331 168.99 318.561 166.297C320.141 164.397 321.088 161.66 321.238 159.21C321.344 157.384 321.818 151.59 321.818 151.59" stroke="#FFDF2C" stroke-width="5" stroke-linecap="round" stroke-linejoin="round"/>
<path d="M279.32 117.765V116.528C279.32 112.462 282.614 109.168 286.68 109.168H295.287C299.35 109.168 302.647 112.462 302.647 116.528L302.65 117.765" stroke="#FFDF2C" stroke-width="5" stroke-linecap="round" stroke-linejoin="round"/>
<path d="M290.983 155.594V151.281" stroke="#FFDF2C" stroke-width="5" stroke-linecap="round" stroke-linejoin="round"/>
<path fill-rule="evenodd" clip-rule="evenodd" d="M260.166 127.964V139.521C266.559 143.737 274.219 146.691 282.626 147.861C283.633 144.191 286.943 141.501 290.966 141.501C294.926 141.501 298.303 144.191 299.243 147.894C307.683 146.724 315.373 143.771 321.799 139.521V127.964C321.799 122.317 317.256 117.771 311.609 117.771H270.389C264.743 117.771 260.166 122.317 260.166 127.964Z" stroke="#FFDF2C" stroke-width="5" stroke-linecap="round" stroke-linejoin="round"/>
<defs>
<filter id="filter0_d" x="0.361328" y="0" width="579.279" height="379" filterUnits="userSpaceOnUse" color-interpolation-filters="sRGB">
<feFlood flood-opacity="0" result="BackgroundImageFix"/>
<feColorMatrix in="SourceAlpha" type="matrix" values="0 0 0 0 0 0 0 0 0 0 0 0 0 0 0 0 0 0 127 0"/>
<feOffset/>
<feGaussianBlur stdDeviation="25"/>
<feColorMatrix type="matrix" values="0 0 0 0 0 0 0 0 0 0 0 0 0 0 0 0 0 0 0.05 0"/>
<feBlend mode="normal" in2="BackgroundImageFix" result="effect1_dropShadow"/>
<feBlend mode="normal" in="SourceGraphic" in2="effect1_dropShadow" result="shape"/>
</filter>
</defs>
</svg>
