<svg width="400" height="201" viewBox="0 0 400 201" fill="none" xmlns="http://www.w3.org/2000/svg">
<rect width="400" height="201" rx="10" fill="#0d0b01"/>
<path d="M185.253 55C184.901 55 184.549 54.936 184.197 54.808C183.845 54.68 183.549 54.448 183.309 54.112V54.544C183.309 55.408 183.173 56.216 182.901 56.968C182.629 57.736 182.237 58.4 181.725 58.96C181.229 59.536 180.613 59.984 179.877 60.304C179.157 60.64 178.341 60.808 177.429 60.808H175.965C174.173 60.808 172.781 60.256 171.789 59.152C170.797 58.048 170.301 56.536 170.301 54.616V50.368H172.245V54.544C172.245 55.792 172.557 56.8 173.181 57.568C173.805 58.336 174.829 58.72 176.253 58.72H177.309C178.029 58.72 178.645 58.608 179.157 58.384C179.685 58.16 180.117 57.856 180.453 57.472C180.789 57.088 181.037 56.64 181.197 56.128C181.357 55.616 181.437 55.08 181.437 54.52V48.064H183.381V51.208C183.381 51.736 183.557 52.152 183.909 52.456C184.261 52.744 184.709 52.888 185.253 52.888H185.517C185.885 52.888 186.069 53.232 186.069 53.92C186.069 54.64 185.885 55 185.517 55H185.253ZM177.669 47.608H175.317V45.544H177.669V47.608ZM187.692 52.888C188.268 52.888 188.716 52.736 189.036 52.432C189.372 52.128 189.54 51.696 189.54 51.136V48.064H191.508V51.232C191.508 52.448 191.18 53.384 190.524 54.04C189.884 54.68 188.988 55 187.836 55H185.508C185.3 55 185.164 54.92 185.1 54.76C185.02 54.584 184.98 54.328 184.98 53.992C184.98 53.608 185.02 53.328 185.1 53.152C185.164 52.976 185.3 52.888 185.508 52.888H187.692ZM191.004 59.752H188.892V57.736H191.004V59.752ZM187.74 59.752H185.604V57.736H187.74V59.752ZM194.428 55V40.12H196.396V52.888H199.084C200.316 52.888 200.932 52.304 200.932 51.136V40.12H202.924V51.136C202.924 51.792 203.116 52.248 203.5 52.504C203.9 52.76 204.356 52.888 204.868 52.888H205.18C205.532 52.888 205.708 53.232 205.708 53.92C205.708 54.64 205.532 55 205.18 55H204.772C204.18 55 203.628 54.896 203.116 54.688C202.62 54.48 202.204 54.072 201.868 53.464C201.5 54.072 201.076 54.48 200.596 54.688C200.116 54.896 199.612 55 199.084 55H194.428ZM207.356 52.888C207.932 52.888 208.38 52.736 208.7 52.432C209.036 52.128 209.204 51.696 209.204 51.136V48.064H211.172V51.232C211.172 52.448 210.844 53.384 210.188 54.04C209.548 54.68 208.652 55 207.5 55H205.172C204.964 55 204.828 54.92 204.764 54.76C204.684 54.584 204.644 54.328 204.644 53.992C204.644 53.608 204.684 53.328 204.764 53.152C204.828 52.976 204.964 52.888 205.172 52.888H207.356ZM210.5 45.112H208.148V43.048H210.5V45.112ZM215.78 43.552H217.748V55H215.78V43.552ZM215.516 41.008C215.196 41.008 214.948 41.04 214.772 41.104C214.596 41.152 214.444 41.336 214.316 41.656L213.812 42.76L212.54 42.16L213.212 40.672C213.356 40.368 213.5 40.12 213.644 39.928C213.772 39.72 213.924 39.56 214.1 39.448C214.26 39.336 214.444 39.264 214.652 39.232C214.876 39.184 215.14 39.16 215.444 39.16H220.052L219.98 41.008H215.516ZM231.939 58.72C232.691 58.72 233.323 58.656 233.835 58.528C234.363 58.4 234.787 58.224 235.107 58C235.427 57.776 235.651 57.512 235.779 57.208C235.923 56.92 235.995 56.616 235.995 56.296C235.995 55.944 235.899 55.64 235.707 55.384C235.531 55.128 235.211 55 234.747 55H231.003L231.123 52.888H239.571C239.923 52.888 240.099 53.232 240.099 53.92C240.099 54.64 239.923 55 239.571 55H237.339C237.547 55.176 237.683 55.392 237.747 55.648C237.827 55.904 237.867 56.2 237.867 56.536C237.867 56.968 237.771 57.432 237.579 57.928C237.387 58.424 237.067 58.88 236.619 59.296C236.187 59.728 235.611 60.088 234.891 60.376C234.171 60.664 233.275 60.808 232.203 60.808H229.731C227.939 60.808 226.547 60.256 225.555 59.152C224.563 58.048 224.067 56.536 224.067 54.616V50.368H226.011V54.544C226.011 55.792 226.323 56.8 226.947 57.568C227.571 58.336 228.595 58.72 230.019 58.72H231.939ZM241.762 52.888C242.338 52.888 242.786 52.736 243.106 52.432C243.442 52.128 243.61 51.696 243.61 51.136V48.064H245.578V51.232C245.578 52.448 245.25 53.384 244.594 54.04C243.954 54.68 243.058 55 241.906 55H239.578C239.37 55 239.234 54.92 239.17 54.76C239.09 54.584 239.05 54.328 239.05 53.992C239.05 53.608 239.09 53.328 239.17 53.152C239.234 52.976 239.37 52.888 239.578 52.888H241.762ZM244.906 45.112H242.554V43.048H244.906V45.112ZM251.763 55C251.331 55 250.915 54.944 250.515 54.832C250.115 54.704 249.763 54.496 249.459 54.208C249.171 53.92 248.939 53.544 248.763 53.08C248.587 52.6 248.499 52.008 248.499 51.304V40.12H250.467V50.872C250.467 51.48 250.595 51.968 250.851 52.336C251.123 52.704 251.547 52.888 252.123 52.888H252.603C252.955 52.888 253.131 53.232 253.131 53.92C253.131 54.64 252.955 55 252.603 55H251.763ZM254.361 52.888C255.609 52.888 256.233 52.304 256.233 51.136V48.064H258.201V51.136C258.201 51.456 258.249 51.728 258.345 51.952C258.457 52.176 258.601 52.36 258.777 52.504C258.953 52.632 259.153 52.728 259.377 52.792C259.617 52.856 259.857 52.888 260.097 52.888H260.769C261.137 52.888 261.321 53.232 261.321 53.92C261.321 54.64 261.137 55 260.769 55H260.025C259.449 55 258.905 54.896 258.393 54.688C257.897 54.48 257.481 54.072 257.145 53.464C256.777 54.072 256.353 54.48 255.873 54.688C255.409 54.896 254.905 55 254.361 55H252.609C252.401 55 252.265 54.92 252.201 54.76C252.121 54.584 252.081 54.328 252.081 53.992C252.081 53.608 252.121 53.328 252.201 53.152C252.265 52.976 252.401 52.888 252.609 52.888H254.361ZM257.793 59.8H255.441V57.736H257.793V59.8ZM262.518 52.888C263.766 52.888 264.39 52.304 264.39 51.136V48.064H266.358V51.136C266.358 51.456 266.406 51.728 266.502 51.952C266.614 52.176 266.758 52.36 266.934 52.504C267.11 52.632 267.31 52.728 267.534 52.792C267.774 52.856 268.014 52.888 268.254 52.888H268.926C269.294 52.888 269.478 53.232 269.478 53.92C269.478 54.64 269.294 55 268.926 55H268.182C267.606 55 267.062 54.896 266.55 54.688C266.054 54.48 265.638 54.072 265.302 53.464C264.934 54.072 264.51 54.48 264.03 54.688C263.566 54.896 263.062 55 262.518 55H260.766C260.558 55 260.422 54.92 260.358 54.76C260.278 54.584 260.238 54.328 260.238 53.992C260.238 53.608 260.278 53.328 260.358 53.152C260.422 52.976 260.558 52.888 260.766 52.888H262.518ZM267.486 59.752H265.374V57.736H267.486V59.752ZM264.222 59.752H262.086V57.736H264.222V59.752ZM270.674 52.888C271.922 52.888 272.546 52.304 272.546 51.136V48.064H274.514V51.136C274.514 51.456 274.562 51.728 274.658 51.952C274.77 52.176 274.914 52.36 275.09 52.504C275.266 52.632 275.466 52.728 275.69 52.792C275.93 52.856 276.17 52.888 276.41 52.888H277.082C277.45 52.888 277.634 53.232 277.634 53.92C277.634 54.64 277.45 55 277.082 55H276.338C275.762 55 275.218 54.896 274.706 54.688C274.21 54.48 273.794 54.072 273.458 53.464C273.09 54.072 272.666 54.48 272.186 54.688C271.722 54.896 271.218 55 270.674 55H268.922C268.714 55 268.578 54.92 268.514 54.76C268.434 54.584 268.394 54.328 268.394 53.992C268.394 53.608 268.434 53.328 268.514 53.152C268.578 52.976 268.714 52.888 268.922 52.888H270.674ZM275.93 45.112H273.746V43.096H275.93V45.112ZM272.714 45.112H270.53V43.096H272.714V45.112ZM278.038 52.888C279.302 52.888 279.934 52.304 279.934 51.136V48.064H281.902V51.136C281.902 51.456 281.958 51.728 282.07 51.952C282.182 52.176 282.326 52.36 282.502 52.504C282.678 52.632 282.878 52.728 283.102 52.792C283.342 52.856 283.582 52.888 283.822 52.888C285.198 52.888 285.886 52.304 285.886 51.136V48.064H287.854V51.136C287.854 51.792 288.022 52.248 288.358 52.504C288.71 52.76 289.118 52.888 289.582 52.888C290.142 52.888 290.574 52.736 290.878 52.432C291.198 52.128 291.358 51.696 291.358 51.136V48.064H293.326V51.136C293.326 51.456 293.374 51.728 293.47 51.952C293.582 52.176 293.726 52.36 293.902 52.504C294.078 52.632 294.278 52.728 294.502 52.792C294.726 52.856 294.95 52.888 295.174 52.888H295.678C296.03 52.888 296.206 53.232 296.206 53.92C296.206 54.64 296.03 55 295.678 55H295.174C294.582 55 294.03 54.896 293.518 54.688C293.022 54.48 292.606 54.072 292.27 53.464C291.902 54.072 291.47 54.48 290.974 54.688C290.494 54.896 290.03 55 289.582 55C289.022 55 288.502 54.896 288.022 54.688C287.542 54.48 287.134 54.072 286.798 53.464C286.43 54.072 285.982 54.48 285.454 54.688C284.926 54.896 284.382 55 283.822 55C283.214 55 282.646 54.896 282.118 54.688C281.606 54.48 281.182 54.072 280.846 53.464C280.478 54.072 280.046 54.48 279.55 54.688C279.054 54.896 278.526 55 277.966 55H277.078C276.87 55 276.734 54.92 276.67 54.76C276.59 54.584 276.55 54.328 276.55 53.992C276.55 53.608 276.59 53.328 276.67 53.152C276.734 52.976 276.87 52.888 277.078 52.888H278.038ZM287.974 42.016H285.766V40.024H287.974V42.016ZM289.558 45.112H287.374V43.096H289.558V45.112ZM286.342 45.112H284.158V43.096H286.342V45.112ZM297.872 52.888C298.448 52.888 298.896 52.736 299.215 52.432C299.552 52.128 299.72 51.696 299.72 51.136V48.064H301.688V51.232C301.688 52.448 301.36 53.384 300.704 54.04C300.064 54.68 299.168 55 298.016 55H295.688C295.479 55 295.343 54.92 295.279 54.76C295.199 54.584 295.159 54.328 295.159 53.992C295.159 53.608 295.199 53.328 295.279 53.152C295.343 52.976 295.479 52.888 295.688 52.888H297.872ZM299.672 62.848H297.464V60.832H299.672V62.848ZM301.256 59.752H299.072V57.736H301.256V59.752ZM298.04 59.752H295.856V57.736H298.04V59.752Z" fill="#F5E427"/>
<path d="M365.472 49.5381H365.359V46.7646C365.359 37.8553 358.137 30.6328 349.227 30.6328C340.318 30.6328 333.096 37.8553 333.096 46.7646V49.5381H332.416C329.926 49.5381 328.001 51.7456 328.001 54.2928V61.3681C327.939 63.8369 329.889 65.8891 332.358 65.9518C332.378 65.9524 332.397 65.9527 332.416 65.9529H336.605C337.198 65.9251 337.657 65.4214 337.629 64.8281C337.628 64.8068 337.626 64.7854 337.624 64.7642V50.8965C337.624 50.2173 337.228 49.538 336.605 49.538H335.36V46.7645C335.36 39.1056 341.569 32.8968 349.227 32.8968C356.886 32.8968 363.095 39.1056 363.095 46.7645V49.538H361.85C361.227 49.538 360.831 50.2172 360.831 50.8965V64.7642C360.768 65.3548 361.195 65.8848 361.786 65.9479C361.807 65.9502 361.829 65.9518 361.85 65.9528H363.152L363.038 66.1226C361.34 68.3799 358.675 69.7019 355.85 69.6885C355.232 66.6561 352.272 64.6992 349.239 65.3177C346.646 65.8465 344.777 68.1176 344.756 70.764C344.787 73.868 347.312 76.3678 350.416 76.3676C351.953 76.3427 353.417 75.7122 354.491 74.6129C355.216 73.8708 355.691 72.921 355.85 71.896C359.387 71.9094 362.724 70.2518 364.85 67.4244L365.925 65.8395C368.359 65.6697 369.887 64.1414 369.887 61.9339V54.8585C369.887 52.4249 368.076 49.5381 365.472 49.5381ZM335.36 63.6888H332.416C331.198 63.6591 330.234 62.6471 330.263 61.4282C330.264 61.4082 330.265 61.3882 330.266 61.368V54.2927C330.266 52.9909 331.171 51.8021 332.416 51.8021H335.36V63.6888ZM352.85 73.0282C352.223 73.7084 351.341 74.0979 350.416 74.1037C348.575 74.0745 347.08 72.6049 347.02 70.7641C347.019 68.9197 348.514 67.424 350.358 67.4232C352.203 67.4224 353.698 68.917 353.699 70.7614C353.699 70.7623 353.699 70.7632 353.699 70.7641C353.746 71.6045 353.438 72.4261 352.85 73.0282ZM367.623 61.9341C367.623 63.4624 366.152 63.6888 365.472 63.6888H363.095V51.8022H365.472C366.718 51.8022 367.623 53.5569 367.623 54.8588V61.9341Z" fill="#F5E427"/>
<path d="M37.8285 112C37.4872 112 37.2205 111.909 37.0285 111.728C36.8365 111.536 36.7405 111.253 36.7405 110.88C36.7405 110.496 36.8365 110.213 37.0285 110.032C37.2205 109.84 37.4872 109.744 37.8285 109.744C38.1698 109.744 38.4365 109.84 38.6285 110.032C38.8312 110.213 38.9325 110.496 38.9325 110.88C38.9325 111.253 38.8312 111.536 38.6285 111.728C38.4365 111.909 38.1698 112 37.8285 112ZM43.7634 110.24C44.1367 110.24 44.3927 110.165 44.5314 110.016C44.67 109.867 44.7394 109.717 44.7394 109.568C44.7394 109.483 44.7234 109.376 44.6914 109.248C44.6594 109.109 44.5954 108.891 44.4994 108.592C44.4034 108.283 44.2594 107.861 44.0674 107.328C43.886 106.795 43.6354 106.096 43.3154 105.232L44.8674 104.576L46.5154 109.184C46.6434 109.557 46.7927 109.829 46.9634 110C47.1447 110.16 47.422 110.24 47.7954 110.24H48.0034C48.238 110.24 48.3554 110.523 48.3554 111.088C48.3554 111.696 48.238 112 48.0034 112H47.7954C47.4434 112 47.102 111.936 46.7714 111.808C46.4514 111.68 46.158 111.408 45.8914 110.992C45.6674 111.376 45.3847 111.643 45.0434 111.792C44.7127 111.931 44.35 112 43.9554 112H40.5154L40.4354 110.24H43.7634ZM49.12 110.24C49.8347 110.24 50.192 109.893 50.192 109.2V107.312H51.84V109.2C51.84 109.573 51.952 109.84 52.176 110C52.4107 110.16 52.6827 110.24 52.992 110.24H53.408C53.6533 110.24 53.776 110.523 53.776 111.088C53.776 111.696 53.6533 112 53.408 112H52.944C52.5387 112 52.1707 111.936 51.84 111.808C51.5093 111.669 51.2213 111.397 50.976 110.992C50.7093 111.397 50.4213 111.669 50.112 111.808C49.8027 111.936 49.472 112 49.12 112H48C47.8613 112 47.7707 111.931 47.728 111.792C47.6747 111.643 47.648 111.429 47.648 111.152C47.648 110.843 47.6747 110.613 47.728 110.464C47.7707 110.315 47.8613 110.24 48 110.24H49.12ZM52.672 115.36H51.024V113.792H52.672V115.36ZM50.368 115.36H48.72V113.792H50.368V115.36ZM54.5263 110.24C55.2409 110.24 55.5983 109.893 55.5983 109.2V107.312H57.2463V109.2C57.2463 109.573 57.3583 109.84 57.5823 110C57.8169 110.16 58.0889 110.24 58.3983 110.24H58.8143C59.0596 110.24 59.1823 110.523 59.1823 111.088C59.1823 111.696 59.0596 112 58.8143 112H58.3503C57.9449 112 57.5769 111.936 57.2463 111.808C56.9156 111.669 56.6276 111.397 56.3823 110.992C56.1156 111.397 55.8276 111.669 55.5182 111.808C55.2089 111.936 54.8783 112 54.5263 112H53.4062C53.2676 112 53.1769 111.931 53.1342 111.792C53.0809 111.643 53.0542 111.429 53.0542 111.152C53.0542 110.843 53.0809 110.613 53.1342 110.464C53.1769 110.315 53.2676 110.24 53.4062 110.24H54.5263ZM57.1823 105.44H55.3743V103.808H57.1823V105.44ZM62.7805 110.24C63.0685 110.24 63.2658 110.181 63.3725 110.064C63.4898 109.947 63.5485 109.803 63.5485 109.632C63.5485 109.472 63.5165 109.317 63.4525 109.168C63.3992 109.008 63.2765 108.837 63.0845 108.656L60.0605 105.632V103.808L65.3565 101.808L65.7245 103.44L61.6445 104.944L63.9965 107.328C64.2632 107.595 64.4818 107.84 64.6525 108.064C64.8232 108.277 64.9565 108.485 65.0525 108.688C65.1485 108.88 65.2125 109.077 65.2445 109.28C65.2872 109.472 65.3085 109.675 65.3085 109.888C65.3085 110.261 65.2445 110.581 65.1165 110.848C64.9992 111.115 64.8338 111.333 64.6205 111.504C64.4178 111.675 64.1725 111.803 63.8845 111.888C63.6072 111.963 63.3032 112 62.9725 112H58.8125C58.6738 112 58.5832 111.931 58.5405 111.792C58.4872 111.643 58.4605 111.429 58.4605 111.152C58.4605 110.843 58.4872 110.613 58.5405 110.464C58.5832 110.315 58.6738 110.24 58.8125 110.24H62.7805ZM72.7119 111.744C72.7119 112.32 72.6105 112.859 72.4079 113.36C72.2159 113.861 71.9439 114.299 71.5919 114.672C71.2505 115.045 70.8399 115.339 70.3599 115.552C69.8905 115.765 69.3839 115.872 68.8399 115.872H67.8319L67.7519 114.128H68.4239C68.9039 114.128 69.3145 114.059 69.6559 113.92C69.9865 113.792 70.2585 113.616 70.4719 113.392C70.6852 113.168 70.8399 112.912 70.9359 112.624C71.0319 112.336 71.0799 112.043 71.0799 111.744V107.312H72.7119V111.744ZM74.5709 102.08H76.2029V112H74.5709V102.08ZM80.1944 111.744C80.1944 112.32 80.0984 112.859 79.9064 113.36C79.7144 113.861 79.4477 114.299 79.1064 114.672C78.7757 115.045 78.3757 115.339 77.9064 115.552C77.4477 115.765 76.9464 115.872 76.4024 115.872H75.3944L75.3144 114.128H75.9864C76.4664 114.128 76.877 114.059 77.2184 113.92C77.549 113.792 77.821 113.616 78.0344 113.392C78.2477 113.168 78.4024 112.912 78.4984 112.624C78.5944 112.336 78.6424 112.043 78.6424 111.744V107.312H80.2744V109.216C80.2744 109.557 80.3757 109.813 80.5784 109.984C80.7917 110.155 81.0584 110.24 81.3784 110.24H81.5544C81.789 110.24 81.9064 110.523 81.9064 111.088C81.9064 111.696 81.789 112 81.5544 112H81.3784C81.165 112 80.9517 111.968 80.7384 111.904C80.525 111.829 80.3437 111.685 80.1944 111.472V111.744ZM82.9869 110.24C83.1575 110.24 83.3069 110.245 83.4349 110.256C83.5629 110.256 83.6802 110.261 83.7869 110.272C83.9042 110.283 84.0162 110.299 84.1229 110.32C84.2295 110.341 84.3469 110.368 84.4749 110.4C84.1015 110.24 83.8029 110.075 83.5789 109.904C83.3655 109.723 83.2002 109.531 83.0829 109.328C82.9655 109.125 82.8855 108.907 82.8429 108.672C82.8109 108.427 82.7949 108.16 82.7949 107.872C82.7949 107.584 82.8482 107.285 82.9549 106.976C83.0722 106.667 83.2429 106.389 83.4669 106.144C83.6909 105.899 83.9682 105.696 84.2989 105.536C84.6402 105.376 85.0295 105.296 85.4669 105.296C85.8829 105.296 86.2562 105.349 86.5869 105.456C86.9282 105.563 87.2215 105.739 87.4669 105.984C87.7122 106.229 87.8989 106.555 88.0269 106.96C88.1655 107.355 88.2349 107.845 88.2349 108.432V109.248C88.2349 110.112 87.9842 110.789 87.4829 111.28C86.9922 111.76 86.2135 112 85.1469 112H81.5469C81.4082 112 81.3175 111.931 81.2749 111.792C81.2215 111.643 81.1949 111.429 81.1949 111.152C81.1949 110.843 81.2215 110.613 81.2749 110.464C81.3175 110.315 81.4082 110.24 81.5469 110.24H82.9869ZM85.4029 107.056C85.0295 107.056 84.7522 107.179 84.5709 107.424C84.3895 107.659 84.2989 107.909 84.2989 108.176C84.2989 108.325 84.3149 108.469 84.3469 108.608C84.3895 108.736 84.4802 108.869 84.6189 109.008C84.7575 109.147 84.9655 109.296 85.2429 109.456C85.5202 109.616 85.9042 109.797 86.3949 110C86.4802 109.893 86.5442 109.749 86.5869 109.568C86.6402 109.376 86.6669 109.189 86.6669 109.008V108.592C86.6669 108.144 86.5762 107.776 86.3949 107.488C86.2135 107.2 85.8829 107.056 85.4029 107.056ZM87.3549 103.904H85.6909V102.336H87.3549V103.904ZM85.0669 103.904H83.4029V102.336H85.0669V103.904ZM92.9756 111.744C92.9756 112.32 92.8796 112.859 92.6876 113.36C92.4956 113.861 92.229 114.299 91.8876 114.672C91.557 115.045 91.157 115.339 90.6876 115.552C90.229 115.765 89.7276 115.872 89.1836 115.872H88.1756L88.0956 114.128H88.7676C89.2476 114.128 89.6583 114.059 89.9996 113.92C90.3303 113.792 90.6023 113.616 90.8156 113.392C91.029 113.168 91.1836 112.912 91.2796 112.624C91.3756 112.336 91.4236 112.043 91.4236 111.744V107.312H93.0556V109.216C93.0556 109.557 93.157 109.813 93.3596 109.984C93.573 110.155 93.8396 110.24 94.1596 110.24H94.3356C94.5703 110.24 94.6876 110.523 94.6876 111.088C94.6876 111.696 94.5703 112 94.3356 112H94.1596C93.9463 112 93.733 111.968 93.5196 111.904C93.3063 111.829 93.125 111.685 92.9756 111.472V111.744ZM95.8001 110.24C96.5148 110.24 96.8721 109.893 96.8721 109.2V107.312H98.5041V109.312C98.5041 110.197 98.2801 110.869 97.8321 111.328C97.3841 111.776 96.7548 112 95.9441 112H94.3281C94.1895 112 94.0988 111.931 94.0561 111.792C94.0028 111.643 93.9761 111.429 93.9761 111.152C93.9761 110.843 94.0028 110.613 94.0561 110.464C94.0988 110.315 94.1895 110.24 94.3281 110.24H95.8001ZM96.6321 115.424H94.8241V113.792H96.6321V115.424ZM103.706 102.08H105.338V106.496C105.338 106.805 105.332 107.093 105.322 107.36C105.322 107.616 105.306 107.888 105.274 108.176C105.818 107.397 106.33 106.832 106.81 106.48C107.3 106.128 107.807 105.952 108.33 105.952C108.756 105.952 109.14 106.032 109.482 106.192C109.834 106.352 110.127 106.571 110.362 106.848C110.607 107.115 110.794 107.44 110.922 107.824C111.05 108.197 111.114 108.597 111.114 109.024C111.114 109.397 111.055 109.76 110.938 110.112C110.831 110.464 110.66 110.784 110.426 111.072C110.191 111.349 109.892 111.573 109.53 111.744C109.167 111.915 108.735 112 108.234 112H102.346L102.25 110.24H103.706V102.08ZM109.482 109.024C109.482 108.693 109.37 108.395 109.146 108.128C108.932 107.851 108.618 107.712 108.202 107.712C108.01 107.712 107.818 107.755 107.626 107.84C107.434 107.925 107.226 108.069 107.002 108.272C106.778 108.475 106.527 108.736 106.25 109.056C105.983 109.376 105.674 109.771 105.322 110.24H108.314C108.655 110.24 108.932 110.139 109.146 109.936C109.37 109.723 109.482 109.419 109.482 109.024ZM115.107 112C114.809 112 114.521 111.963 114.243 111.888C113.977 111.803 113.742 111.664 113.539 111.472C113.337 111.28 113.177 111.029 113.059 110.72C112.942 110.4 112.883 110.005 112.883 109.536V102.08H114.515V109.136C114.515 109.477 114.59 109.749 114.739 109.952C114.899 110.144 115.134 110.24 115.443 110.24H115.811C116.046 110.24 116.163 110.523 116.163 111.088C116.163 111.696 116.046 112 115.811 112H115.107ZM116.933 110.24C117.647 110.24 118.005 109.893 118.005 109.2V107.312H119.653V109.2C119.653 109.573 119.765 109.84 119.989 110C120.223 110.16 120.495 110.24 120.805 110.24H121.221C121.466 110.24 121.589 110.523 121.589 111.088C121.589 111.696 121.466 112 121.221 112H120.757C120.351 112 119.983 111.936 119.653 111.808C119.322 111.669 119.034 111.397 118.789 110.992C118.522 111.397 118.234 111.669 117.924 111.808C117.615 111.936 117.285 112 116.933 112H115.812C115.674 112 115.583 111.931 115.54 111.792C115.487 111.643 115.46 111.429 115.46 111.152C115.46 110.843 115.487 110.613 115.54 110.464C115.583 110.315 115.674 110.24 115.812 110.24H116.933ZM119.317 115.424H117.509V113.792H119.317V115.424ZM122.691 110.24C123.405 110.24 123.763 109.893 123.763 109.2V107.312H125.395V109.312C125.395 110.197 125.171 110.869 124.723 111.328C124.275 111.776 123.645 112 122.835 112H121.219C121.08 112 120.989 111.931 120.947 111.792C120.893 111.643 120.867 111.429 120.867 111.152C120.867 110.843 120.893 110.613 120.947 110.464C120.989 110.315 121.08 110.24 121.219 110.24H122.691ZM125.443 105.44H123.779V103.872H125.443V105.44ZM123.155 105.44H121.491V103.872H123.155V105.44ZM129.29 111.744C129.29 112.32 129.189 112.859 128.986 113.36C128.794 113.861 128.522 114.299 128.17 114.672C127.829 115.045 127.418 115.339 126.938 115.552C126.469 115.765 125.962 115.872 125.418 115.872H124.41L124.33 114.128H125.002C125.482 114.128 125.893 114.059 126.234 113.92C126.565 113.792 126.837 113.616 127.05 113.392C127.263 113.168 127.418 112.912 127.514 112.624C127.61 112.336 127.658 112.043 127.658 111.744V107.312H129.29V111.744ZM131.149 102.08H132.781V112H131.149V102.08ZM142.047 114.128C142.516 114.128 142.906 114.096 143.215 114.032C143.535 113.968 143.786 113.877 143.967 113.76C144.159 113.643 144.292 113.499 144.367 113.328C144.452 113.168 144.495 112.992 144.495 112.8C144.495 112.587 144.436 112.4 144.319 112.24C144.202 112.08 144.004 112 143.727 112H141.423L141.519 110.24H147.071C147.306 110.24 147.423 110.523 147.423 111.088C147.423 111.696 147.306 112 147.071 112H145.695C145.834 112.107 145.924 112.245 145.967 112.416C146.02 112.587 146.047 112.795 146.047 113.04C146.047 113.328 145.983 113.637 145.855 113.968C145.727 114.299 145.514 114.603 145.215 114.88C144.927 115.168 144.538 115.403 144.047 115.584C143.567 115.776 142.975 115.872 142.271 115.872H140.575C139.38 115.872 138.452 115.504 137.791 114.768C137.13 114.032 136.799 113.024 136.799 111.744V108.88H138.415V111.68C138.415 112.053 138.458 112.389 138.543 112.688C138.628 112.987 138.762 113.243 138.943 113.456C139.135 113.669 139.38 113.835 139.679 113.952C139.988 114.069 140.362 114.128 140.799 114.128H142.047ZM148.55 110.24C149.265 110.24 149.622 109.893 149.622 109.2V107.312H151.254V109.312C151.254 110.197 151.03 110.869 150.582 111.328C150.134 111.776 149.505 112 148.694 112H147.078C146.939 112 146.849 111.931 146.806 111.792C146.753 111.643 146.726 111.429 146.726 111.152C146.726 110.843 146.753 110.613 146.806 110.464C146.849 110.315 146.939 110.24 147.078 110.24H148.55ZM151.03 115.36H149.382V113.792H151.03V115.36ZM148.726 115.36H147.078V113.792H148.726V115.36ZM154.413 114.128C154.819 114.128 155.165 114.069 155.453 113.952C155.752 113.845 155.997 113.696 156.189 113.504C156.381 113.312 156.531 113.083 156.637 112.816C156.744 112.56 156.808 112.288 156.829 112H155.741C155.187 112 154.733 111.941 154.381 111.824C154.029 111.707 153.752 111.536 153.549 111.312C153.347 111.077 153.203 110.795 153.117 110.464C153.043 110.133 153.005 109.76 153.005 109.344C153.005 108.928 153.064 108.539 153.181 108.176C153.299 107.803 153.469 107.477 153.693 107.2C153.928 106.923 154.216 106.704 154.557 106.544C154.899 106.373 155.293 106.288 155.741 106.288C156.104 106.288 156.445 106.347 156.765 106.464C157.096 106.581 157.384 106.768 157.629 107.024C157.875 107.28 158.067 107.611 158.205 108.016C158.355 108.421 158.429 108.917 158.429 109.504V110.24H159.725C159.96 110.24 160.077 110.523 160.077 111.088C160.077 111.696 159.96 112 159.725 112H158.397C158.376 112.523 158.269 113.019 158.077 113.488C157.885 113.957 157.619 114.368 157.277 114.72C156.947 115.072 156.547 115.349 156.077 115.552C155.608 115.765 155.08 115.872 154.493 115.872H152.877L152.781 114.128H154.413ZM154.573 109.232C154.573 109.605 154.653 109.867 154.813 110.016C154.984 110.165 155.315 110.24 155.805 110.24H156.861V109.488C156.861 108.933 156.755 108.544 156.541 108.32C156.339 108.096 156.051 107.984 155.677 107.984C155.325 107.984 155.053 108.091 154.861 108.304C154.669 108.517 154.573 108.827 154.573 109.232ZM160.839 110.24C161.553 110.24 161.911 109.893 161.911 109.2V107.312H163.559V109.2C163.559 109.573 163.671 109.84 163.895 110C164.129 110.16 164.401 110.24 164.711 110.24H165.127C165.372 110.24 165.495 110.523 165.495 111.088C165.495 111.696 165.372 112 165.127 112H164.663C164.257 112 163.889 111.936 163.559 111.808C163.228 111.669 162.94 111.397 162.695 110.992C162.428 111.397 162.14 111.669 161.831 111.808C161.521 111.936 161.191 112 160.839 112H159.719C159.58 112 159.489 111.931 159.447 111.792C159.393 111.643 159.367 111.429 159.367 111.152C159.367 110.843 159.393 110.613 159.447 110.464C159.489 110.315 159.58 110.24 159.719 110.24H160.839ZM164.503 105.44H162.839V103.872H164.503V105.44ZM162.215 105.44H160.551V103.872H162.215V105.44ZM166.245 110.24C166.96 110.24 167.317 109.893 167.317 109.2V107.312H168.965V109.2C168.965 109.573 169.077 109.84 169.301 110C169.536 110.16 169.808 110.24 170.117 110.24H170.533C170.778 110.24 170.901 110.523 170.901 111.088C170.901 111.696 170.778 112 170.533 112H170.069C169.664 112 169.296 111.936 168.965 111.808C168.634 111.669 168.346 111.397 168.101 110.992C167.834 111.397 167.546 111.669 167.237 111.808C166.928 111.936 166.597 112 166.245 112H165.125C164.986 112 164.896 111.931 164.853 111.792C164.8 111.643 164.773 111.429 164.773 111.152C164.773 110.843 164.8 110.613 164.853 110.464C164.896 110.315 164.986 110.24 165.125 110.24H166.245ZM168.453 117.6H166.757V116.032H168.453V117.6ZM169.573 115.36H167.909V113.792H169.573V115.36ZM167.285 115.36H165.621V113.792H167.285V115.36ZM170.531 112C170.393 112 170.302 111.931 170.259 111.792C170.206 111.643 170.179 111.429 170.179 111.152C170.179 110.843 170.206 110.613 170.259 110.464C170.302 110.315 170.393 110.24 170.531 110.24H174.211C174.926 110.24 175.283 109.893 175.283 109.2V107.312H176.915V109.312C176.915 110.197 176.686 110.869 176.227 111.328C175.779 111.776 175.15 112 174.339 112H170.531ZM174.851 115.36H173.203V113.792H174.851V115.36ZM172.547 115.36H170.899V113.792H172.547V115.36ZM180.79 109.216C180.79 109.557 180.896 109.813 181.11 109.984C181.323 110.155 181.59 110.24 181.91 110.24H182.086C182.32 110.24 182.438 110.523 182.438 111.088C182.438 111.696 182.32 112 182.086 112H181.91C181.696 112 181.478 111.968 181.254 111.904C181.04 111.829 180.859 111.685 180.71 111.472V111.744C180.71 112.32 180.614 112.859 180.422 113.36C180.23 113.861 179.963 114.299 179.622 114.672C179.291 115.045 178.891 115.339 178.422 115.552C177.963 115.765 177.462 115.872 176.918 115.872H176.518L176.39 114.128H176.646C177.094 114.128 177.478 114.059 177.798 113.92C178.118 113.792 178.374 113.616 178.566 113.392C178.768 113.168 178.918 112.912 179.014 112.624C179.11 112.336 179.158 112.043 179.158 111.744V107.312H180.79V109.216ZM186.031 110.24C186.319 110.24 186.516 110.181 186.623 110.064C186.74 109.947 186.799 109.803 186.799 109.632C186.799 109.472 186.767 109.317 186.703 109.168C186.649 109.008 186.527 108.837 186.335 108.656L183.311 105.632V103.808L188.607 101.808L188.975 103.44L184.895 104.944L187.247 107.328C187.727 107.808 188.137 108.213 188.479 108.544C188.831 108.875 189.135 109.147 189.391 109.36C189.657 109.573 189.887 109.744 190.079 109.872C190.281 109.989 190.468 110.075 190.639 110.128C190.809 110.181 190.975 110.213 191.135 110.224C191.305 110.235 191.497 110.24 191.711 110.24C191.849 110.24 191.94 110.315 191.983 110.464C192.036 110.603 192.062 110.811 192.062 111.088C192.062 111.397 192.036 111.627 191.983 111.776C191.94 111.925 191.849 112 191.711 112C191.391 112 191.097 111.984 190.831 111.952C190.575 111.92 190.324 111.856 190.079 111.76C189.833 111.653 189.572 111.499 189.295 111.296C189.017 111.083 188.703 110.8 188.351 110.448C188.276 111.003 188.036 111.403 187.631 111.648C187.236 111.883 186.767 112 186.223 112H182.062C181.924 112 181.833 111.931 181.79 111.792C181.737 111.643 181.71 111.429 181.71 111.152C181.71 110.843 181.737 110.613 181.79 110.464C181.833 110.315 181.924 110.24 182.062 110.24H186.031ZM192.407 110.24C193.143 110.24 193.511 109.893 193.511 109.2V107.312H195.127V109.2C195.127 109.573 195.239 109.84 195.463 110C195.698 110.16 195.964 110.24 196.263 110.24C197.063 110.24 197.463 109.893 197.463 109.2V107.312H199.095V109.2C199.095 109.573 199.191 109.84 199.383 110C199.586 110.16 199.82 110.24 200.087 110.24C200.759 110.24 201.095 109.893 201.095 109.2V107.312H202.727V109.2C202.727 109.573 202.839 109.84 203.063 110C203.298 110.16 203.559 110.24 203.847 110.24H204.215C204.354 110.24 204.444 110.315 204.487 110.464C204.54 110.603 204.567 110.811 204.567 111.088C204.567 111.397 204.54 111.627 204.487 111.776C204.444 111.925 204.354 112 204.215 112H203.847C203.442 112 203.068 111.936 202.727 111.808C202.396 111.669 202.108 111.397 201.863 110.992C201.607 111.397 201.314 111.669 200.983 111.808C200.663 111.936 200.364 112 200.087 112C199.714 112 199.372 111.936 199.063 111.808C198.764 111.669 198.492 111.397 198.247 110.992C197.991 111.397 197.687 111.669 197.335 111.808C196.994 111.936 196.636 112 196.263 112C195.858 112 195.484 111.936 195.143 111.808C194.812 111.669 194.524 111.397 194.279 110.992C194.023 111.397 193.735 111.669 193.415 111.808C193.095 111.936 192.754 112 192.391 112H191.703C191.564 112 191.474 111.931 191.431 111.792C191.378 111.643 191.351 111.429 191.351 111.152C191.351 110.843 191.378 110.613 191.431 110.464C191.474 110.315 191.564 110.24 191.703 110.24H192.407ZM208.187 110.24C208.475 110.24 208.672 110.181 208.779 110.064C208.896 109.947 208.955 109.803 208.955 109.632C208.955 109.472 208.923 109.317 208.859 109.168C208.805 109.008 208.683 108.837 208.491 108.656L205.467 105.632V103.808L210.763 101.808L211.131 103.44L207.051 104.944L209.403 107.328C209.669 107.595 209.888 107.84 210.059 108.064C210.229 108.277 210.363 108.485 210.459 108.688C210.555 108.88 210.619 109.077 210.651 109.28C210.693 109.472 210.715 109.675 210.715 109.888C210.715 110.261 210.651 110.581 210.523 110.848C210.405 111.115 210.24 111.333 210.027 111.504C209.824 111.675 209.579 111.803 209.291 111.888C209.013 111.963 208.709 112 208.379 112H204.219C204.08 112 203.989 111.931 203.947 111.792C203.893 111.643 203.867 111.429 203.867 111.152C203.867 110.843 203.893 110.613 203.947 110.464C203.989 110.315 204.08 110.24 204.219 110.24H208.187ZM212.587 102.08H214.219V112H212.587V102.08ZM223.484 114.128C223.954 114.128 224.343 114.096 224.652 114.032C224.972 113.968 225.223 113.877 225.404 113.76C225.596 113.643 225.73 113.499 225.804 113.328C225.89 113.168 225.932 112.992 225.932 112.8C225.932 112.587 225.874 112.4 225.756 112.24C225.639 112.08 225.442 112 225.164 112H222.86L222.956 110.24H228.508C228.743 110.24 228.86 110.523 228.86 111.088C228.86 111.696 228.743 112 228.508 112H227.132C227.271 112.107 227.362 112.245 227.404 112.416C227.458 112.587 227.484 112.795 227.484 113.04C227.484 113.328 227.42 113.637 227.292 113.968C227.164 114.299 226.951 114.603 226.652 114.88C226.364 115.168 225.975 115.403 225.484 115.584C225.004 115.776 224.412 115.872 223.708 115.872H222.012C220.818 115.872 219.89 115.504 219.228 114.768C218.567 114.032 218.236 113.024 218.236 111.744V108.88H219.852V111.68C219.852 112.053 219.895 112.389 219.98 112.688C220.066 112.987 220.199 113.243 220.38 113.456C220.572 113.669 220.818 113.835 221.116 113.952C221.426 114.069 221.799 114.128 222.236 114.128H223.484ZM229.988 110.24C230.702 110.24 231.06 109.893 231.06 109.2V107.312H232.692V109.312C232.692 110.197 232.468 110.869 232.02 111.328C231.572 111.776 230.942 112 230.132 112H228.516C228.377 112 228.286 111.931 228.244 111.792C228.19 111.643 228.164 111.429 228.164 111.152C228.164 110.843 228.19 110.613 228.244 110.464C228.286 110.315 228.377 110.24 228.516 110.24H229.988ZM232.196 105.44H230.388V103.808H232.196V105.44ZM236.795 112C236.496 112 236.208 111.963 235.931 111.888C235.664 111.803 235.43 111.664 235.227 111.472C235.024 111.28 234.864 111.029 234.747 110.72C234.63 110.4 234.571 110.005 234.571 109.536V102.08H236.203V109.136C236.203 109.477 236.278 109.749 236.427 109.952C236.587 110.144 236.822 110.24 237.131 110.24H237.499C237.734 110.24 237.851 110.523 237.851 111.088C237.851 111.696 237.734 112 237.499 112H236.795ZM238.62 110.24C239.335 110.24 239.692 109.893 239.692 109.2V107.312H241.34V109.2C241.34 109.573 241.452 109.84 241.676 110C241.911 110.16 242.183 110.24 242.492 110.24H242.908C243.153 110.24 243.276 110.523 243.276 111.088C243.276 111.696 243.153 112 242.908 112H242.444C242.039 112 241.671 111.936 241.34 111.808C241.009 111.669 240.721 111.397 240.476 110.992C240.209 111.397 239.921 111.669 239.612 111.808C239.303 111.936 238.972 112 238.62 112H237.5C237.361 112 237.271 111.931 237.228 111.792C237.175 111.643 237.148 111.429 237.148 111.152C237.148 110.843 237.175 110.613 237.228 110.464C237.271 110.315 237.361 110.24 237.5 110.24H238.62ZM241.004 115.424H239.196V113.792H241.004V115.424ZM244.026 110.24C244.741 110.24 245.098 109.893 245.098 109.2V107.312H246.746V109.2C246.746 109.573 246.858 109.84 247.082 110C247.317 110.16 247.589 110.24 247.898 110.24H248.314C248.56 110.24 248.682 110.523 248.682 111.088C248.682 111.696 248.56 112 248.314 112H247.85C247.445 112 247.077 111.936 246.746 111.808C246.416 111.669 246.128 111.397 245.882 110.992C245.616 111.397 245.328 111.669 245.018 111.808C244.709 111.936 244.378 112 244.026 112H242.906C242.768 112 242.677 111.931 242.634 111.792C242.581 111.643 242.554 111.429 242.554 111.152C242.554 110.843 242.581 110.613 242.634 110.464C242.677 110.315 242.768 110.24 242.906 110.24H244.026ZM247.578 115.36H245.93V113.792H247.578V115.36ZM245.274 115.36H243.626V113.792H245.274V115.36ZM249.433 110.24C250.147 110.24 250.505 109.893 250.505 109.2V107.312H252.153V109.2C252.153 109.573 252.265 109.84 252.489 110C252.723 110.16 252.995 110.24 253.305 110.24H253.721C253.966 110.24 254.089 110.523 254.089 111.088C254.089 111.696 253.966 112 253.721 112H253.257C252.851 112 252.483 111.936 252.153 111.808C251.822 111.669 251.534 111.397 251.289 110.992C251.022 111.397 250.734 111.669 250.424 111.808C250.115 111.936 249.785 112 249.433 112H248.312C248.174 112 248.083 111.931 248.04 111.792C247.987 111.643 247.96 111.429 247.96 111.152C247.96 110.843 247.987 110.613 248.04 110.464C248.083 110.315 248.174 110.24 248.312 110.24H249.433ZM253.097 105.44H251.433V103.872H253.097V105.44ZM250.809 105.44H249.145V103.872H250.809V105.44ZM254.423 110.24C255.159 110.24 255.527 109.893 255.527 109.2V107.312H257.143V109.2C257.143 109.573 257.255 109.84 257.479 110C257.713 110.16 257.98 110.24 258.279 110.24C259.079 110.24 259.479 109.893 259.479 109.2V107.312H261.111V109.2C261.111 109.573 261.207 109.84 261.399 110C261.601 110.16 261.836 110.24 262.103 110.24C262.775 110.24 263.111 109.893 263.111 109.2V107.312H264.743V109.2C264.743 109.573 264.855 109.84 265.079 110C265.313 110.16 265.575 110.24 265.863 110.24H266.231C266.369 110.24 266.46 110.315 266.503 110.464C266.556 110.603 266.583 110.811 266.583 111.088C266.583 111.397 266.556 111.627 266.503 111.776C266.46 111.925 266.369 112 266.231 112H265.863C265.457 112 265.084 111.936 264.743 111.808C264.412 111.669 264.124 111.397 263.879 110.992C263.623 111.397 263.329 111.669 262.999 111.808C262.679 111.936 262.38 112 262.103 112C261.729 112 261.388 111.936 261.079 111.808C260.78 111.669 260.508 111.397 260.263 110.992C260.007 111.397 259.703 111.669 259.351 111.808C259.009 111.936 258.652 112 258.279 112C257.873 112 257.5 111.936 257.159 111.808C256.828 111.669 256.54 111.397 256.295 110.992C256.039 111.397 255.751 111.669 255.431 111.808C255.111 111.936 254.769 112 254.407 112H253.719C253.58 112 253.489 111.931 253.447 111.792C253.393 111.643 253.367 111.429 253.367 111.152C253.367 110.843 253.393 110.613 253.447 110.464C253.489 110.315 253.58 110.24 253.719 110.24H254.423ZM261.127 103.2H259.431V101.648H261.127V103.2ZM262.247 105.44H260.583V103.872H262.247V105.44ZM259.959 105.44H258.295V103.872H259.959V105.44ZM267.706 110.24C268.421 110.24 268.778 109.893 268.778 109.2V107.312H270.41V109.312C270.41 110.197 270.186 110.869 269.738 111.328C269.29 111.776 268.661 112 267.85 112H266.234C266.096 112 266.005 111.931 265.962 111.792C265.909 111.643 265.882 111.429 265.882 111.152C265.882 110.843 265.909 110.613 265.962 110.464C266.005 110.315 266.096 110.24 266.234 110.24H267.706ZM269.082 117.6H267.386V116.032H269.082V117.6ZM270.202 115.36H268.538V113.792H270.202V115.36ZM267.914 115.36H266.25V113.792H267.914V115.36ZM276.748 112C276.449 112 276.161 111.963 275.884 111.888C275.617 111.803 275.383 111.664 275.18 111.472C274.977 111.28 274.817 111.029 274.7 110.72C274.583 110.4 274.524 110.005 274.524 109.536V102.08H276.156V109.136C276.156 109.477 276.231 109.749 276.38 109.952C276.54 110.144 276.775 110.24 277.084 110.24H277.452C277.687 110.24 277.804 110.523 277.804 111.088C277.804 111.696 277.687 112 277.452 112H276.748ZM278.925 110.24C279.64 110.24 279.997 109.893 279.997 109.2V107.312H281.629V109.312C281.629 110.197 281.405 110.869 280.957 111.328C280.509 111.776 279.88 112 279.069 112H277.453C277.314 112 277.224 111.931 277.181 111.792C277.128 111.643 277.101 111.429 277.101 111.152C277.101 110.843 277.128 110.613 277.181 110.464C277.224 110.315 277.314 110.24 277.453 110.24H278.925ZM279.757 115.424H277.949V113.792H279.757V115.424ZM289.087 105.344C289.087 104.427 288.756 103.968 288.095 103.968C287.817 103.968 287.599 104.053 287.439 104.224C287.279 104.384 287.199 104.587 287.199 104.832C287.199 105.045 287.257 105.237 287.375 105.408C287.503 105.568 287.7 105.781 287.967 106.048C288.169 106.261 288.335 106.453 288.463 106.624C288.591 106.795 288.687 106.987 288.751 107.2C288.825 107.413 288.873 107.664 288.895 107.952C288.916 108.24 288.927 108.608 288.927 109.056H287.359C287.359 108.725 287.353 108.459 287.343 108.256C287.332 108.053 287.3 107.883 287.247 107.744C287.204 107.595 287.129 107.456 287.023 107.328C286.916 107.189 286.772 107.019 286.591 106.816C286.281 106.475 286.047 106.144 285.887 105.824C285.727 105.493 285.647 105.115 285.647 104.688C285.647 104.336 285.711 104.016 285.839 103.728C285.967 103.429 286.137 103.173 286.351 102.96C286.575 102.747 286.836 102.581 287.135 102.464C287.433 102.347 287.759 102.288 288.111 102.288C288.996 102.288 289.631 102.565 290.015 103.12C290.399 103.675 290.591 104.416 290.591 105.344H289.087ZM288.063 112C287.764 112 287.524 111.925 287.343 111.776C287.172 111.627 287.087 111.381 287.087 111.04C287.087 110.699 287.172 110.453 287.343 110.304C287.524 110.155 287.764 110.08 288.063 110.08C288.361 110.08 288.596 110.155 288.767 110.304C288.937 110.453 289.023 110.699 289.023 111.04C289.023 111.381 288.937 111.627 288.767 111.776C288.596 111.925 288.361 112 288.063 112ZM295.42 110.24C295.793 110.24 296.049 110.165 296.188 110.016C296.326 109.867 296.396 109.717 296.396 109.568C296.396 109.483 296.38 109.376 296.348 109.248C296.316 109.109 296.252 108.891 296.156 108.592C296.06 108.283 295.916 107.861 295.724 107.328C295.542 106.795 295.292 106.096 294.972 105.232L296.524 104.576L298.172 109.184C298.3 109.557 298.449 109.829 298.62 110C298.801 110.16 299.078 110.24 299.452 110.24H299.66C299.894 110.24 300.012 110.523 300.012 111.088C300.012 111.696 299.894 112 299.66 112H299.452C299.1 112 298.758 111.936 298.428 111.808C298.108 111.68 297.814 111.408 297.548 110.992C297.324 111.376 297.041 111.643 296.7 111.792C296.369 111.931 296.006 112 295.612 112H292.172L292.092 110.24H295.42ZM299.656 112C299.518 112 299.427 111.931 299.384 111.792C299.331 111.643 299.304 111.429 299.304 111.152C299.304 110.843 299.331 110.613 299.384 110.464C299.427 110.315 299.518 110.24 299.656 110.24H303.336C304.051 110.24 304.408 109.893 304.408 109.2V107.312H306.04V109.312C306.04 110.197 305.811 110.869 305.352 111.328C304.904 111.776 304.275 112 303.464 112H299.656ZM303.976 115.36H302.328V113.792H303.976V115.36ZM301.672 115.36H300.024V113.792H301.672V115.36ZM305.515 114.128H305.771C306.219 114.128 306.603 114.059 306.923 113.92C307.243 113.792 307.499 113.616 307.691 113.392C307.893 113.168 308.043 112.912 308.139 112.624C308.235 112.336 308.283 112.043 308.283 111.744V107.312H309.915V111.744C309.915 112.32 309.813 112.859 309.611 113.36C309.419 113.861 309.147 114.299 308.795 114.672C308.453 115.045 308.043 115.339 307.563 115.552C307.093 115.765 306.587 115.872 306.043 115.872H305.643L305.515 114.128ZM311.774 102.08H313.406V112H311.774V102.08ZM320.95 108C321.238 108.331 321.446 108.661 321.574 108.992C321.712 109.312 321.782 109.627 321.782 109.936C321.782 110.224 321.728 110.496 321.622 110.752C321.526 110.997 321.376 111.216 321.174 111.408C320.971 111.589 320.715 111.733 320.406 111.84C320.107 111.947 319.76 112 319.366 112H315.094L315.014 110.24H319.094C319.616 110.24 319.878 110.043 319.878 109.648C319.878 109.456 319.787 109.259 319.606 109.056L316.886 105.952L318.15 104.768L320.95 108ZM330.766 114.128C331.235 114.128 331.624 114.096 331.934 114.032C332.254 113.968 332.504 113.877 332.686 113.76C332.878 113.643 333.011 113.499 333.086 113.328C333.171 113.168 333.214 112.992 333.214 112.8C333.214 112.587 333.155 112.4 333.038 112.24C332.92 112.08 332.723 112 332.446 112H330.142L330.238 110.24H335.79C336.024 110.24 336.142 110.523 336.142 111.088C336.142 111.696 336.024 112 335.79 112H334.414C334.552 112.107 334.643 112.245 334.686 112.416C334.739 112.587 334.766 112.795 334.766 113.04C334.766 113.328 334.702 113.637 334.574 113.968C334.446 114.299 334.232 114.603 333.934 114.88C333.646 115.168 333.256 115.403 332.766 115.584C332.286 115.776 331.694 115.872 330.99 115.872H329.294C328.099 115.872 327.171 115.504 326.51 114.768C325.848 114.032 325.518 113.024 325.518 111.744V108.88H327.134V111.68C327.134 112.053 327.176 112.389 327.262 112.688C327.347 112.987 327.48 113.243 327.662 113.456C327.854 113.669 328.099 113.835 328.398 113.952C328.707 114.069 329.08 114.128 329.518 114.128H330.766ZM336.165 110.24C336.89 110.24 337.253 109.893 337.253 109.2V102.08H338.885V109.2C338.885 109.573 338.997 109.84 339.221 110C339.456 110.16 339.733 110.24 340.053 110.24H340.309C340.544 110.24 340.661 110.523 340.661 111.088C340.661 111.696 340.544 112 340.309 112H339.989C339.594 112 339.226 111.936 338.885 111.808C338.544 111.669 338.25 111.397 338.005 110.992C337.76 111.397 337.477 111.669 337.157 111.808C336.848 111.936 336.517 112 336.165 112H335.797C335.658 112 335.568 111.931 335.525 111.792C335.472 111.643 335.445 111.429 335.445 111.152C335.445 110.843 335.472 110.613 335.525 110.464C335.568 110.315 335.658 110.24 335.797 110.24H336.165ZM344.281 110.24C344.569 110.24 344.766 110.181 344.873 110.064C344.99 109.947 345.049 109.803 345.049 109.632C345.049 109.472 345.017 109.317 344.953 109.168C344.899 109.008 344.777 108.837 344.585 108.656L341.561 105.632V103.808L346.857 101.808L347.225 103.44L343.145 104.944L345.497 107.328C345.977 107.808 346.387 108.213 346.729 108.544C347.081 108.875 347.385 109.147 347.641 109.36C347.907 109.573 348.137 109.744 348.329 109.872C348.531 109.989 348.718 110.075 348.889 110.128C349.059 110.181 349.225 110.213 349.385 110.224C349.555 110.235 349.747 110.24 349.961 110.24C350.099 110.24 350.19 110.315 350.233 110.464C350.286 110.603 350.312 110.811 350.312 111.088C350.312 111.397 350.286 111.627 350.233 111.776C350.19 111.925 350.099 112 349.961 112C349.641 112 349.347 111.984 349.081 111.952C348.825 111.92 348.574 111.856 348.329 111.76C348.083 111.653 347.822 111.499 347.545 111.296C347.267 111.083 346.953 110.8 346.601 110.448C346.526 111.003 346.286 111.403 345.881 111.648C345.486 111.883 345.017 112 344.473 112H340.312C340.174 112 340.083 111.931 340.04 111.792C339.987 111.643 339.96 111.429 339.96 111.152C339.96 110.843 339.987 110.613 340.04 110.464C340.083 110.315 340.174 110.24 340.312 110.24H344.281ZM350.657 110.24C351.393 110.24 351.761 109.893 351.761 109.2V107.312H353.377V109.2C353.377 109.573 353.489 109.84 353.713 110C353.948 110.16 354.214 110.24 354.513 110.24C355.313 110.24 355.713 109.893 355.713 109.2V107.312H357.345V109.2C357.345 109.573 357.441 109.84 357.633 110C357.836 110.16 358.07 110.24 358.337 110.24C359.009 110.24 359.345 109.893 359.345 109.2V107.312H360.977V109.2C360.977 109.573 361.089 109.84 361.313 110C361.548 110.16 361.809 110.24 362.097 110.24H362.465C362.604 110.24 362.694 110.315 362.737 110.464C362.79 110.603 362.817 110.811 362.817 111.088C362.817 111.397 362.79 111.627 362.737 111.776C362.694 111.925 362.604 112 362.465 112H362.097C361.692 112 361.318 111.936 360.977 111.808C360.646 111.669 360.358 111.397 360.113 110.992C359.857 111.397 359.564 111.669 359.233 111.808C358.913 111.936 358.614 112 358.337 112C357.964 112 357.622 111.936 357.313 111.808C357.014 111.669 356.742 111.397 356.497 110.992C356.241 111.397 355.937 111.669 355.585 111.808C355.244 111.936 354.886 112 354.513 112C354.108 112 353.734 111.936 353.393 111.808C353.062 111.669 352.774 111.397 352.529 110.992C352.273 111.397 351.985 111.669 351.665 111.808C351.345 111.936 351.004 112 350.641 112H349.953C349.814 112 349.724 111.931 349.681 111.792C349.628 111.643 349.601 111.429 349.601 111.152C349.601 110.843 349.628 110.613 349.681 110.464C349.724 110.315 349.814 110.24 349.953 110.24H350.657ZM357.361 103.2H355.665V101.648H357.361V103.2ZM358.481 105.44H356.817V103.872H358.481V105.44ZM356.193 105.44H354.529V103.872H356.193V105.44ZM362.613 110.24C362.975 110.24 363.258 110.171 363.461 110.032C363.663 109.883 363.765 109.643 363.765 109.312V108.96C363.765 108.533 363.823 108.139 363.941 107.776C364.069 107.413 364.25 107.104 364.485 106.848C364.719 106.592 365.002 106.395 365.333 106.256C365.674 106.107 366.053 106.032 366.469 106.032C366.906 106.032 367.29 106.107 367.621 106.256C367.962 106.395 368.245 106.597 368.469 106.864C368.693 107.12 368.863 107.429 368.981 107.792C369.098 108.155 369.157 108.549 369.157 108.976C369.157 109.936 368.911 110.683 368.421 111.216C367.941 111.739 367.285 112 366.453 112C366.026 112 365.615 111.92 365.221 111.76C364.837 111.589 364.543 111.323 364.341 110.96C364.138 111.376 363.877 111.653 363.557 111.792C363.237 111.931 362.922 112 362.613 112H362.469C362.33 112 362.239 111.931 362.197 111.792C362.143 111.643 362.117 111.429 362.117 111.152C362.117 110.843 362.143 110.613 362.197 110.464C362.239 110.315 362.33 110.24 362.469 110.24H362.613ZM367.589 109.088C367.589 108.725 367.503 108.421 367.333 108.176C367.173 107.931 366.879 107.808 366.453 107.808C366.047 107.808 365.754 107.931 365.573 108.176C365.402 108.411 365.317 108.72 365.317 109.104C365.317 109.477 365.418 109.76 365.621 109.952C365.823 110.144 366.101 110.24 366.453 110.24C367.21 110.24 367.589 109.856 367.589 109.088ZM69.7588 136.744C69.7588 137.32 69.6574 137.859 69.4548 138.36C69.2628 138.861 68.9908 139.299 68.6388 139.672C68.2974 140.045 67.8868 140.339 67.4068 140.552C66.9374 140.765 66.4307 140.872 65.8867 140.872H64.8787L64.7987 139.128H65.4707C65.9507 139.128 66.3614 139.059 66.7027 138.92C67.0334 138.792 67.3054 138.616 67.5188 138.392C67.7321 138.168 67.8868 137.912 67.9828 137.624C68.0788 137.336 68.1268 137.043 68.1268 136.744V132.312H69.7588V136.744ZM77.1058 133C77.3938 133.331 77.6018 133.661 77.7298 133.992C77.8684 134.312 77.9378 134.627 77.9378 134.936C77.9378 135.224 77.8844 135.496 77.7778 135.752C77.6818 135.997 77.5324 136.216 77.3298 136.408C77.1271 136.589 76.8711 136.733 76.5618 136.84C76.2631 136.947 75.9164 137 75.5218 137H71.2498L71.1698 135.24H75.2498C75.7724 135.24 76.0338 135.043 76.0338 134.648C76.0338 134.456 75.9431 134.259 75.7618 134.056L73.0418 130.952L74.3058 129.768L77.1058 133ZM84.4259 134.744C84.8419 134.744 85.1565 134.659 85.3699 134.488C85.5832 134.307 85.6899 134.067 85.6899 133.768V132.248H84.5699C84.1219 132.248 83.8019 132.381 83.6099 132.648C83.4179 132.904 83.3219 133.24 83.3219 133.656C83.3219 134.04 83.4072 134.317 83.5779 134.488C83.7592 134.659 84.0419 134.744 84.4259 134.744ZM87.2739 134.136C87.2739 134.477 87.3432 134.749 87.4819 134.952C87.6312 135.144 87.8659 135.24 88.1859 135.24H88.5539C88.6925 135.24 88.7832 135.315 88.8259 135.464C88.8792 135.603 88.9059 135.811 88.9059 136.088C88.9059 136.397 88.8792 136.627 88.8259 136.776C88.7832 136.925 88.6925 137 88.5539 137H88.1859C87.6419 137 87.1992 136.904 86.8579 136.712C86.5272 136.52 86.2765 136.195 86.1059 135.736C85.8392 136.035 85.5192 136.227 85.1459 136.312C84.7832 136.387 84.4312 136.424 84.0899 136.424C83.3325 136.424 82.7512 136.205 82.3459 135.768C81.9512 135.32 81.7539 134.659 81.7539 133.784C81.7539 133.389 81.8072 133.005 81.9139 132.632C82.0312 132.248 82.1965 131.907 82.4099 131.608C82.6339 131.309 82.9112 131.069 83.2419 130.888C83.5832 130.707 83.9779 130.616 84.4259 130.616H85.6899V129.544H87.2739V134.136ZM89.6669 135.24C90.3815 135.24 90.7389 134.893 90.7389 134.2V132.312H92.3869V134.2C92.3869 134.573 92.4989 134.84 92.7229 135C92.9575 135.16 93.2295 135.24 93.5389 135.24H93.9549C94.2002 135.24 94.3229 135.523 94.3229 136.088C94.3229 136.696 94.2002 137 93.9549 137H93.4909C93.0855 137 92.7175 136.936 92.3869 136.808C92.0562 136.669 91.7682 136.397 91.5229 135.992C91.2562 136.397 90.9682 136.669 90.6589 136.808C90.3495 136.936 90.0189 137 89.6669 137H88.5469C88.4082 137 88.3175 136.931 88.2749 136.792C88.2215 136.643 88.1949 136.429 88.1949 136.152C88.1949 135.843 88.2215 135.613 88.2749 135.464C88.3175 135.315 88.4082 135.24 88.5469 135.24H89.6669ZM93.3309 130.44H91.6669V128.872H93.3309V130.44ZM91.0429 130.44H89.3789V128.872H91.0429V130.44ZM95.6011 135.24C95.4518 135.016 95.3451 134.781 95.2811 134.536C95.2278 134.291 95.2011 134.072 95.2011 133.88C95.2011 133.464 95.2705 133.075 95.4091 132.712C95.5478 132.349 95.7451 132.035 96.0011 131.768C96.2571 131.501 96.5611 131.293 96.9131 131.144C97.2758 130.984 97.6705 130.904 98.0971 130.904C98.4918 130.904 98.8651 130.968 99.2171 131.096C99.5691 131.213 99.9478 131.405 100.353 131.672L99.6491 133.08C99.3291 132.931 99.0518 132.824 98.8171 132.76C98.5825 132.696 98.3425 132.664 98.0971 132.664C97.7131 132.664 97.4038 132.792 97.1691 133.048C96.9451 133.293 96.8331 133.576 96.8331 133.896C96.8331 134.301 96.9665 134.627 97.2331 134.872C97.5105 135.117 97.8411 135.24 98.2251 135.24H100.689L100.609 137H93.9531C93.8145 137 93.7238 136.931 93.6811 136.792C93.6278 136.643 93.6011 136.429 93.6011 136.152C93.6011 135.843 93.6278 135.613 93.6811 135.464C93.7238 135.315 93.8145 135.24 93.9531 135.24H95.6011ZM104.67 137C104.371 137 104.083 136.963 103.806 136.888C103.539 136.803 103.305 136.664 103.102 136.472C102.899 136.28 102.739 136.029 102.622 135.72C102.505 135.4 102.446 135.005 102.446 134.536V127.08H104.078V134.136C104.078 134.477 104.153 134.749 104.302 134.952C104.462 135.144 104.697 135.24 105.006 135.24H105.374C105.609 135.24 105.726 135.523 105.726 136.088C105.726 136.696 105.609 137 105.374 137H104.67ZM106.079 135.24C106.815 135.24 107.183 134.893 107.183 134.2V132.312H108.799V134.2C108.799 134.573 108.911 134.84 109.135 135C109.37 135.16 109.636 135.24 109.935 135.24C110.735 135.24 111.135 134.893 111.135 134.2V132.312H112.767V134.2C112.767 134.573 112.863 134.84 113.055 135C113.258 135.16 113.492 135.24 113.759 135.24C114.079 135.24 114.324 135.155 114.495 134.984C114.676 134.803 114.767 134.541 114.767 134.2V132.312H116.399V134.312C116.399 135.197 116.17 135.869 115.711 136.328C115.263 136.776 114.634 137 113.823 137C113.46 137 113.114 136.936 112.783 136.808C112.452 136.669 112.164 136.397 111.919 135.992C111.663 136.397 111.359 136.669 111.007 136.808C110.666 136.936 110.308 137 109.935 137C109.53 137 109.156 136.936 108.815 136.808C108.484 136.669 108.196 136.397 107.951 135.992C107.695 136.397 107.407 136.669 107.087 136.808C106.767 136.936 106.426 137 106.063 137H105.375C105.236 137 105.146 136.931 105.103 136.792C105.05 136.643 105.023 136.429 105.023 136.152C105.023 135.843 105.05 135.613 105.103 135.464C105.146 135.315 105.236 135.24 105.375 135.24H106.079ZM126.189 136.328C126.37 136.328 126.514 136.376 126.621 136.472C126.738 136.568 126.797 136.707 126.797 136.888V137.88H119.821V137.32C119.821 137.213 119.842 137.101 119.885 136.984C119.927 136.856 120.007 136.739 120.125 136.632L123.213 133.512C123.746 132.989 124.151 132.499 124.429 132.04C124.717 131.581 124.861 131.08 124.861 130.536C124.861 130.035 124.722 129.656 124.445 129.4C124.178 129.144 123.815 129.016 123.357 129.016C122.941 129.016 122.594 129.133 122.317 129.368C122.039 129.592 121.858 129.88 121.773 130.232C121.687 130.435 121.581 130.573 121.453 130.648C121.325 130.723 121.143 130.733 120.909 130.68L119.997 130.536C120.135 129.565 120.519 128.835 121.149 128.344C121.789 127.853 122.562 127.608 123.469 127.608C123.938 127.608 124.365 127.677 124.749 127.816C125.143 127.955 125.479 128.152 125.757 128.408C126.034 128.653 126.247 128.952 126.397 129.304C126.557 129.656 126.637 130.051 126.637 130.488C126.637 130.872 126.578 131.224 126.461 131.544C126.354 131.864 126.205 132.168 126.013 132.456C125.831 132.744 125.613 133.027 125.357 133.304C125.111 133.571 124.855 133.848 124.589 134.136L122.237 136.52C122.695 136.392 123.138 136.328 123.565 136.328H126.189ZM132.495 134.072V130.632C132.495 130.483 132.5 130.333 132.511 130.184C132.532 130.035 132.554 129.875 132.575 129.704L129.359 134.072H132.495ZM135.295 134.072V135.032C135.295 135.256 135.183 135.368 134.959 135.368H134.015V137.88H132.495V135.368H128.207C128.079 135.368 127.972 135.336 127.887 135.272C127.812 135.197 127.764 135.112 127.743 135.016L127.551 134.168L132.367 127.72H134.015V134.072H135.295ZM141.327 137C140.89 137 140.511 136.936 140.191 136.808C139.882 136.669 139.626 136.488 139.423 136.264C139.231 136.04 139.087 135.779 138.991 135.48C138.906 135.181 138.863 134.867 138.863 134.536V132.264H140.479V134.12C140.479 134.472 140.559 134.749 140.719 134.952C140.879 135.144 141.204 135.24 141.695 135.24H146.719C147.103 135.24 147.375 135.155 147.535 134.984C147.706 134.803 147.791 134.541 147.791 134.2V132.312H149.423V134.584C149.423 134.989 149.354 135.347 149.215 135.656C149.076 135.955 148.89 136.205 148.655 136.408C148.431 136.6 148.17 136.749 147.871 136.856C147.583 136.952 147.284 137 146.975 137H141.327ZM146.111 131.016H144.447V129.448H146.111V131.016ZM143.823 131.016H142.159V129.448H143.823V131.016ZM153.274 136.744C153.274 137.32 153.173 137.859 152.97 138.36C152.778 138.861 152.506 139.299 152.154 139.672C151.813 140.045 151.402 140.339 150.922 140.552C150.453 140.765 149.946 140.872 149.402 140.872H148.394L148.314 139.128H148.986C149.466 139.128 149.877 139.059 150.218 138.92C150.549 138.792 150.821 138.616 151.034 138.392C151.248 138.168 151.402 137.912 151.498 137.624C151.594 137.336 151.642 137.043 151.642 136.744V132.312H153.274V136.744ZM156.413 139.128C156.819 139.128 157.165 139.069 157.453 138.952C157.752 138.845 157.997 138.696 158.189 138.504C158.381 138.312 158.531 138.083 158.637 137.816C158.744 137.56 158.808 137.288 158.829 137H157.741C157.187 137 156.733 136.941 156.381 136.824C156.029 136.707 155.752 136.536 155.549 136.312C155.347 136.077 155.203 135.795 155.117 135.464C155.043 135.133 155.005 134.76 155.005 134.344C155.005 133.928 155.064 133.539 155.181 133.176C155.299 132.803 155.469 132.477 155.693 132.2C155.928 131.923 156.216 131.704 156.557 131.544C156.899 131.373 157.293 131.288 157.741 131.288C158.104 131.288 158.445 131.347 158.765 131.464C159.096 131.581 159.384 131.768 159.629 132.024C159.875 132.28 160.067 132.611 160.205 133.016C160.355 133.421 160.429 133.917 160.429 134.504V135.24H161.725C161.96 135.24 162.077 135.523 162.077 136.088C162.077 136.696 161.96 137 161.725 137H160.397C160.376 137.523 160.269 138.019 160.077 138.488C159.885 138.957 159.619 139.368 159.277 139.72C158.947 140.072 158.547 140.349 158.077 140.552C157.608 140.765 157.08 140.872 156.493 140.872H154.877L154.781 139.128H156.413ZM156.573 134.232C156.573 134.605 156.653 134.867 156.813 135.016C156.984 135.165 157.315 135.24 157.805 135.24H158.861V134.488C158.861 133.933 158.755 133.544 158.541 133.32C158.339 133.096 158.051 132.984 157.677 132.984C157.325 132.984 157.053 133.091 156.861 133.304C156.669 133.517 156.573 133.827 156.573 134.232ZM166.071 135.224C166.913 133.731 167.692 132.648 168.407 131.976C169.121 131.293 169.841 130.952 170.567 130.952C170.993 130.952 171.377 131.032 171.719 131.192C172.071 131.352 172.364 131.571 172.599 131.848C172.844 132.115 173.031 132.44 173.159 132.824C173.287 133.197 173.351 133.597 173.351 134.024C173.351 134.397 173.292 134.76 173.175 135.112C173.068 135.464 172.897 135.784 172.663 136.072C172.428 136.349 172.129 136.573 171.767 136.744C171.404 136.915 170.972 137 170.471 137H166.151C165.745 137 165.372 136.936 165.031 136.808C164.689 136.669 164.396 136.397 164.151 135.992C163.905 136.397 163.617 136.669 163.287 136.808C162.967 136.936 162.625 137 162.263 137H161.719C161.58 137 161.489 136.931 161.447 136.792C161.393 136.643 161.367 136.429 161.367 136.152C161.367 135.843 161.393 135.613 161.447 135.464C161.489 135.315 161.58 135.24 161.719 135.24H162.279C163.025 135.24 163.399 134.893 163.399 134.2V132.312H165.015V134.2C165.015 134.52 165.111 134.765 165.303 134.936C165.505 135.107 165.761 135.203 166.071 135.224ZM171.719 134.024C171.719 133.693 171.607 133.395 171.383 133.128C171.169 132.851 170.849 132.712 170.423 132.712C170.039 132.712 169.628 132.909 169.191 133.304C168.764 133.688 168.268 134.333 167.703 135.24H170.535C170.876 135.24 171.159 135.139 171.383 134.936C171.607 134.723 171.719 134.419 171.719 134.024ZM179.848 134.744C180.264 134.744 180.578 134.659 180.792 134.488C181.005 134.307 181.112 134.067 181.112 133.768V132.248H179.992C179.544 132.248 179.224 132.381 179.032 132.648C178.84 132.904 178.744 133.24 178.744 133.656C178.744 134.04 178.829 134.317 179 134.488C179.181 134.659 179.464 134.744 179.848 134.744ZM182.696 134.136C182.696 134.477 182.765 134.749 182.904 134.952C183.053 135.144 183.288 135.24 183.608 135.24H183.976C184.114 135.24 184.205 135.315 184.248 135.464C184.301 135.603 184.328 135.811 184.328 136.088C184.328 136.397 184.301 136.627 184.248 136.776C184.205 136.925 184.114 137 183.976 137H183.608C183.064 137 182.621 136.904 182.28 136.712C181.949 136.52 181.698 136.195 181.528 135.736C181.261 136.035 180.941 136.227 180.568 136.312C180.205 136.387 179.853 136.424 179.512 136.424C178.754 136.424 178.173 136.205 177.768 135.768C177.373 135.32 177.176 134.659 177.176 133.784C177.176 133.389 177.229 133.005 177.336 132.632C177.453 132.248 177.618 131.907 177.832 131.608C178.056 131.309 178.333 131.069 178.664 130.888C179.005 130.707 179.4 130.616 179.848 130.616H181.112V129.544H182.696V134.136ZM185.441 135.24C186.155 135.24 186.513 134.893 186.513 134.2V132.312H188.145V134.312C188.145 135.197 187.921 135.869 187.473 136.328C187.025 136.776 186.395 137 185.585 137H183.969C183.83 137 183.739 136.931 183.697 136.792C183.643 136.643 183.617 136.429 183.617 136.152C183.617 135.843 183.643 135.613 183.697 135.464C183.739 135.315 183.83 135.24 183.969 135.24H185.441ZM186.273 140.424H184.465V138.792H186.273V140.424ZM194.738 134.744C195.154 134.744 195.469 134.659 195.682 134.488C195.896 134.307 196.002 134.067 196.002 133.768V132.248H194.882C194.434 132.248 194.114 132.381 193.922 132.648C193.73 132.904 193.634 133.24 193.634 133.656C193.634 134.04 193.72 134.317 193.89 134.488C194.072 134.659 194.354 134.744 194.738 134.744ZM197.586 134.136C197.586 134.477 197.656 134.749 197.794 134.952C197.944 135.144 198.178 135.24 198.498 135.24H198.866C199.005 135.24 199.096 135.315 199.138 135.464C199.192 135.603 199.218 135.811 199.218 136.088C199.218 136.397 199.192 136.627 199.138 136.776C199.096 136.925 199.005 137 198.866 137H198.498C197.954 137 197.512 136.904 197.17 136.712C196.84 136.52 196.589 136.195 196.418 135.736C196.152 136.035 195.832 136.227 195.458 136.312C195.096 136.387 194.744 136.424 194.402 136.424C193.645 136.424 193.064 136.205 192.658 135.768C192.264 135.32 192.066 134.659 192.066 133.784C192.066 133.389 192.12 133.005 192.226 132.632C192.344 132.248 192.509 131.907 192.722 131.608C192.946 131.309 193.224 131.069 193.554 130.888C193.896 130.707 194.29 130.616 194.738 130.616H196.002V129.544H197.586V134.136ZM199.979 135.24C200.694 135.24 201.051 134.893 201.051 134.2V132.312H202.699V134.2C202.699 134.573 202.811 134.84 203.035 135C203.27 135.16 203.542 135.24 203.851 135.24H204.267C204.513 135.24 204.635 135.523 204.635 136.088C204.635 136.696 204.513 137 204.267 137H203.803C203.398 137 203.03 136.936 202.699 136.808C202.369 136.669 202.081 136.397 201.835 135.992C201.569 136.397 201.281 136.669 200.971 136.808C200.662 136.936 200.331 137 199.979 137H198.859C198.721 137 198.63 136.931 198.587 136.792C198.534 136.643 198.507 136.429 198.507 136.152C198.507 135.843 198.534 135.613 198.587 135.464C198.63 135.315 198.721 135.24 198.859 135.24H199.979ZM203.643 130.44H201.979V128.872H203.643V130.44ZM201.355 130.44H199.691V128.872H201.355V130.44ZM206.554 135.24C206.18 134.899 205.914 134.563 205.754 134.232C205.594 133.891 205.514 133.523 205.514 133.128C205.514 132.776 205.578 132.435 205.706 132.104C205.844 131.773 206.036 131.485 206.282 131.24C206.538 130.984 206.842 130.781 207.194 130.632C207.556 130.472 207.956 130.392 208.394 130.392C208.831 130.392 209.215 130.472 209.546 130.632C209.876 130.792 210.148 131 210.362 131.256C210.586 131.512 210.751 131.8 210.858 132.12C210.975 132.429 211.034 132.739 211.034 133.048C211.034 133.517 210.948 133.928 210.778 134.28C210.618 134.621 210.383 134.941 210.074 135.24H212.298C212.532 135.24 212.65 135.523 212.65 136.088C212.65 136.696 212.532 137 212.298 137H210.682C210.202 137 209.764 136.979 209.37 136.936C208.986 136.893 208.687 136.813 208.474 136.696C208.324 136.771 208.138 136.829 207.914 136.872C207.7 136.915 207.476 136.947 207.242 136.968C207.018 136.979 206.794 136.989 206.57 137C206.356 137 206.175 137 206.026 137H204.266C204.127 137 204.036 136.931 203.994 136.792C203.94 136.643 203.914 136.429 203.914 136.152C203.914 135.843 203.94 135.613 203.994 135.464C204.036 135.315 204.127 135.24 204.266 135.24H206.554ZM208.282 132.168C207.93 132.168 207.642 132.285 207.418 132.52C207.194 132.755 207.082 133.048 207.082 133.4C207.082 133.741 207.204 134.051 207.45 134.328C207.706 134.595 208.01 134.819 208.362 135C208.671 134.819 208.932 134.595 209.146 134.328C209.37 134.061 209.482 133.757 209.482 133.416C209.482 133.043 209.37 132.744 209.146 132.52C208.932 132.285 208.644 132.168 208.282 132.168ZM209.258 129.144H207.45V127.512H209.258V129.144ZM216.249 132.2C215.886 132.2 215.593 132.317 215.369 132.552C215.156 132.787 215.049 133.08 215.049 133.432C215.049 133.784 215.172 134.104 215.417 134.392C215.673 134.669 215.972 134.899 216.313 135.08C216.633 134.899 216.9 134.669 217.113 134.392C217.326 134.115 217.433 133.805 217.433 133.464C217.433 133.091 217.321 132.787 217.097 132.552C216.884 132.317 216.601 132.2 216.249 132.2ZM212.297 137C212.158 137 212.068 136.931 212.025 136.792C211.972 136.643 211.945 136.429 211.945 136.152C211.945 135.843 211.972 135.613 212.025 135.464C212.068 135.315 212.158 135.24 212.297 135.24H214.585C213.892 134.632 213.545 133.944 213.545 133.176C213.545 132.824 213.609 132.488 213.737 132.168C213.865 131.848 214.052 131.565 214.297 131.32C214.542 131.064 214.836 130.867 215.177 130.728C215.529 130.579 215.929 130.504 216.377 130.504C216.814 130.504 217.193 130.579 217.513 130.728C217.844 130.877 218.11 131.075 218.313 131.32C218.526 131.565 218.681 131.843 218.777 132.152C218.884 132.461 218.937 132.776 218.937 133.096C218.937 133.533 218.852 133.928 218.681 134.28C218.521 134.621 218.286 134.941 217.977 135.24H220.217C220.729 135.24 220.985 135.043 220.985 134.648C220.985 134.563 220.964 134.467 220.921 134.36C220.878 134.253 220.798 134.125 220.681 133.976L218.025 130.744L219.225 129.608L221.929 132.936C222.238 133.309 222.452 133.661 222.569 133.992C222.697 134.312 222.761 134.627 222.761 134.936C222.761 135.224 222.708 135.496 222.601 135.752C222.505 135.997 222.356 136.216 222.153 136.408C221.95 136.589 221.694 136.733 221.385 136.84C221.086 136.947 220.74 137 220.345 137H218.585C218.094 137 217.657 136.979 217.273 136.936C216.9 136.893 216.606 136.813 216.393 136.696C216.233 136.771 216.041 136.829 215.817 136.872C215.604 136.915 215.38 136.947 215.145 136.968C214.921 136.979 214.697 136.989 214.473 137C214.26 137 214.078 137 213.929 137H212.297ZM230.071 136.744C230.071 137.32 229.97 137.859 229.767 138.36C229.575 138.861 229.303 139.299 228.951 139.672C228.61 140.045 228.199 140.339 227.719 140.552C227.25 140.765 226.743 140.872 226.199 140.872H225.191L225.111 139.128H225.783C226.263 139.128 226.674 139.059 227.015 138.92C227.346 138.792 227.618 138.616 227.831 138.392C228.045 138.168 228.199 137.912 228.295 137.624C228.391 137.336 228.439 137.043 228.439 136.744V132.312H230.071V136.744ZM230.087 130.44H228.279V128.808H230.087V130.44ZM233.21 139.128C233.616 139.128 233.962 139.069 234.25 138.952C234.549 138.845 234.794 138.696 234.986 138.504C235.178 138.312 235.328 138.083 235.434 137.816C235.541 137.56 235.605 137.288 235.626 137H234.538C233.984 137 233.53 136.941 233.178 136.824C232.826 136.707 232.549 136.536 232.346 136.312C232.144 136.077 232 135.795 231.914 135.464C231.84 135.133 231.802 134.76 231.802 134.344C231.802 133.928 231.861 133.539 231.978 133.176C232.096 132.803 232.266 132.477 232.49 132.2C232.725 131.923 233.013 131.704 233.354 131.544C233.696 131.373 234.09 131.288 234.538 131.288C234.901 131.288 235.242 131.347 235.562 131.464C235.893 131.581 236.181 131.768 236.426 132.024C236.672 132.28 236.864 132.611 237.002 133.016C237.152 133.421 237.226 133.917 237.226 134.504V136.744C237.226 137.288 237.136 137.811 236.954 138.312C236.773 138.813 236.512 139.251 236.17 139.624C235.84 140.008 235.429 140.312 234.938 140.536C234.448 140.76 233.898 140.872 233.29 140.872H231.674L231.578 139.128H233.21ZM233.37 134.232C233.37 134.605 233.45 134.867 233.61 135.016C233.781 135.165 234.112 135.24 234.602 135.24H235.658V134.488C235.658 133.933 235.552 133.544 235.338 133.32C235.136 133.096 234.848 132.984 234.474 132.984C234.122 132.984 233.85 133.091 233.658 133.304C233.466 133.517 233.37 133.827 233.37 134.232ZM237.483 139.128H237.739C238.187 139.128 238.571 139.059 238.891 138.92C239.211 138.792 239.467 138.616 239.659 138.392C239.862 138.168 240.011 137.912 240.107 137.624C240.203 137.336 240.251 137.043 240.251 136.744V132.312H241.883V136.744C241.883 137.32 241.782 137.859 241.579 138.36C241.387 138.861 241.115 139.299 240.763 139.672C240.422 140.045 240.011 140.339 239.531 140.552C239.062 140.765 238.555 140.872 238.011 140.872H237.611L237.483 139.128ZM253.625 135.24C254.34 135.24 254.697 134.893 254.697 134.2V132.312H256.329V134.2C256.329 134.573 256.446 134.84 256.681 135C256.916 135.16 257.193 135.24 257.513 135.24H257.833C257.972 135.24 258.062 135.315 258.105 135.464C258.158 135.603 258.185 135.811 258.185 136.088C258.185 136.397 258.158 136.627 258.105 136.776C258.062 136.925 257.972 137 257.833 137H257.449C257.054 137 256.686 136.936 256.345 136.808C256.004 136.669 255.71 136.397 255.465 135.992C255.22 136.397 254.937 136.669 254.617 136.808C254.308 136.936 253.977 137 253.625 137H248.233C247.796 137 247.417 136.936 247.097 136.808C246.788 136.669 246.532 136.488 246.329 136.264C246.137 136.04 245.993 135.779 245.897 135.48C245.812 135.181 245.769 134.867 245.769 134.536V132.264H247.385V134.12C247.385 134.472 247.465 134.749 247.625 134.952C247.785 135.144 248.11 135.24 248.601 135.24H253.625ZM253.017 131.016H251.353V129.448H253.017V131.016ZM250.729 131.016H249.065V129.448H250.729V131.016ZM260.116 135.24C259.743 134.899 259.476 134.563 259.316 134.232C259.156 133.891 259.076 133.523 259.076 133.128C259.076 132.776 259.14 132.435 259.268 132.104C259.407 131.773 259.599 131.485 259.844 131.24C260.1 130.984 260.404 130.781 260.756 130.632C261.119 130.472 261.519 130.392 261.956 130.392C262.393 130.392 262.777 130.472 263.108 130.632C263.439 130.792 263.711 131 263.924 131.256C264.148 131.512 264.313 131.8 264.42 132.12C264.537 132.429 264.596 132.739 264.596 133.048C264.596 133.517 264.511 133.928 264.34 134.28C264.18 134.621 263.945 134.941 263.636 135.24H265.86C266.095 135.24 266.212 135.523 266.212 136.088C266.212 136.696 266.095 137 265.86 137H264.244C263.764 137 263.327 136.979 262.932 136.936C262.548 136.893 262.249 136.813 262.036 136.696C261.887 136.771 261.7 136.829 261.476 136.872C261.263 136.915 261.039 136.947 260.804 136.968C260.58 136.979 260.356 136.989 260.132 137C259.919 137 259.737 137 259.588 137H257.828C257.689 137 257.599 136.931 257.556 136.792C257.503 136.643 257.476 136.429 257.476 136.152C257.476 135.843 257.503 135.613 257.556 135.464C257.599 135.315 257.689 135.24 257.828 135.24H260.116ZM261.844 132.168C261.492 132.168 261.204 132.285 260.98 132.52C260.756 132.755 260.644 133.048 260.644 133.4C260.644 133.741 260.767 134.051 261.012 134.328C261.268 134.595 261.572 134.819 261.924 135C262.233 134.819 262.495 134.595 262.708 134.328C262.932 134.061 263.044 133.757 263.044 133.416C263.044 133.043 262.932 132.744 262.708 132.52C262.495 132.285 262.207 132.168 261.844 132.168ZM262.82 129.144H261.012V127.512H262.82V129.144ZM269.811 132.2C269.449 132.2 269.155 132.317 268.931 132.552C268.718 132.787 268.611 133.08 268.611 133.432C268.611 133.784 268.734 134.104 268.979 134.392C269.235 134.669 269.534 134.899 269.875 135.08C270.195 134.899 270.462 134.669 270.675 134.392C270.889 134.115 270.995 133.805 270.995 133.464C270.995 133.091 270.883 132.787 270.659 132.552C270.446 132.317 270.163 132.2 269.811 132.2ZM265.859 137C265.721 137 265.63 136.931 265.587 136.792C265.534 136.643 265.507 136.429 265.507 136.152C265.507 135.843 265.534 135.613 265.587 135.464C265.63 135.315 265.721 135.24 265.859 135.24H268.147C267.454 134.632 267.107 133.944 267.107 133.176C267.107 132.824 267.171 132.488 267.299 132.168C267.427 131.848 267.614 131.565 267.859 131.32C268.105 131.064 268.398 130.867 268.739 130.728C269.091 130.579 269.491 130.504 269.939 130.504C270.377 130.504 270.755 130.579 271.075 130.728C271.406 130.877 271.673 131.075 271.875 131.32C272.089 131.565 272.243 131.843 272.339 132.152C272.446 132.461 272.499 132.776 272.499 133.096C272.499 133.533 272.414 133.928 272.243 134.28C272.083 134.621 271.849 134.941 271.539 135.24H273.779C274.291 135.24 274.547 135.043 274.547 134.648C274.547 134.563 274.526 134.467 274.483 134.36C274.441 134.253 274.361 134.125 274.243 133.976L271.587 130.744L272.787 129.608L275.491 132.936C275.801 133.309 276.014 133.661 276.131 133.992C276.259 134.312 276.323 134.627 276.323 134.936C276.323 135.224 276.27 135.496 276.163 135.752C276.067 135.997 275.918 136.216 275.715 136.408C275.513 136.589 275.257 136.733 274.947 136.84C274.649 136.947 274.302 137 273.907 137H272.147C271.657 137 271.219 136.979 270.835 136.936C270.462 136.893 270.169 136.813 269.955 136.696C269.795 136.771 269.603 136.829 269.379 136.872C269.166 136.915 268.942 136.947 268.707 136.968C268.483 136.979 268.259 136.989 268.035 137C267.822 137 267.641 137 267.491 137H265.859ZM282.561 137C282.262 137 281.974 136.963 281.697 136.888C281.43 136.803 281.195 136.664 280.993 136.472C280.79 136.28 280.63 136.029 280.513 135.72C280.395 135.4 280.337 135.005 280.337 134.536V127.08H281.969V134.136C281.969 134.477 282.043 134.749 282.193 134.952C282.353 135.144 282.587 135.24 282.897 135.24H283.265C283.499 135.24 283.617 135.523 283.617 136.088C283.617 136.696 283.499 137 283.265 137H282.561ZM283.41 135.24C283.772 135.24 284.055 135.171 284.258 135.032C284.46 134.883 284.562 134.643 284.562 134.312V133.96C284.562 133.533 284.62 133.139 284.738 132.776C284.866 132.413 285.047 132.104 285.282 131.848C285.516 131.592 285.799 131.395 286.13 131.256C286.471 131.107 286.85 131.032 287.266 131.032C287.703 131.032 288.087 131.107 288.418 131.256C288.759 131.395 289.042 131.597 289.266 131.864C289.49 132.12 289.66 132.429 289.778 132.792C289.895 133.155 289.954 133.549 289.954 133.976C289.954 134.936 289.708 135.683 289.218 136.216C288.738 136.739 288.082 137 287.25 137C286.823 137 286.412 136.92 286.018 136.76C285.634 136.589 285.34 136.323 285.138 135.96C284.935 136.376 284.674 136.653 284.354 136.792C284.034 136.931 283.719 137 283.41 137H283.266C283.127 137 283.036 136.931 282.994 136.792C282.94 136.643 282.914 136.429 282.914 136.152C282.914 135.843 282.94 135.613 282.994 135.464C283.036 135.315 283.127 135.24 283.266 135.24H283.41ZM288.386 134.088C288.386 133.725 288.3 133.421 288.13 133.176C287.97 132.931 287.676 132.808 287.25 132.808C286.844 132.808 286.551 132.931 286.37 133.176C286.199 133.411 286.114 133.72 286.114 134.104C286.114 134.477 286.215 134.76 286.418 134.952C286.62 135.144 286.898 135.24 287.25 135.24C288.007 135.24 288.386 134.856 288.386 134.088ZM299.031 139.128C299.501 139.128 299.89 139.096 300.199 139.032C300.519 138.968 300.77 138.877 300.951 138.76C301.143 138.643 301.277 138.499 301.351 138.328C301.437 138.168 301.479 137.992 301.479 137.8C301.479 137.587 301.421 137.4 301.303 137.24C301.186 137.08 300.989 137 300.711 137H298.407L298.503 135.24H304.055C304.29 135.24 304.407 135.523 304.407 136.088C304.407 136.696 304.29 137 304.055 137H302.679C302.818 137.107 302.909 137.245 302.951 137.416C303.005 137.587 303.031 137.795 303.031 138.04C303.031 138.328 302.967 138.637 302.839 138.968C302.711 139.299 302.498 139.603 302.199 139.88C301.911 140.168 301.522 140.403 301.031 140.584C300.551 140.776 299.959 140.872 299.255 140.872H297.559C296.365 140.872 295.437 140.504 294.775 139.768C294.114 139.032 293.783 138.024 293.783 136.744V133.88H295.399V136.68C295.399 137.053 295.442 137.389 295.527 137.688C295.613 137.987 295.746 138.243 295.927 138.456C296.119 138.669 296.365 138.835 296.663 138.952C296.973 139.069 297.346 139.128 297.783 139.128H299.031ZM305.535 135.24C306.249 135.24 306.607 134.893 306.607 134.2V132.312H308.239V134.312C308.239 135.197 308.015 135.869 307.567 136.328C307.119 136.776 306.489 137 305.679 137H304.062C303.924 137 303.833 136.931 303.79 136.792C303.737 136.643 303.71 136.429 303.71 136.152C303.71 135.843 303.737 135.613 303.79 135.464C303.833 135.315 303.924 135.24 304.062 135.24H305.535ZM307.743 130.44H305.935V128.808H307.743V130.44ZM312.342 137C312.043 137 311.755 136.963 311.478 136.888C311.211 136.803 310.976 136.664 310.774 136.472C310.571 136.28 310.411 136.029 310.294 135.72C310.176 135.4 310.118 135.005 310.118 134.536V127.08H311.75V134.136C311.75 134.477 311.824 134.749 311.974 134.952C312.134 135.144 312.368 135.24 312.678 135.24H313.046C313.28 135.24 313.398 135.523 313.398 136.088C313.398 136.696 313.28 137 313.046 137H312.342ZM314.167 135.24C314.882 135.24 315.239 134.893 315.239 134.2V132.312H316.887V134.2C316.887 134.573 316.999 134.84 317.223 135C317.458 135.16 317.73 135.24 318.039 135.24H318.455C318.7 135.24 318.823 135.523 318.823 136.088C318.823 136.696 318.7 137 318.455 137H317.991C317.586 137 317.218 136.936 316.887 136.808C316.556 136.669 316.268 136.397 316.023 135.992C315.756 136.397 315.468 136.669 315.159 136.808C314.85 136.936 314.519 137 314.167 137H313.047C312.908 137 312.818 136.931 312.775 136.792C312.722 136.643 312.695 136.429 312.695 136.152C312.695 135.843 312.722 135.613 312.775 135.464C312.818 135.315 312.908 135.24 313.047 135.24H314.167ZM316.551 140.424H314.743V138.792H316.551V140.424ZM319.573 135.24C320.288 135.24 320.645 134.893 320.645 134.2V132.312H322.293V134.2C322.293 134.573 322.405 134.84 322.629 135C322.864 135.16 323.136 135.24 323.445 135.24H323.861C324.106 135.24 324.229 135.523 324.229 136.088C324.229 136.696 324.106 137 323.861 137H323.397C322.992 137 322.624 136.936 322.293 136.808C321.962 136.669 321.674 136.397 321.429 135.992C321.162 136.397 320.874 136.669 320.565 136.808C320.256 136.936 319.925 137 319.573 137H318.453C318.314 137 318.224 136.931 318.181 136.792C318.128 136.643 318.101 136.429 318.101 136.152C318.101 135.843 318.128 135.613 318.181 135.464C318.224 135.315 318.314 135.24 318.453 135.24H319.573ZM323.125 140.36H321.477V138.792H323.125V140.36ZM320.821 140.36H319.173V138.792H320.821V140.36ZM324.979 135.24C325.694 135.24 326.051 134.893 326.051 134.2V132.312H327.699V134.2C327.699 134.573 327.811 134.84 328.035 135C328.27 135.16 328.542 135.24 328.851 135.24H329.267C329.513 135.24 329.635 135.523 329.635 136.088C329.635 136.696 329.513 137 329.267 137H328.803C328.398 137 328.03 136.936 327.699 136.808C327.369 136.669 327.081 136.397 326.835 135.992C326.569 136.397 326.281 136.669 325.971 136.808C325.662 136.936 325.331 137 324.979 137H323.859C323.721 137 323.63 136.931 323.587 136.792C323.534 136.643 323.507 136.429 323.507 136.152C323.507 135.843 323.534 135.613 323.587 135.464C323.63 135.315 323.721 135.24 323.859 135.24H324.979ZM328.643 130.44H326.979V128.872H328.643V130.44ZM326.355 130.44H324.691V128.872H326.355V130.44ZM329.97 135.24C330.706 135.24 331.074 134.893 331.074 134.2V132.312H332.69V134.2C332.69 134.573 332.802 134.84 333.026 135C333.26 135.16 333.527 135.24 333.826 135.24C334.626 135.24 335.026 134.893 335.026 134.2V132.312H336.658V134.2C336.658 134.573 336.754 134.84 336.946 135C337.148 135.16 337.383 135.24 337.65 135.24C338.322 135.24 338.658 134.893 338.658 134.2V132.312H340.29V134.2C340.29 134.573 340.402 134.84 340.626 135C340.86 135.16 341.122 135.24 341.41 135.24H341.778C341.916 135.24 342.007 135.315 342.05 135.464C342.103 135.603 342.13 135.811 342.13 136.088C342.13 136.397 342.103 136.627 342.05 136.776C342.007 136.925 341.916 137 341.778 137H341.41C341.004 137 340.631 136.936 340.29 136.808C339.959 136.669 339.671 136.397 339.426 135.992C339.17 136.397 338.876 136.669 338.546 136.808C338.226 136.936 337.927 137 337.65 137C337.276 137 336.935 136.936 336.626 136.808C336.327 136.669 336.055 136.397 335.81 135.992C335.554 136.397 335.25 136.669 334.898 136.808C334.556 136.936 334.199 137 333.826 137C333.42 137 333.047 136.936 332.706 136.808C332.375 136.669 332.087 136.397 331.842 135.992C331.586 136.397 331.298 136.669 330.978 136.808C330.658 136.936 330.316 137 329.954 137H329.266C329.127 137 329.036 136.931 328.994 136.792C328.94 136.643 328.914 136.429 328.914 136.152C328.914 135.843 328.94 135.613 328.994 135.464C329.036 135.315 329.127 135.24 329.266 135.24H329.97ZM336.674 128.2H334.978V126.648H336.674V128.2ZM337.794 130.44H336.13V128.872H337.794V130.44ZM335.506 130.44H333.842V128.872H335.506V130.44ZM343.253 135.24C343.968 135.24 344.325 134.893 344.325 134.2V132.312H345.957V134.312C345.957 135.197 345.733 135.869 345.285 136.328C344.837 136.776 344.208 137 343.397 137H341.781C341.643 137 341.552 136.931 341.509 136.792C341.456 136.643 341.429 136.429 341.429 136.152C341.429 135.843 341.456 135.613 341.509 135.464C341.552 135.315 341.643 135.24 341.781 135.24H343.253ZM344.629 142.6H342.933V141.032H344.629V142.6ZM345.749 140.36H344.085V138.792H345.749V140.36ZM343.461 140.36H341.797V138.792H343.461V140.36ZM358.263 133.96C358.263 134.419 358.364 134.749 358.567 134.952C358.78 135.144 359.036 135.24 359.335 135.24H359.559C359.698 135.24 359.788 135.315 359.831 135.464C359.884 135.603 359.911 135.811 359.911 136.088C359.911 136.397 359.884 136.627 359.831 136.776C359.788 136.925 359.698 137 359.559 137H359.335C359.175 137 359.015 136.989 358.855 136.968C358.695 136.947 358.535 136.904 358.375 136.84C358.226 136.776 358.076 136.685 357.927 136.568C357.788 136.44 357.66 136.269 357.543 136.056C357.276 136.44 356.951 136.696 356.567 136.824C356.194 136.941 355.836 137 355.495 137C354.748 137 354.146 136.808 353.687 136.424C353.228 136.029 352.999 135.459 352.999 134.712V133.896C352.999 133.597 353.026 133.347 353.079 133.144C353.132 132.941 353.234 132.776 353.383 132.648H353.015C352.503 132.648 352.124 132.755 351.879 132.968C351.634 133.181 351.511 133.491 351.511 133.896V140.872H349.879V133.832C349.879 133.459 349.943 133.101 350.071 132.76C350.21 132.408 350.407 132.099 350.663 131.832C350.919 131.565 351.239 131.352 351.623 131.192C352.007 131.032 352.455 130.952 352.967 130.952H355.863C356.311 130.952 356.684 131.016 356.983 131.144C357.292 131.261 357.543 131.427 357.735 131.64C357.927 131.843 358.06 132.083 358.135 132.36C358.22 132.637 358.263 132.931 358.263 133.24V133.96ZM355.623 135.24C355.996 135.24 356.268 135.16 356.439 135C356.62 134.84 356.711 134.621 356.711 134.344V133.656C356.711 133.379 356.636 133.155 356.487 132.984C356.348 132.803 356.114 132.712 355.783 132.712H355.447C355.138 132.712 354.908 132.803 354.759 132.984C354.62 133.165 354.551 133.395 354.551 133.672V134.312C354.551 134.6 354.631 134.829 354.791 135C354.962 135.16 355.239 135.24 355.623 135.24ZM360.683 135.24C361.397 135.24 361.755 134.893 361.755 134.2V132.312H363.403V134.2C363.403 134.573 363.515 134.84 363.739 135C363.973 135.16 364.245 135.24 364.555 135.24H364.971C365.216 135.24 365.339 135.523 365.339 136.088C365.339 136.696 365.216 137 364.971 137H364.507C364.101 137 363.733 136.936 363.403 136.808C363.072 136.669 362.784 136.397 362.539 135.992C362.272 136.397 361.984 136.669 361.674 136.808C361.365 136.936 361.035 137 360.683 137H359.562C359.424 137 359.333 136.931 359.29 136.792C359.237 136.643 359.21 136.429 359.21 136.152C359.21 135.843 359.237 135.613 359.29 135.464C359.333 135.315 359.424 135.24 359.562 135.24H360.683ZM364.235 140.36H362.587V138.792H364.235V140.36ZM361.931 140.36H360.283V138.792H361.931V140.36ZM366.441 135.24C367.155 135.24 367.513 134.893 367.513 134.2V132.312H369.145V134.312C369.145 135.197 368.921 135.869 368.473 136.328C368.025 136.776 367.395 137 366.585 137H364.969C364.83 137 364.739 136.931 364.697 136.792C364.643 136.643 364.617 136.429 364.617 136.152C364.617 135.843 364.643 135.613 364.697 135.464C364.739 135.315 364.83 135.24 364.969 135.24H366.441ZM369.193 130.44H367.529V128.872H369.193V130.44ZM366.905 130.44H365.241V128.872H366.905V130.44ZM290.781 160.24C291.496 160.24 291.853 159.893 291.853 159.2V157.312H293.485V159.2C293.485 159.573 293.603 159.84 293.837 160C294.072 160.16 294.349 160.24 294.669 160.24H294.989C295.128 160.24 295.219 160.315 295.261 160.464C295.315 160.603 295.341 160.811 295.341 161.088C295.341 161.397 295.315 161.627 295.261 161.776C295.219 161.925 295.128 162 294.989 162H294.605C294.211 162 293.843 161.936 293.501 161.808C293.16 161.669 292.867 161.397 292.621 160.992C292.376 161.397 292.093 161.669 291.773 161.808C291.464 161.936 291.133 162 290.781 162H285.389C284.952 162 284.573 161.936 284.253 161.808C283.944 161.669 283.688 161.488 283.485 161.264C283.293 161.04 283.149 160.779 283.053 160.48C282.968 160.181 282.925 159.867 282.925 159.536V157.264H284.541V159.12C284.541 159.472 284.621 159.749 284.781 159.952C284.941 160.144 285.267 160.24 285.757 160.24H290.781ZM290.173 156.016H288.509V154.448H290.173V156.016ZM287.885 156.016H286.221V154.448H287.885V156.016ZM295.688 160.24C296.424 160.24 296.792 159.893 296.792 159.2V157.312H298.408V159.2C298.408 159.573 298.52 159.84 298.744 160C298.979 160.16 299.246 160.24 299.544 160.24C300.344 160.24 300.744 159.893 300.744 159.2V157.312H302.376V159.2C302.376 159.573 302.472 159.84 302.664 160C302.867 160.16 303.102 160.24 303.368 160.24C303.688 160.24 303.934 160.155 304.104 159.984C304.286 159.803 304.376 159.541 304.376 159.2V157.312H306.008V159.312C306.008 160.197 305.779 160.869 305.32 161.328C304.872 161.776 304.243 162 303.432 162C303.07 162 302.723 161.936 302.392 161.808C302.062 161.669 301.774 161.397 301.528 160.992C301.272 161.397 300.968 161.669 300.616 161.808C300.275 161.936 299.918 162 299.544 162C299.139 162 298.766 161.936 298.424 161.808C298.094 161.669 297.806 161.397 297.56 160.992C297.304 161.397 297.016 161.669 296.696 161.808C296.376 161.936 296.035 162 295.672 162H294.984C294.846 162 294.755 161.931 294.712 161.792C294.659 161.643 294.632 161.429 294.632 161.152C294.632 160.843 294.659 160.613 294.712 160.464C294.755 160.315 294.846 160.24 294.984 160.24H295.688ZM310.092 162C309.793 162 309.505 161.963 309.228 161.888C308.961 161.803 308.726 161.664 308.524 161.472C308.321 161.28 308.161 161.029 308.044 160.72C307.926 160.4 307.868 160.005 307.868 159.536V152.08H309.5V159.136C309.5 159.477 309.574 159.749 309.724 159.952C309.884 160.144 310.118 160.24 310.428 160.24H310.796C311.03 160.24 311.148 160.523 311.148 161.088C311.148 161.696 311.03 162 310.796 162H310.092ZM310.941 160.24C311.304 160.24 311.586 160.171 311.789 160.032C311.992 159.883 312.093 159.643 312.093 159.312V158.96C312.093 158.533 312.152 158.139 312.269 157.776C312.397 157.413 312.578 157.104 312.813 156.848C313.048 156.592 313.33 156.395 313.661 156.256C314.002 156.107 314.381 156.032 314.797 156.032C315.234 156.032 315.618 156.107 315.949 156.256C316.29 156.395 316.573 156.597 316.797 156.864C317.021 157.12 317.192 157.424 317.309 157.776C317.426 158.128 317.485 158.512 317.485 158.928V159.232C317.485 159.616 317.597 159.883 317.821 160.032C318.056 160.171 318.301 160.24 318.557 160.24H318.781C318.92 160.24 319.01 160.315 319.053 160.464C319.106 160.603 319.133 160.811 319.133 161.088C319.133 161.397 319.106 161.627 319.053 161.776C319.01 161.925 318.92 162 318.781 162H318.557C318.248 162 317.933 161.936 317.613 161.808C317.293 161.669 317.016 161.381 316.781 160.944C316.493 161.381 316.168 161.669 315.805 161.808C315.453 161.936 315.09 162 314.717 162C314.29 162 313.89 161.92 313.517 161.76C313.154 161.589 312.872 161.323 312.669 160.96C312.466 161.376 312.205 161.653 311.885 161.792C311.565 161.931 311.25 162 310.941 162H310.797C310.658 162 310.568 161.931 310.525 161.792C310.472 161.643 310.445 161.429 310.445 161.152C310.445 160.843 310.472 160.613 310.525 160.464C310.568 160.315 310.658 160.24 310.797 160.24H310.941ZM315.917 159.088C315.917 158.725 315.832 158.421 315.661 158.176C315.501 157.931 315.208 157.808 314.781 157.808C314.376 157.808 314.082 157.931 313.901 158.176C313.73 158.411 313.645 158.72 313.645 159.104C313.645 159.477 313.746 159.76 313.949 159.952C314.152 160.144 314.429 160.24 314.781 160.24C315.538 160.24 315.917 159.856 315.917 159.088ZM319.485 160.24C320.221 160.24 320.589 159.893 320.589 159.2V157.312H322.205V159.2C322.205 159.573 322.317 159.84 322.541 160C322.776 160.16 323.043 160.24 323.341 160.24C324.141 160.24 324.541 159.893 324.541 159.2V157.312H326.173V159.2C326.173 159.573 326.269 159.84 326.461 160C326.664 160.16 326.899 160.24 327.165 160.24C327.485 160.24 327.731 160.155 327.901 159.984C328.083 159.803 328.173 159.541 328.173 159.2V157.312H329.805V159.312C329.805 160.197 329.576 160.869 329.117 161.328C328.669 161.776 328.04 162 327.229 162C326.867 162 326.52 161.936 326.189 161.808C325.859 161.669 325.571 161.397 325.325 160.992C325.069 161.397 324.765 161.669 324.413 161.808C324.072 161.936 323.715 162 323.341 162C322.936 162 322.563 161.936 322.221 161.808C321.891 161.669 321.603 161.397 321.357 160.992C321.101 161.397 320.813 161.669 320.493 161.808C320.173 161.936 319.832 162 319.469 162H318.781C318.643 162 318.552 161.931 318.509 161.792C318.456 161.643 318.429 161.429 318.429 161.152C318.429 160.843 318.456 160.613 318.509 160.464C318.552 160.315 318.643 160.24 318.781 160.24H319.485ZM326.189 153.2H324.493V151.648H326.189V153.2ZM327.309 155.44H325.645V153.872H327.309V155.44ZM325.021 155.44H323.357V153.872H325.021V155.44ZM341.547 160.24C342.262 160.24 342.619 159.893 342.619 159.2V157.312H344.251V159.2C344.251 159.573 344.368 159.84 344.603 160C344.838 160.16 345.115 160.24 345.435 160.24H345.755C345.894 160.24 345.984 160.315 346.027 160.464C346.08 160.603 346.107 160.811 346.107 161.088C346.107 161.397 346.08 161.627 346.027 161.776C345.984 161.925 345.894 162 345.755 162H345.371C344.976 162 344.608 161.936 344.267 161.808C343.926 161.669 343.632 161.397 343.387 160.992C343.142 161.397 342.859 161.669 342.539 161.808C342.23 161.936 341.899 162 341.547 162H336.155C335.718 162 335.339 161.936 335.019 161.808C334.71 161.669 334.454 161.488 334.251 161.264C334.059 161.04 333.915 160.779 333.819 160.48C333.734 160.181 333.691 159.867 333.691 159.536V157.264H335.307V159.12C335.307 159.472 335.387 159.749 335.547 159.952C335.707 160.144 336.032 160.24 336.523 160.24H341.547ZM340.939 156.016H339.275V154.448H340.939V156.016ZM338.651 156.016H336.987V154.448H338.651V156.016ZM345.894 160.24C346.257 160.24 346.539 160.171 346.742 160.032C346.945 159.883 347.046 159.643 347.046 159.312V158.96C347.046 158.533 347.105 158.139 347.222 157.776C347.35 157.413 347.531 157.104 347.766 156.848C348.001 156.592 348.283 156.395 348.614 156.256C348.955 156.107 349.334 156.032 349.75 156.032C350.187 156.032 350.571 156.107 350.902 156.256C351.243 156.395 351.526 156.597 351.75 156.864C351.974 157.12 352.145 157.429 352.262 157.792C352.379 158.155 352.438 158.549 352.438 158.976C352.438 159.936 352.193 160.683 351.702 161.216C351.222 161.739 350.566 162 349.734 162C349.307 162 348.897 161.92 348.502 161.76C348.118 161.589 347.825 161.323 347.622 160.96C347.419 161.376 347.158 161.653 346.838 161.792C346.518 161.931 346.203 162 345.894 162H345.75C345.611 162 345.521 161.931 345.478 161.792C345.425 161.643 345.398 161.429 345.398 161.152C345.398 160.843 345.425 160.613 345.478 160.464C345.521 160.315 345.611 160.24 345.75 160.24H345.894ZM350.87 159.088C350.87 158.725 350.785 158.421 350.614 158.176C350.454 157.931 350.161 157.808 349.734 157.808C349.329 157.808 349.035 157.931 348.854 158.176C348.683 158.411 348.598 158.72 348.598 159.104C348.598 159.477 348.699 159.76 348.902 159.952C349.105 160.144 349.382 160.24 349.734 160.24C350.491 160.24 350.87 159.856 350.87 159.088ZM357.185 160.24C357.559 160.24 357.815 160.165 357.953 160.016C358.092 159.867 358.161 159.717 358.161 159.568C358.161 159.483 358.145 159.376 358.113 159.248C358.081 159.109 358.017 158.891 357.921 158.592C357.825 158.283 357.681 157.861 357.489 157.328C357.308 156.795 357.057 156.096 356.737 155.232L358.289 154.576L359.937 159.184C360.065 159.557 360.215 159.829 360.385 160C360.567 160.16 360.844 160.24 361.217 160.24H361.425C361.66 160.24 361.777 160.523 361.777 161.088C361.777 161.696 361.66 162 361.425 162H361.217C360.865 162 360.524 161.936 360.193 161.808C359.873 161.68 359.58 161.408 359.313 160.992C359.089 161.376 358.807 161.643 358.465 161.792C358.135 161.931 357.772 162 357.377 162H353.937L353.857 160.24H357.185ZM366.014 161.104C365.726 161.275 365.443 161.419 365.166 161.536C364.889 161.643 364.595 161.733 364.286 161.808C363.977 161.872 363.635 161.92 363.262 161.952C362.899 161.984 362.478 162 361.998 162H361.422C361.283 162 361.193 161.931 361.15 161.792C361.097 161.643 361.07 161.429 361.07 161.152C361.07 160.843 361.097 160.613 361.15 160.464C361.193 160.315 361.283 160.24 361.422 160.24H362.062C362.457 160.24 362.814 160.235 363.134 160.224C363.454 160.203 363.742 160.171 363.998 160.128C364.265 160.085 364.515 160.027 364.75 159.952C364.985 159.867 365.219 159.755 365.454 159.616L367.486 158.448C367.411 158.309 367.337 158.187 367.262 158.08C367.198 157.973 367.113 157.888 367.006 157.824C366.91 157.749 366.787 157.696 366.638 157.664C366.489 157.621 366.297 157.6 366.062 157.6H362.67L362.766 155.84H366.318C366.617 155.84 366.91 155.883 367.198 155.968C367.497 156.053 367.774 156.219 368.03 156.464C368.297 156.699 368.537 157.035 368.75 157.472C368.974 157.899 369.161 158.464 369.31 159.168L366.014 161.104ZM366.302 154.16H364.494V152.528H366.302V154.16Z" fill="white" fill-opacity="0.8"/>
</svg>
