<svg width="173" height="42" viewBox="0 0 173 42" fill="none" xmlns="http://www.w3.org/2000/svg">
<path d="M143.063 5.33105V37.1484C143.063 37.4741 143.294 37.7381 143.579 37.7381C143.864 37.7381 144.095 37.4741 144.095 37.1484V5.33105C144.095 5.00539 143.864 4.7414 143.579 4.7414C143.294 4.7414 143.063 5.00539 143.063 5.33105Z" fill="#FFDF2C"/>
<path d="M141 5.33105V37.1484C141 37.4741 141.231 37.7381 141.516 37.7381C141.801 37.7381 142.032 37.4741 142.032 37.1484V5.33105C142.032 5.00539 141.801 4.7414 141.516 4.7414C141.231 4.7414 141 5.00539 141 5.33105Z" fill="#FFDF2C"/>
<path d="M172.3 19.0925V18.6687C172.3 18.4826 172.168 18.3318 172.005 18.3318H169.379C169.217 18.3318 169.085 18.1809 169.085 17.9949V16.8792C169.085 16.6094 168.821 16.4491 168.625 16.5998L166.025 18.6012C165.852 18.7347 165.852 19.0265 166.025 19.16L168.625 21.1614C168.821 21.3121 169.085 21.1518 169.085 20.882V19.7663C169.085 19.5803 169.217 19.4294 169.379 19.4294H172.005C172.168 19.4294 172.3 19.2786 172.3 19.0925Z" fill="#FFDF2C"/>
<path d="M165.87 23.6082V24.0321C165.87 24.2181 166.002 24.369 166.165 24.369H168.79C168.953 24.369 169.085 24.5198 169.085 24.7059V25.8215C169.085 26.0913 169.348 26.2516 169.544 26.101L172.144 24.0996C172.318 23.966 172.318 23.6742 172.144 23.5407L169.544 21.5393C169.348 21.3886 169.085 21.549 169.085 21.8187V22.9344C169.085 23.1205 168.953 23.2713 168.79 23.2713H166.165C166.002 23.2713 165.87 23.4221 165.87 23.6082Z" fill="#FFDF2C"/>
<path d="M150.96 1.55268V4.06762C150.96 4.43973 150.696 4.74139 150.37 4.74139H145.716C145.391 4.74139 145.127 5.04306 145.127 5.41517V37.0643C145.127 37.4364 145.391 37.7381 145.716 37.7381H150.37C150.696 37.7381 150.96 38.0397 150.96 38.4119V41.2579C150.96 41.63 151.223 41.9316 151.549 41.9316H154.015C154.341 41.9316 154.605 41.63 154.605 41.2579V38.4119C154.605 38.0397 154.869 37.7381 155.194 37.7381H155.474C155.799 37.7381 156.063 38.0397 156.063 38.4119V41.2579C156.063 41.63 156.327 41.9316 156.653 41.9316H159.119C159.445 41.9316 159.709 41.63 159.709 41.2579V38.1911C159.709 37.819 159.972 37.5174 160.298 37.5174H169.014C169.339 37.5174 169.603 37.2157 169.603 36.8436V30.9076C169.603 30.5355 169.339 30.2338 169.014 30.2338H155.299C154.973 30.2338 154.709 29.9322 154.709 29.56V25.3898C154.709 25.0176 154.973 24.716 155.299 24.716H163.285C163.611 24.716 163.875 24.4143 163.875 24.0422V17.9958C163.875 17.6237 163.611 17.3221 163.285 17.3221H155.403C155.077 17.3221 154.813 17.0204 154.813 16.6483V12.8091C154.813 12.437 155.077 12.1353 155.403 12.1353H168.701C169.027 12.1353 169.291 11.8336 169.291 11.4615V5.41517C169.291 5.04306 169.027 4.74139 168.701 4.74139H160.09C159.764 4.74139 159.5 4.43973 159.5 4.06762V1.55269C159.5 1.18057 159.236 0.878906 158.911 0.878906H156.861C156.535 0.878906 156.271 1.18057 156.271 1.55268V4.06762C156.271 4.43973 156.008 4.74139 155.682 4.74139H154.986C154.661 4.74139 154.397 4.43973 154.397 4.06762V1.55269C154.397 1.18057 154.133 0.878906 153.807 0.878906H151.549C151.223 0.878906 150.96 1.18057 150.96 1.55268Z" fill="#FFDF2C"/>
<path d="M8.976 27.522C9.6 27.522 10.112 27.49 10.512 27.426C10.928 27.378 11.256 27.298 11.496 27.186C11.736 27.074 11.904 26.922 12 26.73C12.096 26.554 12.144 26.33 12.144 26.058C12.144 25.786 12.064 25.538 11.904 25.314C11.76 25.106 11.488 25.002 11.088 25.002H8.04L8.184 21.714H16.368C16.72 21.714 16.896 22.242 16.896 23.298C16.896 24.434 16.72 25.002 16.368 25.002H14.52C14.872 25.242 15.048 25.77 15.048 26.586C15.048 27.018 14.944 27.482 14.736 27.978C14.544 28.474 14.224 28.93 13.776 29.346C13.344 29.762 12.768 30.106 12.048 30.378C11.328 30.666 10.44 30.81 9.384 30.81H6.72C4.928 30.81 3.536 30.258 2.544 29.154C1.552 28.05 1.056 26.538 1.056 24.618V20.25H4.08V24.474C4.08 24.938 4.128 25.354 4.224 25.722C4.32 26.106 4.48 26.426 4.704 26.682C4.944 26.954 5.256 27.162 5.64 27.306C6.04 27.45 6.536 27.522 7.128 27.522H8.976ZM18.6154 21.714C19.0794 21.714 19.4074 21.61 19.5994 21.402C19.8074 21.178 19.9114 20.834 19.9114 20.37V17.874H22.9594V20.634C22.9594 22.09 22.6074 23.186 21.9034 23.922C21.2154 24.642 20.2074 25.002 18.8794 25.002H16.3594C16.1514 25.002 16.0154 24.874 15.9514 24.618C15.8714 24.346 15.8314 23.946 15.8314 23.418C15.8314 22.81 15.8714 22.378 15.9514 22.122C16.0154 21.85 16.1514 21.714 16.3594 21.714H18.6154ZM22.8154 30.402H19.9114V27.618H22.8154V30.402ZM19.1194 30.402H16.2154V27.618H19.1194V30.402ZM27.5961 27.522C28.6681 27.522 29.4361 27.274 29.9001 26.778C30.3641 26.298 30.6361 25.706 30.7161 25.002H29.5881C28.7561 25.002 28.0761 24.914 27.5481 24.738C27.0201 24.562 26.6041 24.298 26.3001 23.946C25.9961 23.594 25.7801 23.17 25.6521 22.674C25.5401 22.162 25.4841 21.578 25.4841 20.922C25.4841 20.298 25.5721 19.706 25.7481 19.146C25.9241 18.57 26.1801 18.074 26.5161 17.658C26.8681 17.242 27.3001 16.914 27.8121 16.674C28.3401 16.418 28.9481 16.29 29.6361 16.29C30.1801 16.29 30.6921 16.378 31.1721 16.554C31.6681 16.73 32.1001 17.01 32.4681 17.394C32.8361 17.778 33.1241 18.282 33.3321 18.906C33.5561 19.53 33.6681 20.29 33.6681 21.186V21.714H35.3961C35.7481 21.714 35.9241 22.242 35.9241 23.298C35.9241 24.434 35.7481 25.002 35.3961 25.002H33.6441C33.5961 25.786 33.4281 26.53 33.1401 27.234C32.8521 27.938 32.4521 28.554 31.9401 29.082C31.4441 29.61 30.8361 30.026 30.1161 30.33C29.3961 30.65 28.5961 30.81 27.7161 30.81H25.3641L25.2201 27.522H27.5961ZM28.3881 20.682C28.3881 21.066 28.4681 21.338 28.6281 21.498C28.8041 21.642 29.1241 21.714 29.5881 21.714H30.7641V21.042C30.7641 20.434 30.6601 20.018 30.4521 19.794C30.2601 19.57 29.9561 19.458 29.5401 19.458C28.7721 19.458 28.3881 19.866 28.3881 20.682ZM36.9746 21.714C37.4386 21.714 37.7746 21.61 37.9826 21.402C38.1906 21.178 38.2946 20.834 38.2946 20.37V17.874H41.3426V20.37C41.3426 20.834 41.4866 21.178 41.7746 21.402C42.0626 21.61 42.4386 21.714 42.9026 21.714H43.4306C43.7986 21.714 43.9826 22.242 43.9826 23.298C43.9826 24.434 43.7986 25.002 43.4306 25.002H42.7826C42.1746 25.002 41.6146 24.914 41.1026 24.738C40.6066 24.546 40.1586 24.146 39.7586 23.538C39.3426 24.146 38.9026 24.546 38.4386 24.738C37.9906 24.914 37.5026 25.002 36.9746 25.002H35.3906C35.1826 25.002 35.0466 24.874 34.9826 24.618C34.9026 24.346 34.8626 23.946 34.8626 23.418C34.8626 22.81 34.9026 22.378 34.9826 22.122C35.0466 21.85 35.1826 21.714 35.3906 21.714H36.9746ZM42.7586 15.234H39.8546V12.45H42.7586V15.234ZM39.0626 15.234H36.1586V12.45H39.0626V15.234ZM45.0137 21.714C45.4777 21.714 45.8137 21.61 46.0217 21.402C46.2297 21.178 46.3337 20.834 46.3337 20.37V17.874H49.3817V20.37C49.3817 20.834 49.5257 21.178 49.8137 21.402C50.1017 21.61 50.4777 21.714 50.9417 21.714H51.4697C51.8377 21.714 52.0217 22.242 52.0217 23.298C52.0217 24.434 51.8377 25.002 51.4697 25.002H50.8217C50.2137 25.002 49.6537 24.914 49.1417 24.738C48.6457 24.546 48.1977 24.146 47.7977 23.538C47.3817 24.146 46.9417 24.546 46.4777 24.738C46.0297 24.914 45.5417 25.002 45.0137 25.002H43.4297C43.2217 25.002 43.0857 24.874 43.0217 24.618C42.9417 24.346 42.9017 23.946 42.9017 23.418C42.9017 22.81 42.9417 22.378 43.0217 22.122C43.0857 21.85 43.2217 21.714 43.4297 21.714H45.0137ZM48.5897 34.098H45.6617V31.314H48.5897V34.098ZM50.4137 30.402H47.5097V27.618H50.4137V30.402ZM46.7177 30.402H43.8137V27.618H46.7177V30.402ZM51.4688 25.002C51.2607 25.002 51.1247 24.874 51.0607 24.618C50.9807 24.346 50.9407 23.946 50.9407 23.418C50.9407 22.81 50.9807 22.378 51.0607 22.122C51.1247 21.85 51.2607 21.714 51.4688 21.714H57.0128C57.8928 21.714 58.3328 21.266 58.3328 20.37V17.874H61.3808V20.634C61.3808 22.09 61.0288 23.186 60.3248 23.922C59.6208 24.642 58.6048 25.002 57.2768 25.002H51.4688ZM58.1888 30.402H55.2848V27.618H58.1888V30.402ZM54.4928 30.402H51.5888V27.618H54.4928V30.402ZM67.4501 20.37C67.4501 20.834 67.5861 21.178 67.8581 21.402C68.1461 21.61 68.4901 21.714 68.8901 21.714H69.1541C69.5061 21.714 69.6821 22.242 69.6821 23.298C69.6821 24.434 69.5061 25.002 69.1541 25.002H68.8901C68.6181 25.002 68.3381 24.962 68.0501 24.882C67.7781 24.786 67.5301 24.602 67.3061 24.33V24.618C67.3061 25.434 67.1621 26.218 66.8741 26.97C66.6021 27.722 66.2101 28.378 65.6981 28.938C65.2021 29.514 64.6021 29.97 63.8981 30.306C63.2101 30.642 62.4501 30.81 61.6181 30.81H61.0181L60.7781 27.522H61.0901C61.6821 27.522 62.1861 27.434 62.6021 27.258C63.0341 27.098 63.3781 26.882 63.6341 26.61C63.9061 26.338 64.0981 26.026 64.2101 25.674C64.3381 25.338 64.4021 24.986 64.4021 24.618V17.874H67.4501V20.37ZM74.8286 21.714C75.0846 21.714 75.2526 21.658 75.3326 21.546C75.4286 21.434 75.4766 21.314 75.4766 21.186C75.4766 20.978 75.4366 20.794 75.3566 20.634C75.2926 20.474 75.1566 20.298 74.9486 20.106L70.8446 16.026V12.594L78.7886 9.68995L79.4366 12.714L73.7726 14.706L76.7966 17.754C77.7886 18.746 78.5886 19.514 79.1966 20.058C79.8206 20.586 80.3486 20.978 80.7806 21.234C81.2286 21.474 81.6446 21.618 82.0286 21.666C82.4126 21.698 82.8686 21.714 83.3966 21.714C83.7486 21.714 83.9246 22.242 83.9246 23.298C83.9246 24.434 83.7486 25.002 83.3966 25.002C82.8846 25.002 82.4206 24.994 82.0046 24.978C81.6046 24.962 81.2126 24.898 80.8286 24.786C80.4446 24.658 80.0606 24.466 79.6766 24.21C79.2926 23.954 78.8686 23.586 78.4046 23.106C78.1646 23.81 77.7486 24.306 77.1566 24.594C76.5806 24.866 75.9326 25.002 75.2126 25.002H69.1406C68.9326 25.002 68.7966 24.874 68.7326 24.618C68.6526 24.346 68.6126 23.946 68.6126 23.418C68.6126 22.81 68.6526 22.378 68.7326 22.122C68.7966 21.85 68.9326 21.714 69.1406 21.714H74.8286ZM84.5906 21.714C85.4706 21.714 85.9106 21.266 85.9106 20.37V17.874H88.9346V20.37C88.9346 20.834 89.0706 21.178 89.3426 21.402C89.6306 21.61 89.9746 21.714 90.3746 21.714C90.9026 21.714 91.2786 21.61 91.5026 21.402C91.7266 21.178 91.8386 20.834 91.8386 20.37V17.874H94.8866V20.37C94.8866 20.834 94.9986 21.178 95.2226 21.402C95.4626 21.61 95.7426 21.714 96.0626 21.714C96.8466 21.714 97.2386 21.266 97.2386 20.37V17.874H100.287V20.37C100.287 20.834 100.431 21.178 100.719 21.402C101.007 21.61 101.351 21.714 101.751 21.714H102.399C102.607 21.714 102.743 21.842 102.807 22.098C102.887 22.354 102.927 22.754 102.927 23.298C102.927 23.89 102.887 24.322 102.807 24.594C102.743 24.866 102.607 25.002 102.399 25.002H101.751C101.143 25.002 100.583 24.914 100.071 24.738C99.5586 24.546 99.1026 24.146 98.7026 23.538C98.3026 24.146 97.8626 24.546 97.3826 24.738C96.9026 24.914 96.4626 25.002 96.0626 25.002C95.5346 25.002 95.0386 24.914 94.5746 24.738C94.1266 24.546 93.7026 24.146 93.3026 23.538C92.9026 24.146 92.4466 24.546 91.9346 24.738C91.4226 24.914 90.9026 25.002 90.3746 25.002C89.7826 25.002 89.2306 24.914 88.7186 24.738C88.2066 24.546 87.7506 24.146 87.3506 23.538C86.9506 24.146 86.5186 24.546 86.0546 24.738C85.6066 24.914 85.1186 25.002 84.5906 25.002H83.3906C83.1826 25.002 83.0466 24.874 82.9826 24.618C82.9026 24.346 82.8626 23.946 82.8626 23.418C82.8626 22.81 82.9026 22.378 82.9826 22.122C83.0466 21.85 83.1826 21.714 83.3906 21.714H84.5906ZM108.086 21.714C108.342 21.714 108.51 21.658 108.59 21.546C108.686 21.434 108.734 21.314 108.734 21.186C108.734 20.978 108.694 20.794 108.614 20.634C108.55 20.474 108.414 20.298 108.206 20.106L104.102 16.026V12.594L112.046 9.68995L112.694 12.714L107.03 14.706L110.054 17.754C110.438 18.154 110.758 18.522 111.014 18.858C111.27 19.194 111.47 19.522 111.614 19.842C111.774 20.146 111.886 20.45 111.95 20.754C112.014 21.058 112.046 21.378 112.046 21.714C112.046 22.306 111.95 22.81 111.758 23.226C111.566 23.642 111.31 23.986 110.99 24.258C110.67 24.514 110.294 24.706 109.862 24.834C109.43 24.946 108.966 25.002 108.47 25.002H102.398C102.19 25.002 102.054 24.874 101.99 24.618C101.91 24.346 101.87 23.946 101.87 23.418C101.87 22.81 101.91 22.378 101.99 22.122C102.054 21.85 102.19 21.714 102.398 21.714H108.086ZM114.667 10.122H117.715V25.002H114.667V10.122Z" fill="#FFDF2C"/>
</svg>
