<svg width="580" height="379" viewBox="0 0 580 379" fill="none" xmlns="http://www.w3.org/2000/svg">
<g filter="url(#filter0_d)">
<rect x="50.7207" y="50" width="479.279" height="279" rx="20" fill="#1E1E1E"/>
</g>
<path d="M175.887 262.344C176.239 262.344 176.535 262.304 176.775 262.224C177.015 262.128 177.207 262.016 177.351 261.888C177.511 261.744 177.623 261.592 177.687 261.432C177.767 261.272 177.807 261.12 177.807 260.976C177.807 260.816 177.775 260.6 177.711 260.328C177.647 260.056 177.527 259.656 177.351 259.128C177.191 258.6 176.951 257.896 176.631 257.016C176.327 256.136 175.927 255.008 175.431 253.632L176.895 253.032L179.463 260.352C179.719 261.072 180.015 261.584 180.351 261.888C180.687 262.192 181.159 262.344 181.767 262.344H182.103C182.455 262.344 182.631 262.616 182.631 263.16C182.631 263.72 182.455 264 182.103 264H181.767C181.239 264 180.735 263.904 180.255 263.712C179.775 263.504 179.335 263.064 178.935 262.392C178.599 263.048 178.175 263.48 177.663 263.688C177.167 263.896 176.623 264 176.031 264H170.871L170.751 262.344H175.887ZM183.92 262.344C184.592 262.344 185.104 262.176 185.456 261.84C185.808 261.504 185.984 261.04 185.984 260.448V257.136H187.544V260.448C187.544 260.8 187.6 261.096 187.712 261.336C187.84 261.576 188 261.776 188.192 261.936C188.384 262.08 188.6 262.184 188.84 262.248C189.08 262.312 189.328 262.344 189.584 262.344H190.304C190.672 262.344 190.856 262.616 190.856 263.16C190.856 263.72 190.672 264 190.304 264H189.536C188.96 264 188.424 263.896 187.928 263.688C187.432 263.464 187.024 263.048 186.704 262.44C186.336 263.048 185.912 263.464 185.432 263.688C184.968 263.896 184.464 264 183.92 264H182.096C181.888 264 181.752 263.936 181.688 263.808C181.608 263.68 181.568 263.48 181.568 263.208C181.568 262.92 181.608 262.704 181.688 262.56C181.752 262.416 181.888 262.344 182.096 262.344H183.92ZM188.576 268.488H186.752V266.784H188.576V268.488ZM185.456 268.488H183.608V266.784H185.456V268.488ZM192.123 262.344C192.795 262.344 193.307 262.176 193.659 261.84C194.011 261.504 194.187 261.04 194.187 260.448V257.136H195.747V260.448C195.747 260.8 195.803 261.096 195.915 261.336C196.043 261.576 196.203 261.776 196.395 261.936C196.587 262.08 196.803 262.184 197.043 262.248C197.283 262.312 197.531 262.344 197.787 262.344H198.507C198.875 262.344 199.059 262.616 199.059 263.16C199.059 263.72 198.875 264 198.507 264H197.739C197.163 264 196.627 263.896 196.131 263.688C195.635 263.464 195.227 263.048 194.907 262.44C194.539 263.048 194.115 263.464 193.635 263.688C193.171 263.896 192.667 264 192.123 264H190.299C190.091 264 189.955 263.936 189.891 263.808C189.811 263.68 189.771 263.48 189.771 263.208C189.771 262.92 189.811 262.704 189.891 262.56C189.955 262.416 190.091 262.344 190.299 262.344H192.123ZM195.795 254.064H193.779V252.312H195.795V254.064ZM204.838 262.344C205.558 262.344 206.054 262.2 206.326 261.912C206.598 261.608 206.734 261.248 206.734 260.832C206.734 260.56 206.686 260.256 206.59 259.92C206.494 259.584 206.23 259.2 205.798 258.768L200.614 253.608V251.904L208.558 248.76L208.966 250.32L202.15 252.984L206.494 257.328C206.878 257.728 207.19 258.088 207.43 258.408C207.686 258.728 207.886 259.032 208.03 259.32C208.174 259.608 208.27 259.888 208.318 260.16C208.366 260.432 208.39 260.72 208.39 261.024C208.39 261.536 208.302 261.984 208.126 262.368C207.966 262.736 207.734 263.04 207.43 263.28C207.126 263.52 206.766 263.704 206.35 263.832C205.934 263.944 205.478 264 204.982 264H198.502C198.294 264 198.158 263.936 198.094 263.808C198.014 263.68 197.974 263.48 197.974 263.208C197.974 262.92 198.014 262.704 198.094 262.56C198.158 262.416 198.294 262.344 198.502 262.344H204.838ZM223.654 258.288C224.07 258.752 224.366 259.216 224.542 259.68C224.734 260.128 224.83 260.568 224.83 261C224.83 261.864 224.518 262.584 223.894 263.16C223.286 263.72 222.414 264 221.278 264H214.582L214.462 262.344H221.086C221.71 262.344 222.19 262.2 222.526 261.912C222.878 261.624 223.054 261.248 223.054 260.784C223.054 260.56 222.998 260.312 222.886 260.04C222.774 259.768 222.606 259.512 222.382 259.272L217.918 254.232L219.142 253.08L223.654 258.288ZM230.889 264C230.473 264 230.073 263.944 229.689 263.832C229.305 263.704 228.961 263.496 228.657 263.208C228.369 262.92 228.137 262.544 227.961 262.08C227.785 261.6 227.697 261.008 227.697 260.304V249.12H229.257V260.016C229.257 260.688 229.401 261.248 229.689 261.696C229.993 262.128 230.481 262.344 231.153 262.344H231.561C231.913 262.344 232.089 262.616 232.089 263.16C232.089 263.72 231.913 264 231.561 264H230.889ZM241.964 260.568C242.236 261.24 242.54 261.704 242.876 261.96C243.228 262.216 243.7 262.344 244.292 262.344H245.876C246.084 262.344 246.22 262.416 246.284 262.56C246.364 262.688 246.404 262.888 246.404 263.16C246.404 263.448 246.364 263.664 246.284 263.808C246.22 263.936 246.084 264 245.876 264H244.172C243.644 264 243.196 263.928 242.828 263.784C242.476 263.64 242.172 263.448 241.916 263.208C241.676 262.952 241.468 262.656 241.292 262.32C241.132 261.984 240.98 261.616 240.836 261.216L238.508 262.584C238.092 262.824 237.692 263.04 237.308 263.232C236.924 263.408 236.508 263.552 236.06 263.664C235.612 263.776 235.116 263.864 234.572 263.928C234.044 263.976 233.436 264 232.748 264H231.572C231.364 264 231.228 263.936 231.164 263.808C231.084 263.68 231.044 263.48 231.044 263.208C231.044 262.92 231.084 262.704 231.164 262.56C231.228 262.416 231.364 262.344 231.572 262.344H232.772C233.396 262.344 233.948 262.328 234.428 262.296C234.908 262.248 235.348 262.184 235.748 262.104C236.148 262.008 236.524 261.888 236.876 261.744C237.228 261.6 237.588 261.416 237.956 261.192L242.012 258.84C241.884 258.504 241.748 258.2 241.604 257.928C241.46 257.64 241.276 257.4 241.052 257.208C240.844 257.016 240.58 256.872 240.26 256.776C239.94 256.664 239.54 256.608 239.06 256.608H233.684L233.828 254.952H239.276C239.692 254.952 240.116 255 240.548 255.096C240.996 255.192 241.412 255.4 241.796 255.72C242.196 256.024 242.564 256.48 242.9 257.088C243.252 257.696 243.54 258.504 243.764 259.512L241.964 260.568ZM238.436 268.536H236.42V266.784H238.436V268.536ZM248.029 262.344C248.653 262.344 249.149 262.176 249.517 261.84C249.901 261.504 250.093 261.04 250.093 260.448V257.136H251.653V260.448C251.653 261.584 251.333 262.464 250.693 263.088C250.069 263.696 249.213 264 248.125 264H245.869C245.661 264 245.525 263.936 245.461 263.808C245.381 263.68 245.341 263.48 245.341 263.208C245.341 262.92 245.381 262.704 245.461 262.56C245.525 262.416 245.661 262.344 245.869 262.344H248.029ZM251.005 268.488H249.181V266.784H251.005V268.488ZM247.885 268.488H246.037V266.784H247.885V268.488ZM254.65 249.12H256.21V264H254.65V249.12ZM270.284 268.176C270.956 268.176 271.58 268.088 272.156 267.912C272.732 267.736 273.228 267.488 273.644 267.168C274.076 266.864 274.412 266.496 274.652 266.064C274.908 265.648 275.036 265.2 275.036 264.72C275.036 264.288 274.916 263.928 274.676 263.64C274.436 263.336 273.964 263.184 273.26 263.184H269.084V259.032C269.084 257.816 269.436 256.832 270.14 256.08C270.844 255.312 271.82 254.928 273.068 254.928H275.828L275.948 256.584H272.972C272.668 256.584 272.372 256.64 272.084 256.752C271.812 256.848 271.564 257 271.34 257.208C271.132 257.4 270.956 257.648 270.812 257.952C270.684 258.24 270.62 258.584 270.62 258.984V261.528H273.548C274.14 261.528 274.628 261.608 275.012 261.768C275.412 261.912 275.724 262.12 275.948 262.392C276.188 262.648 276.348 262.952 276.428 263.304C276.524 263.656 276.572 264.032 276.572 264.432C276.572 265.184 276.412 265.888 276.092 266.544C275.772 267.2 275.34 267.768 274.796 268.248C274.252 268.728 273.604 269.104 272.852 269.376C272.116 269.664 271.332 269.808 270.5 269.808H268.46C266.668 269.808 265.276 269.256 264.284 268.152C263.292 267.048 262.796 265.536 262.796 263.616V259.416H264.332V263.568C264.332 264.256 264.412 264.88 264.572 265.44C264.748 266 265.012 266.48 265.364 266.88C265.732 267.296 266.188 267.616 266.732 267.84C267.276 268.064 267.932 268.176 268.7 268.176H270.284ZM283.018 260.52C283.018 261.08 283.202 261.528 283.57 261.864C283.938 262.184 284.426 262.344 285.034 262.344H285.298C285.65 262.344 285.826 262.616 285.826 263.16C285.826 263.72 285.65 264 285.298 264H285.034C284.65 264 284.266 263.928 283.882 263.784C283.514 263.64 283.21 263.392 282.97 263.04V263.616C282.97 264.544 282.826 265.384 282.538 266.136C282.25 266.904 281.85 267.56 281.338 268.104C280.826 268.648 280.226 269.064 279.538 269.352C278.85 269.656 278.098 269.808 277.282 269.808H276.682L276.514 268.176H276.994C277.778 268.176 278.45 268.048 279.01 267.792C279.57 267.536 280.026 267.192 280.378 266.76C280.746 266.344 281.018 265.864 281.194 265.32C281.37 264.776 281.458 264.208 281.458 263.616V257.136H283.018V260.52ZM285.291 264C285.083 264 284.947 263.936 284.883 263.808C284.803 263.68 284.763 263.48 284.763 263.208C284.763 262.92 284.803 262.704 284.883 262.56C284.947 262.416 285.083 262.344 285.291 262.344H290.763C291.387 262.344 291.883 262.176 292.251 261.84C292.619 261.504 292.803 261.04 292.803 260.448V257.136H294.387V260.448C294.387 261.584 294.067 262.464 293.427 263.088C292.787 263.696 291.931 264 290.859 264H285.291ZM289.275 268.536H287.259V266.784H289.275V268.536ZM293.249 268.176H293.729C294.513 268.176 295.185 268.048 295.745 267.792C296.305 267.536 296.761 267.192 297.113 266.76C297.481 266.344 297.753 265.864 297.929 265.32C298.105 264.776 298.193 264.208 298.193 263.616V257.136H299.753V263.616C299.753 264.544 299.601 265.384 299.297 266.136C299.009 266.904 298.609 267.56 298.097 268.104C297.585 268.648 296.977 269.064 296.273 269.352C295.585 269.656 294.833 269.808 294.017 269.808H293.417L293.249 268.176ZM305.936 264C305.52 264 305.12 263.944 304.736 263.832C304.352 263.704 304.008 263.496 303.704 263.208C303.416 262.92 303.184 262.544 303.008 262.08C302.832 261.6 302.744 261.008 302.744 260.304V249.12H304.304V260.016C304.304 260.688 304.448 261.248 304.736 261.696C305.04 262.128 305.528 262.344 306.2 262.344H306.608C306.96 262.344 307.136 262.616 307.136 263.16C307.136 263.72 306.96 264 306.608 264H305.936ZM312.955 262.344C313.675 262.344 314.171 262.2 314.443 261.912C314.715 261.608 314.851 261.248 314.851 260.832C314.851 260.56 314.803 260.256 314.707 259.92C314.611 259.584 314.347 259.2 313.915 258.768L308.731 253.608V251.904L316.675 248.76L317.083 250.32L310.267 252.984L314.611 257.328C314.995 257.728 315.307 258.088 315.547 258.408C315.803 258.728 316.003 259.032 316.147 259.32C316.291 259.608 316.387 259.888 316.435 260.16C316.483 260.432 316.507 260.72 316.507 261.024C316.507 261.536 316.419 261.984 316.243 262.368C316.083 262.736 315.851 263.04 315.547 263.28C315.243 263.52 314.883 263.704 314.467 263.832C314.051 263.944 313.595 264 313.099 264H306.619C306.411 264 306.275 263.936 306.211 263.808C306.131 263.68 306.091 263.48 306.091 263.208C306.091 262.92 306.131 262.704 306.211 262.56C306.275 262.416 306.411 262.344 306.619 262.344H312.955ZM326.587 264C325.931 264 325.363 263.904 324.883 263.712C324.419 263.504 324.035 263.232 323.731 262.896C323.443 262.56 323.227 262.168 323.083 261.72C322.955 261.272 322.891 260.8 322.891 260.304V257.088H324.427V259.944C324.427 260.664 324.611 261.248 324.979 261.696C325.347 262.128 325.995 262.344 326.923 262.344H335.107C335.763 262.344 336.267 262.176 336.619 261.84C336.987 261.504 337.171 261.04 337.171 260.448V257.136H338.731V260.664C338.731 261.192 338.635 261.664 338.443 262.08C338.267 262.496 338.019 262.848 337.699 263.136C337.395 263.424 337.035 263.64 336.619 263.784C336.219 263.928 335.787 264 335.323 264H326.587ZM331.699 268.536H329.683V266.784H331.699V268.536ZM344.842 264C344.426 264 344.026 263.944 343.642 263.832C343.258 263.704 342.914 263.496 342.61 263.208C342.322 262.92 342.09 262.544 341.914 262.08C341.738 261.6 341.65 261.008 341.65 260.304V249.12H343.21V260.016C343.21 260.688 343.354 261.248 343.642 261.696C343.946 262.128 344.434 262.344 345.106 262.344H345.514C345.866 262.344 346.042 262.616 346.042 263.16C346.042 263.72 345.866 264 345.514 264H344.842ZM346.389 262.344C347.061 262.344 347.581 262.176 347.949 261.84C348.333 261.504 348.525 261.04 348.525 260.448V257.136H350.085V260.448C350.085 260.8 350.141 261.096 350.253 261.336C350.381 261.576 350.541 261.776 350.733 261.936C350.941 262.08 351.165 262.184 351.405 262.248C351.661 262.312 351.917 262.344 352.173 262.344C352.925 262.344 353.493 262.176 353.877 261.84C354.277 261.504 354.477 261.04 354.477 260.448V257.136H356.037V260.448C356.037 261.152 356.229 261.648 356.613 261.936C357.013 262.208 357.461 262.344 357.957 262.344C358.597 262.344 359.085 262.176 359.421 261.84C359.773 261.504 359.949 261.04 359.949 260.448V257.136H361.509V260.448C361.509 260.8 361.565 261.096 361.677 261.336C361.805 261.576 361.957 261.776 362.133 261.936C362.325 262.08 362.541 262.184 362.781 262.248C363.021 262.312 363.261 262.344 363.501 262.344H363.957C364.165 262.344 364.301 262.416 364.365 262.56C364.445 262.688 364.485 262.888 364.485 263.16C364.485 263.448 364.445 263.664 364.365 263.808C364.301 263.936 364.165 264 363.957 264H363.501C362.925 264 362.389 263.896 361.893 263.688C361.397 263.464 360.989 263.048 360.669 262.44C360.301 263.048 359.869 263.464 359.373 263.688C358.893 263.896 358.421 264 357.957 264C357.381 264 356.853 263.896 356.373 263.688C355.893 263.464 355.493 263.048 355.173 262.44C354.821 263.048 354.373 263.464 353.829 263.688C353.301 263.896 352.749 264 352.173 264C351.549 264 350.981 263.896 350.469 263.688C349.957 263.464 349.541 263.048 349.221 262.44C348.869 263.048 348.437 263.464 347.925 263.688C347.413 263.896 346.869 264 346.293 264H345.525C345.317 264 345.181 263.936 345.117 263.808C345.037 263.68 344.997 263.48 344.997 263.208C344.997 262.92 345.037 262.704 345.117 262.56C345.181 262.416 345.317 262.344 345.525 262.344H346.389ZM370.883 262.584C370.467 262.824 370.067 263.04 369.683 263.232C369.299 263.408 368.883 263.552 368.435 263.664C367.987 263.776 367.491 263.864 366.947 263.928C366.419 263.976 365.811 264 365.123 264H363.947C363.739 264 363.603 263.936 363.539 263.808C363.459 263.68 363.419 263.48 363.419 263.208C363.419 262.92 363.459 262.704 363.539 262.56C363.603 262.416 363.739 262.344 363.947 262.344H365.147C365.771 262.344 366.323 262.328 366.803 262.296C367.283 262.248 367.723 262.184 368.123 262.104C368.523 262.008 368.899 261.888 369.251 261.744C369.603 261.6 369.963 261.416 370.331 261.192L374.387 258.84C374.259 258.504 374.123 258.2 373.979 257.928C373.835 257.64 373.651 257.4 373.427 257.208C373.219 257.016 372.955 256.872 372.635 256.776C372.315 256.664 371.915 256.608 371.435 256.608H366.059L366.203 254.952H371.651C372.067 254.952 372.491 255 372.923 255.096C373.371 255.192 373.787 255.4 374.171 255.72C374.571 256.024 374.939 256.48 375.275 257.088C375.627 257.696 375.915 258.504 376.139 259.512L370.883 262.584ZM390.755 253.608V251.904L398.723 248.76L399.107 250.32L392.315 252.984L396.635 257.328C397.451 258.144 398.147 258.832 398.723 259.392C399.299 259.952 399.795 260.424 400.211 260.808C400.627 261.176 400.979 261.464 401.267 261.672C401.571 261.88 401.843 262.032 402.083 262.128C402.323 262.224 402.547 262.288 402.755 262.32C402.979 262.336 403.227 262.344 403.499 262.344C403.707 262.344 403.843 262.416 403.907 262.56C403.987 262.688 404.027 262.888 404.027 263.16C404.027 263.448 403.987 263.664 403.907 263.808C403.843 263.936 403.707 264 403.499 264C403.051 264 402.643 263.96 402.275 263.88C401.923 263.8 401.555 263.648 401.171 263.424C400.803 263.2 400.395 262.896 399.947 262.512C399.499 262.128 398.963 261.624 398.339 261C398.387 261.528 398.331 261.984 398.171 262.368C398.027 262.736 397.803 263.04 397.499 263.28C397.211 263.52 396.859 263.704 396.443 263.832C396.043 263.944 395.611 264 395.147 264H386.003C385.347 264 384.779 263.904 384.299 263.712C383.835 263.504 383.451 263.232 383.147 262.896C382.859 262.56 382.643 262.168 382.499 261.72C382.371 261.272 382.307 260.8 382.307 260.304V257.088H383.843V259.944C383.843 260.68 384.027 261.264 384.395 261.696C384.779 262.128 385.427 262.344 386.339 262.344H395.003C395.723 262.344 396.219 262.2 396.491 261.912C396.763 261.608 396.899 261.248 396.899 260.832C396.899 260.56 396.843 260.256 396.731 259.92C396.635 259.584 396.371 259.2 395.939 258.768L390.755 253.608ZM405.67 262.344C406.294 262.344 406.79 262.176 407.158 261.84C407.542 261.504 407.734 261.04 407.734 260.448V257.136H409.294V260.448C409.294 261.584 408.974 262.464 408.334 263.088C407.71 263.696 406.854 264 405.766 264H403.51C403.302 264 403.166 263.936 403.102 263.808C403.022 263.68 402.982 263.48 402.982 263.208C402.982 262.92 403.022 262.704 403.102 262.56C403.166 262.416 403.302 262.344 403.51 262.344H405.67ZM408.646 268.488H406.822V266.784H408.646V268.488ZM405.526 268.488H403.678V266.784H405.526V268.488Z" fill="white"/>
<path fill-rule="evenodd" clip-rule="evenodd" d="M283.925 150.688C271.111 150.688 260.168 152.624 260.168 160.384C260.168 168.141 271.041 170.151 283.925 170.151C296.738 170.151 307.681 168.211 307.681 160.454C307.681 152.698 296.808 150.688 283.925 150.688Z" stroke="#FFDF2C" stroke-width="5" stroke-linecap="round" stroke-linejoin="round"/>
<path opacity="0.5" fill-rule="evenodd" clip-rule="evenodd" d="M283.924 139.62C292.377 139.62 299.151 132.843 299.151 124.393C299.151 115.94 292.377 109.167 283.924 109.167C275.474 109.167 268.697 115.94 268.697 124.393C268.697 132.843 275.474 139.62 283.924 139.62Z" stroke="#FFDF2C" stroke-width="5" stroke-linecap="round" stroke-linejoin="round"/>
<path d="M315.014 128.897V142.264" stroke="#FFDF2C" stroke-width="5" stroke-linecap="round" stroke-linejoin="round"/>
<path d="M321.833 135.58H308.199" stroke="#FFDF2C" stroke-width="5" stroke-linecap="round" stroke-linejoin="round"/>
<defs>
<filter id="filter0_d" x="0.720703" y="0" width="579.279" height="379" filterUnits="userSpaceOnUse" color-interpolation-filters="sRGB">
<feFlood flood-opacity="0" result="BackgroundImageFix"/>
<feColorMatrix in="SourceAlpha" type="matrix" values="0 0 0 0 0 0 0 0 0 0 0 0 0 0 0 0 0 0 127 0"/>
<feOffset/>
<feGaussianBlur stdDeviation="25"/>
<feColorMatrix type="matrix" values="0 0 0 0 0 0 0 0 0 0 0 0 0 0 0 0 0 0 0.05 0"/>
<feBlend mode="normal" in2="BackgroundImageFix" result="effect1_dropShadow"/>
<feBlend mode="normal" in="SourceGraphic" in2="effect1_dropShadow" result="shape"/>
</filter>
</defs>
</svg>
