<svg width="227" height="60" viewBox="0 0 227 60" fill="none" xmlns="http://www.w3.org/2000/svg">
<rect width="227" height="60" rx="30" fill="#0d0b01"/>
<path d="M34.724 36.73C35.4 36.73 35.9547 36.6953 36.388 36.626C36.8387 36.574 37.194 36.4873 37.454 36.366C37.714 36.2447 37.896 36.08 38 35.872C38.104 35.6813 38.156 35.4387 38.156 35.144C38.156 34.8493 38.0693 34.5807 37.896 34.338C37.74 34.1127 37.4453 34 37.012 34H33.71L33.866 30.438H42.732C43.1133 30.438 43.304 31.01 43.304 32.154C43.304 33.3847 43.1133 34 42.732 34H40.73C41.1113 34.26 41.302 34.832 41.302 35.716C41.302 36.184 41.1893 36.6867 40.964 37.224C40.756 37.7613 40.4093 38.2553 39.924 38.706C39.456 39.1567 38.832 39.5293 38.052 39.824C37.272 40.136 36.31 40.292 35.166 40.292H32.28C30.3387 40.292 28.8307 39.694 27.756 38.498C26.6813 37.302 26.144 35.664 26.144 33.584V28.852H29.42V33.428C29.42 33.9307 29.472 34.3813 29.576 34.78C29.68 35.196 29.8533 35.5427 30.096 35.82C30.356 36.1147 30.694 36.34 31.11 36.496C31.5433 36.652 32.0807 36.73 32.722 36.73H34.724ZM45.1667 30.438C45.6693 30.438 46.0247 30.3253 46.2327 30.1C46.458 29.8573 46.5707 29.4847 46.5707 28.982V26.278H49.8727V29.268C49.8727 30.8453 49.4913 32.0327 48.7287 32.83C47.9833 33.61 46.8913 34 45.4527 34H42.7227C42.4973 34 42.35 33.8613 42.2807 33.584C42.194 33.2893 42.1507 32.856 42.1507 32.284C42.1507 31.6253 42.194 31.1573 42.2807 30.88C42.35 30.5853 42.4973 30.438 42.7227 30.438H45.1667ZM49.7167 39.85H46.5707V36.834H49.7167V39.85ZM45.7127 39.85H42.5667V36.834H45.7127V39.85ZM54.8957 36.73C56.0571 36.73 56.8891 36.4613 57.3917 35.924C57.8944 35.404 58.1891 34.7627 58.2757 34H57.0537C56.1524 34 55.4157 33.9047 54.8437 33.714C54.2717 33.5233 53.8211 33.2373 53.4917 32.856C53.1624 32.4747 52.9284 32.0153 52.7897 31.478C52.6684 30.9233 52.6077 30.2907 52.6077 29.58C52.6077 28.904 52.7031 28.2627 52.8937 27.656C53.0844 27.032 53.3617 26.4947 53.7257 26.044C54.1071 25.5933 54.5751 25.238 55.1297 24.978C55.7017 24.7007 56.3604 24.562 57.1057 24.562C57.6951 24.562 58.2497 24.6573 58.7697 24.848C59.3071 25.0387 59.7751 25.342 60.1737 25.758C60.5724 26.174 60.8844 26.72 61.1097 27.396C61.3524 28.072 61.4737 28.8953 61.4737 29.866V30.438H63.3457C63.7271 30.438 63.9177 31.01 63.9177 32.154C63.9177 33.3847 63.7271 34 63.3457 34H61.4477C61.3957 34.8493 61.2137 35.6553 60.9017 36.418C60.5897 37.1807 60.1564 37.848 59.6017 38.42C59.0644 38.992 58.4057 39.4427 57.6257 39.772C56.8457 40.1187 55.9791 40.292 55.0257 40.292H52.4777L52.3217 36.73H54.8957ZM55.7537 29.32C55.7537 29.736 55.8404 30.0307 56.0137 30.204C56.2044 30.36 56.5511 30.438 57.0537 30.438H58.3277V29.71C58.3277 29.0513 58.2151 28.6007 57.9897 28.358C57.7817 28.1153 57.4524 27.994 57.0017 27.994C56.1697 27.994 55.7537 28.436 55.7537 29.32ZM65.0558 30.438C65.5585 30.438 65.9225 30.3253 66.1478 30.1C66.3732 29.8573 66.4858 29.4847 66.4858 28.982V26.278H69.7878V28.982C69.7878 29.4847 69.9438 29.8573 70.2558 30.1C70.5678 30.3253 70.9752 30.438 71.4778 30.438H72.0498C72.4485 30.438 72.6478 31.01 72.6478 32.154C72.6478 33.3847 72.4485 34 72.0498 34H71.3478C70.6892 34 70.0825 33.9047 69.5278 33.714C68.9905 33.506 68.5052 33.0727 68.0718 32.414C67.6212 33.0727 67.1445 33.506 66.6418 33.714C66.1565 33.9047 65.6278 34 65.0558 34H63.3398C63.1145 34 62.9672 33.8613 62.8978 33.584C62.8112 33.2893 62.7678 32.856 62.7678 32.284C62.7678 31.6253 62.8112 31.1573 62.8978 30.88C62.9672 30.5853 63.1145 30.438 63.3398 30.438H65.0558ZM71.3218 23.418H68.1758V20.402H71.3218V23.418ZM67.3178 23.418H64.1718V20.402H67.3178V23.418ZM73.7648 30.438C74.2675 30.438 74.6315 30.3253 74.8568 30.1C75.0822 29.8573 75.1948 29.4847 75.1948 28.982V26.278H78.4968V28.982C78.4968 29.4847 78.6528 29.8573 78.9648 30.1C79.2768 30.3253 79.6842 30.438 80.1868 30.438H80.7588C81.1575 30.438 81.3568 31.01 81.3568 32.154C81.3568 33.3847 81.1575 34 80.7588 34H80.0568C79.3982 34 78.7915 33.9047 78.2368 33.714C77.6995 33.506 77.2142 33.0727 76.7808 32.414C76.3302 33.0727 75.8535 33.506 75.3508 33.714C74.8655 33.9047 74.3368 34 73.7648 34H72.0488C71.8235 34 71.6762 33.8613 71.6068 33.584C71.5202 33.2893 71.4768 32.856 71.4768 32.284C71.4768 31.6253 71.5202 31.1573 71.6068 30.88C71.6762 30.5853 71.8235 30.438 72.0488 30.438H73.7648ZM77.6388 43.854H74.4668V40.838H77.6388V43.854ZM79.6148 39.85H76.4688V36.834H79.6148V39.85ZM75.6108 39.85H72.4648V36.834H75.6108V39.85ZM80.7578 34C80.5325 34 80.3851 33.8613 80.3158 33.584C80.2291 33.2893 80.1858 32.856 80.1858 32.284C80.1858 31.6253 80.2291 31.1573 80.3158 30.88C80.3851 30.5853 80.5325 30.438 80.7578 30.438H86.7638C87.7171 30.438 88.1938 29.9527 88.1938 28.982V26.278H91.4958V29.268C91.4958 30.8453 91.1145 32.0327 90.3518 32.83C89.5891 33.61 88.4885 34 87.0498 34H80.7578ZM88.0378 39.85H84.8918V36.834H88.0378V39.85ZM84.0338 39.85H80.8878V36.834H84.0338V39.85ZM98.071 28.982C98.071 29.4847 98.2183 29.8573 98.513 30.1C98.825 30.3253 99.1976 30.438 99.631 30.438H99.917C100.298 30.438 100.489 31.01 100.489 32.154C100.489 33.3847 100.298 34 99.917 34H99.631C99.3363 34 99.033 33.9567 98.721 33.87C98.4263 33.766 98.1576 33.5667 97.915 33.272V33.584C97.915 34.468 97.759 35.3173 97.447 36.132C97.1523 36.9467 96.7276 37.6573 96.173 38.264C95.6356 38.888 94.9856 39.382 94.223 39.746C93.4776 40.11 92.6543 40.292 91.753 40.292H91.103L90.843 36.73H91.181C91.8223 36.73 92.3683 36.6347 92.819 36.444C93.287 36.2707 93.6596 36.0367 93.937 35.742C94.2316 35.4473 94.4396 35.1093 94.561 34.728C94.6996 34.364 94.769 33.9827 94.769 33.584V26.278H98.071V28.982ZM106.064 30.438C106.342 30.438 106.524 30.3773 106.61 30.256C106.714 30.1347 106.766 30.0047 106.766 29.866C106.766 29.6407 106.723 29.4413 106.636 29.268C106.567 29.0947 106.42 28.904 106.194 28.696L101.748 24.276V20.558L110.354 17.412L111.056 20.688L104.92 22.846L108.196 26.148C109.271 27.2227 110.138 28.0547 110.796 28.644C111.472 29.216 112.044 29.6407 112.512 29.918C112.998 30.178 113.448 30.334 113.864 30.386C114.28 30.4207 114.774 30.438 115.346 30.438C115.728 30.438 115.918 31.01 115.918 32.154C115.918 33.3847 115.728 34 115.346 34C114.792 34 114.289 33.9913 113.838 33.974C113.405 33.9567 112.98 33.8873 112.564 33.766C112.148 33.6273 111.732 33.4193 111.316 33.142C110.9 32.8647 110.441 32.466 109.938 31.946C109.678 32.7087 109.228 33.246 108.586 33.558C107.962 33.8527 107.26 34 106.48 34H99.9023C99.677 34 99.5297 33.8613 99.4603 33.584C99.3737 33.2893 99.3303 32.856 99.3303 32.284C99.3303 31.6253 99.3737 31.1573 99.4603 30.88C99.5297 30.5853 99.677 30.438 99.9023 30.438H106.064ZM116.64 30.438C117.593 30.438 118.07 29.9527 118.07 28.982V26.278H121.346V28.982C121.346 29.4847 121.493 29.8573 121.788 30.1C122.1 30.3253 122.473 30.438 122.906 30.438C123.478 30.438 123.885 30.3253 124.128 30.1C124.371 29.8573 124.492 29.4847 124.492 28.982V26.278H127.794V28.982C127.794 29.4847 127.915 29.8573 128.158 30.1C128.418 30.3253 128.721 30.438 129.068 30.438C129.917 30.438 130.342 29.9527 130.342 28.982V26.278H133.644V28.982C133.644 29.4847 133.8 29.8573 134.112 30.1C134.424 30.3253 134.797 30.438 135.23 30.438H135.932C136.157 30.438 136.305 30.5767 136.374 30.854C136.461 31.1313 136.504 31.5647 136.504 32.154C136.504 32.7953 136.461 33.2633 136.374 33.558C136.305 33.8527 136.157 34 135.932 34H135.23C134.571 34 133.965 33.9047 133.41 33.714C132.855 33.506 132.361 33.0727 131.928 32.414C131.495 33.0727 131.018 33.506 130.498 33.714C129.978 33.9047 129.501 34 129.068 34C128.496 34 127.959 33.9047 127.456 33.714C126.971 33.506 126.511 33.0727 126.078 32.414C125.645 33.0727 125.151 33.506 124.596 33.714C124.041 33.9047 123.478 34 122.906 34C122.265 34 121.667 33.9047 121.112 33.714C120.557 33.506 120.063 33.0727 119.63 32.414C119.197 33.0727 118.729 33.506 118.226 33.714C117.741 33.9047 117.212 34 116.64 34H115.34C115.115 34 114.967 33.8613 114.898 33.584C114.811 33.2893 114.768 32.856 114.768 32.284C114.768 31.6253 114.811 31.1573 114.898 30.88C114.967 30.5853 115.115 30.438 115.34 30.438H116.64ZM142.094 30.438C142.371 30.438 142.553 30.3773 142.64 30.256C142.744 30.1347 142.796 30.0047 142.796 29.866C142.796 29.6407 142.752 29.4413 142.666 29.268C142.596 29.0947 142.449 28.904 142.224 28.696L137.778 24.276V20.558L146.384 17.412L147.086 20.688L140.95 22.846L144.226 26.148C144.642 26.5813 144.988 26.98 145.266 27.344C145.543 27.708 145.76 28.0633 145.916 28.41C146.089 28.7393 146.21 29.0687 146.28 29.398C146.349 29.7273 146.384 30.074 146.384 30.438C146.384 31.0793 146.28 31.6253 146.072 32.076C145.864 32.5267 145.586 32.8993 145.24 33.194C144.893 33.4713 144.486 33.6793 144.018 33.818C143.55 33.9393 143.047 34 142.51 34H135.932C135.706 34 135.559 33.8613 135.49 33.584C135.403 33.2893 135.36 32.856 135.36 32.284C135.36 31.6253 135.403 31.1573 135.49 30.88C135.559 30.5853 135.706 30.438 135.932 30.438H142.094ZM149.222 17.88H152.524V34H149.222V17.88Z" fill="#F5E427"/>
<path d="M171 15V39.5C171 39.7761 171 41 172 41C173 41 173 39.7761 173 39.5V15C173 14.7239 173 13.2751 172 13.2751C171 13.2751 171 14.7239 171 15Z" fill="#F5E427"/>
<path d="M198.54 25.444V25.0845C198.54 24.9268 198.428 24.7989 198.29 24.7989H196.064C195.926 24.7989 195.814 24.671 195.814 24.5132V23.5672C195.814 23.3385 195.59 23.2025 195.424 23.3303L193.22 25.0273C193.073 25.1405 193.073 25.388 193.22 25.5012L195.424 27.1982C195.59 27.326 195.814 27.19 195.814 26.9613V26.0153C195.814 25.8575 195.926 25.7296 196.064 25.7296H198.29C198.428 25.7296 198.54 25.6017 198.54 25.444Z" fill="#F5E427"/>
<path d="M193.088 29.2729V29.6324C193.088 29.7901 193.2 29.918 193.338 29.918H195.564C195.702 29.918 195.814 30.0459 195.814 30.2037V31.1497C195.814 31.3784 196.038 31.5144 196.204 31.3866L198.408 29.6896C198.555 29.5764 198.555 29.3289 198.408 29.2157L196.204 27.5187C196.038 27.3909 195.814 27.5268 195.814 27.7556V28.7016C195.814 28.8594 195.702 28.9873 195.564 28.9873H193.338C193.2 28.9873 193.088 29.1152 193.088 29.2729Z" fill="#F5E427"/>
<path d="M180.445 10.5713V12.7038C180.445 13.0193 180.221 13.2751 179.945 13.2751H175.999C175.723 13.2751 175.499 13.5309 175.499 13.8465V40.6828C175.499 40.9984 175.723 41.2541 175.999 41.2541H179.945C180.221 41.2541 180.445 41.5099 180.445 41.8255V44.2387C180.445 44.5542 180.669 44.81 180.945 44.81H183.036C183.312 44.81 183.536 44.5542 183.536 44.2387V41.8255C183.536 41.5099 183.76 41.2541 184.036 41.2541H184.273C184.549 41.2541 184.772 41.5099 184.772 41.8255V44.2387C184.772 44.5542 184.996 44.81 185.272 44.81H187.364C187.64 44.81 187.864 44.5542 187.864 44.2387V41.6383C187.864 41.3228 188.087 41.067 188.363 41.067H195.754C196.03 41.067 196.253 40.8112 196.253 40.4957V35.4623C196.253 35.1468 196.03 34.891 195.754 34.891H184.124C183.848 34.891 183.624 34.6352 183.624 34.3197V30.7836C183.624 30.468 183.848 30.2123 184.124 30.2123H190.896C191.172 30.2123 191.396 29.9565 191.396 29.6409V24.514C191.396 24.1985 191.172 23.9427 190.896 23.9427H184.212C183.936 23.9427 183.713 23.6869 183.713 23.3714V20.116C183.713 19.8005 183.936 19.5447 184.212 19.5447H195.489C195.765 19.5447 195.989 19.2889 195.989 18.9734V13.8465C195.989 13.5309 195.765 13.2751 195.489 13.2751H188.187C187.911 13.2751 187.687 13.0193 187.687 12.7038V10.5713C187.687 10.2558 187.463 10 187.187 10H185.449C185.173 10 184.949 10.2558 184.949 10.5713V12.7038C184.949 13.0193 184.725 13.2751 184.449 13.2751H183.859C183.583 13.2751 183.359 13.0193 183.359 12.7038V10.5713C183.359 10.2558 183.136 10 182.86 10H180.945C180.669 10 180.445 10.2558 180.445 10.5713Z" fill="#F5E427"/>
<path d="M166.5 15V39.5C166.5 39.7761 166.5 41 167.5 41C168.5 41 168.5 39.7761 168.5 39.5V15C168.5 14.7239 168.5 13.2751 167.5 13.2751C166.5 13.2751 166.5 14.7239 166.5 15Z" fill="#F5E427"/>
</svg>
