<svg id="Layer_1" data-name="Layer 1" xmlns="http://www.w3.org/2000/svg" viewBox="0 0 1750 1750"><defs><style>.cls-1{fill:none;stroke:#014886;stroke-miterlimit:10;stroke-width:7px;stroke-dasharray:35.13 35.13;}.cls-2{fill:#014886;}</style></defs><title>circleplane-02</title><circle class="cls-1" cx="875.5" cy="875.5" r="872"/><path class="cls-2" d="M389.6,171.4c3.1-7,3.2-12.7.2-16.9-3.6-3.7-9.2-4.7-16.7-2.9a49.68,49.68,0,0,0-20.7,10.5l-19.8,16.5-73.9-25a3.3,3.3,0,0,0-3.5.6l-15.9,13.2a3.67,3.67,0,0,0-1.3,3,3.85,3.85,0,0,0,1.7,2.9l54.8,37L262.4,237l-21.5-8a1.44,1.44,0,0,0-.9-.2,3.51,3.51,0,0,0-2.7.8l-11.9,10a4,4,0,0,0-1.3,2.7,3.45,3.45,0,0,0,1.2,2.7L252,269l18.8,30.6a3.9,3.9,0,0,0,2.6,1.7h.2a3.51,3.51,0,0,0,2.7-.8l11.9-9.9a3.31,3.31,0,0,0,1.2-3.4l-4-22.6,32.1-26.7,26.4,60.6a3.16,3.16,0,0,0,2.2,2,1.88,1.88,0,0,0,.8.2,3.16,3.16,0,0,0,2.2-.5l15.5-9.6a3.28,3.28,0,0,0,1.7-3.6l-10.9-80.7,20-16.6A47.88,47.88,0,0,0,389.6,171.4Z"/><path class="cls-2" d="M1397.72,1560.53c-3.26,6.93-3.49,12.62-.59,16.89,3.52,3.78,9.09,4.91,16.63,3.28a49.67,49.67,0,0,0,20.94-10l20.17-16.05,73.31,26.67a3.27,3.27,0,0,0,3.51-.52l16.2-12.83a3.67,3.67,0,0,0,1.37-3,3.87,3.87,0,0,0-1.64-2.94l-53.94-38.23,32.69-26,21.32,8.49a1.41,1.41,0,0,0,.89.22,3.54,3.54,0,0,0,2.72-.74l12.12-9.73a4,4,0,0,0,1.36-2.67,3.44,3.44,0,0,0-1.14-2.73l-26.14-24.59-18.1-31a3.87,3.87,0,0,0-2.57-1.76h-.2a3.53,3.53,0,0,0-2.71.74l-12.12,9.63a3.29,3.29,0,0,0-1.28,3.37l3.49,22.69-32.7,26-25-61.18a3.16,3.16,0,0,0-2.15-2,1.88,1.88,0,0,0-.8-.22,3.13,3.13,0,0,0-2.21.45l-15.71,9.25a3.29,3.29,0,0,0-1.79,3.56l9.07,80.92-20.37,16.14A47.93,47.93,0,0,0,1397.72,1560.53Z"/></svg>