<svg xmlns="http://www.w3.org/2000/svg" width="84.6" height="84.5" viewBox="0 0 84.6 84.5"><defs><style>.a{fill:#da92be;}.b{fill:#461c56;}.c{fill:#e81f26;}.d,.f{fill:none;stroke-miterlimit:10;}.d{stroke:#231f20;stroke-width:0.16px;}.e{fill:#231f20;}.f{stroke:#461c56;stroke-width:0.78px;}.g{fill:#441254;}</style></defs><path class="a" d="M47.37,30.76c-2.4,9.75,5.3,17.1,13.12,19-7.82-1.92-14-9.18-12.11-17a7.93,7.93,0,0,1,9.55-5.88l.11,0c1.52.37,7.94,2.08,11.18-2.13-3.62-5.16-14-3.26-14-3.26C51.44,23,48.4,27,47.37,30.76Z" transform="translate(-22.81 0)"/><path class="b" d="M48,30.91A14.05,14.05,0,0,0,47.72,37a14.52,14.52,0,0,0,2.5,5.65A18,18,0,0,0,54.75,47a19.58,19.58,0,0,0,5.76,2.7v.12a17.68,17.68,0,0,1-9.93-6.34A13.84,13.84,0,0,1,48.11,38a12.09,12.09,0,0,1,.27-6,8.26,8.26,0,0,1,3.87-4.66,8.45,8.45,0,0,1,6-.84A15.86,15.86,0,0,0,64,27a6.76,6.76,0,0,0,4.71-2.57h0v.73A6.65,6.65,0,0,0,66.06,23a12.41,12.41,0,0,0-3.43-1,22.16,22.16,0,0,0-3.64-.2,24.63,24.63,0,0,0-3.64.33h.11a11.71,11.71,0,0,0-4.68,3.49A14.53,14.53,0,0,0,48,30.91Zm-1.18-.31a15.58,15.58,0,0,1,3-5.76A12.58,12.58,0,0,1,55,20.9h.12A27.47,27.47,0,0,1,59,20.5a22.79,22.79,0,0,1,3.87.23,13.49,13.49,0,0,1,3.78,1.12,8,8,0,0,1,3.12,2.57l.27.39-.28.34h0A7.91,7.91,0,0,1,64.11,28a16.91,16.91,0,0,1-6-.64,7.68,7.68,0,0,0-5.53.56,7.6,7.6,0,0,0-3.69,4.21,11.31,11.31,0,0,0-.37,5.77,13.52,13.52,0,0,0,2.34,5.35,17.08,17.08,0,0,0,9.69,6.45v.12a19,19,0,0,1-10.92-6.67,14.65,14.65,0,0,1-2.85-5.93A14.88,14.88,0,0,1,46.78,30.6Z" transform="translate(-22.81 0)"/><path class="a" d="M55.11,13.79a16.88,16.88,0,0,1,13.4-5c-.66,7.84-10,11.73-10,11.73" transform="translate(-22.81 0)"/><path class="b" d="M54.74,13.5a17.49,17.49,0,0,1,2.91-2.45A19.55,19.55,0,0,1,61,9.27a16.15,16.15,0,0,1,7.53-1.13h0l.65.06-.06.65a11.54,11.54,0,0,1-1.24,4.06,14.34,14.34,0,0,1-2.47,3.37,20,20,0,0,1-3.19,2.62,21.94,21.94,0,0,1-3.61,2l-.29-.68a21,21,0,0,0,3.39-2,19,19,0,0,0,3-2.6,13,13,0,0,0,2.17-3.19,10.08,10.08,0,0,0,1-3.65l.59.71h0a15,15,0,0,0-7,.83,17.84,17.84,0,0,0-3.22,1.59,16.12,16.12,0,0,0-2.8,2.21Z" transform="translate(-22.81 0)"/><path class="b" d="M62.92,20.55H57.18M47.66,39a13.25,13.25,0,0,0,2.87,5.54,17.24,17.24,0,0,0,5.63,4.2,19.92,19.92,0,0,0,8.22,1.8,21.59,21.59,0,0,0,5.32-.45,23.2,23.2,0,0,0,5-1.69,17.38,17.38,0,0,0,5.5-3.86,16.88,16.88,0,0,0,3.39-5.27,15.27,15.27,0,0,0,1.09-5.82,12.65,12.65,0,0,0-1.35-5.63,13.47,13.47,0,0,0-4-4.71A18.33,18.33,0,0,0,72.54,20a12.64,12.64,0,0,0,5.6-2,9.39,9.39,0,0,0,3.21-3.5,7.16,7.16,0,0,0,.71-4.17,7.29,7.29,0,0,0-1.89-4,11,11,0,0,0-4.59-2.88,19.74,19.74,0,0,0-7.32-.9H55.38q-.45,0-.45.48t.45.48h.67a1.12,1.12,0,0,1,.59.17H66.1c1.11,0,2.15,0,3.13.08A9.29,9.29,0,0,1,73.9,5.32a7,7,0,0,1,2.45,3A7.35,7.35,0,0,1,76.83,12a8.46,8.46,0,0,1-4.06,6.3,7.13,7.13,0,0,1-4,1l-5.86.06-5.74-.17V20.5h9.74A13.4,13.4,0,0,1,72,21.62a11.62,11.62,0,0,1,3.71,2.65,12.08,12.08,0,0,1,2.87,5.32A16.94,16.94,0,0,1,79,35.81a17.85,17.85,0,0,1-1.83,6,13.82,13.82,0,0,1-3.89,4.7,12.71,12.71,0,0,1-4.81,2.17,19.42,19.42,0,0,1-5.69.45A20.69,20.69,0,0,1,57.11,48a13.31,13.31,0,0,1-4.65-2.79C48.45,41,47.66,39,47.66,39Z" transform="translate(-22.81 0)"/><path class="c" d="M63.69,7.5A21.35,21.35,0,0,0,62,10a26,26,0,0,1-1.6,2.47,21.73,21.73,0,0,1-1.86,2.3,7.76,7.76,0,0,1-2.37,1.85L56,16.05a6.36,6.36,0,0,0,2.23-1.65A16.2,16.2,0,0,0,60,12.13c.53-.8,1-1.63,1.47-2.48a9.24,9.24,0,0,0,1-2.7Z" transform="translate(-22.81 0)"/><path class="b" d="M66.74,2.5a3.84,3.84,0,0,1-2.17,1.1H61.39V47.88a19.82,19.82,0,0,1-3.85-1,13.44,13.44,0,0,1-1.9-.85V4.9a1.41,1.41,0,0,0-.36-1.13,1.24,1.24,0,0,0-.76-.27h-.68q-.45,0-.45-.48a.46.46,0,0,1,.45-.52Z" transform="translate(-22.81 0)"/><path class="c" d="M65.11,11.5a8.77,8.77,0,0,0-2.8,1,22.88,22.88,0,0,0-2.5,1.64,9.58,9.58,0,0,0-2,2.12A4.24,4.24,0,0,0,57,18.94h-.6a5.14,5.14,0,0,1,1-3,11.14,11.14,0,0,1,2.13-2.26,22,22,0,0,1,2.5-1.8,23.4,23.4,0,0,0,2.63-1.7Z" transform="translate(-22.81 0)"/><path class="c" d="M70,13.11a7.58,7.58,0,0,0-3,0,20,20,0,0,0-2.93.74,12.82,12.82,0,0,0-2.7,1.34,9.73,9.73,0,0,0-2.2,2l-.47-.38a11.84,11.84,0,0,1,2.38-2,15.3,15.3,0,0,1,2.79-1.43,19.54,19.54,0,0,1,3-.9c1-.21,2-.39,3.12-.66Z" transform="translate(-22.81 0)"/><path class="a" d="M60.52,49.78C51.05,47.5,44,40.9,45.84,24.55A94.74,94.74,0,0,1,50,6.43s7.24,6.84,2.68,14.77c-2.28,3.94-6.12,6.23-5.92,10.4C47.29,42.08,50.45,46.88,60.52,49.78Z" transform="translate(-22.81 0)"/><path class="b" d="M60.58,49.8a3.82,3.82,0,0,1-.84-.15L59,49.43c-.51-.15-1-.31-1.52-.5a22,22,0,0,1-2.93-1.32,16.68,16.68,0,0,1-5-4.07,20.53,20.53,0,0,1-4.25-12,53,53,0,0,1,1.06-12.82,97.31,97.31,0,0,1,3.2-12.46l.29-.76.61.58h0A16.05,16.05,0,0,1,54,11.91a11.1,11.1,0,0,1,.21,6.84,15.89,15.89,0,0,1-3.46,5.75c-1.42,1.69-3,3.34-3.5,5.42a10.23,10.23,0,0,0-.09,3.22c.08,1.11.2,2.2.38,3.29a17.09,17.09,0,0,0,2.14,6.19,13.33,13.33,0,0,0,4.72,4.51,22.45,22.45,0,0,0,3,1.46C58.43,49.07,59.45,49.34,60.58,49.8Zm-.12,0c-4.13-1-8.64-3-11.07-6.91a17.45,17.45,0,0,1-2.28-6.33c-.21-1.1-.35-2.22-.45-3.33,0-.56-.09-1.11-.12-1.68a6.72,6.72,0,0,1,.16-1.73c.53-2.33,2.17-4.05,3.53-5.76a15.21,15.21,0,0,0,3.18-5.56,10.29,10.29,0,0,0-.3-6.28,14.81,14.81,0,0,0-3.44-5.37h0l.88-.21a98.13,98.13,0,0,0-3.38,12.27A52.78,52.78,0,0,0,45.9,31.5c.19,4.19,1.26,8.49,3.92,11.81a16.22,16.22,0,0,0,4.8,4.08,20.34,20.34,0,0,0,2.87,1.36c.5.2,1,.37,1.51.53l.75.23c.23.06.45.17.71.26Z" transform="translate(-22.81 0)"/><path class="a" d="M52.58,46c-10-7.87-5.79-21.58-2.82-28.33A28.79,28.79,0,0,1,59.19,5.33c1,8.57-1.12,10.6-7.45,16.8C44.84,28.9,45.11,40.11,52.58,46Z" transform="translate(-22.81 0)"/><path class="b" d="M52.54,46.08a16,16,0,0,1-6-9.73A26.86,26.86,0,0,1,47,24.72,47.4,47.4,0,0,1,51.19,13.8a29.13,29.13,0,0,1,7.62-8.94h0l.87-.7.09,1.1a23.54,23.54,0,0,1,0,5.93,11.55,11.55,0,0,1-2.35,5.48,39.6,39.6,0,0,1-4,4.29c-.7.68-1.42,1.34-2.07,2a16.62,16.62,0,0,0-1.76,2.25,16.17,16.17,0,0,0-2.49,11A15.14,15.14,0,0,0,52.65,46Zm0,0a15.44,15.44,0,0,1-5.79-9.85A16.57,16.57,0,0,1,49.11,25a19.37,19.37,0,0,1,1.77-2.36c.68-.72,1.37-1.39,2-2.09a38,38,0,0,0,3.81-4.31,10.79,10.79,0,0,0,2-5.13,22.34,22.34,0,0,0-.18-5.66l1,.4h0a27.86,27.86,0,0,0-7.6,8.43,45.5,45.5,0,0,0-4.37,10.64,26.51,26.51,0,0,0-.74,11.41A15.79,15.79,0,0,0,52.57,46Z" transform="translate(-22.81 0)"/><path class="a" d="M53.33,46.63C49.74,43.63,46,37.15,48,31S54.38,23.55,61,22.86A11.06,11.06,0,0,0,69.8,16.5S61.67,11.18,53.39,19,44.35,39,53.33,46.63Z" transform="translate(-22.81 0)"/><path class="b" d="M53.37,46.67a5.15,5.15,0,0,1-1.14-.94c-.33-.33-.65-.68-1-1a19.94,19.94,0,0,1-1.67-2.31,16.51,16.51,0,0,1-2.13-5.28,12.46,12.46,0,0,1,2.88-10.86,10.36,10.36,0,0,1,2.33-1.78,14.69,14.69,0,0,1,2.69-1.12A34.83,34.83,0,0,1,61,22.32a10.13,10.13,0,0,0,4.9-2,10.61,10.61,0,0,0,3.24-4.09h0l.28.89a12.68,12.68,0,0,0-5.49-1.73,12.09,12.09,0,0,0-5.75,1,16.42,16.42,0,0,0-4.92,3.36,21,21,0,0,0-3.69,4.75,17.76,17.76,0,0,0-2.17,11.7,16.84,16.84,0,0,0,2.07,5.7,19.81,19.81,0,0,0,1.77,2.5C51.85,45.19,52.63,45.87,53.37,46.67Zm-.09-.07A17.3,17.3,0,0,1,47,36.27a18.35,18.35,0,0,1,2-12.13,21.69,21.69,0,0,1,3.72-5,17.48,17.48,0,0,1,5.1-3.72A13.35,13.35,0,0,1,64,14.16a13.77,13.77,0,0,1,6.23,1.76l.51.3-.23.59h0a11.84,11.84,0,0,1-3.85,4.57,11.41,11.41,0,0,1-5.54,2,33.12,33.12,0,0,0-5.5.86,14.67,14.67,0,0,0-2.55,1,9.76,9.76,0,0,0-2.18,1.59,11.58,11.58,0,0,0-2.74,4.67A11.82,11.82,0,0,0,47.91,37,17.85,17.85,0,0,0,53.28,46.6Z" transform="translate(-22.81 0)"/><circle class="d" cx="62.92" cy="2.96" r="2.88"/><path class="e" d="M85.21,3.07V4.5h-.43V1.26h1.09a1.2,1.2,0,0,1,.8.23.82.82,0,0,1,.27.68.82.82,0,0,1-.12.43.9.9,0,0,1-.38.29.63.63,0,0,1,.38.28.9.9,0,0,1,.12.48V4a1.22,1.22,0,0,0,0,.27.45.45,0,0,0,.11.19V4.5h-.44a.39.39,0,0,1-.11-.22,1.5,1.5,0,0,1,0-.3v-.3a.6.6,0,0,0-.15-.42A.55.55,0,0,0,86,3.1Zm0-.34h.62a.75.75,0,0,0,.52-.14.5.5,0,0,0,.16-.43.59.59,0,0,0-.15-.42.66.66,0,0,0-.49-.14h-.66Z" transform="translate(-22.81 0)"/><line class="f" y1="43.71" x2="23.48" y2="43.71"/><line class="f" x1="61.12" y1="43.71" x2="84.6" y2="43.71"/><path class="g" d="M72.88,59.55H85.77c3.18,0,4.75,2.73,4.75,7.77,0,4.41-2.08,7.35-5.22,7.35a5.42,5.42,0,0,1-1.08-.1,4.33,4.33,0,0,1-2.39-1.35,4.18,4.18,0,0,1-.13.51,5.87,5.87,0,0,0,1.72,1.44,8.65,8.65,0,0,0,4.37,1.07c5,0,9.81-3.07,9.81-9,0-5.72-4.6-8.75-9.37-8.75H73.87A1,1,0,0,0,72.88,59.55Z" transform="translate(-22.81 0)"/><path class="g" d="M83.36,59.55a6.09,6.09,0,0,0-3.26-1,5.9,5.9,0,0,0-3.21,1,9,9,0,0,0-4,7.77c0,5.34,3.85,8.92,7.22,8.92a6.15,6.15,0,0,0,3.32-1.07,7.58,7.58,0,0,0,.8-.6,9.49,9.49,0,0,0,3.15-7.25A9,9,0,0,0,83.36,59.55ZM81.7,73.73c-.33,1-.82,1.48-1.6,1.48-1.69,0-2.1-2.44-2.1-7.89s.41-7.77,2.1-7.77,2.12,2.39,2.12,7.77a29,29,0,0,1-.39,5.9A4.18,4.18,0,0,1,81.7,73.73Z" transform="translate(-22.81 0)"/><path class="g" d="M69.52,58.53h-7.1V76.1C62.42,79.47,60.9,81,59,81s-3.79-1.73-4-4.39a6.89,6.89,0,0,1-1.22.36c.5,3.53,3.58,5.66,7.36,5.66h1.08c4-.08,7.38-2.56,7.38-7.73Z" transform="translate(-22.81 0)"/><path class="g" d="M96.6,69.65a6.65,6.65,0,0,0,1.51,3.93,1.76,1.76,0,0,0,1.26.51c1,0,1.33-.75,1.33-2.42V58.53h6.71V70c0,3.54-1.84,5.93-5.45,5.93h-1.12c-3.53-.09-5-2.62-5.48-6.12" transform="translate(-22.81 0)"/><path class="g" d="M74.88,69.77c-.44,3.53-2,6.07-5.57,6.12h-1c-3.61,0-5.45-2.39-5.45-5.93V58.53h6.71V71.67c0,1.67.3,2.42,1.32,2.42a1.74,1.74,0,0,0,1.26-.51,6.58,6.58,0,0,0,1.51-3.93" transform="translate(-22.81 0)"/><path class="g" d="M50.73,58.53V71.68c0,1.65-.3,2.41-1.32,2.41a1.77,1.77,0,0,1-1.27-.51,6.65,6.65,0,0,1-1.5-3.93l-.08-1.59L45.4,69.77c.45,3.56,2,6.13,5.68,6.13h1.07c3.51-.06,5.3-2.44,5.3-5.93V58.53Z" transform="translate(-22.81 0)"/><path class="g" d="M48.65,51.74A1.47,1.47,0,0,1,47.09,53H44.36a2.66,2.66,0,0,0-2.13,1.07C39,58.18,50.68,65.9,45,73a7.31,7.31,0,0,1-5.87,2.89H22.81a1.47,1.47,0,0,1,1.56-1.27h12.5A2.83,2.83,0,0,0,39,73.5c3.47-4.36-8.53-11.73-2.83-18.86a7.31,7.31,0,0,1,5.87-2.9Z" transform="translate(-22.81 0)"/><path class="g" d="M46.7,75.9" transform="translate(-22.81 0)"/><path class="g" d="M33.71,58.29a7,7,0,0,1,1.61-4.15,7.49,7.49,0,0,1,6.07-3h7.26c0-.51-.42-1.15-.93-1.15H40.56a8.43,8.43,0,0,0-6.8,3.39A7.86,7.86,0,0,0,32,58v.28Z" transform="translate(-22.81 0)"/><path class="g" d="M57.45,53.48a3.6,3.6,0,1,1-3.61-3.54A3.45,3.45,0,0,1,57.45,53.48Z" transform="translate(-22.81 0)"/><path class="g" d="M107.41,81a3.6,3.6,0,1,1-3.61-3.54A3.45,3.45,0,0,1,107.41,81Z" transform="translate(-22.81 0)"/></svg>