<svg width="25" height="25" viewBox="0 0 25 25" fill="none" xmlns="http://www.w3.org/2000/svg">
<path fill-rule="evenodd" clip-rule="evenodd" d="M15.3296 7C16.1671 7 16.9727 7.33099 17.5653 7.9249C18.1586 8.51756 18.4902 9.31694 18.4902 10.1538V15.0874C18.4902 16.8298 17.0726 18.2412 15.3296 18.2412H9.16003C7.41702 18.2412 6 16.8298 6 15.0874V10.1538C6 8.4114 7.41077 7 9.16003 7H15.3296ZM16.326 11.0797L16.3759 11.0298C16.5252 10.8487 16.5252 10.5864 16.3691 10.4053C16.2822 10.3122 16.163 10.2554 16.0387 10.2429C15.9075 10.236 15.7826 10.2804 15.6883 10.3678L12.8724 12.616C12.5102 12.9164 11.9912 12.9164 11.6234 12.616L8.81308 10.3678C8.61886 10.2241 8.35032 10.2429 8.18857 10.4115C8.01995 10.5801 8.00121 10.8487 8.14423 11.036L8.22604 11.1172L11.0676 13.3342C11.4173 13.609 11.8413 13.7589 12.2854 13.7589C12.7281 13.7589 13.1597 13.609 13.5088 13.3342L16.326 11.0797Z" fill="#FFDF2C"/>
<circle cx="12.5" cy="12.5" r="12.5" fill="white" fill-opacity="0.2"/>
</svg>
