<svg width="400" height="201" viewBox="0 0 400 201" fill="none" xmlns="http://www.w3.org/2000/svg">
<rect width="400" height="201" rx="10" fill="#0d0b01"/>
<path d="M131.048 57.72C131.8 57.72 132.432 57.656 132.944 57.528C133.472 57.4 133.896 57.224 134.216 57C134.536 56.776 134.76 56.512 134.888 56.208C135.032 55.92 135.104 55.616 135.104 55.296C135.104 54.944 135.008 54.64 134.816 54.384C134.64 54.128 134.32 54 133.856 54H130.112L130.232 51.888H138.68C139.032 51.888 139.208 52.232 139.208 52.92C139.208 53.64 139.032 54 138.68 54H136.448C136.656 54.176 136.792 54.392 136.856 54.648C136.936 54.904 136.976 55.2 136.976 55.536C136.976 55.968 136.88 56.432 136.688 56.928C136.496 57.424 136.176 57.88 135.728 58.296C135.296 58.728 134.72 59.088 134 59.376C133.28 59.664 132.384 59.808 131.312 59.808H128.84C127.048 59.808 125.656 59.256 124.664 58.152C123.672 57.048 123.176 55.536 123.176 53.616V49.368H125.12V53.544C125.12 54.792 125.432 55.8 126.056 56.568C126.68 57.336 127.704 57.72 129.128 57.72H131.048ZM141.616 51.888C141.248 51.472 141 51.032 140.872 50.568C140.76 50.104 140.704 49.704 140.704 49.368C140.704 48.76 140.808 48.192 141.016 47.664C141.224 47.136 141.512 46.68 141.88 46.296C142.248 45.912 142.696 45.608 143.224 45.384C143.752 45.16 144.328 45.048 144.952 45.048C145.512 45.048 146.048 45.136 146.56 45.312C147.088 45.488 147.656 45.776 148.264 46.176L147.424 47.856C146.928 47.6 146.488 47.424 146.104 47.328C145.72 47.216 145.336 47.16 144.952 47.16C144.6 47.16 144.28 47.224 143.992 47.352C143.72 47.48 143.48 47.648 143.272 47.856C143.08 48.048 142.928 48.28 142.816 48.552C142.72 48.824 142.672 49.104 142.672 49.392C142.672 49.728 142.728 50.048 142.84 50.352C142.968 50.64 143.136 50.904 143.344 51.144C143.552 51.368 143.792 51.552 144.064 51.696C144.336 51.824 144.624 51.888 144.928 51.888H148.84L148.72 54H138.688C138.479 54 138.343 53.92 138.279 53.76C138.199 53.584 138.159 53.328 138.159 52.992C138.159 52.608 138.199 52.328 138.279 52.152C138.343 51.976 138.479 51.888 138.688 51.888H141.616ZM154.88 54C154.448 54 154.032 53.944 153.632 53.832C153.232 53.704 152.88 53.496 152.576 53.208C152.288 52.92 152.056 52.544 151.88 52.08C151.704 51.6 151.616 51.008 151.616 50.304V39.12H153.584V49.872C153.584 50.48 153.712 50.968 153.968 51.336C154.24 51.704 154.664 51.888 155.24 51.888H155.72C156.072 51.888 156.248 52.232 156.248 52.92C156.248 53.64 156.072 54 155.72 54H154.88ZM156.039 51.888C157.255 51.888 157.863 51.376 157.863 50.352V49.608C157.863 48.248 158.215 47.176 158.919 46.392C159.639 45.592 160.631 45.192 161.895 45.192C162.551 45.192 163.127 45.304 163.623 45.528C164.119 45.736 164.535 46.032 164.871 46.416C165.207 46.784 165.455 47.232 165.615 47.76C165.791 48.288 165.879 48.864 165.879 49.488V50.112C165.879 50.784 166.047 51.248 166.383 51.504C166.735 51.76 167.143 51.888 167.607 51.888H167.991C168.199 51.888 168.335 51.976 168.399 52.152C168.479 52.312 168.519 52.568 168.519 52.92C168.519 53.288 168.479 53.56 168.399 53.736C168.335 53.912 168.199 54 167.991 54H167.607C167.367 54 167.119 53.976 166.863 53.928C166.623 53.88 166.391 53.8 166.167 53.688C165.943 53.56 165.727 53.392 165.519 53.184C165.311 52.96 165.127 52.672 164.967 52.32C164.535 53.008 164.039 53.464 163.479 53.688C162.919 53.896 162.343 54 161.751 54C161.111 54 160.511 53.88 159.951 53.64C159.391 53.384 158.951 52.96 158.631 52.368C158.487 52.704 158.311 52.984 158.103 53.208C157.895 53.416 157.679 53.584 157.455 53.712C157.231 53.824 156.991 53.904 156.735 53.952C156.495 53.984 156.263 54 156.039 54H155.727C155.519 54 155.383 53.92 155.319 53.76C155.239 53.584 155.199 53.328 155.199 52.992C155.199 52.608 155.239 52.328 155.319 52.152C155.383 51.976 155.519 51.888 155.727 51.888H156.039ZM163.959 49.704C163.959 49 163.799 48.424 163.479 47.976C163.175 47.528 162.631 47.304 161.847 47.304C161.127 47.304 160.591 47.52 160.239 47.952C159.903 48.384 159.735 48.992 159.735 49.776C159.735 50.48 159.927 51.008 160.311 51.36C160.711 51.712 161.215 51.888 161.823 51.888C162.543 51.888 163.079 51.704 163.431 51.336C163.783 50.952 163.959 50.408 163.959 49.704ZM169.736 51.888C170.984 51.888 171.608 51.304 171.608 50.136V47.064H173.576V50.136C173.576 50.456 173.624 50.728 173.72 50.952C173.832 51.176 173.976 51.36 174.152 51.504C174.328 51.632 174.528 51.728 174.752 51.792C174.992 51.856 175.232 51.888 175.472 51.888H176.144C176.512 51.888 176.696 52.232 176.696 52.92C176.696 53.64 176.512 54 176.144 54H175.4C174.824 54 174.28 53.896 173.768 53.688C173.272 53.48 172.856 53.072 172.52 52.464C172.152 53.072 171.728 53.48 171.248 53.688C170.784 53.896 170.28 54 169.736 54H167.984C167.776 54 167.64 53.92 167.576 53.76C167.496 53.584 167.456 53.328 167.456 52.992C167.456 52.608 167.496 52.328 167.576 52.152C167.64 51.976 167.776 51.888 167.984 51.888H169.736ZM174.992 44.112H172.808V42.096H174.992V44.112ZM171.776 44.112H169.592V42.096H171.776V44.112ZM183.053 52.608C182.637 52.864 182.229 53.08 181.829 53.256C181.429 53.432 180.997 53.576 180.533 53.688C180.085 53.8 179.589 53.88 179.045 53.928C178.501 53.976 177.877 54 177.173 54H176.141C175.933 54 175.797 53.92 175.733 53.76C175.653 53.584 175.613 53.328 175.613 52.992C175.613 52.608 175.653 52.328 175.733 52.152C175.797 51.976 175.933 51.888 176.141 51.888H177.245C177.853 51.888 178.389 51.872 178.853 51.84C179.333 51.808 179.773 51.752 180.173 51.672C180.573 51.592 180.949 51.488 181.301 51.36C181.653 51.216 182.013 51.04 182.381 50.832L185.957 48.768C185.829 48.48 185.701 48.232 185.573 48.024C185.461 47.8 185.309 47.608 185.117 47.448C184.925 47.288 184.693 47.168 184.421 47.088C184.149 47.008 183.805 46.968 183.389 46.968H178.157L178.301 44.856H183.677C184.109 44.856 184.541 44.912 184.973 45.024C185.421 45.136 185.837 45.36 186.221 45.696C186.621 46.032 186.989 46.512 187.325 47.136C187.661 47.76 187.941 48.584 188.165 49.608L183.053 52.608ZM183.197 58.8H180.845V56.736H183.197V58.8ZM190.874 39.12H192.842V54H190.874V39.12ZM206.624 57.72C207.28 57.72 207.88 57.64 208.424 57.48C208.968 57.336 209.44 57.128 209.84 56.856C210.24 56.6 210.544 56.288 210.752 55.92C210.976 55.568 211.088 55.176 211.088 54.744C211.088 54.36 210.984 54.04 210.776 53.784C210.568 53.528 210.168 53.4 209.576 53.4H205.424V49.056C205.424 48.448 205.512 47.888 205.688 47.376C205.88 46.864 206.152 46.424 206.504 46.056C206.856 45.688 207.28 45.4 207.776 45.192C208.288 44.984 208.856 44.88 209.48 44.88H212.24L212.36 46.992H209.408C208.864 46.992 208.392 47.168 207.992 47.52C207.592 47.856 207.392 48.368 207.392 49.056V51.312H209.936C210.544 51.312 211.048 51.392 211.448 51.552C211.848 51.696 212.16 51.904 212.384 52.176C212.624 52.448 212.792 52.776 212.888 53.16C212.984 53.528 213.032 53.936 213.032 54.384C213.032 55.152 212.872 55.864 212.552 56.52C212.232 57.176 211.792 57.744 211.232 58.224C210.688 58.72 210.04 59.104 209.288 59.376C208.552 59.664 207.752 59.808 206.888 59.808H204.824C203.032 59.808 201.64 59.256 200.648 58.152C199.656 57.048 199.16 55.536 199.16 53.616V49.368H201.104V53.544C201.104 54.792 201.416 55.8 202.04 56.568C202.664 57.336 203.688 57.72 205.112 57.72H206.624ZM219.075 54C218.643 54 218.227 53.944 217.827 53.832C217.427 53.704 217.075 53.496 216.771 53.208C216.483 52.92 216.251 52.544 216.075 52.08C215.899 51.6 215.811 51.008 215.811 50.304V39.12H217.779V49.872C217.779 50.48 217.907 50.968 218.163 51.336C218.435 51.704 218.859 51.888 219.435 51.888H219.915C220.267 51.888 220.443 52.232 220.443 52.92C220.443 53.64 220.267 54 219.915 54H219.075ZM225.994 46.536C225.322 46.536 224.778 46.76 224.362 47.208C223.962 47.64 223.762 48.176 223.762 48.816C223.762 49.152 223.826 49.464 223.954 49.752C224.098 50.04 224.282 50.304 224.506 50.544C224.746 50.768 225.002 50.976 225.274 51.168C225.562 51.344 225.85 51.504 226.138 51.648C226.378 51.504 226.618 51.344 226.858 51.168C227.114 50.976 227.338 50.768 227.53 50.544C227.738 50.32 227.906 50.072 228.034 49.8C228.162 49.512 228.226 49.2 228.226 48.864C228.226 48.176 228.018 47.616 227.602 47.184C227.202 46.752 226.666 46.536 225.994 46.536ZM219.922 54C219.714 54 219.578 53.92 219.514 53.76C219.434 53.584 219.394 53.328 219.394 52.992C219.394 52.608 219.434 52.328 219.514 52.152C219.578 51.976 219.714 51.888 219.922 51.888H223.978C223.354 51.456 222.858 50.968 222.49 50.424C222.122 49.864 221.938 49.232 221.938 48.528C221.938 48 222.034 47.496 222.226 47.016C222.418 46.52 222.69 46.088 223.042 45.72C223.41 45.352 223.858 45.056 224.386 44.832C224.914 44.608 225.506 44.496 226.162 44.496C226.818 44.496 227.386 44.608 227.866 44.832C228.362 45.056 228.77 45.352 229.09 45.72C229.41 46.088 229.65 46.504 229.81 46.968C229.97 47.432 230.05 47.904 230.05 48.384C230.05 49.104 229.89 49.752 229.57 50.328C229.266 50.888 228.802 51.408 228.178 51.888H232.018C232.53 51.888 232.922 51.776 233.194 51.552C233.466 51.312 233.602 51.008 233.602 50.64C233.602 50.256 233.41 49.824 233.026 49.344L228.826 44.376L230.29 43.008L234.538 48.072C234.986 48.616 235.298 49.12 235.474 49.584C235.65 50.048 235.738 50.504 235.738 50.952C235.738 51.384 235.658 51.784 235.498 52.152C235.338 52.52 235.106 52.84 234.802 53.112C234.514 53.384 234.146 53.6 233.698 53.76C233.25 53.92 232.738 54 232.162 54H229.522C228.786 54 228.13 53.976 227.554 53.928C226.994 53.88 226.546 53.768 226.21 53.592C225.986 53.688 225.706 53.768 225.37 53.832C225.05 53.88 224.714 53.92 224.362 53.952C224.026 53.968 223.69 53.984 223.354 54C223.034 54 222.762 54 222.538 54H219.922ZM245.709 51.048C246.461 51.048 247.037 50.896 247.437 50.592C247.853 50.288 248.061 49.904 248.061 49.44V46.44H245.901C245.149 46.44 244.581 46.68 244.197 47.16C243.829 47.64 243.645 48.272 243.645 49.056C243.645 49.792 243.813 50.312 244.149 50.616C244.501 50.904 245.021 51.048 245.709 51.048ZM249.981 49.872C249.981 50.48 250.101 50.968 250.341 51.336C250.581 51.704 251.005 51.888 251.613 51.888H252.093C252.301 51.888 252.437 51.976 252.501 52.152C252.581 52.312 252.621 52.568 252.621 52.92C252.621 53.288 252.581 53.56 252.501 53.736C252.437 53.912 252.301 54 252.093 54H251.613C250.845 54 250.197 53.856 249.669 53.568C249.157 53.264 248.781 52.728 248.541 51.96C248.349 52.2 248.117 52.392 247.845 52.536C247.589 52.68 247.317 52.792 247.029 52.872C246.741 52.952 246.445 53.008 246.141 53.04C245.837 53.072 245.557 53.088 245.301 53.088C244.149 53.088 243.269 52.768 242.661 52.128C242.053 51.488 241.749 50.52 241.749 49.224C241.749 48.632 241.829 48.056 241.989 47.496C242.165 46.92 242.421 46.408 242.757 45.96C243.093 45.512 243.509 45.152 244.005 44.88C244.517 44.608 245.109 44.472 245.781 44.472H248.061V42.84H249.981V49.872ZM258.246 51.888C258.838 51.888 259.246 51.768 259.47 51.528C259.694 51.288 259.806 50.992 259.806 50.64C259.806 50.384 259.758 50.12 259.662 49.848C259.582 49.56 259.358 49.232 258.99 48.864L254.094 43.992V41.808L262.062 38.736L262.518 40.704L256.038 43.176L259.998 47.16C260.766 47.928 261.422 48.584 261.966 49.128C262.526 49.656 263.006 50.096 263.406 50.448C263.806 50.8 264.15 51.072 264.438 51.264C264.742 51.456 265.014 51.6 265.254 51.696C265.494 51.792 265.734 51.848 265.974 51.864C266.214 51.88 266.478 51.888 266.766 51.888C266.974 51.888 267.11 51.976 267.174 52.152C267.254 52.312 267.294 52.568 267.294 52.92C267.294 53.288 267.254 53.56 267.174 53.736C267.11 53.912 266.974 54 266.766 54C266.302 54 265.878 53.968 265.494 53.904C265.126 53.84 264.758 53.712 264.39 53.52C264.022 53.328 263.622 53.056 263.19 52.704C262.758 52.352 262.254 51.888 261.678 51.312C261.678 51.792 261.59 52.2 261.414 52.536C261.238 52.872 261.006 53.152 260.718 53.376C260.43 53.584 260.094 53.744 259.71 53.856C259.326 53.952 258.91 54 258.462 54H252.102C251.894 54 251.758 53.92 251.694 53.76C251.614 53.584 251.574 53.328 251.574 52.992C251.574 52.608 251.614 52.328 251.694 52.152C251.758 51.976 251.894 51.888 252.102 51.888H258.246ZM268.525 51.888C269.773 51.888 270.397 51.304 270.397 50.136V47.064H272.365V50.136C272.365 50.456 272.413 50.728 272.509 50.952C272.621 51.176 272.765 51.36 272.941 51.504C273.117 51.632 273.317 51.728 273.541 51.792C273.781 51.856 274.021 51.888 274.261 51.888H274.933C275.301 51.888 275.485 52.232 275.485 52.92C275.485 53.64 275.301 54 274.933 54H274.189C273.613 54 273.069 53.896 272.557 53.688C272.061 53.48 271.645 53.072 271.309 52.464C270.941 53.072 270.517 53.48 270.037 53.688C269.573 53.896 269.069 54 268.525 54H266.773C266.565 54 266.429 53.92 266.365 53.76C266.285 53.584 266.245 53.328 266.245 52.992C266.245 52.608 266.285 52.328 266.365 52.152C266.429 51.976 266.565 51.888 266.773 51.888H268.525ZM271.957 58.8H269.605V56.736H271.957V58.8ZM275.89 51.888C277.154 51.888 277.786 51.304 277.786 50.136V47.064H279.754V50.136C279.754 50.456 279.81 50.728 279.922 50.952C280.034 51.176 280.178 51.36 280.354 51.504C280.53 51.632 280.73 51.728 280.954 51.792C281.194 51.856 281.434 51.888 281.674 51.888C283.05 51.888 283.738 51.304 283.738 50.136V47.064H285.706V50.136C285.706 50.792 285.874 51.248 286.21 51.504C286.562 51.76 286.97 51.888 287.434 51.888C287.978 51.888 288.41 51.736 288.73 51.432C289.05 51.128 289.21 50.696 289.21 50.136V47.064H291.178V50.232C291.178 51.448 290.85 52.384 290.194 53.04C289.538 53.68 288.642 54 287.506 54C286.946 54 286.41 53.896 285.898 53.688C285.402 53.48 284.986 53.072 284.65 52.464C284.282 53.072 283.834 53.48 283.306 53.688C282.778 53.896 282.234 54 281.674 54C281.066 54 280.498 53.896 279.97 53.688C279.458 53.48 279.034 53.072 278.698 52.464C278.33 53.072 277.898 53.48 277.402 53.688C276.906 53.896 276.378 54 275.818 54H274.93C274.722 54 274.586 53.92 274.522 53.76C274.442 53.584 274.402 53.328 274.402 52.992C274.402 52.608 274.442 52.328 274.522 52.152C274.586 51.976 274.722 51.888 274.93 51.888H275.89ZM285.826 41.016H283.618V39.024H285.826V41.016ZM287.41 44.112H285.226V42.096H287.41V44.112ZM284.194 44.112H282.01V42.096H284.194V44.112Z" fill="#F5E427"/>
<path d="M34.7273 114.128C35.5913 114.128 36.2633 113.979 36.7433 113.68C37.2339 113.381 37.4792 112.992 37.4792 112.512C37.4792 112.288 37.4206 112.112 37.3033 111.984C37.1859 111.845 36.9779 111.776 36.6793 111.776H33.9273V108.72C33.9273 108.304 33.9913 107.925 34.1193 107.584C34.2473 107.232 34.4286 106.933 34.6633 106.688C34.9086 106.432 35.2019 106.235 35.5433 106.096C35.8846 105.957 36.2686 105.888 36.6953 105.888H38.5353L38.6153 107.648H36.6633C36.3539 107.648 36.0926 107.744 35.8793 107.936C35.6659 108.117 35.5593 108.395 35.5593 108.768V110.032H36.9673C37.3833 110.032 37.7246 110.085 37.9913 110.192C38.2686 110.299 38.4873 110.448 38.6473 110.64C38.8073 110.832 38.9193 111.061 38.9833 111.328C39.0579 111.595 39.0953 111.893 39.0953 112.224C39.0953 112.736 38.9886 113.216 38.7753 113.664C38.5726 114.112 38.2846 114.496 37.9113 114.816C37.5379 115.147 37.0953 115.403 36.5833 115.584C36.0819 115.776 35.5379 115.872 34.9513 115.872H33.5593C32.3646 115.872 31.4366 115.504 30.7753 114.768C30.1139 114.032 29.7833 113.024 29.7833 111.744V108.88H31.3993V111.68C31.3993 112.053 31.4419 112.389 31.5273 112.688C31.6126 112.987 31.7459 113.243 31.9273 113.456C32.1193 113.669 32.3646 113.835 32.6633 113.952C32.9726 114.069 33.3459 114.128 33.7833 114.128H34.7273ZM43.0918 112C42.7931 112 42.5051 111.963 42.2278 111.888C41.9611 111.803 41.7264 111.664 41.5238 111.472C41.3211 111.28 41.1611 111.029 41.0438 110.72C40.9264 110.4 40.8678 110.005 40.8678 109.536V102.08H42.4998V109.136C42.4998 109.477 42.5744 109.749 42.7238 109.952C42.8838 110.144 43.1184 110.24 43.4278 110.24H43.7958C44.0304 110.24 44.1478 110.523 44.1478 111.088C44.1478 111.696 44.0304 112 43.7958 112H43.0918ZM47.7489 107.2C47.3862 107.2 47.0929 107.317 46.8689 107.552C46.6555 107.787 46.5489 108.08 46.5489 108.432C46.5489 108.784 46.6715 109.104 46.9169 109.392C47.1729 109.669 47.4715 109.899 47.8129 110.08C48.1329 109.899 48.3995 109.669 48.6129 109.392C48.8262 109.115 48.9329 108.805 48.9329 108.464C48.9329 108.091 48.8209 107.787 48.5969 107.552C48.3835 107.317 48.1009 107.2 47.7489 107.2ZM43.7969 112C43.6582 112 43.5675 111.931 43.5249 111.792C43.4715 111.643 43.4449 111.429 43.4449 111.152C43.4449 110.843 43.4715 110.613 43.5249 110.464C43.5675 110.315 43.6582 110.24 43.7969 110.24H46.0849C45.3915 109.632 45.0449 108.944 45.0449 108.176C45.0449 107.824 45.1089 107.488 45.2369 107.168C45.3649 106.848 45.5515 106.565 45.7969 106.32C46.0422 106.064 46.3355 105.867 46.6769 105.728C47.0289 105.579 47.4289 105.504 47.8769 105.504C48.3142 105.504 48.6929 105.579 49.0129 105.728C49.3435 105.877 49.6102 106.075 49.8129 106.32C50.0262 106.565 50.1809 106.843 50.2769 107.152C50.3835 107.461 50.4369 107.776 50.4369 108.096C50.4369 108.533 50.3515 108.928 50.1809 109.28C50.0209 109.621 49.7862 109.941 49.4769 110.24H51.7169C52.2289 110.24 52.4849 110.043 52.4849 109.648C52.4849 109.563 52.4635 109.467 52.4209 109.36C52.3782 109.253 52.2982 109.125 52.1809 108.976L49.5249 105.744L50.7249 104.608L53.4289 107.936C53.7382 108.309 53.9515 108.661 54.0689 108.992C54.1969 109.312 54.2609 109.627 54.2609 109.936C54.2609 110.224 54.2075 110.496 54.1009 110.752C54.0049 110.997 53.8555 111.216 53.6529 111.408C53.4502 111.589 53.1942 111.733 52.8849 111.84C52.5862 111.947 52.2395 112 51.8449 112H50.0849C49.5942 112 49.1569 111.979 48.7729 111.936C48.3995 111.893 48.1062 111.813 47.8929 111.696C47.7329 111.771 47.5409 111.829 47.3169 111.872C47.1035 111.915 46.8795 111.947 46.6449 111.968C46.4209 111.979 46.1969 111.989 45.9729 112C45.7595 112 45.5782 112 45.4289 112H43.7969ZM60.754 109.744C61.17 109.744 61.4847 109.659 61.698 109.488C61.9113 109.307 62.018 109.067 62.018 108.768V107.248H60.898C60.45 107.248 60.13 107.381 59.938 107.648C59.746 107.904 59.65 108.24 59.65 108.656C59.65 109.04 59.7353 109.317 59.906 109.488C60.0873 109.659 60.37 109.744 60.754 109.744ZM63.602 109.136C63.602 109.477 63.6713 109.749 63.81 109.952C63.9593 110.144 64.194 110.24 64.514 110.24H64.882C65.0207 110.24 65.1113 110.315 65.154 110.464C65.2073 110.603 65.234 110.811 65.234 111.088C65.234 111.397 65.2073 111.627 65.154 111.776C65.1113 111.925 65.0207 112 64.882 112H64.514C63.97 112 63.5273 111.904 63.186 111.712C62.8553 111.52 62.6047 111.195 62.434 110.736C62.1673 111.035 61.8473 111.227 61.474 111.312C61.1113 111.387 60.7593 111.424 60.418 111.424C59.6607 111.424 59.0793 111.205 58.674 110.768C58.2793 110.32 58.082 109.659 58.082 108.784C58.082 108.389 58.1353 108.005 58.242 107.632C58.3593 107.248 58.5247 106.907 58.738 106.608C58.962 106.309 59.2393 106.069 59.57 105.888C59.9113 105.707 60.306 105.616 60.754 105.616H62.018V104.544H63.602V109.136ZM68.843 110.24C69.131 110.24 69.3283 110.181 69.435 110.064C69.5523 109.947 69.611 109.803 69.611 109.632C69.611 109.472 69.579 109.317 69.515 109.168C69.4617 109.008 69.339 108.837 69.147 108.656L66.123 105.632V103.808L71.419 101.808L71.787 103.44L67.707 104.944L70.059 107.328C70.539 107.808 70.9497 108.213 71.291 108.544C71.643 108.875 71.947 109.147 72.203 109.36C72.4697 109.573 72.699 109.744 72.891 109.872C73.0937 109.989 73.2803 110.075 73.451 110.128C73.6217 110.181 73.787 110.213 73.947 110.224C74.1177 110.235 74.3097 110.24 74.523 110.24C74.6617 110.24 74.7523 110.315 74.795 110.464C74.8483 110.603 74.875 110.811 74.875 111.088C74.875 111.397 74.8483 111.627 74.795 111.776C74.7523 111.925 74.6617 112 74.523 112C74.203 112 73.9097 111.984 73.643 111.952C73.387 111.92 73.1363 111.856 72.891 111.76C72.6457 111.653 72.3843 111.499 72.107 111.296C71.8297 111.083 71.515 110.8 71.163 110.448C71.0883 111.003 70.8483 111.403 70.443 111.648C70.0483 111.883 69.579 112 69.035 112H64.875C64.7363 112 64.6457 111.931 64.603 111.792C64.5497 111.643 64.523 111.429 64.523 111.152C64.523 110.843 64.5497 110.613 64.603 110.464C64.6457 110.315 64.7363 110.24 64.875 110.24H68.843ZM75.6356 110.24C76.3503 110.24 76.7076 109.893 76.7076 109.2V107.312H78.3556V109.2C78.3556 109.573 78.4676 109.84 78.6916 110C78.9263 110.16 79.1983 110.24 79.5076 110.24H79.9236C80.169 110.24 80.2916 110.523 80.2916 111.088C80.2916 111.696 80.169 112 79.9236 112H79.4596C79.0543 112 78.6863 111.936 78.3556 111.808C78.025 111.669 77.737 111.397 77.4916 110.992C77.225 111.397 76.937 111.669 76.6276 111.808C76.3183 111.936 75.9876 112 75.6356 112H74.5156C74.377 112 74.2863 111.931 74.2436 111.792C74.1903 111.643 74.1636 111.429 74.1636 111.152C74.1636 110.843 74.1903 110.613 74.2436 110.464C74.2863 110.315 74.377 110.24 74.5156 110.24H75.6356ZM78.0196 115.424H76.2116V113.792H78.0196V115.424ZM80.6259 110.24C81.3619 110.24 81.7299 109.893 81.7299 109.2V107.312H83.3459V109.2C83.3459 109.573 83.4579 109.84 83.6819 110C83.9165 110.16 84.1832 110.24 84.4819 110.24C85.2819 110.24 85.6819 109.893 85.6819 109.2V107.312H87.3139V109.2C87.3139 109.573 87.4099 109.84 87.6019 110C87.8045 110.16 88.0392 110.24 88.3059 110.24C88.6259 110.24 88.8712 110.155 89.0419 109.984C89.2232 109.803 89.3139 109.541 89.3139 109.2V107.312H90.9459V109.312C90.9459 110.197 90.7165 110.869 90.2579 111.328C89.8099 111.776 89.1805 112 88.3699 112C88.0072 112 87.6605 111.936 87.3299 111.808C86.9992 111.669 86.7112 111.397 86.4659 110.992C86.2099 111.397 85.9059 111.669 85.5539 111.808C85.2125 111.936 84.8552 112 84.4819 112C84.0765 112 83.7032 111.936 83.3619 111.808C83.0312 111.669 82.7432 111.397 82.4979 110.992C82.2419 111.397 81.9539 111.669 81.6339 111.808C81.3139 111.936 80.9725 112 80.6099 112H79.9219C79.7832 112 79.6925 111.931 79.6499 111.792C79.5965 111.643 79.5699 111.429 79.5699 111.152C79.5699 110.843 79.5965 110.613 79.6499 110.464C79.6925 110.315 79.7832 110.24 79.9219 110.24H80.6259ZM87.3299 103.2H85.6339V101.648H87.3299V103.2ZM88.4499 105.44H86.7859V103.872H88.4499V105.44ZM86.1619 105.44H84.4979V103.872H86.1619V105.44ZM96.3196 114.128C96.725 114.128 97.0716 114.069 97.3596 113.952C97.6583 113.845 97.9036 113.696 98.0956 113.504C98.2876 113.312 98.437 113.083 98.5436 112.816C98.6503 112.56 98.7143 112.288 98.7356 112H97.6476C97.093 112 96.6396 111.941 96.2876 111.824C95.9356 111.707 95.6583 111.536 95.4556 111.312C95.253 111.077 95.109 110.795 95.0236 110.464C94.949 110.133 94.9116 109.76 94.9116 109.344C94.9116 108.928 94.9703 108.539 95.0876 108.176C95.205 107.803 95.3756 107.477 95.5996 107.2C95.8343 106.923 96.1223 106.704 96.4636 106.544C96.805 106.373 97.1996 106.288 97.6476 106.288C98.0103 106.288 98.3516 106.347 98.6716 106.464C99.0023 106.581 99.2903 106.768 99.5356 107.024C99.781 107.28 99.973 107.611 100.112 108.016C100.261 108.421 100.336 108.917 100.336 109.504V111.744C100.336 112.288 100.245 112.811 100.064 113.312C99.8823 113.813 99.621 114.251 99.2796 114.624C98.949 115.008 98.5383 115.312 98.0476 115.536C97.557 115.76 97.0076 115.872 96.3996 115.872H94.7836L94.6876 114.128H96.3196ZM96.4796 109.232C96.4796 109.605 96.5596 109.867 96.7196 110.016C96.8903 110.165 97.221 110.24 97.7116 110.24H98.7676V109.488C98.7676 108.933 98.661 108.544 98.4476 108.32C98.245 108.096 97.957 107.984 97.5836 107.984C97.2316 107.984 96.9596 108.091 96.7676 108.304C96.5756 108.517 96.4796 108.827 96.4796 109.232ZM114.078 112C113.865 112 113.646 111.968 113.422 111.904C113.209 111.829 113.028 111.685 112.878 111.472V111.68C112.878 112.267 112.788 112.811 112.606 113.312C112.425 113.824 112.164 114.267 111.822 114.64C111.492 115.024 111.081 115.323 110.59 115.536C110.1 115.76 109.55 115.872 108.942 115.872H107.934C106.74 115.872 105.812 115.504 105.15 114.768C104.489 114.032 104.158 113.024 104.158 111.744V108.88H105.774V111.68C105.774 112.053 105.817 112.389 105.902 112.688C105.988 112.987 106.121 113.243 106.302 113.456C106.494 113.669 106.74 113.835 107.038 113.952C107.348 114.069 107.721 114.128 108.158 114.128H108.862C109.31 114.128 109.689 114.059 109.998 113.92C110.318 113.792 110.574 113.611 110.766 113.376C110.969 113.152 111.113 112.885 111.198 112.576C111.284 112.277 111.326 111.957 111.326 111.616V107.312H112.942V109.216C112.942 109.557 113.049 109.813 113.262 109.984C113.486 110.155 113.758 110.24 114.078 110.24H114.254C114.489 110.24 114.606 110.523 114.606 111.088C114.606 111.696 114.489 112 114.254 112H114.078ZM109.182 107.072H107.374V105.44H109.182V107.072ZM114.394 110.24C114.757 110.24 115.039 110.171 115.242 110.032C115.445 109.883 115.546 109.643 115.546 109.312V108.96C115.546 108.533 115.605 108.139 115.722 107.776C115.85 107.413 116.031 107.104 116.266 106.848C116.501 106.592 116.783 106.395 117.114 106.256C117.455 106.107 117.834 106.032 118.25 106.032C118.687 106.032 119.071 106.107 119.402 106.256C119.743 106.395 120.026 106.597 120.25 106.864C120.474 107.12 120.645 107.424 120.762 107.776C120.879 108.128 120.938 108.512 120.938 108.928V109.232C120.938 109.616 121.05 109.883 121.274 110.032C121.509 110.171 121.754 110.24 122.01 110.24H122.234C122.373 110.24 122.463 110.315 122.506 110.464C122.559 110.603 122.586 110.811 122.586 111.088C122.586 111.397 122.559 111.627 122.506 111.776C122.463 111.925 122.373 112 122.234 112H122.01C121.701 112 121.386 111.936 121.066 111.808C120.746 111.669 120.469 111.381 120.234 110.944C119.946 111.381 119.621 111.669 119.258 111.808C118.906 111.936 118.543 112 118.17 112C117.743 112 117.343 111.92 116.97 111.76C116.607 111.589 116.325 111.323 116.122 110.96C115.919 111.376 115.658 111.653 115.338 111.792C115.018 111.931 114.703 112 114.394 112H114.25C114.111 112 114.021 111.931 113.978 111.792C113.925 111.643 113.898 111.429 113.898 111.152C113.898 110.843 113.925 110.613 113.978 110.464C114.021 110.315 114.111 110.24 114.25 110.24H114.394ZM119.37 109.088C119.37 108.725 119.285 108.421 119.114 108.176C118.954 107.931 118.661 107.808 118.234 107.808C117.829 107.808 117.535 107.931 117.354 108.176C117.183 108.411 117.098 108.72 117.098 109.104C117.098 109.477 117.199 109.76 117.402 109.952C117.605 110.144 117.882 110.24 118.234 110.24C118.991 110.24 119.37 109.856 119.37 109.088ZM129.258 109.68C129.408 109.904 129.578 110.053 129.77 110.128C129.962 110.203 130.197 110.24 130.474 110.24H131.37C131.509 110.24 131.6 110.315 131.642 110.464C131.696 110.603 131.722 110.811 131.722 111.088C131.722 111.397 131.696 111.627 131.642 111.776C131.6 111.925 131.509 112 131.37 112H130.394C130.042 112 129.738 111.957 129.482 111.872C129.237 111.787 129.024 111.675 128.842 111.536C128.672 111.387 128.528 111.211 128.41 111.008C128.304 110.805 128.208 110.581 128.122 110.336L126.826 111.104C126.538 111.275 126.256 111.419 125.978 111.536C125.701 111.643 125.408 111.733 125.098 111.808C124.789 111.872 124.448 111.92 124.074 111.952C123.712 111.984 123.29 112 122.81 112H122.234C122.096 112 122.005 111.931 121.962 111.792C121.909 111.643 121.882 111.429 121.882 111.152C121.882 110.843 121.909 110.613 121.962 110.464C122.005 110.315 122.096 110.24 122.234 110.24H122.874C123.269 110.24 123.626 110.235 123.946 110.224C124.266 110.203 124.554 110.171 124.81 110.128C125.077 110.085 125.328 110.027 125.562 109.952C125.797 109.867 126.032 109.755 126.266 109.616L128.298 108.448C128.224 108.309 128.149 108.187 128.074 108.08C128.01 107.973 127.925 107.888 127.818 107.824C127.722 107.749 127.6 107.696 127.45 107.664C127.301 107.621 127.109 107.6 126.874 107.6H123.482L123.578 105.84H127.13C127.429 105.84 127.722 105.883 128.01 105.968C128.309 106.053 128.586 106.219 128.842 106.464C129.109 106.699 129.349 107.035 129.562 107.472C129.786 107.899 129.973 108.464 130.122 109.168L129.258 109.68ZM127.066 115.424H125.258V113.792H127.066V115.424ZM132.847 110.24C133.562 110.24 133.919 109.893 133.919 109.2V107.312H135.551V109.312C135.551 110.197 135.327 110.869 134.879 111.328C134.431 111.776 133.802 112 132.991 112H131.375C131.236 112 131.146 111.931 131.103 111.792C131.05 111.643 131.023 111.429 131.023 111.152C131.023 110.843 131.05 110.613 131.103 110.464C131.146 110.315 131.236 110.24 131.375 110.24H132.847ZM135.055 105.44H133.247V103.808H135.055V105.44ZM137.43 102.08H139.062V112H137.43V102.08ZM145.832 109.744C146.248 109.744 146.563 109.659 146.776 109.488C146.989 109.307 147.096 109.067 147.096 108.768V107.248H145.976C145.528 107.248 145.208 107.381 145.016 107.648C144.824 107.904 144.728 108.24 144.728 108.656C144.728 109.04 144.813 109.317 144.984 109.488C145.165 109.659 145.448 109.744 145.832 109.744ZM148.68 109.136C148.68 109.477 148.749 109.749 148.888 109.952C149.037 110.144 149.272 110.24 149.592 110.24H149.96C150.099 110.24 150.189 110.315 150.232 110.464C150.285 110.603 150.312 110.811 150.312 111.088C150.312 111.397 150.285 111.627 150.232 111.776C150.189 111.925 150.099 112 149.96 112H149.592C149.048 112 148.605 111.904 148.264 111.712C147.933 111.52 147.683 111.195 147.512 110.736C147.245 111.035 146.925 111.227 146.552 111.312C146.189 111.387 145.837 111.424 145.496 111.424C144.739 111.424 144.157 111.205 143.752 110.768C143.357 110.32 143.16 109.659 143.16 108.784C143.16 108.389 143.213 108.005 143.32 107.632C143.437 107.248 143.603 106.907 143.816 106.608C144.04 106.309 144.317 106.069 144.648 105.888C144.989 105.707 145.384 105.616 145.832 105.616H147.096V104.544H148.68V109.136ZM151.425 110.24C152.14 110.24 152.497 109.893 152.497 109.2V107.312H154.129V109.312C154.129 110.197 153.905 110.869 153.457 111.328C153.009 111.776 152.38 112 151.569 112H149.953C149.814 112 149.724 111.931 149.681 111.792C149.628 111.643 149.601 111.429 149.601 111.152C149.601 110.843 149.628 110.613 149.681 110.464C149.724 110.315 149.814 110.24 149.953 110.24H151.425ZM152.257 115.424H150.449V113.792H152.257V115.424ZM167.891 112C167.677 112 167.459 111.968 167.235 111.904C167.021 111.829 166.84 111.685 166.691 111.472V111.68C166.691 112.267 166.6 112.811 166.419 113.312C166.237 113.824 165.976 114.267 165.635 114.64C165.304 115.024 164.893 115.323 164.403 115.536C163.912 115.76 163.363 115.872 162.755 115.872H161.747C160.552 115.872 159.624 115.504 158.963 114.768C158.301 114.032 157.971 113.024 157.971 111.744V108.88H159.587V111.68C159.587 112.053 159.629 112.389 159.715 112.688C159.8 112.987 159.933 113.243 160.115 113.456C160.307 113.669 160.552 113.835 160.851 113.952C161.16 114.069 161.533 114.128 161.971 114.128H162.675C163.123 114.128 163.501 114.059 163.811 113.92C164.131 113.792 164.387 113.611 164.579 113.376C164.781 113.152 164.925 112.885 165.011 112.576C165.096 112.277 165.139 111.957 165.139 111.616V107.312H166.755V109.216C166.755 109.557 166.861 109.813 167.075 109.984C167.299 110.155 167.571 110.24 167.891 110.24H168.067C168.301 110.24 168.419 110.523 168.419 111.088C168.419 111.696 168.301 112 168.067 112H167.891ZM162.995 107.072H161.187V105.44H162.995V107.072ZM169.183 110.24C169.897 110.24 170.255 109.893 170.255 109.2V107.312H171.903V109.2C171.903 109.573 172.015 109.84 172.239 110C172.473 110.16 172.745 110.24 173.055 110.24H173.471C173.716 110.24 173.839 110.523 173.839 111.088C173.839 111.696 173.716 112 173.471 112H173.007C172.601 112 172.233 111.936 171.903 111.808C171.572 111.669 171.284 111.397 171.039 110.992C170.772 111.397 170.484 111.669 170.174 111.808C169.865 111.936 169.535 112 169.183 112H168.062C167.924 112 167.833 111.931 167.79 111.792C167.737 111.643 167.71 111.429 167.71 111.152C167.71 110.843 167.737 110.613 167.79 110.464C167.833 110.315 167.924 110.24 168.062 110.24H169.183ZM172.847 105.44H171.183V103.872H172.847V105.44ZM170.559 105.44H168.895V103.872H170.559V105.44ZM174.173 110.24C174.909 110.24 175.277 109.893 175.277 109.2V107.312H176.893V109.2C176.893 109.573 177.005 109.84 177.229 110C177.463 110.16 177.73 110.24 178.029 110.24C178.829 110.24 179.229 109.893 179.229 109.2V107.312H180.861V109.2C180.861 109.573 180.957 109.84 181.149 110C181.351 110.16 181.586 110.24 181.853 110.24C182.173 110.24 182.418 110.155 182.589 109.984C182.77 109.803 182.861 109.541 182.861 109.2V107.312H184.493V109.312C184.493 110.197 184.263 110.869 183.805 111.328C183.357 111.776 182.727 112 181.917 112C181.554 112 181.207 111.936 180.877 111.808C180.546 111.669 180.258 111.397 180.013 110.992C179.757 111.397 179.453 111.669 179.101 111.808C178.759 111.936 178.402 112 178.029 112C177.623 112 177.25 111.936 176.909 111.808C176.578 111.669 176.29 111.397 176.045 110.992C175.789 111.397 175.501 111.669 175.181 111.808C174.861 111.936 174.519 112 174.157 112H173.469C173.33 112 173.239 111.931 173.197 111.792C173.143 111.643 173.117 111.429 173.117 111.152C173.117 110.843 173.143 110.613 173.197 110.464C173.239 110.315 173.33 110.24 173.469 110.24H174.173ZM187.632 114.128C188.037 114.128 188.384 114.069 188.672 113.952C188.971 113.845 189.216 113.696 189.408 113.504C189.6 113.312 189.749 113.083 189.856 112.816C189.963 112.56 190.027 112.288 190.048 112H188.96C188.405 112 187.952 111.941 187.6 111.824C187.248 111.707 186.971 111.536 186.768 111.312C186.565 111.077 186.421 110.795 186.336 110.464C186.261 110.133 186.224 109.76 186.224 109.344C186.224 108.928 186.283 108.539 186.4 108.176C186.517 107.803 186.688 107.477 186.912 107.2C187.147 106.923 187.435 106.704 187.776 106.544C188.117 106.373 188.512 106.288 188.96 106.288C189.323 106.288 189.664 106.347 189.984 106.464C190.315 106.581 190.603 106.768 190.848 107.024C191.093 107.28 191.285 107.611 191.424 108.016C191.573 108.421 191.648 108.917 191.648 109.504V110.24H192.944C193.179 110.24 193.296 110.523 193.296 111.088C193.296 111.696 193.179 112 192.944 112H191.616C191.595 112.523 191.488 113.019 191.296 113.488C191.104 113.957 190.837 114.368 190.496 114.72C190.165 115.072 189.765 115.349 189.296 115.552C188.827 115.765 188.299 115.872 187.712 115.872H186.096L186 114.128H187.632ZM187.792 109.232C187.792 109.605 187.872 109.867 188.032 110.016C188.203 110.165 188.533 110.24 189.024 110.24H190.08V109.488C190.08 108.933 189.973 108.544 189.76 108.32C189.557 108.096 189.269 107.984 188.896 107.984C188.544 107.984 188.272 108.091 188.08 108.304C187.888 108.517 187.792 108.827 187.792 109.232ZM194.058 110.24C194.772 110.24 195.13 109.893 195.13 109.2V107.312H196.778V109.2C196.778 109.573 196.89 109.84 197.114 110C197.348 110.16 197.62 110.24 197.93 110.24H198.346C198.591 110.24 198.714 110.523 198.714 111.088C198.714 111.696 198.591 112 198.346 112H197.882C197.476 112 197.108 111.936 196.778 111.808C196.447 111.669 196.159 111.397 195.914 110.992C195.647 111.397 195.359 111.669 195.049 111.808C194.74 111.936 194.41 112 194.058 112H192.938C192.799 112 192.708 111.931 192.665 111.792C192.612 111.643 192.585 111.429 192.585 111.152C192.585 110.843 192.612 110.613 192.665 110.464C192.708 110.315 192.799 110.24 192.938 110.24H194.058ZM197.61 115.36H195.962V113.792H197.61V115.36ZM195.306 115.36H193.658V113.792H195.306V115.36ZM199.816 110.24C200.53 110.24 200.888 109.893 200.888 109.2V107.312H202.52V109.312C202.52 110.197 202.296 110.869 201.848 111.328C201.4 111.776 200.77 112 199.96 112H198.344C198.205 112 198.114 111.931 198.072 111.792C198.018 111.643 197.992 111.429 197.992 111.152C197.992 110.843 198.018 110.613 198.072 110.464C198.114 110.315 198.205 110.24 198.344 110.24H199.816ZM201.192 117.6H199.496V116.032H201.192V117.6ZM202.312 115.36H200.648V113.792H202.312V115.36ZM200.024 115.36H198.36V113.792H200.024V115.36ZM208.857 112C208.559 112 208.271 111.963 207.993 111.888C207.727 111.803 207.492 111.664 207.289 111.472C207.087 111.28 206.927 111.029 206.809 110.72C206.692 110.4 206.633 110.005 206.633 109.536V102.08H208.265V109.136C208.265 109.477 208.34 109.749 208.489 109.952C208.649 110.144 208.884 110.24 209.193 110.24H209.561C209.796 110.24 209.913 110.523 209.913 111.088C209.913 111.696 209.796 112 209.561 112H208.857ZM211.035 110.24C211.749 110.24 212.107 109.893 212.107 109.2V107.312H213.739V109.312C213.739 110.197 213.515 110.869 213.067 111.328C212.619 111.776 211.989 112 211.179 112H209.562C209.424 112 209.333 111.931 209.29 111.792C209.237 111.643 209.21 111.429 209.21 111.152C209.21 110.843 209.237 110.613 209.29 110.464C209.333 110.315 209.424 110.24 209.562 110.24H211.035ZM211.867 115.424H210.059V113.792H211.867V115.424ZM218.844 112C218.503 112 218.236 111.904 218.044 111.712C217.852 111.509 217.756 111.184 217.756 110.736C217.756 110.149 217.777 109.669 217.82 109.296C217.873 108.912 217.969 108.613 218.108 108.4C218.257 108.176 218.465 108.016 218.732 107.92C219.009 107.813 219.372 107.733 219.82 107.68V108.64C219.585 108.683 219.399 108.725 219.26 108.768C219.132 108.811 219.036 108.869 218.972 108.944C218.908 109.019 218.865 109.12 218.844 109.248C218.833 109.376 218.828 109.541 218.828 109.744C219.18 109.744 219.452 109.829 219.644 110C219.847 110.171 219.948 110.464 219.948 110.88C219.948 111.253 219.847 111.536 219.644 111.728C219.452 111.909 219.185 112 218.844 112ZM229.547 110.24C230.262 110.24 230.619 109.893 230.619 109.2V107.312H232.251V109.2C232.251 109.573 232.368 109.84 232.603 110C232.838 110.16 233.115 110.24 233.435 110.24H233.755C233.894 110.24 233.984 110.315 234.027 110.464C234.08 110.603 234.107 110.811 234.107 111.088C234.107 111.397 234.08 111.627 234.027 111.776C233.984 111.925 233.894 112 233.755 112H233.371C232.976 112 232.608 111.936 232.267 111.808C231.926 111.669 231.632 111.397 231.387 110.992C231.142 111.397 230.859 111.669 230.539 111.808C230.23 111.936 229.899 112 229.547 112H224.155C223.718 112 223.339 111.936 223.019 111.808C222.71 111.669 222.454 111.488 222.251 111.264C222.059 111.04 221.915 110.779 221.819 110.48C221.734 110.181 221.691 109.867 221.691 109.536V107.264H223.307V109.12C223.307 109.472 223.387 109.749 223.547 109.952C223.707 110.144 224.032 110.24 224.523 110.24H229.547ZM228.939 106.016H227.275V104.448H228.939V106.016ZM226.651 106.016H224.987V104.448H226.651V106.016ZM234.454 110.24C235.19 110.24 235.558 109.893 235.558 109.2V107.312H237.174V109.2C237.174 109.573 237.286 109.84 237.51 110C237.745 110.16 238.011 110.24 238.31 110.24C239.11 110.24 239.51 109.893 239.51 109.2V107.312H241.142V109.2C241.142 109.573 241.238 109.84 241.43 110C241.633 110.16 241.867 110.24 242.134 110.24C242.454 110.24 242.699 110.155 242.87 109.984C243.051 109.803 243.142 109.541 243.142 109.2V107.312H244.774V109.312C244.774 110.197 244.545 110.869 244.086 111.328C243.638 111.776 243.009 112 242.198 112C241.835 112 241.489 111.936 241.158 111.808C240.827 111.669 240.539 111.397 240.294 110.992C240.038 111.397 239.734 111.669 239.382 111.808C239.041 111.936 238.683 112 238.31 112C237.905 112 237.531 111.936 237.19 111.808C236.859 111.669 236.571 111.397 236.326 110.992C236.07 111.397 235.782 111.669 235.462 111.808C235.142 111.936 234.801 112 234.438 112H233.75C233.611 112 233.521 111.931 233.478 111.792C233.425 111.643 233.398 111.429 233.398 111.152C233.398 110.843 233.425 110.613 233.478 110.464C233.521 110.315 233.611 110.24 233.75 110.24H234.454ZM246.633 102.08H248.265V112H246.633V102.08ZM257.531 114.128C258.001 114.128 258.39 114.096 258.699 114.032C259.019 113.968 259.27 113.877 259.451 113.76C259.643 113.643 259.777 113.499 259.851 113.328C259.937 113.168 259.979 112.992 259.979 112.8C259.979 112.587 259.921 112.4 259.803 112.24C259.686 112.08 259.489 112 259.211 112H256.907L257.003 110.24H262.555C262.79 110.24 262.907 110.523 262.907 111.088C262.907 111.696 262.79 112 262.555 112H261.179C261.318 112.107 261.409 112.245 261.451 112.416C261.505 112.587 261.531 112.795 261.531 113.04C261.531 113.328 261.467 113.637 261.339 113.968C261.211 114.299 260.998 114.603 260.699 114.88C260.411 115.168 260.022 115.403 259.531 115.584C259.051 115.776 258.459 115.872 257.755 115.872H256.059C254.865 115.872 253.937 115.504 253.275 114.768C252.614 114.032 252.283 113.024 252.283 111.744V108.88H253.899V111.68C253.899 112.053 253.942 112.389 254.027 112.688C254.113 112.987 254.246 113.243 254.427 113.456C254.619 113.669 254.865 113.835 255.163 113.952C255.473 114.069 255.846 114.128 256.283 114.128H257.531ZM264.035 110.24C264.749 110.24 265.107 109.893 265.107 109.2V107.312H266.739V109.312C266.739 110.197 266.515 110.869 266.067 111.328C265.619 111.776 264.989 112 264.179 112H262.562C262.424 112 262.333 111.931 262.29 111.792C262.237 111.643 262.21 111.429 262.21 111.152C262.21 110.843 262.237 110.613 262.29 110.464C262.333 110.315 262.424 110.24 262.562 110.24H264.035ZM266.243 105.44H264.435V103.808H266.243V105.44ZM270.842 112C270.543 112 270.255 111.963 269.978 111.888C269.711 111.803 269.476 111.664 269.274 111.472C269.071 111.28 268.911 111.029 268.794 110.72C268.676 110.4 268.618 110.005 268.618 109.536V102.08H270.25V109.136C270.25 109.477 270.324 109.749 270.474 109.952C270.634 110.144 270.868 110.24 271.178 110.24H271.546C271.78 110.24 271.898 110.523 271.898 111.088C271.898 111.696 271.78 112 271.546 112H270.842ZM272.843 110.24V109.152C272.843 108.768 272.88 108.379 272.955 107.984C273.04 107.589 273.184 107.237 273.387 106.928C273.59 106.608 273.862 106.347 274.203 106.144C274.555 105.941 274.998 105.84 275.531 105.84C275.926 105.84 276.272 105.909 276.571 106.048C276.88 106.176 277.136 106.352 277.339 106.576C277.542 106.8 277.696 107.067 277.803 107.376C277.91 107.685 277.963 108.016 277.963 108.368C277.963 108.88 277.862 109.344 277.659 109.76C277.467 110.176 277.2 110.539 276.859 110.848C276.528 111.157 276.144 111.408 275.707 111.6C275.27 111.781 274.811 111.893 274.331 111.936V112.992C274.331 113.365 274.4 113.632 274.539 113.792C274.688 113.963 274.891 114.075 275.147 114.128L276.507 112.416C276.934 111.893 277.286 111.488 277.563 111.2C277.851 110.912 278.112 110.699 278.347 110.56C278.592 110.411 278.838 110.32 279.083 110.288C279.328 110.256 279.627 110.24 279.979 110.24C280.118 110.24 280.208 110.315 280.251 110.464C280.304 110.603 280.331 110.811 280.331 111.088C280.331 111.397 280.304 111.627 280.251 111.776C280.208 111.925 280.118 112 279.979 112C279.712 112 279.478 112.011 279.275 112.032C279.072 112.053 278.864 112.123 278.651 112.24C278.448 112.357 278.224 112.539 277.979 112.784C277.734 113.04 277.435 113.397 277.083 113.856L275.547 115.872C275.163 115.872 274.806 115.813 274.475 115.696C274.144 115.589 273.856 115.424 273.611 115.2C273.376 114.976 273.19 114.688 273.051 114.336C272.912 113.995 272.843 113.589 272.843 113.12V112H271.547C271.408 112 271.318 111.931 271.275 111.792C271.222 111.643 271.195 111.429 271.195 111.152C271.195 110.843 271.222 110.613 271.275 110.464C271.318 110.315 271.408 110.24 271.547 110.24H272.843ZM274.331 110.304C274.715 110.272 275.04 110.203 275.307 110.096C275.574 109.989 275.792 109.861 275.963 109.712C276.144 109.563 276.272 109.397 276.347 109.216C276.432 109.035 276.475 108.848 276.475 108.656C276.475 108.336 276.39 108.069 276.219 107.856C276.048 107.643 275.798 107.536 275.467 107.536C275.104 107.536 274.822 107.664 274.619 107.92C274.427 108.176 274.331 108.56 274.331 109.072V110.304ZM284.576 111.104C284.288 111.275 284.006 111.419 283.728 111.536C283.451 111.643 283.158 111.733 282.848 111.808C282.539 111.872 282.198 111.92 281.824 111.952C281.462 111.984 281.04 112 280.56 112H279.984C279.846 112 279.755 111.931 279.712 111.792C279.659 111.643 279.632 111.429 279.632 111.152C279.632 110.843 279.659 110.613 279.712 110.464C279.755 110.315 279.846 110.24 279.984 110.24H280.624C281.019 110.24 281.376 110.235 281.696 110.224C282.016 110.203 282.304 110.171 282.56 110.128C282.827 110.085 283.078 110.027 283.312 109.952C283.547 109.867 283.782 109.755 284.016 109.616L286.048 108.448C285.974 108.309 285.899 108.187 285.824 108.08C285.76 107.973 285.675 107.888 285.568 107.824C285.472 107.749 285.35 107.696 285.2 107.664C285.051 107.621 284.859 107.6 284.624 107.6H281.232L281.328 105.84H284.88C285.179 105.84 285.472 105.883 285.76 105.968C286.059 106.053 286.336 106.219 286.592 106.464C286.859 106.699 287.099 107.035 287.312 107.472C287.536 107.899 287.723 108.464 287.872 109.168L284.576 111.104ZM284.816 115.424H283.008V113.792H284.816V115.424ZM296.797 114.128C297.266 114.128 297.656 114.096 297.965 114.032C298.285 113.968 298.536 113.877 298.717 113.76C298.909 113.643 299.042 113.499 299.117 113.328C299.202 113.168 299.245 112.992 299.245 112.8C299.245 112.587 299.186 112.4 299.069 112.24C298.952 112.08 298.754 112 298.477 112H296.173L296.269 110.24H301.821C302.056 110.24 302.173 110.523 302.173 111.088C302.173 111.696 302.056 112 301.821 112H300.445C300.584 112.107 300.674 112.245 300.717 112.416C300.77 112.587 300.797 112.795 300.797 113.04C300.797 113.328 300.733 113.637 300.605 113.968C300.477 114.299 300.264 114.603 299.965 114.88C299.677 115.168 299.288 115.403 298.797 115.584C298.317 115.776 297.725 115.872 297.021 115.872H295.325C294.13 115.872 293.202 115.504 292.541 114.768C291.88 114.032 291.549 113.024 291.549 111.744V108.88H293.165V111.68C293.165 112.053 293.208 112.389 293.293 112.688C293.378 112.987 293.512 113.243 293.693 113.456C293.885 113.669 294.13 113.835 294.429 113.952C294.738 114.069 295.112 114.128 295.549 114.128H296.797ZM303.3 110.24C304.015 110.24 304.372 109.893 304.372 109.2V107.312H306.004V109.312C306.004 110.197 305.78 110.869 305.332 111.328C304.884 111.776 304.255 112 303.444 112H301.828C301.689 112 301.599 111.931 301.556 111.792C301.503 111.643 301.476 111.429 301.476 111.152C301.476 110.843 301.503 110.613 301.556 110.464C301.599 110.315 301.689 110.24 301.828 110.24H303.3ZM305.78 115.36H304.132V113.792H305.78V115.36ZM303.476 115.36H301.828V113.792H303.476V115.36ZM309.163 114.128C309.569 114.128 309.915 114.069 310.203 113.952C310.502 113.845 310.747 113.696 310.939 113.504C311.131 113.312 311.281 113.083 311.387 112.816C311.494 112.56 311.558 112.288 311.579 112H310.491C309.937 112 309.483 111.941 309.131 111.824C308.779 111.707 308.502 111.536 308.299 111.312C308.097 111.077 307.953 110.795 307.867 110.464C307.793 110.133 307.755 109.76 307.755 109.344C307.755 108.928 307.814 108.539 307.931 108.176C308.049 107.803 308.219 107.477 308.443 107.2C308.678 106.923 308.966 106.704 309.307 106.544C309.649 106.373 310.043 106.288 310.491 106.288C310.854 106.288 311.195 106.347 311.515 106.464C311.846 106.581 312.134 106.768 312.379 107.024C312.625 107.28 312.817 107.611 312.955 108.016C313.105 108.421 313.179 108.917 313.179 109.504V110.24H314.475C314.71 110.24 314.827 110.523 314.827 111.088C314.827 111.696 314.71 112 314.475 112H313.147C313.126 112.523 313.019 113.019 312.827 113.488C312.635 113.957 312.369 114.368 312.027 114.72C311.697 115.072 311.297 115.349 310.827 115.552C310.358 115.765 309.83 115.872 309.243 115.872H307.627L307.531 114.128H309.163ZM309.323 109.232C309.323 109.605 309.403 109.867 309.563 110.016C309.734 110.165 310.065 110.24 310.555 110.24H311.611V109.488C311.611 108.933 311.505 108.544 311.291 108.32C311.089 108.096 310.801 107.984 310.427 107.984C310.075 107.984 309.803 108.091 309.611 108.304C309.419 108.517 309.323 108.827 309.323 109.232ZM315.589 110.24C316.303 110.24 316.661 109.893 316.661 109.2V107.312H318.309V109.2C318.309 109.573 318.421 109.84 318.645 110C318.879 110.16 319.151 110.24 319.461 110.24H319.877C320.122 110.24 320.245 110.523 320.245 111.088C320.245 111.696 320.122 112 319.877 112H319.413C319.007 112 318.639 111.936 318.309 111.808C317.978 111.669 317.69 111.397 317.445 110.992C317.178 111.397 316.89 111.669 316.581 111.808C316.271 111.936 315.941 112 315.589 112H314.469C314.33 112 314.239 111.931 314.197 111.792C314.143 111.643 314.117 111.429 314.117 111.152C314.117 110.843 314.143 110.613 314.197 110.464C314.239 110.315 314.33 110.24 314.469 110.24H315.589ZM319.253 105.44H317.589V103.872H319.253V105.44ZM316.965 105.44H315.301V103.872H316.965V105.44ZM320.995 110.24C321.71 110.24 322.067 109.893 322.067 109.2V107.312H323.715V109.2C323.715 109.573 323.827 109.84 324.051 110C324.286 110.16 324.558 110.24 324.867 110.24H325.283C325.528 110.24 325.651 110.523 325.651 111.088C325.651 111.696 325.528 112 325.283 112H324.819C324.414 112 324.046 111.936 323.715 111.808C323.384 111.669 323.096 111.397 322.851 110.992C322.584 111.397 322.296 111.669 321.987 111.808C321.678 111.936 321.347 112 320.995 112H319.875C319.736 112 319.646 111.931 319.603 111.792C319.55 111.643 319.523 111.429 319.523 111.152C319.523 110.843 319.55 110.613 319.603 110.464C319.646 110.315 319.736 110.24 319.875 110.24H320.995ZM323.203 117.6H321.507V116.032H323.203V117.6ZM324.323 115.36H322.659V113.792H324.323V115.36ZM322.035 115.36H320.371V113.792H322.035V115.36ZM325.281 112C325.143 112 325.052 111.931 325.009 111.792C324.956 111.643 324.929 111.429 324.929 111.152C324.929 110.843 324.956 110.613 325.009 110.464C325.052 110.315 325.143 110.24 325.281 110.24H328.961C329.676 110.24 330.033 109.893 330.033 109.2V107.312H331.665V109.312C331.665 110.197 331.436 110.869 330.977 111.328C330.529 111.776 329.9 112 329.089 112H325.281ZM329.601 115.36H327.953V113.792H329.601V115.36ZM327.297 115.36H325.649V113.792H327.297V115.36ZM335.54 109.216C335.54 109.557 335.646 109.813 335.86 109.984C336.073 110.155 336.34 110.24 336.66 110.24H336.836C337.07 110.24 337.188 110.523 337.188 111.088C337.188 111.696 337.07 112 336.836 112H336.66C336.446 112 336.228 111.968 336.004 111.904C335.79 111.829 335.609 111.685 335.46 111.472V111.744C335.46 112.32 335.364 112.859 335.172 113.36C334.98 113.861 334.713 114.299 334.372 114.672C334.041 115.045 333.641 115.339 333.172 115.552C332.713 115.765 332.212 115.872 331.668 115.872H331.268L331.14 114.128H331.396C331.844 114.128 332.228 114.059 332.548 113.92C332.868 113.792 333.124 113.616 333.316 113.392C333.518 113.168 333.668 112.912 333.764 112.624C333.86 112.336 333.908 112.043 333.908 111.744V107.312H335.54V109.216ZM340.781 110.24C341.069 110.24 341.266 110.181 341.373 110.064C341.49 109.947 341.549 109.803 341.549 109.632C341.549 109.472 341.517 109.317 341.453 109.168C341.399 109.008 341.277 108.837 341.085 108.656L338.061 105.632V103.808L343.357 101.808L343.725 103.44L339.645 104.944L341.997 107.328C342.477 107.808 342.887 108.213 343.229 108.544C343.581 108.875 343.885 109.147 344.141 109.36C344.407 109.573 344.637 109.744 344.829 109.872C345.031 109.989 345.218 110.075 345.389 110.128C345.559 110.181 345.725 110.213 345.885 110.224C346.055 110.235 346.247 110.24 346.461 110.24C346.599 110.24 346.69 110.315 346.733 110.464C346.786 110.603 346.812 110.811 346.812 111.088C346.812 111.397 346.786 111.627 346.733 111.776C346.69 111.925 346.599 112 346.461 112C346.141 112 345.847 111.984 345.581 111.952C345.325 111.92 345.074 111.856 344.829 111.76C344.583 111.653 344.322 111.499 344.045 111.296C343.767 111.083 343.453 110.8 343.101 110.448C343.026 111.003 342.786 111.403 342.381 111.648C341.986 111.883 341.517 112 340.973 112H336.812C336.674 112 336.583 111.931 336.54 111.792C336.487 111.643 336.46 111.429 336.46 111.152C336.46 110.843 336.487 110.613 336.54 110.464C336.583 110.315 336.674 110.24 336.812 110.24H340.781ZM347.157 110.24C347.893 110.24 348.261 109.893 348.261 109.2V107.312H349.877V109.2C349.877 109.573 349.989 109.84 350.213 110C350.448 110.16 350.714 110.24 351.013 110.24C351.813 110.24 352.213 109.893 352.213 109.2V107.312H353.845V109.2C353.845 109.573 353.941 109.84 354.133 110C354.336 110.16 354.57 110.24 354.837 110.24C355.509 110.24 355.845 109.893 355.845 109.2V107.312H357.477V109.2C357.477 109.573 357.589 109.84 357.813 110C358.048 110.16 358.309 110.24 358.597 110.24H358.965C359.104 110.24 359.194 110.315 359.237 110.464C359.29 110.603 359.317 110.811 359.317 111.088C359.317 111.397 359.29 111.627 359.237 111.776C359.194 111.925 359.104 112 358.965 112H358.597C358.192 112 357.818 111.936 357.477 111.808C357.146 111.669 356.858 111.397 356.613 110.992C356.357 111.397 356.064 111.669 355.733 111.808C355.413 111.936 355.114 112 354.837 112C354.464 112 354.122 111.936 353.813 111.808C353.514 111.669 353.242 111.397 352.997 110.992C352.741 111.397 352.437 111.669 352.085 111.808C351.744 111.936 351.386 112 351.013 112C350.608 112 350.234 111.936 349.893 111.808C349.562 111.669 349.274 111.397 349.029 110.992C348.773 111.397 348.485 111.669 348.165 111.808C347.845 111.936 347.504 112 347.141 112H346.453C346.314 112 346.224 111.931 346.181 111.792C346.128 111.643 346.101 111.429 346.101 111.152C346.101 110.843 346.128 110.613 346.181 110.464C346.224 110.315 346.314 110.24 346.453 110.24H347.157ZM362.937 110.24C363.225 110.24 363.422 110.181 363.529 110.064C363.646 109.947 363.705 109.803 363.705 109.632C363.705 109.472 363.673 109.317 363.609 109.168C363.555 109.008 363.433 108.837 363.241 108.656L360.217 105.632V103.808L365.513 101.808L365.881 103.44L361.801 104.944L364.153 107.328C364.419 107.595 364.638 107.84 364.809 108.064C364.979 108.277 365.113 108.485 365.209 108.688C365.305 108.88 365.369 109.077 365.401 109.28C365.443 109.472 365.465 109.675 365.465 109.888C365.465 110.261 365.401 110.581 365.273 110.848C365.155 111.115 364.99 111.333 364.777 111.504C364.574 111.675 364.329 111.803 364.041 111.888C363.763 111.963 363.459 112 363.129 112H358.969C358.83 112 358.739 111.931 358.697 111.792C358.643 111.643 358.617 111.429 358.617 111.152C358.617 110.843 358.643 110.613 358.697 110.464C358.739 110.315 358.83 110.24 358.969 110.24H362.937ZM367.337 102.08H368.969V112H367.337V102.08ZM56.8571 135.24C57.2305 135.24 57.4865 135.165 57.6251 135.016C57.7638 134.867 57.8331 134.717 57.8331 134.568C57.8331 134.483 57.8171 134.376 57.7851 134.248C57.7531 134.109 57.6891 133.891 57.5931 133.592C57.4971 133.283 57.3531 132.861 57.1611 132.328C56.9798 131.795 56.7291 131.096 56.4091 130.232L57.9611 129.576L59.6091 134.184C59.7371 134.557 59.8865 134.829 60.0571 135C60.2385 135.16 60.5158 135.24 60.8891 135.24H61.0971C61.3318 135.24 61.4491 135.523 61.4491 136.088C61.4491 136.696 61.3318 137 61.0971 137H60.8891C60.5371 137 60.1958 136.936 59.8651 136.808C59.5451 136.68 59.2518 136.408 58.9851 135.992C58.7611 136.376 58.4785 136.643 58.1371 136.792C57.8065 136.931 57.4438 137 57.0491 137H53.6091L53.5291 135.24H56.8571ZM62.2138 135.24C62.9284 135.24 63.2858 134.893 63.2858 134.2V132.312H64.9338V134.2C64.9338 134.573 65.0458 134.84 65.2698 135C65.5044 135.16 65.7764 135.24 66.0858 135.24H66.5018C66.7471 135.24 66.8698 135.523 66.8698 136.088C66.8698 136.696 66.7471 137 66.5018 137H66.0378C65.6324 137 65.2644 136.936 64.9338 136.808C64.6031 136.669 64.3151 136.397 64.0698 135.992C63.8031 136.397 63.5151 136.669 63.2057 136.808C62.8964 136.936 62.5658 137 62.2138 137H61.0938C60.9551 137 60.8644 136.931 60.8217 136.792C60.7684 136.643 60.7417 136.429 60.7417 136.152C60.7417 135.843 60.7684 135.613 60.8217 135.464C60.8644 135.315 60.9551 135.24 61.0938 135.24H62.2138ZM65.7658 140.36H64.1178V138.792H65.7658V140.36ZM63.4618 140.36H61.8138V138.792H63.4618V140.36ZM67.62 135.24C68.3347 135.24 68.692 134.893 68.692 134.2V132.312H70.34V134.2C70.34 134.573 70.452 134.84 70.676 135C70.9107 135.16 71.1827 135.24 71.492 135.24H71.908C72.1533 135.24 72.276 135.523 72.276 136.088C72.276 136.696 72.1533 137 71.908 137H71.444C71.0387 137 70.6707 136.936 70.34 136.808C70.0093 136.669 69.7213 136.397 69.476 135.992C69.2093 136.397 68.9213 136.669 68.612 136.808C68.3027 136.936 67.972 137 67.62 137H66.5C66.3613 137 66.2707 136.931 66.228 136.792C66.1747 136.643 66.148 136.429 66.148 136.152C66.148 135.843 66.1747 135.613 66.228 135.464C66.2707 135.315 66.3613 135.24 66.5 135.24H67.62ZM70.276 130.44H68.468V128.808H70.276V130.44ZM75.8743 135.24C76.1623 135.24 76.3596 135.181 76.4663 135.064C76.5836 134.947 76.6423 134.803 76.6423 134.632C76.6423 134.472 76.6103 134.317 76.5463 134.168C76.4929 134.008 76.3703 133.837 76.1783 133.656L73.1543 130.632V128.808L78.4503 126.808L78.8183 128.44L74.7383 129.944L77.0903 132.328C77.3569 132.595 77.5756 132.84 77.7463 133.064C77.9169 133.277 78.0503 133.485 78.1463 133.688C78.2423 133.88 78.3063 134.077 78.3383 134.28C78.3809 134.472 78.4023 134.675 78.4023 134.888C78.4023 135.261 78.3383 135.581 78.2103 135.848C78.0929 136.115 77.9276 136.333 77.7143 136.504C77.5116 136.675 77.2663 136.803 76.9783 136.888C76.7009 136.963 76.3969 137 76.0663 137H71.9062C71.7676 137 71.6769 136.931 71.6342 136.792C71.5809 136.643 71.5542 136.429 71.5542 136.152C71.5542 135.843 71.5809 135.613 71.6342 135.464C71.6769 135.315 71.7676 135.24 71.9062 135.24H75.8743ZM85.8056 136.744C85.8056 137.32 85.7043 137.859 85.5016 138.36C85.3096 138.861 85.0376 139.299 84.6856 139.672C84.3443 140.045 83.9336 140.339 83.4536 140.552C82.9843 140.765 82.4776 140.872 81.9336 140.872H80.9256L80.8456 139.128H81.5176C81.9976 139.128 82.4083 139.059 82.7496 138.92C83.0803 138.792 83.3523 138.616 83.5656 138.392C83.779 138.168 83.9336 137.912 84.0296 137.624C84.1256 137.336 84.1736 137.043 84.1736 136.744V132.312H85.8056V136.744ZM87.6646 127.08H89.2966V137H87.6646V127.08ZM93.2881 136.744C93.2881 137.32 93.1921 137.859 93.0001 138.36C92.8081 138.861 92.5415 139.299 92.2001 139.672C91.8695 140.045 91.4695 140.339 91.0001 140.552C90.5415 140.765 90.0401 140.872 89.4961 140.872H88.4881L88.4081 139.128H89.0801C89.5601 139.128 89.9708 139.059 90.3121 138.92C90.6428 138.792 90.9148 138.616 91.1281 138.392C91.3415 138.168 91.4961 137.912 91.5921 137.624C91.6881 137.336 91.7361 137.043 91.7361 136.744V132.312H93.3681V134.216C93.3681 134.557 93.4695 134.813 93.6721 134.984C93.8855 135.155 94.1521 135.24 94.4721 135.24H94.6481C94.8828 135.24 95.0001 135.523 95.0001 136.088C95.0001 136.696 94.8828 137 94.6481 137H94.4721C94.2588 137 94.0455 136.968 93.8321 136.904C93.6188 136.829 93.4375 136.685 93.2881 136.472V136.744ZM96.0806 135.24C96.2513 135.24 96.4006 135.245 96.5286 135.256C96.6566 135.256 96.774 135.261 96.8806 135.272C96.998 135.283 97.11 135.299 97.2166 135.32C97.3233 135.341 97.4406 135.368 97.5686 135.4C97.1953 135.24 96.8966 135.075 96.6726 134.904C96.4593 134.723 96.294 134.531 96.1766 134.328C96.0593 134.125 95.9793 133.907 95.9366 133.672C95.9046 133.427 95.8886 133.16 95.8886 132.872C95.8886 132.584 95.942 132.285 96.0486 131.976C96.166 131.667 96.3366 131.389 96.5606 131.144C96.7846 130.899 97.062 130.696 97.3926 130.536C97.734 130.376 98.1233 130.296 98.5606 130.296C98.9766 130.296 99.35 130.349 99.6806 130.456C100.022 130.563 100.315 130.739 100.561 130.984C100.806 131.229 100.993 131.555 101.121 131.96C101.259 132.355 101.329 132.845 101.329 133.432V134.248C101.329 135.112 101.078 135.789 100.577 136.28C100.086 136.76 99.3073 137 98.2406 137H94.6406C94.502 137 94.4113 136.931 94.3686 136.792C94.3153 136.643 94.2886 136.429 94.2886 136.152C94.2886 135.843 94.3153 135.613 94.3686 135.464C94.4113 135.315 94.502 135.24 94.6406 135.24H96.0806ZM98.4966 132.056C98.1233 132.056 97.846 132.179 97.6646 132.424C97.4833 132.659 97.3926 132.909 97.3926 133.176C97.3926 133.325 97.4086 133.469 97.4406 133.608C97.4833 133.736 97.574 133.869 97.7126 134.008C97.8513 134.147 98.0593 134.296 98.3366 134.456C98.614 134.616 98.998 134.797 99.4886 135C99.574 134.893 99.638 134.749 99.6806 134.568C99.734 134.376 99.7606 134.189 99.7606 134.008V133.592C99.7606 133.144 99.67 132.776 99.4886 132.488C99.3073 132.2 98.9766 132.056 98.4966 132.056ZM100.449 128.904H98.7846V127.336H100.449V128.904ZM98.1606 128.904H96.4966V127.336H98.1606V128.904ZM106.069 136.744C106.069 137.32 105.973 137.859 105.781 138.36C105.589 138.861 105.323 139.299 104.981 139.672C104.651 140.045 104.251 140.339 103.781 140.552C103.323 140.765 102.821 140.872 102.277 140.872H101.269L101.189 139.128H101.861C102.341 139.128 102.752 139.059 103.093 138.92C103.424 138.792 103.696 138.616 103.909 138.392C104.123 138.168 104.277 137.912 104.373 137.624C104.469 137.336 104.517 137.043 104.517 136.744V132.312H106.149V134.216C106.149 134.557 106.251 134.813 106.453 134.984C106.667 135.155 106.933 135.24 107.253 135.24H107.429C107.664 135.24 107.781 135.523 107.781 136.088C107.781 136.696 107.664 137 107.429 137H107.253C107.04 137 106.827 136.968 106.613 136.904C106.4 136.829 106.219 136.685 106.069 136.472V136.744ZM108.894 135.24C109.609 135.24 109.966 134.893 109.966 134.2V132.312H111.598V134.312C111.598 135.197 111.374 135.869 110.926 136.328C110.478 136.776 109.849 137 109.038 137H107.422C107.283 137 107.193 136.931 107.15 136.792C107.097 136.643 107.07 136.429 107.07 136.152C107.07 135.843 107.097 135.613 107.15 135.464C107.193 135.315 107.283 135.24 107.422 135.24H108.894ZM109.726 140.424H107.918V138.792H109.726V140.424ZM116.799 127.08H118.432V131.496C118.432 131.805 118.426 132.093 118.416 132.36C118.416 132.616 118.4 132.888 118.368 133.176C118.912 132.397 119.424 131.832 119.904 131.48C120.394 131.128 120.901 130.952 121.424 130.952C121.85 130.952 122.234 131.032 122.576 131.192C122.928 131.352 123.221 131.571 123.456 131.848C123.701 132.115 123.888 132.44 124.016 132.824C124.144 133.197 124.208 133.597 124.208 134.024C124.208 134.397 124.149 134.76 124.032 135.112C123.925 135.464 123.754 135.784 123.52 136.072C123.285 136.349 122.986 136.573 122.624 136.744C122.261 136.915 121.829 137 121.328 137H115.44L115.344 135.24H116.799V127.08ZM122.576 134.024C122.576 133.693 122.464 133.395 122.24 133.128C122.026 132.851 121.712 132.712 121.296 132.712C121.104 132.712 120.912 132.755 120.72 132.84C120.528 132.925 120.32 133.069 120.096 133.272C119.872 133.475 119.621 133.736 119.344 134.056C119.077 134.376 118.768 134.771 118.416 135.24H121.408C121.749 135.24 122.026 135.139 122.24 134.936C122.464 134.723 122.576 134.419 122.576 134.024ZM128.201 137C127.902 137 127.614 136.963 127.337 136.888C127.07 136.803 126.836 136.664 126.633 136.472C126.43 136.28 126.27 136.029 126.153 135.72C126.036 135.4 125.977 135.005 125.977 134.536V127.08H127.609V134.136C127.609 134.477 127.684 134.749 127.833 134.952C127.993 135.144 128.228 135.24 128.537 135.24H128.905C129.14 135.24 129.257 135.523 129.257 136.088C129.257 136.696 129.14 137 128.905 137H128.201ZM130.026 135.24C130.741 135.24 131.098 134.893 131.098 134.2V132.312H132.746V134.2C132.746 134.573 132.858 134.84 133.082 135C133.317 135.16 133.589 135.24 133.898 135.24H134.314C134.56 135.24 134.682 135.523 134.682 136.088C134.682 136.696 134.56 137 134.314 137H133.85C133.445 137 133.077 136.936 132.746 136.808C132.416 136.669 132.128 136.397 131.882 135.992C131.616 136.397 131.328 136.669 131.018 136.808C130.709 136.936 130.378 137 130.026 137H128.906C128.768 137 128.677 136.931 128.634 136.792C128.581 136.643 128.554 136.429 128.554 136.152C128.554 135.843 128.581 135.613 128.634 135.464C128.677 135.315 128.768 135.24 128.906 135.24H130.026ZM132.41 140.424H130.602V138.792H132.41V140.424ZM135.785 135.24C136.499 135.24 136.857 134.893 136.857 134.2V132.312H138.489V134.312C138.489 135.197 138.265 135.869 137.817 136.328C137.369 136.776 136.739 137 135.929 137H134.312C134.174 137 134.083 136.931 134.04 136.792C133.987 136.643 133.96 136.429 133.96 136.152C133.96 135.843 133.987 135.613 134.04 135.464C134.083 135.315 134.174 135.24 134.312 135.24H135.785ZM138.536 130.44H136.873V128.872H138.536V130.44ZM136.249 130.44H134.585V128.872H136.249V130.44ZM142.384 136.744C142.384 137.32 142.282 137.859 142.08 138.36C141.888 138.861 141.616 139.299 141.264 139.672C140.922 140.045 140.512 140.339 140.032 140.552C139.562 140.765 139.056 140.872 138.512 140.872H137.504L137.424 139.128H138.096C138.576 139.128 138.986 139.059 139.328 138.92C139.658 138.792 139.93 138.616 140.144 138.392C140.357 138.168 140.512 137.912 140.608 137.624C140.704 137.336 140.752 137.043 140.752 136.744V132.312H142.384V136.744ZM144.243 127.08H145.875V137H144.243V127.08ZM152.389 137C152.09 137 151.802 136.963 151.525 136.888C151.258 136.803 151.023 136.664 150.821 136.472C150.618 136.28 150.458 136.029 150.341 135.72C150.223 135.4 150.165 135.005 150.165 134.536V127.08H151.797V134.136C151.797 134.477 151.871 134.749 152.021 134.952C152.181 135.144 152.415 135.24 152.725 135.24H153.093C153.327 135.24 153.445 135.523 153.445 136.088C153.445 136.696 153.327 137 153.093 137H152.389ZM157.046 132.2C156.683 132.2 156.39 132.317 156.166 132.552C155.952 132.787 155.846 133.08 155.846 133.432C155.846 133.784 155.968 134.104 156.214 134.392C156.47 134.669 156.768 134.899 157.11 135.08C157.43 134.899 157.696 134.669 157.91 134.392C158.123 134.115 158.23 133.805 158.23 133.464C158.23 133.091 158.118 132.787 157.894 132.552C157.68 132.317 157.398 132.2 157.046 132.2ZM153.094 137C152.955 137 152.864 136.931 152.822 136.792C152.768 136.643 152.742 136.429 152.742 136.152C152.742 135.843 152.768 135.613 152.822 135.464C152.864 135.315 152.955 135.24 153.094 135.24H155.382C154.688 134.632 154.342 133.944 154.342 133.176C154.342 132.824 154.406 132.488 154.534 132.168C154.662 131.848 154.848 131.565 155.094 131.32C155.339 131.064 155.632 130.867 155.974 130.728C156.326 130.579 156.726 130.504 157.174 130.504C157.611 130.504 157.99 130.579 158.31 130.728C158.64 130.877 158.907 131.075 159.11 131.32C159.323 131.565 159.478 131.843 159.574 132.152C159.68 132.461 159.734 132.776 159.734 133.096C159.734 133.533 159.648 133.928 159.478 134.28C159.318 134.621 159.083 134.941 158.774 135.24H161.014C161.526 135.24 161.782 135.043 161.782 134.648C161.782 134.563 161.76 134.467 161.718 134.36C161.675 134.253 161.595 134.125 161.478 133.976L158.822 130.744L160.022 129.608L162.726 132.936C163.035 133.309 163.248 133.661 163.366 133.992C163.494 134.312 163.558 134.627 163.558 134.936C163.558 135.224 163.504 135.496 163.398 135.752C163.302 135.997 163.152 136.216 162.95 136.408C162.747 136.589 162.491 136.733 162.182 136.84C161.883 136.947 161.536 137 161.142 137H159.382C158.891 137 158.454 136.979 158.07 136.936C157.696 136.893 157.403 136.813 157.19 136.696C157.03 136.771 156.838 136.829 156.614 136.872C156.4 136.915 156.176 136.947 155.942 136.968C155.718 136.979 155.494 136.989 155.27 137C155.056 137 154.875 137 154.726 137H153.094ZM170.868 136.744C170.868 137.32 170.767 137.859 170.564 138.36C170.372 138.861 170.1 139.299 169.748 139.672C169.407 140.045 168.996 140.339 168.516 140.552C168.047 140.765 167.54 140.872 166.996 140.872H165.988L165.908 139.128H166.58C167.06 139.128 167.471 139.059 167.812 138.92C168.143 138.792 168.415 138.616 168.628 138.392C168.841 138.168 168.996 137.912 169.092 137.624C169.188 137.336 169.236 137.043 169.236 136.744V132.312H170.868V136.744ZM175.607 135.24C175.98 135.24 176.236 135.165 176.375 135.016C176.514 134.867 176.583 134.717 176.583 134.568C176.583 134.483 176.567 134.376 176.535 134.248C176.503 134.109 176.439 133.891 176.343 133.592C176.247 133.283 176.103 132.861 175.911 132.328C175.73 131.795 175.479 131.096 175.159 130.232L176.711 129.576L178.359 134.184C178.487 134.557 178.636 134.829 178.807 135C178.988 135.16 179.266 135.24 179.639 135.24H179.847C180.082 135.24 180.199 135.523 180.199 136.088C180.199 136.696 180.082 137 179.847 137H179.639C179.287 137 178.946 136.936 178.615 136.808C178.295 136.68 178.002 136.408 177.735 135.992C177.511 136.376 177.228 136.643 176.887 136.792C176.556 136.931 176.194 137 175.799 137H172.359L172.279 135.24H175.607ZM179.844 137C179.705 137 179.614 136.931 179.572 136.792C179.518 136.643 179.492 136.429 179.492 136.152C179.492 135.843 179.518 135.613 179.572 135.464C179.614 135.315 179.705 135.24 179.844 135.24H183.524C184.238 135.24 184.596 134.893 184.596 134.2V132.312H186.228V134.312C186.228 135.197 185.998 135.869 185.54 136.328C185.092 136.776 184.462 137 183.652 137H179.844ZM184.164 140.36H182.516V138.792H184.164V140.36ZM181.86 140.36H180.212V138.792H181.86V140.36ZM190.102 134.216C190.102 134.557 190.209 134.813 190.422 134.984C190.635 135.155 190.902 135.24 191.222 135.24H191.398C191.633 135.24 191.75 135.523 191.75 136.088C191.75 136.696 191.633 137 191.398 137H191.222C191.009 137 190.79 136.968 190.566 136.904C190.353 136.829 190.171 136.685 190.022 136.472V136.744C190.022 137.32 189.926 137.859 189.734 138.36C189.542 138.861 189.275 139.299 188.934 139.672C188.603 140.045 188.203 140.339 187.734 140.552C187.275 140.765 186.774 140.872 186.23 140.872H185.83L185.702 139.128H185.958C186.406 139.128 186.79 139.059 187.11 138.92C187.43 138.792 187.686 138.616 187.878 138.392C188.081 138.168 188.23 137.912 188.326 137.624C188.422 137.336 188.47 137.043 188.47 136.744V132.312H190.102V134.216ZM192.847 135.24C193.562 135.24 193.919 134.893 193.919 134.2V132.312H195.551V134.312C195.551 135.197 195.327 135.869 194.879 136.328C194.431 136.776 193.802 137 192.991 137H191.375C191.236 137 191.146 136.931 191.103 136.792C191.05 136.643 191.023 136.429 191.023 136.152C191.023 135.843 191.05 135.613 191.103 135.464C191.146 135.315 191.236 135.24 191.375 135.24H192.847ZM195.599 130.44H193.935V128.872H195.599V130.44ZM193.311 130.44H191.647V128.872H193.311V130.44ZM202.882 136.744C202.882 137.32 202.786 137.859 202.594 138.36C202.402 138.861 202.135 139.299 201.794 139.672C201.463 140.045 201.063 140.339 200.594 140.552C200.135 140.765 199.634 140.872 199.09 140.872H198.082L198.002 139.128H198.674C199.154 139.128 199.565 139.059 199.906 138.92C200.237 138.792 200.509 138.616 200.722 138.392C200.935 138.168 201.09 137.912 201.186 137.624C201.282 137.336 201.33 137.043 201.33 136.744V132.312H202.962V134.216C202.962 134.557 203.063 134.813 203.266 134.984C203.479 135.155 203.746 135.24 204.066 135.24H204.242C204.477 135.24 204.594 135.523 204.594 136.088C204.594 136.696 204.477 137 204.242 137H204.066C203.853 137 203.639 136.968 203.426 136.904C203.213 136.829 203.031 136.685 202.882 136.472V136.744ZM205.402 126.344L210.218 124.52L210.474 125.672L205.482 127.592L205.402 126.344ZM208.202 135.24C208.49 135.24 208.688 135.181 208.794 135.064C208.912 134.947 208.97 134.803 208.97 134.632C208.97 134.472 208.938 134.317 208.874 134.168C208.821 134.008 208.698 133.837 208.506 133.656L205.482 130.632V128.808L210.778 126.808L211.146 128.44L207.066 129.944L209.418 132.328C209.898 132.808 210.309 133.213 210.65 133.544C211.002 133.875 211.306 134.147 211.562 134.36C211.829 134.573 212.058 134.744 212.25 134.872C212.453 134.989 212.64 135.075 212.81 135.128C212.981 135.181 213.146 135.213 213.306 135.224C213.477 135.235 213.669 135.24 213.882 135.24C214.021 135.24 214.112 135.315 214.154 135.464C214.208 135.603 214.234 135.811 214.234 136.088C214.234 136.397 214.208 136.627 214.154 136.776C214.112 136.925 214.021 137 213.882 137C213.562 137 213.269 136.984 213.002 136.952C212.746 136.92 212.496 136.856 212.25 136.76C212.005 136.653 211.744 136.499 211.466 136.296C211.189 136.083 210.874 135.8 210.522 135.448C210.448 136.003 210.208 136.403 209.802 136.648C209.408 136.883 208.938 137 208.394 137H204.234C204.096 137 204.005 136.931 203.962 136.792C203.909 136.643 203.882 136.429 203.882 136.152C203.882 135.843 203.909 135.613 203.962 135.464C204.005 135.315 204.096 135.24 204.234 135.24H208.202ZM215.347 135.24C216.062 135.24 216.419 134.893 216.419 134.2V132.312H218.051V134.312C218.051 135.197 217.827 135.869 217.379 136.328C216.931 136.776 216.302 137 215.491 137H213.875C213.736 137 213.646 136.931 213.603 136.792C213.55 136.643 213.523 136.429 213.523 136.152C213.523 135.843 213.55 135.613 213.603 135.464C213.646 135.315 213.736 135.24 213.875 135.24H215.347ZM217.827 140.36H216.179V138.792H217.827V140.36ZM215.523 140.36H213.875V138.792H215.523V140.36ZM225.418 133C225.706 133.331 225.914 133.661 226.042 133.992C226.181 134.312 226.25 134.627 226.25 134.936C226.25 135.224 226.197 135.496 226.09 135.752C225.994 135.997 225.845 136.216 225.642 136.408C225.44 136.589 225.184 136.733 224.874 136.84C224.576 136.947 224.229 137 223.834 137H219.562L219.482 135.24H223.562C224.085 135.24 224.346 135.043 224.346 134.648C224.346 134.456 224.256 134.259 224.074 134.056L221.354 130.952L222.618 129.768L225.418 133ZM232.482 137C232.184 137 231.896 136.963 231.618 136.888C231.352 136.803 231.117 136.664 230.914 136.472C230.712 136.28 230.552 136.029 230.434 135.72C230.317 135.4 230.258 135.005 230.258 134.536V127.08H231.89V134.136C231.89 134.477 231.965 134.749 232.114 134.952C232.274 135.144 232.509 135.24 232.818 135.24H233.186C233.421 135.24 233.538 135.523 233.538 136.088C233.538 136.696 233.421 137 233.186 137H232.482ZM234.66 135.24C235.374 135.24 235.732 134.893 235.732 134.2V132.312H237.364V134.312C237.364 135.197 237.14 135.869 236.692 136.328C236.244 136.776 235.614 137 234.804 137H233.188C233.049 137 232.958 136.931 232.915 136.792C232.862 136.643 232.835 136.429 232.835 136.152C232.835 135.843 232.862 135.613 232.915 135.464C232.958 135.315 233.049 135.24 233.188 135.24H234.66ZM235.492 140.424H233.684V138.792H235.492V140.424ZM246.453 139.128C246.922 139.128 247.312 139.096 247.621 139.032C247.941 138.968 248.192 138.877 248.373 138.76C248.565 138.643 248.698 138.499 248.773 138.328C248.858 138.168 248.901 137.992 248.901 137.8C248.901 137.587 248.842 137.4 248.725 137.24C248.608 137.08 248.41 137 248.133 137H245.829L245.925 135.24H251.477C251.712 135.24 251.829 135.523 251.829 136.088C251.829 136.696 251.712 137 251.477 137H250.101C250.24 137.107 250.33 137.245 250.373 137.416C250.426 137.587 250.453 137.795 250.453 138.04C250.453 138.328 250.389 138.637 250.261 138.968C250.133 139.299 249.92 139.603 249.621 139.88C249.333 140.168 248.944 140.403 248.453 140.584C247.973 140.776 247.381 140.872 246.677 140.872H244.981C243.786 140.872 242.858 140.504 242.197 139.768C241.536 139.032 241.205 138.024 241.205 136.744V133.88H242.821V136.68C242.821 137.053 242.864 137.389 242.949 137.688C243.034 137.987 243.168 138.243 243.349 138.456C243.541 138.669 243.786 138.835 244.085 138.952C244.394 139.069 244.768 139.128 245.205 139.128H246.453ZM252.956 135.24C253.671 135.24 254.028 134.893 254.028 134.2V132.312H255.66V134.312C255.66 135.197 255.436 135.869 254.988 136.328C254.54 136.776 253.911 137 253.1 137H251.484C251.346 137 251.255 136.931 251.212 136.792C251.159 136.643 251.132 136.429 251.132 136.152C251.132 135.843 251.159 135.613 251.212 135.464C251.255 135.315 251.346 135.24 251.484 135.24H252.956ZM255.436 140.36H253.788V138.792H255.436V140.36ZM253.132 140.36H251.484V138.792H253.132V140.36ZM258.82 139.128C259.225 139.128 259.572 139.069 259.86 138.952C260.158 138.845 260.404 138.696 260.596 138.504C260.788 138.312 260.937 138.083 261.044 137.816C261.15 137.56 261.214 137.288 261.236 137H260.148C259.593 137 259.14 136.941 258.788 136.824C258.436 136.707 258.158 136.536 257.956 136.312C257.753 136.077 257.609 135.795 257.524 135.464C257.449 135.133 257.412 134.76 257.412 134.344C257.412 133.928 257.47 133.539 257.588 133.176C257.705 132.803 257.876 132.477 258.1 132.2C258.334 131.923 258.622 131.704 258.964 131.544C259.305 131.373 259.7 131.288 260.148 131.288C260.51 131.288 260.852 131.347 261.172 131.464C261.502 131.581 261.79 131.768 262.036 132.024C262.281 132.28 262.473 132.611 262.612 133.016C262.761 133.421 262.836 133.917 262.836 134.504V135.24H264.132C264.366 135.24 264.484 135.523 264.484 136.088C264.484 136.696 264.366 137 264.132 137H262.804C262.782 137.523 262.676 138.019 262.484 138.488C262.292 138.957 262.025 139.368 261.684 139.72C261.353 140.072 260.953 140.349 260.484 140.552C260.014 140.765 259.486 140.872 258.9 140.872H257.284L257.188 139.128H258.82ZM258.98 134.232C258.98 134.605 259.06 134.867 259.22 135.016C259.39 135.165 259.721 135.24 260.212 135.24H261.268V134.488C261.268 133.933 261.161 133.544 260.948 133.32C260.745 133.096 260.457 132.984 260.084 132.984C259.732 132.984 259.46 133.091 259.268 133.304C259.076 133.517 258.98 133.827 258.98 134.232ZM265.245 135.24C265.96 135.24 266.317 134.893 266.317 134.2V132.312H267.965V134.2C267.965 134.573 268.077 134.84 268.301 135C268.536 135.16 268.808 135.24 269.117 135.24H269.533C269.778 135.24 269.901 135.523 269.901 136.088C269.901 136.696 269.778 137 269.533 137H269.069C268.664 137 268.296 136.936 267.965 136.808C267.634 136.669 267.346 136.397 267.101 135.992C266.834 136.397 266.546 136.669 266.237 136.808C265.928 136.936 265.597 137 265.245 137H264.125C263.986 137 263.896 136.931 263.853 136.792C263.8 136.643 263.773 136.429 263.773 136.152C263.773 135.843 263.8 135.613 263.853 135.464C263.896 135.315 263.986 135.24 264.125 135.24H265.245ZM268.909 130.44H267.245V128.872H268.909V130.44ZM266.621 130.44H264.957V128.872H266.621V130.44ZM270.651 135.24C271.366 135.24 271.723 134.893 271.723 134.2V132.312H273.371V134.2C273.371 134.573 273.483 134.84 273.707 135C273.942 135.16 274.214 135.24 274.523 135.24H274.939C275.185 135.24 275.307 135.523 275.307 136.088C275.307 136.696 275.185 137 274.939 137H274.475C274.07 137 273.702 136.936 273.371 136.808C273.041 136.669 272.753 136.397 272.507 135.992C272.241 136.397 271.953 136.669 271.643 136.808C271.334 136.936 271.003 137 270.651 137H269.531C269.393 137 269.302 136.931 269.259 136.792C269.206 136.643 269.179 136.429 269.179 136.152C269.179 135.843 269.206 135.613 269.259 135.464C269.302 135.315 269.393 135.24 269.531 135.24H270.651ZM272.859 142.6H271.163V141.032H272.859V142.6ZM273.979 140.36H272.315V138.792H273.979V140.36ZM271.691 140.36H270.027V138.792H271.691V140.36ZM274.938 137C274.799 137 274.708 136.931 274.665 136.792C274.612 136.643 274.585 136.429 274.585 136.152C274.585 135.843 274.612 135.613 274.665 135.464C274.708 135.315 274.799 135.24 274.938 135.24H278.618C279.332 135.24 279.69 134.893 279.69 134.2V132.312H281.322V134.312C281.322 135.197 281.092 135.869 280.634 136.328C280.186 136.776 279.556 137 278.746 137H274.938ZM279.258 140.36H277.61V138.792H279.258V140.36ZM276.954 140.36H275.306V138.792H276.954V140.36ZM285.196 134.216C285.196 134.557 285.303 134.813 285.516 134.984C285.729 135.155 285.996 135.24 286.316 135.24H286.492C286.727 135.24 286.844 135.523 286.844 136.088C286.844 136.696 286.727 137 286.492 137H286.316C286.103 137 285.884 136.968 285.66 136.904C285.447 136.829 285.265 136.685 285.116 136.472V136.744C285.116 137.32 285.02 137.859 284.828 138.36C284.636 138.861 284.369 139.299 284.028 139.672C283.697 140.045 283.297 140.339 282.828 140.552C282.369 140.765 281.868 140.872 281.324 140.872H280.924L280.796 139.128H281.052C281.5 139.128 281.884 139.059 282.204 138.92C282.524 138.792 282.78 138.616 282.972 138.392C283.175 138.168 283.324 137.912 283.42 137.624C283.516 137.336 283.564 137.043 283.564 136.744V132.312H285.196V134.216ZM290.437 135.24C290.725 135.24 290.922 135.181 291.029 135.064C291.146 134.947 291.205 134.803 291.205 134.632C291.205 134.472 291.173 134.317 291.109 134.168C291.055 134.008 290.933 133.837 290.741 133.656L287.717 130.632V128.808L293.013 126.808L293.381 128.44L289.301 129.944L291.653 132.328C292.133 132.808 292.543 133.213 292.885 133.544C293.237 133.875 293.541 134.147 293.797 134.36C294.063 134.573 294.293 134.744 294.485 134.872C294.687 134.989 294.874 135.075 295.045 135.128C295.215 135.181 295.381 135.213 295.541 135.224C295.711 135.235 295.903 135.24 296.117 135.24C296.255 135.24 296.346 135.315 296.389 135.464C296.442 135.603 296.469 135.811 296.469 136.088C296.469 136.397 296.442 136.627 296.389 136.776C296.346 136.925 296.255 137 296.117 137C295.797 137 295.503 136.984 295.237 136.952C294.981 136.92 294.73 136.856 294.485 136.76C294.239 136.653 293.978 136.499 293.701 136.296C293.423 136.083 293.109 135.8 292.757 135.448C292.682 136.003 292.442 136.403 292.037 136.648C291.642 136.883 291.173 137 290.629 137H286.469C286.33 137 286.239 136.931 286.197 136.792C286.143 136.643 286.117 136.429 286.117 136.152C286.117 135.843 286.143 135.613 286.197 135.464C286.239 135.315 286.33 135.24 286.469 135.24H290.437ZM296.813 135.24C297.549 135.24 297.917 134.893 297.917 134.2V132.312H299.533V134.2C299.533 134.573 299.645 134.84 299.869 135C300.104 135.16 300.371 135.24 300.669 135.24C301.469 135.24 301.869 134.893 301.869 134.2V132.312H303.501V134.2C303.501 134.573 303.597 134.84 303.789 135C303.992 135.16 304.227 135.24 304.493 135.24C305.165 135.24 305.501 134.893 305.501 134.2V132.312H307.133V134.2C307.133 134.573 307.245 134.84 307.469 135C307.704 135.16 307.965 135.24 308.253 135.24H308.621C308.76 135.24 308.851 135.315 308.893 135.464C308.947 135.603 308.973 135.811 308.973 136.088C308.973 136.397 308.947 136.627 308.893 136.776C308.851 136.925 308.76 137 308.621 137H308.253C307.848 137 307.475 136.936 307.133 136.808C306.803 136.669 306.515 136.397 306.269 135.992C306.013 136.397 305.72 136.669 305.389 136.808C305.069 136.936 304.771 137 304.493 137C304.12 137 303.779 136.936 303.469 136.808C303.171 136.669 302.899 136.397 302.653 135.992C302.397 136.397 302.093 136.669 301.741 136.808C301.4 136.936 301.043 137 300.669 137C300.264 137 299.891 136.936 299.549 136.808C299.219 136.669 298.931 136.397 298.685 135.992C298.429 136.397 298.141 136.669 297.821 136.808C297.501 136.936 297.16 137 296.797 137H296.109C295.971 137 295.88 136.931 295.837 136.792C295.784 136.643 295.757 136.429 295.757 136.152C295.757 135.843 295.784 135.613 295.837 135.464C295.88 135.315 295.971 135.24 296.109 135.24H296.813ZM312.593 135.24C312.881 135.24 313.078 135.181 313.185 135.064C313.302 134.947 313.361 134.803 313.361 134.632C313.361 134.472 313.329 134.317 313.265 134.168C313.212 134.008 313.089 133.837 312.897 133.656L309.873 130.632V128.808L315.169 126.808L315.537 128.44L311.457 129.944L313.809 132.328C314.076 132.595 314.294 132.84 314.465 133.064C314.636 133.277 314.769 133.485 314.865 133.688C314.961 133.88 315.025 134.077 315.057 134.28C315.1 134.472 315.121 134.675 315.121 134.888C315.121 135.261 315.057 135.581 314.929 135.848C314.812 136.115 314.646 136.333 314.433 136.504C314.23 136.675 313.985 136.803 313.697 136.888C313.42 136.963 313.116 137 312.785 137H308.625C308.486 137 308.396 136.931 308.353 136.792C308.3 136.643 308.273 136.429 308.273 136.152C308.273 135.843 308.3 135.613 308.353 135.464C308.396 135.315 308.486 135.24 308.625 135.24H312.593ZM316.993 127.08H318.625V137H316.993V127.08ZM327.891 139.128C328.36 139.128 328.749 139.096 329.059 139.032C329.379 138.968 329.629 138.877 329.811 138.76C330.003 138.643 330.136 138.499 330.211 138.328C330.296 138.168 330.339 137.992 330.339 137.8C330.339 137.587 330.28 137.4 330.163 137.24C330.045 137.08 329.848 137 329.571 137H327.267L327.363 135.24H332.915C333.149 135.24 333.267 135.523 333.267 136.088C333.267 136.696 333.149 137 332.915 137H331.539C331.677 137.107 331.768 137.245 331.811 137.416C331.864 137.587 331.891 137.795 331.891 138.04C331.891 138.328 331.827 138.637 331.699 138.968C331.571 139.299 331.357 139.603 331.059 139.88C330.771 140.168 330.381 140.403 329.891 140.584C329.411 140.776 328.819 140.872 328.115 140.872H326.419C325.224 140.872 324.296 140.504 323.635 139.768C322.973 139.032 322.643 138.024 322.643 136.744V133.88H324.259V136.68C324.259 137.053 324.301 137.389 324.387 137.688C324.472 137.987 324.605 138.243 324.787 138.456C324.979 138.669 325.224 138.835 325.523 138.952C325.832 139.069 326.205 139.128 326.643 139.128H327.891ZM334.57 135.24C334.421 135.016 334.314 134.781 334.25 134.536C334.197 134.291 334.17 134.072 334.17 133.88C334.17 133.464 334.239 133.075 334.378 132.712C334.517 132.349 334.714 132.035 334.97 131.768C335.226 131.501 335.53 131.293 335.882 131.144C336.245 130.984 336.639 130.904 337.066 130.904C337.461 130.904 337.834 130.968 338.186 131.096C338.538 131.213 338.917 131.405 339.322 131.672L338.618 133.08C338.298 132.931 338.021 132.824 337.786 132.76C337.551 132.696 337.311 132.664 337.066 132.664C336.682 132.664 336.373 132.792 336.138 133.048C335.914 133.293 335.802 133.576 335.802 133.896C335.802 134.301 335.935 134.627 336.202 134.872C336.479 135.117 336.81 135.24 337.194 135.24H339.658L339.578 137H332.922C332.783 137 332.693 136.931 332.65 136.792C332.597 136.643 332.57 136.429 332.57 136.152C332.57 135.843 332.597 135.613 332.65 135.464C332.693 135.315 332.783 135.24 332.922 135.24H334.57ZM343.639 137C343.34 137 343.052 136.963 342.775 136.888C342.508 136.803 342.273 136.664 342.071 136.472C341.868 136.28 341.708 136.029 341.591 135.72C341.473 135.4 341.415 135.005 341.415 134.536V127.08H343.047V134.136C343.047 134.477 343.121 134.749 343.271 134.952C343.431 135.144 343.665 135.24 343.975 135.24H344.343C344.577 135.24 344.695 135.523 344.695 136.088C344.695 136.696 344.577 137 344.343 137H343.639ZM344.488 135.24C344.85 135.24 345.133 135.171 345.336 135.032C345.538 134.883 345.64 134.643 345.64 134.312V133.96C345.64 133.533 345.698 133.139 345.816 132.776C345.944 132.413 346.125 132.104 346.36 131.848C346.594 131.592 346.877 131.395 347.208 131.256C347.549 131.107 347.928 131.032 348.344 131.032C348.781 131.032 349.165 131.107 349.496 131.256C349.837 131.395 350.12 131.597 350.344 131.864C350.568 132.12 350.738 132.424 350.856 132.776C350.973 133.128 351.032 133.512 351.032 133.928V134.232C351.032 134.616 351.144 134.883 351.368 135.032C351.602 135.171 351.848 135.24 352.104 135.24H352.328C352.466 135.24 352.557 135.315 352.6 135.464C352.653 135.603 352.68 135.811 352.68 136.088C352.68 136.397 352.653 136.627 352.6 136.776C352.557 136.925 352.466 137 352.328 137H352.104C351.794 137 351.48 136.936 351.16 136.808C350.84 136.669 350.562 136.381 350.328 135.944C350.04 136.381 349.714 136.669 349.352 136.808C349 136.936 348.637 137 348.264 137C347.837 137 347.437 136.92 347.064 136.76C346.701 136.589 346.418 136.323 346.216 135.96C346.013 136.376 345.752 136.653 345.432 136.792C345.112 136.931 344.797 137 344.488 137H344.344C344.205 137 344.114 136.931 344.072 136.792C344.018 136.643 343.992 136.429 343.992 136.152C343.992 135.843 344.018 135.613 344.072 135.464C344.114 135.315 344.205 135.24 344.344 135.24H344.488ZM349.464 134.088C349.464 133.725 349.378 133.421 349.208 133.176C349.048 132.931 348.754 132.808 348.328 132.808C347.922 132.808 347.629 132.931 347.448 133.176C347.277 133.411 347.192 133.72 347.192 134.104C347.192 134.477 347.293 134.76 347.496 134.952C347.698 135.144 347.976 135.24 348.328 135.24C349.085 135.24 349.464 134.856 349.464 134.088ZM353.448 135.24C354.163 135.24 354.52 134.893 354.52 134.2V132.312H356.168V134.2C356.168 134.573 356.28 134.84 356.504 135C356.739 135.16 357.011 135.24 357.32 135.24H357.736C357.981 135.24 358.104 135.523 358.104 136.088C358.104 136.696 357.981 137 357.736 137H357.272C356.867 137 356.499 136.936 356.168 136.808C355.837 136.669 355.549 136.397 355.304 135.992C355.037 136.397 354.749 136.669 354.44 136.808C354.131 136.936 353.8 137 353.448 137H352.328C352.189 137 352.099 136.931 352.056 136.792C352.003 136.643 351.976 136.429 351.976 136.152C351.976 135.843 352.003 135.613 352.056 135.464C352.099 135.315 352.189 135.24 352.328 135.24H353.448ZM357.112 130.44H355.448V128.872H357.112V130.44ZM354.824 130.44H353.16V128.872H354.824V130.44ZM362.326 136.104C362.038 136.275 361.756 136.419 361.478 136.536C361.201 136.643 360.908 136.733 360.598 136.808C360.289 136.872 359.948 136.92 359.574 136.952C359.212 136.984 358.79 137 358.31 137H357.734C357.596 137 357.505 136.931 357.462 136.792C357.409 136.643 357.382 136.429 357.382 136.152C357.382 135.843 357.409 135.613 357.462 135.464C357.505 135.315 357.596 135.24 357.734 135.24H358.374C358.769 135.24 359.126 135.235 359.446 135.224C359.766 135.203 360.054 135.171 360.31 135.128C360.577 135.085 360.828 135.027 361.062 134.952C361.297 134.867 361.532 134.755 361.766 134.616L363.798 133.448C363.724 133.309 363.649 133.187 363.574 133.08C363.51 132.973 363.425 132.888 363.318 132.824C363.222 132.749 363.1 132.696 362.95 132.664C362.801 132.621 362.609 132.6 362.374 132.6H358.982L359.078 130.84H362.63C362.929 130.84 363.222 130.883 363.51 130.968C363.809 131.053 364.086 131.219 364.342 131.464C364.609 131.699 364.849 132.035 365.062 132.472C365.286 132.899 365.473 133.464 365.622 134.168L362.326 136.104ZM362.566 140.424H360.758V138.792H362.566V140.424ZM367.337 127.08H368.969V137H367.337V127.08Z" fill="white" fill-opacity="0.8"/>
<path d="M362.955 41.5236V31.4591C362.938 31.069 362.729 30.7127 362.396 30.5085C362.078 30.3132 361.696 30.2527 361.334 30.3408L339.136 39.1752H328.177C326.11 39.216 324.228 40.3711 323.256 42.1946L322.25 42.586C319.701 43.469 317.995 45.872 318 48.5688C317.984 51.256 319.699 53.6484 322.25 54.4957L322.92 54.7752C323.437 56.1126 324.434 57.2092 325.716 57.8506L328.68 68.586C329.475 71.5061 332.486 73.2287 335.406 72.4337C336.584 72.1131 337.621 71.4084 338.353 70.4312C339.368 69.0269 339.696 67.2402 339.247 65.5667L337.235 58.1861H339.136L361.333 67.1882L361.725 67.3001C361.959 67.3037 362.191 67.2459 362.396 67.1324C362.728 66.9543 362.94 66.6139 362.955 66.2377V55.6141C366.846 55.614 370 52.4597 370 48.5687C370 44.6778 366.846 41.5238 362.955 41.5236ZM322.697 52.2591C321.203 51.6612 320.257 50.1756 320.349 48.5688C320.257 46.9619 321.203 45.4763 322.697 44.8784V52.2591ZM336.564 69.0334C335.948 69.8626 334.968 70.3419 333.936 70.3194C332.465 70.2744 331.196 69.277 330.804 67.8591L328.177 58.186H334.942L337.067 66.1258C337.357 67.1207 337.171 68.1939 336.564 69.0334ZM338.353 55.9494H328.177C326.481 56.0424 325.03 54.7429 324.937 53.047C324.933 52.9708 324.932 52.8945 324.933 52.8182V44.8784C324.871 43.0267 326.321 41.4746 328.173 41.4118C328.174 41.4118 328.175 41.4117 328.177 41.4117H338.353V55.9494ZM360.718 64.5603L340.589 56.5086V41.1881L360.718 33.1365V64.5603ZM362.955 53.3774V43.7602C365.611 43.7603 367.764 45.9133 367.763 48.5691C367.763 51.2245 365.611 53.3773 362.955 53.3774Z" fill="#F5E427"/>
</svg>
